0
SECTION
2
ENTITIES
0
LINE
8
FFab
62
5
10
144.988519
20
-94.557976
11
152.488519
21
-94.557976
0
LINE
8
FFab
62
5
10
139.838519
20
-95.857976
11
144.988519
21
-95.857976
0
LINE
8
FFab
62
5
10
144.988519
20
-95.857976
11
152.488519
21
-95.857976
0
LINE
8
FFab
62
5
10
152.498519
20
-95.857976
11
157.638519
21
-95.857976
0
LINE
8
FFab
62
5
10
152.488519
20
-94.557976
11
152.488519
21
-95.857976
0
LINE
8
FFab
62
5
10
157.638519
20
-128.907976
11
139.838519
21
-128.907976
0
LINE
8
FFab
62
5
10
144.988519
20
-94.557976
11
144.988519
21
-95.858937
0
LINE
8
FFab
62
5
10
157.638519
20
-95.857976
11
157.638519
21
-128.907976
0
LINE
8
FFab
62
5
10
139.838519
20
-128.907976
11
139.838519
21
-95.857976
0
LINE
8
Eco2
62
4
10
193.157624
20
-72.486262
11
193.157624
21
-58.686262
0
LINE
8
Eco2
62
4
10
206.957624
20
-58.686262
11
206.957624
21
-72.486262
0
LINE
8
Eco2
62
4
10
202.657624
20
-62.486262
11
202.657624
21
-59.286262
0
LINE
8
Eco2
62
4
10
202.657624
20
-59.286262
11
197.457624
21
-59.286262
0
LINE
8
Eco2
62
4
10
197.457624
20
-62.486262
11
197.457624
21
-59.286262
0
LINE
8
Eco2
62
4
10
197.457624
20
-62.486262
11
202.657624
21
-62.486262
0
LINE
8
Eco2
62
4
10
193.157624
20
-72.486262
11
206.957624
21
-72.486262
0
LINE
8
Eco2
62
4
10
206.957624
20
-58.686262
11
193.157624
21
-58.686262
0
LINE
8
BFab
62
6
10
198.557624
20
-57.386262
11
201.557624
21
-57.386262
0
LINE
8
BFab
62
6
10
195.557624
20
-60.836262
11
195.557624
21
-58.336262
0
LINE
8
BFab
62
6
10
207.057624
20
-60.586262
11
209.557624
21
-60.586262
0
LINE
8
BFab
62
6
10
198.057624
20
-61.386262
11
198.557624
21
-61.886262
0
LINE
8
BFab
62
6
10
198.557624
20
-61.886262
11
201.057624
21
-61.886262
0
LINE
8
BFab
62
6
10
198.057624
20
-61.336262
11
198.057624
21
-57.886262
0
LINE
8
BFab
62
6
10
207.057624
20
-59.386262
11
202.557624
21
-59.386262
0
LINE
8
BFab
62
6
10
209.557624
20
-60.586262
11
209.557624
21
-63.086262
0
LINE
8
BFab
62
6
10
207.057624
20
-64.086262
11
207.057624
21
-59.386262
0
LINE
8
BFab
62
6
10
198.057624
20
-60.836262
11
195.557624
21
-60.836262
0
LINE
8
BFab
62
6
10
201.557624
20
-57.386262
11
202.057624
21
-57.886262
0
LINE
8
BFab
62
6
10
202.057624
20
-58.886262
11
202.057624
21
-57.886262
0
LINE
8
BFab
62
6
10
195.557624
20
-58.336262
11
198.057624
21
-58.336262
0
LINE
8
BFab
62
6
10
198.057624
20
-57.886262
11
198.557624
21
-57.386262
0
LINE
8
BFab
62
6
10
202.557624
20
-64.086262
11
207.057624
21
-64.086262
0
LINE
8
BFab
62
6
10
202.557624
20
-63.386262
11
202.557624
21
-64.086262
0
LINE
8
BFab
62
6
10
209.557624
20
-63.086262
11
207.057624
21
-63.086262
0
ARC
8
BFab
62
6
10
201.057624
20
-63.386262
30
0
40
1.5
50
0.0
51
90.0
0
ARC
8
BFab
62
6
10
202.557624
20
-58.886262
30
0
40
0.5
50
180.0
51
270.0
0
LINE
8
FFab
62
5
10
207.557624
20
-73.086262
11
192.557624
21
-73.086262
0
LINE
8
FFab
62
5
10
192.557624
20
-73.086262
11
192.557624
21
-58.086262
0
LINE
8
FFab
62
5
10
207.557624
20
-58.086262
11
207.557624
21
-73.086262
0
LINE
8
FFab
62
5
10
192.557624
20
-58.086262
11
207.557624
21
-58.086262
0
CIRCLE
8
Cmts
62
1
10
201.4
20
-123.4
40
2.2
0
CIRCLE
8
FCrtYd
62
7
10
201.4
20
-123.4
40
2.45
0
CIRCLE
8
Cmts
62
1
10
57.2
20
-79.0
40
2.2
0
CIRCLE
8
FCrtYd
62
7
10
57.2
20
-79.0
40
2.45
0
LINE
8
Eco2
62
4
10
167.788867
20
-84.044674
11
167.788867
21
-80.844674
0
LINE
8
Eco2
62
4
10
177.288867
20
-80.244674
11
177.288867
21
-94.044674
0
LINE
8
Eco2
62
4
10
163.488867
20
-94.044674
11
177.288867
21
-94.044674
0
LINE
8
Eco2
62
4
10
172.988867
20
-84.044674
11
172.988867
21
-80.844674
0
LINE
8
Eco2
62
4
10
177.288867
20
-80.244674
11
163.488867
21
-80.244674
0
LINE
8
Eco2
62
4
10
167.788867
20
-84.044674
11
172.988867
21
-84.044674
0
LINE
8
Eco2
62
4
10
163.488867
20
-94.044674
11
163.488867
21
-80.244674
0
LINE
8
Eco2
62
4
10
172.988867
20
-80.844674
11
167.788867
21
-80.844674
0
LINE
8
BFab
62
6
10
171.888867
20
-78.944674
11
172.388867
21
-79.444674
0
LINE
8
BFab
62
6
10
172.388867
20
-80.444674
11
172.388867
21
-79.444674
0
LINE
8
BFab
62
6
10
168.388867
20
-82.894674
11
168.388867
21
-79.444674
0
LINE
8
BFab
62
6
10
177.388867
20
-80.944674
11
172.888867
21
-80.944674
0
LINE
8
BFab
62
6
10
177.388867
20
-82.144674
11
179.888867
21
-82.144674
0
LINE
8
BFab
62
6
10
165.888867
20
-82.394674
11
165.888867
21
-79.894674
0
LINE
8
BFab
62
6
10
168.388867
20
-82.944674
11
168.888867
21
-83.444674
0
LINE
8
BFab
62
6
10
177.388867
20
-85.644674
11
177.388867
21
-80.944674
0
LINE
8
BFab
62
6
10
168.888867
20
-83.444674
11
171.388867
21
-83.444674
0
LINE
8
BFab
62
6
10
168.888867
20
-78.944674
11
171.888867
21
-78.944674
0
LINE
8
BFab
62
6
10
165.888867
20
-79.894674
11
168.388867
21
-79.894674
0
LINE
8
BFab
62
6
10
172.888867
20
-84.944674
11
172.888867
21
-85.644674
0
LINE
8
BFab
62
6
10
168.388867
20
-79.444674
11
168.888867
21
-78.944674
0
LINE
8
BFab
62
6
10
179.888867
20
-82.144674
11
179.888867
21
-84.644674
0
LINE
8
BFab
62
6
10
179.888867
20
-84.644674
11
177.388867
21
-84.644674
0
LINE
8
BFab
62
6
10
168.388867
20
-82.394674
11
165.888867
21
-82.394674
0
LINE
8
BFab
62
6
10
172.888867
20
-85.644674
11
177.388867
21
-85.644674
0
ARC
8
BFab
62
6
10
171.388867
20
-84.944674
30
0
40
1.5
50
0.0
51
90.0
0
ARC
8
BFab
62
6
10
172.888867
20
-80.444674
30
0
40
0.5
50
180.0
51
270.0
0
LINE
8
FFab
62
5
10
162.888867
20
-94.644674
11
162.888867
21
-79.644674
0
LINE
8
FFab
62
5
10
162.888867
20
-79.644674
11
177.888867
21
-79.644674
0
LINE
8
FFab
62
5
10
177.888867
20
-79.644674
11
177.888867
21
-94.644674
0
LINE
8
FFab
62
5
10
177.888867
20
-94.644674
11
162.888867
21
-94.644674
0
CIRCLE
8
Cmts
62
1
10
240.5
20
-78.9
40
2.2
0
CIRCLE
8
FCrtYd
62
7
10
240.5
20
-78.9
40
2.45
0
LINE
8
Eco2
62
4
10
221.929491
20
-58.023291
11
216.729491
21
-58.023291
0
LINE
8
Eco2
62
4
10
226.229491
20
-57.423291
11
226.229491
21
-71.223291
0
LINE
8
Eco2
62
4
10
216.729491
20
-61.223291
11
221.929491
21
-61.223291
0
LINE
8
Eco2
62
4
10
212.429491
20
-71.223291
11
226.229491
21
-71.223291
0
LINE
8
Eco2
62
4
10
212.429491
20
-71.223291
11
212.429491
21
-57.423291
0
LINE
8
Eco2
62
4
10
216.729491
20
-61.223291
11
216.729491
21
-58.023291
0
LINE
8
Eco2
62
4
10
221.929491
20
-61.223291
11
221.929491
21
-58.023291
0
LINE
8
Eco2
62
4
10
226.229491
20
-57.423291
11
212.429491
21
-57.423291
0
LINE
8
BFab
62
6
10
226.329491
20
-59.323291
11
228.829491
21
-59.323291
0
LINE
8
BFab
62
6
10
226.329491
20
-58.123291
11
221.829491
21
-58.123291
0
LINE
8
BFab
62
6
10
221.329491
20
-57.623291
11
221.329491
21
-56.623291
0
LINE
8
BFab
62
6
10
217.829491
20
-60.623291
11
220.329491
21
-60.623291
0
LINE
8
BFab
62
6
10
214.829491
20
-59.573291
11
214.829491
21
-57.073291
0
LINE
8
BFab
62
6
10
217.329491
20
-56.623291
11
217.829491
21
-56.123291
0
LINE
8
BFab
62
6
10
217.329491
20
-60.123291
11
217.829491
21
-60.623291
0
LINE
8
BFab
62
6
10
217.329491
20
-60.073291
11
217.329491
21
-56.623291
0
LINE
8
BFab
62
6
10
228.829491
20
-59.323291
11
228.829491
21
-61.823291
0
LINE
8
BFab
62
6
10
226.329491
20
-62.823291
11
226.329491
21
-58.123291
0
LINE
8
BFab
62
6
10
221.829491
20
-62.123291
11
221.829491
21
-62.823291
0
LINE
8
BFab
62
6
10
214.829491
20
-57.073291
11
217.329491
21
-57.073291
0
LINE
8
BFab
62
6
10
217.329491
20
-59.573291
11
214.829491
21
-59.573291
0
LINE
8
BFab
62
6
10
220.829491
20
-56.123291
11
221.329491
21
-56.623291
0
LINE
8
BFab
62
6
10
217.829491
20
-56.123291
11
220.829491
21
-56.123291
0
LINE
8
BFab
62
6
10
221.829491
20
-62.823291
11
226.329491
21
-62.823291
0
LINE
8
BFab
62
6
10
228.829491
20
-61.823291
11
226.329491
21
-61.823291
0
ARC
8
BFab
62
6
10
220.329491
20
-62.123291
30
0
40
1.5
50
0.0
51
90.0
0
ARC
8
BFab
62
6
10
221.829491
20
-57.623291
30
0
40
0.5
50
180.0
51
270.0
0
LINE
8
FFab
62
5
10
211.829491
20
-56.823291
11
226.829491
21
-56.823291
0
LINE
8
FFab
62
5
10
226.829491
20
-71.823291
11
211.829491
21
-71.823291
0
LINE
8
FFab
62
5
10
226.829491
20
-56.823291
11
226.829491
21
-71.823291
0
LINE
8
FFab
62
5
10
211.829491
20
-71.823291
11
211.829491
21
-56.823291
0
LINE
8
Eco2
62
4
10
262.383918
20
-93.167652
11
262.383918
21
-79.367652
0
LINE
8
Eco2
62
4
10
271.883918
20
-83.167652
11
271.883918
21
-79.967652
0
LINE
8
Eco2
62
4
10
262.383918
20
-93.167652
11
276.183918
21
-93.167652
0
LINE
8
Eco2
62
4
10
276.183918
20
-79.367652
11
276.183918
21
-93.167652
0
LINE
8
Eco2
62
4
10
266.683918
20
-83.167652
11
266.683918
21
-79.967652
0
LINE
8
Eco2
62
4
10
276.183918
20
-79.367652
11
262.383918
21
-79.367652
0
LINE
8
Eco2
62
4
10
271.883918
20
-79.967652
11
266.683918
21
-79.967652
0
LINE
8
Eco2
62
4
10
266.683918
20
-83.167652
11
271.883918
21
-83.167652
0
LINE
8
BFab
62
6
10
267.783918
20
-78.067652
11
270.783918
21
-78.067652
0
LINE
8
BFab
62
6
10
271.783918
20
-84.067652
11
271.783918
21
-84.767652
0
LINE
8
BFab
62
6
10
271.283918
20
-79.567652
11
271.283918
21
-78.567652
0
LINE
8
BFab
62
6
10
267.283918
20
-82.017652
11
267.283918
21
-78.567652
0
LINE
8
BFab
62
6
10
267.283918
20
-82.067652
11
267.783918
21
-82.567652
0
LINE
8
BFab
62
6
10
267.283918
20
-78.567652
11
267.783918
21
-78.067652
0
LINE
8
BFab
62
6
10
276.283918
20
-84.767652
11
276.283918
21
-80.067652
0
LINE
8
BFab
62
6
10
264.783918
20
-79.017652
11
267.283918
21
-79.017652
0
LINE
8
BFab
62
6
10
270.783918
20
-78.067652
11
271.283918
21
-78.567652
0
LINE
8
BFab
62
6
10
271.783918
20
-84.767652
11
276.283918
21
-84.767652
0
LINE
8
BFab
62
6
10
276.283918
20
-81.267652
11
278.783918
21
-81.267652
0
LINE
8
BFab
62
6
10
267.283918
20
-81.517652
11
264.783918
21
-81.517652
0
LINE
8
BFab
62
6
10
278.783918
20
-81.267652
11
278.783918
21
-83.767652
0
LINE
8
BFab
62
6
10
264.783918
20
-81.517652
11
264.783918
21
-79.017652
0
LINE
8
BFab
62
6
10
267.783918
20
-82.567652
11
270.283918
21
-82.567652
0
LINE
8
BFab
62
6
10
278.783918
20
-83.767652
11
276.283918
21
-83.767652
0
LINE
8
BFab
62
6
10
276.283918
20
-80.067652
11
271.783918
21
-80.067652
0
ARC
8
BFab
62
6
10
271.783918
20
-79.567652
30
0
40
0.5
50
180.0
51
270.0
0
ARC
8
BFab
62
6
10
270.283918
20
-84.067652
30
0
40
1.5
50
0.0
51
90.0
0
LINE
8
FFab
62
5
10
276.783918
20
-78.767652
11
276.783918
21
-93.767652
0
LINE
8
FFab
62
5
10
261.783918
20
-93.767652
11
261.783918
21
-78.767652
0
LINE
8
FFab
62
5
10
261.783918
20
-78.767652
11
276.783918
21
-78.767652
0
LINE
8
FFab
62
5
10
276.783918
20
-93.767652
11
261.783918
21
-93.767652
0
LINE
8
Eco2
62
4
10
61.228249
20
-92.171496
11
66.428249
21
-92.171496
0
LINE
8
Eco2
62
4
10
56.928249
20
-102.171496
11
56.928249
21
-88.371496
0
LINE
8
Eco2
62
4
10
66.428249
20
-92.171496
11
66.428249
21
-88.971496
0
LINE
8
Eco2
62
4
10
56.928249
20
-102.171496
11
70.728249
21
-102.171496
0
LINE
8
Eco2
62
4
10
66.428249
20
-88.971496
11
61.228249
21
-88.971496
0
LINE
8
Eco2
62
4
10
70.728249
20
-88.371496
11
70.728249
21
-102.171496
0
LINE
8
Eco2
62
4
10
70.728249
20
-88.371496
11
56.928249
21
-88.371496
0
LINE
8
Eco2
62
4
10
61.228249
20
-92.171496
11
61.228249
21
-88.971496
0
LINE
8
BFab
62
6
10
62.328249
20
-91.571496
11
64.828249
21
-91.571496
0
LINE
8
BFab
62
6
10
65.328249
20
-87.071496
11
65.828249
21
-87.571496
0
LINE
8
BFab
62
6
10
70.828249
20
-89.071496
11
66.328249
21
-89.071496
0
LINE
8
BFab
62
6
10
70.828249
20
-90.271496
11
73.328249
21
-90.271496
0
LINE
8
BFab
62
6
10
59.328249
20
-90.521496
11
59.328249
21
-88.021496
0
LINE
8
BFab
62
6
10
66.328249
20
-93.071496
11
66.328249
21
-93.771496
0
LINE
8
BFab
62
6
10
61.828249
20
-87.571496
11
62.328249
21
-87.071496
0
LINE
8
BFab
62
6
10
66.328249
20
-93.771496
11
70.828249
21
-93.771496
0
LINE
8
BFab
62
6
10
65.828249
20
-88.571496
11
65.828249
21
-87.571496
0
LINE
8
BFab
62
6
10
61.828249
20
-91.071496
11
62.328249
21
-91.571496
0
LINE
8
BFab
62
6
10
73.328249
20
-92.771496
11
70.828249
21
-92.771496
0
LINE
8
BFab
62
6
10
70.828249
20
-93.771496
11
70.828249
21
-89.071496
0
LINE
8
BFab
62
6
10
61.828249
20
-90.521496
11
59.328249
21
-90.521496
0
LINE
8
BFab
62
6
10
73.328249
20
-90.271496
11
73.328249
21
-92.771496
0
LINE
8
BFab
62
6
10
62.328249
20
-87.071496
11
65.328249
21
-87.071496
0
LINE
8
BFab
62
6
10
61.828249
20
-91.021496
11
61.828249
21
-87.571496
0
LINE
8
BFab
62
6
10
59.328249
20
-88.021496
11
61.828249
21
-88.021496
0
ARC
8
BFab
62
6
10
66.328249
20
-88.571496
30
0
40
0.5
50
180.0
51
270.0
0
ARC
8
BFab
62
6
10
64.828249
20
-93.071496
30
0
40
1.5
50
0.0
51
90.0
0
LINE
8
FFab
62
5
10
56.328249
20
-87.771496
11
71.328249
21
-87.771496
0
LINE
8
FFab
62
5
10
71.328249
20
-102.771496
11
56.328249
21
-102.771496
0
LINE
8
FFab
62
5
10
71.328249
20
-87.771496
11
71.328249
21
-102.771496
0
LINE
8
FFab
62
5
10
56.328249
20
-102.771496
11
56.328249
21
-87.771496
0
CIRCLE
8
Cmts
62
1
10
182.1
20
-91.0
40
2.2
0
CIRCLE
8
FCrtYd
62
7
10
182.1
20
-91.0
40
2.45
0
LINE
8
Eco2
62
4
10
236.298509
20
-88.837756
11
231.098509
21
-88.837756
0
LINE
8
Eco2
62
4
10
226.798509
20
-102.037756
11
240.598509
21
-102.037756
0
LINE
8
Eco2
62
4
10
226.798509
20
-102.037756
11
226.798509
21
-88.237756
0
LINE
8
Eco2
62
4
10
231.098509
20
-92.037756
11
236.298509
21
-92.037756
0
LINE
8
Eco2
62
4
10
236.298509
20
-92.037756
11
236.298509
21
-88.837756
0
LINE
8
Eco2
62
4
10
240.598509
20
-88.237756
11
226.798509
21
-88.237756
0
LINE
8
Eco2
62
4
10
240.598509
20
-88.237756
11
240.598509
21
-102.037756
0
LINE
8
Eco2
62
4
10
231.098509
20
-92.037756
11
231.098509
21
-88.837756
0
LINE
8
BFab
62
6
10
232.198509
20
-86.937756
11
235.198509
21
-86.937756
0
LINE
8
BFab
62
6
10
243.198509
20
-90.137756
11
243.198509
21
-92.637756
0
LINE
8
BFab
62
6
10
235.198509
20
-86.937756
11
235.698509
21
-87.437756
0
LINE
8
BFab
62
6
10
229.198509
20
-90.387756
11
229.198509
21
-87.887756
0
LINE
8
BFab
62
6
10
231.698509
20
-90.937756
11
232.198509
21
-91.437756
0
LINE
8
BFab
62
6
10
236.198509
20
-93.637756
11
240.698509
21
-93.637756
0
LINE
8
BFab
62
6
10
231.698509
20
-87.437756
11
232.198509
21
-86.937756
0
LINE
8
BFab
62
6
10
231.698509
20
-90.887756
11
231.698509
21
-87.437756
0
LINE
8
BFab
62
6
10
236.198509
20
-92.937756
11
236.198509
21
-93.637756
0
LINE
8
BFab
62
6
10
231.698509
20
-90.387756
11
229.198509
21
-90.387756
0
LINE
8
BFab
62
6
10
240.698509
20
-90.137756
11
243.198509
21
-90.137756
0
LINE
8
BFab
62
6
10
240.698509
20
-93.637756
11
240.698509
21
-88.937756
0
LINE
8
BFab
62
6
10
232.198509
20
-91.437756
11
234.698509
21
-91.437756
0
LINE
8
BFab
62
6
10
240.698509
20
-88.937756
11
236.198509
21
-88.937756
0
LINE
8
BFab
62
6
10
235.698509
20
-88.437756
11
235.698509
21
-87.437756
0
LINE
8
BFab
62
6
10
229.198509
20
-87.887756
11
231.698509
21
-87.887756
0
LINE
8
BFab
62
6
10
243.198509
20
-92.637756
11
240.698509
21
-92.637756
0
ARC
8
BFab
62
6
10
234.698509
20
-92.937756
30
0
40
1.5
50
0.0
51
90.0
0
ARC
8
BFab
62
6
10
236.198509
20
-88.437756
30
0
40
0.5
50
180.0
51
270.0
0
LINE
8
FFab
62
5
10
226.198509
20
-102.637756
11
226.198509
21
-87.637756
0
LINE
8
FFab
62
5
10
226.198509
20
-87.637756
11
241.198509
21
-87.637756
0
LINE
8
FFab
62
5
10
241.198509
20
-102.637756
11
226.198509
21
-102.637756
0
LINE
8
FFab
62
5
10
241.198509
20
-87.637756
11
241.198509
21
-102.637756
0
LINE
8
Eco2
62
4
10
219.614001
20
-86.630523
11
233.414001
21
-86.630523
0
LINE
8
Eco2
62
4
10
219.614001
20
-86.630523
11
219.614001
21
-72.830523
0
LINE
8
Eco2
62
4
10
223.914001
20
-76.630523
11
223.914001
21
-73.430523
0
LINE
8
Eco2
62
4
10
233.414001
20
-72.830523
11
233.414001
21
-86.630523
0
LINE
8
Eco2
62
4
10
223.914001
20
-76.630523
11
229.114001
21
-76.630523
0
LINE
8
Eco2
62
4
10
233.414001
20
-72.830523
11
219.614001
21
-72.830523
0
LINE
8
Eco2
62
4
10
229.114001
20
-76.630523
11
229.114001
21
-73.430523
0
LINE
8
Eco2
62
4
10
229.114001
20
-73.430523
11
223.914001
21
-73.430523
0
LINE
8
BFab
62
6
10
224.514001
20
-72.030523
11
225.014001
21
-71.530523
0
LINE
8
BFab
62
6
10
233.514001
20
-73.530523
11
229.014001
21
-73.530523
0
LINE
8
BFab
62
6
10
228.014001
20
-71.530523
11
228.514001
21
-72.030523
0
LINE
8
BFab
62
6
10
224.514001
20
-75.530523
11
225.014001
21
-76.030523
0
LINE
8
BFab
62
6
10
225.014001
20
-76.030523
11
227.514001
21
-76.030523
0
LINE
8
BFab
62
6
10
228.514001
20
-73.030523
11
228.514001
21
-72.030523
0
LINE
8
BFab
62
6
10
222.014001
20
-72.480523
11
224.514001
21
-72.480523
0
LINE
8
BFab
62
6
10
224.514001
20
-74.980523
11
222.014001
21
-74.980523
0
LINE
8
BFab
62
6
10
236.014001
20
-77.230523
11
233.514001
21
-77.230523
0
LINE
8
BFab
62
6
10
236.014001
20
-74.730523
11
236.014001
21
-77.230523
0
LINE
8
BFab
62
6
10
224.514001
20
-75.480523
11
224.514001
21
-72.030523
0
LINE
8
BFab
62
6
10
233.514001
20
-74.730523
11
236.014001
21
-74.730523
0
LINE
8
BFab
62
6
10
229.014001
20
-78.230523
11
233.514001
21
-78.230523
0
LINE
8
BFab
62
6
10
229.014001
20
-77.530523
11
229.014001
21
-78.230523
0
LINE
8
BFab
62
6
10
233.514001
20
-78.230523
11
233.514001
21
-73.530523
0
LINE
8
BFab
62
6
10
222.014001
20
-74.980523
11
222.014001
21
-72.480523
0
LINE
8
BFab
62
6
10
225.014001
20
-71.530523
11
228.014001
21
-71.530523
0
ARC
8
BFab
62
6
10
229.014001
20
-73.030523
30
0
40
0.5
50
180.0
51
270.0
0
ARC
8
BFab
62
6
10
227.514001
20
-77.530523
30
0
40
1.5
50
0.0
51
90.0
0
LINE
8
FFab
62
5
10
234.014001
20
-72.230523
11
234.014001
21
-87.230523
0
LINE
8
FFab
62
5
10
219.014001
20
-87.230523
11
219.014001
21
-72.230523
0
LINE
8
FFab
62
5
10
219.014001
20
-72.230523
11
234.014001
21
-72.230523
0
LINE
8
FFab
62
5
10
234.014001
20
-87.230523
11
219.014001
21
-87.230523
0
LINE
8
Eco2
62
4
10
94.869135
20
-62.620004
11
100.069135
21
-62.620004
0
LINE
8
Eco2
62
4
10
100.069135
20
-62.620004
11
100.069135
21
-59.420004
0
LINE
8
Eco2
62
4
10
90.569135
20
-72.620004
11
104.369135
21
-72.620004
0
LINE
8
Eco2
62
4
10
104.369135
20
-58.820004
11
104.369135
21
-72.620004
0
LINE
8
Eco2
62
4
10
104.369135
20
-58.820004
11
90.569135
21
-58.820004
0
LINE
8
Eco2
62
4
10
94.869135
20
-62.620004
11
94.869135
21
-59.420004
0
LINE
8
Eco2
62
4
10
100.069135
20
-59.420004
11
94.869135
21
-59.420004
0
LINE
8
Eco2
62
4
10
90.569135
20
-72.620004
11
90.569135
21
-58.820004
0
LINE
8
BFab
62
6
10
95.969135
20
-62.020004
11
98.469135
21
-62.020004
0
LINE
8
BFab
62
6
10
106.969135
20
-60.720004
11
106.969135
21
-63.220004
0
LINE
8
BFab
62
6
10
95.969135
20
-57.520004
11
98.969135
21
-57.520004
0
LINE
8
BFab
62
6
10
104.469135
20
-64.220004
11
104.469135
21
-59.520004
0
LINE
8
BFab
62
6
10
99.469135
20
-59.020004
11
99.469135
21
-58.020004
0
LINE
8
BFab
62
6
10
99.969135
20
-63.520004
11
99.969135
21
-64.220004
0
LINE
8
BFab
62
6
10
95.469135
20
-61.470004
11
95.469135
21
-58.020004
0
LINE
8
BFab
62
6
10
95.469135
20
-58.020004
11
95.969135
21
-57.520004
0
LINE
8
BFab
62
6
10
99.969135
20
-64.220004
11
104.469135
21
-64.220004
0
LINE
8
BFab
62
6
10
92.969135
20
-58.470004
11
95.469135
21
-58.470004
0
LINE
8
BFab
62
6
10
98.969135
20
-57.520004
11
99.469135
21
-58.020004
0
LINE
8
BFab
62
6
10
95.469135
20
-60.970004
11
92.969135
21
-60.970004
0
LINE
8
BFab
62
6
10
104.469135
20
-60.720004
11
106.969135
21
-60.720004
0
LINE
8
BFab
62
6
10
104.469135
20
-59.520004
11
99.969135
21
-59.520004
0
LINE
8
BFab
62
6
10
92.969135
20
-60.970004
11
92.969135
21
-58.470004
0
LINE
8
BFab
62
6
10
95.469135
20
-61.520004
11
95.969135
21
-62.020004
0
LINE
8
BFab
62
6
10
106.969135
20
-63.220004
11
104.469135
21
-63.220004
0
ARC
8
BFab
62
6
10
99.969135
20
-59.020004
30
0
40
0.5
50
180.0
51
270.0
0
ARC
8
BFab
62
6
10
98.469135
20
-63.520004
30
0
40
1.5
50
0.0
51
90.0
0
LINE
8
FFab
62
5
10
89.969135
20
-58.220004
11
104.969135
21
-58.220004
0
LINE
8
FFab
62
5
10
89.969135
20
-73.220004
11
89.969135
21
-58.220004
0
LINE
8
FFab
62
5
10
104.969135
20
-58.220004
11
104.969135
21
-73.220004
0
LINE
8
FFab
62
5
10
104.969135
20
-73.220004
11
89.969135
21
-73.220004
0
LINE
8
Eco2
62
4
10
105.868868
20
-124.99288
11
119.668868
21
-124.99288
0
LINE
8
Eco2
62
4
10
105.868868
20
-124.99288
11
105.868868
21
-111.19288
0
LINE
8
Eco2
62
4
10
119.668868
20
-111.19288
11
119.668868
21
-124.99288
0
LINE
8
Eco2
62
4
10
110.168868
20
-114.99288
11
110.168868
21
-111.79288
0
LINE
8
Eco2
62
4
10
119.668868
20
-111.19288
11
105.868868
21
-111.19288
0
LINE
8
Eco2
62
4
10
110.168868
20
-114.99288
11
115.368868
21
-114.99288
0
LINE
8
Eco2
62
4
10
115.368868
20
-114.99288
11
115.368868
21
-111.79288
0
LINE
8
Eco2
62
4
10
115.368868
20
-111.79288
11
110.168868
21
-111.79288
0
LINE
8
BFab
62
6
10
110.768868
20
-113.34288
11
108.268868
21
-113.34288
0
LINE
8
BFab
62
6
10
119.768868
20
-111.89288
11
115.268868
21
-111.89288
0
LINE
8
BFab
62
6
10
110.768868
20
-113.89288
11
111.268868
21
-114.39288
0
LINE
8
BFab
62
6
10
114.768868
20
-111.39288
11
114.768868
21
-110.39288
0
LINE
8
BFab
62
6
10
111.268868
20
-114.39288
11
113.768868
21
-114.39288
0
LINE
8
BFab
62
6
10
115.268868
20
-115.89288
11
115.268868
21
-116.59288
0
LINE
8
BFab
62
6
10
108.268868
20
-113.34288
11
108.268868
21
-110.84288
0
LINE
8
BFab
62
6
10
119.768868
20
-116.59288
11
119.768868
21
-111.89288
0
LINE
8
BFab
62
6
10
111.268868
20
-109.89288
11
114.268868
21
-109.89288
0
LINE
8
BFab
62
6
10
122.268868
20
-115.59288
11
119.768868
21
-115.59288
0
LINE
8
BFab
62
6
10
115.268868
20
-116.59288
11
119.768868
21
-116.59288
0
LINE
8
BFab
62
6
10
114.268868
20
-109.89288
11
114.768868
21
-110.39288
0
LINE
8
BFab
62
6
10
122.268868
20
-113.09288
11
122.268868
21
-115.59288
0
LINE
8
BFab
62
6
10
108.268868
20
-110.84288
11
110.768868
21
-110.84288
0
LINE
8
BFab
62
6
10
119.768868
20
-113.09288
11
122.268868
21
-113.09288
0
LINE
8
BFab
62
6
10
110.768868
20
-113.84288
11
110.768868
21
-110.39288
0
LINE
8
BFab
62
6
10
110.768868
20
-110.39288
11
111.268868
21
-109.89288
0
ARC
8
BFab
62
6
10
113.768868
20
-115.89288
30
0
40
1.5
50
0.0
51
90.0
0
ARC
8
BFab
62
6
10
115.268868
20
-111.39288
30
0
40
0.5
50
180.0
51
270.0
0
LINE
8
FFab
62
5
10
120.268868
20
-110.59288
11
120.268868
21
-125.59288
0
LINE
8
FFab
62
5
10
105.268868
20
-110.59288
11
120.268868
21
-110.59288
0
LINE
8
FFab
62
5
10
105.268868
20
-125.59288
11
105.268868
21
-110.59288
0
LINE
8
FFab
62
5
10
120.268868
20
-125.59288
11
105.268868
21
-125.59288
0
LINE
8
Eco2
62
4
10
108.184361
20
-130.400115
11
108.184361
21
-127.200115
0
LINE
8
Eco2
62
4
10
108.184361
20
-127.200115
11
102.984361
21
-127.200115
0
LINE
8
Eco2
62
4
10
112.484361
20
-126.600115
11
98.684361
21
-126.600115
0
LINE
8
Eco2
62
4
10
98.684361
20
-140.400115
11
112.484361
21
-140.400115
0
LINE
8
Eco2
62
4
10
98.684361
20
-140.400115
11
98.684361
21
-126.600115
0
LINE
8
Eco2
62
4
10
112.484361
20
-126.600115
11
112.484361
21
-140.400115
0
LINE
8
Eco2
62
4
10
102.984361
20
-130.400115
11
102.984361
21
-127.200115
0
LINE
8
Eco2
62
4
10
102.984361
20
-130.400115
11
108.184361
21
-130.400115
0
LINE
8
BFab
62
6
10
112.584361
20
-127.300115
11
108.084361
21
-127.300115
0
LINE
8
BFab
62
6
10
107.084361
20
-125.300115
11
107.584361
21
-125.800115
0
LINE
8
BFab
62
6
10
108.084361
20
-132.000115
11
112.584361
21
-132.000115
0
LINE
8
BFab
62
6
10
101.084361
20
-128.750115
11
101.084361
21
-126.250115
0
LINE
8
BFab
62
6
10
103.584361
20
-129.250115
11
103.584361
21
-125.800115
0
LINE
8
BFab
62
6
10
103.584361
20
-129.300115
11
104.084361
21
-129.800115
0
LINE
8
BFab
62
6
10
112.584361
20
-128.500115
11
115.084361
21
-128.500115
0
LINE
8
BFab
62
6
10
103.584361
20
-125.800115
11
104.084361
21
-125.300115
0
LINE
8
BFab
62
6
10
115.084361
20
-131.000115
11
112.584361
21
-131.000115
0
LINE
8
BFab
62
6
10
115.084361
20
-128.500115
11
115.084361
21
-131.000115
0
LINE
8
BFab
62
6
10
108.084361
20
-131.300115
11
108.084361
21
-132.000115
0
LINE
8
BFab
62
6
10
107.584361
20
-126.800115
11
107.584361
21
-125.800115
0
LINE
8
BFab
62
6
10
112.584361
20
-132.000115
11
112.584361
21
-127.300115
0
LINE
8
BFab
62
6
10
101.084361
20
-126.250115
11
103.584361
21
-126.250115
0
LINE
8
BFab
62
6
10
104.084361
20
-129.800115
11
106.584361
21
-129.800115
0
LINE
8
BFab
62
6
10
103.584361
20
-128.750115
11
101.084361
21
-128.750115
0
LINE
8
BFab
62
6
10
104.084361
20
-125.300115
11
107.084361
21
-125.300115
0
ARC
8
BFab
62
6
10
108.084361
20
-126.800115
30
0
40
0.5
50
180.0
51
270.0
0
ARC
8
BFab
62
6
10
106.584361
20
-131.300115
30
0
40
1.5
50
0.0
51
90.0
0
LINE
8
FFab
62
5
10
98.084361
20
-141.000115
11
98.084361
21
-126.000115
0
LINE
8
FFab
62
5
10
113.084361
20
-141.000115
11
98.084361
21
-141.000115
0
LINE
8
FFab
62
5
10
113.084361
20
-126.000115
11
113.084361
21
-141.000115
0
LINE
8
FFab
62
5
10
98.084361
20
-126.000115
11
113.084361
21
-126.000115
0
LINE
8
Eco2
62
4
10
50.114706
20
-81.364367
11
44.914706
21
-81.364367
0
LINE
8
Eco2
62
4
10
44.914706
20
-84.564367
11
44.914706
21
-81.364367
0
LINE
8
Eco2
62
4
10
44.914706
20
-84.564367
11
50.114706
21
-84.564367
0
LINE
8
Eco2
62
4
10
54.414706
20
-80.764367
11
54.414706
21
-94.564367
0
LINE
8
Eco2
62
4
10
40.614706
20
-94.564367
11
54.414706
21
-94.564367
0
LINE
8
Eco2
62
4
10
54.414706
20
-80.764367
11
40.614706
21
-80.764367
0
LINE
8
Eco2
62
4
10
40.614706
20
-94.564367
11
40.614706
21
-80.764367
0
LINE
8
Eco2
62
4
10
50.114706
20
-84.564367
11
50.114706
21
-81.364367
0
LINE
8
BFab
62
6
10
46.014706
20
-79.464367
11
49.014706
21
-79.464367
0
LINE
8
BFab
62
6
10
45.514706
20
-83.464367
11
46.014706
21
-83.964367
0
LINE
8
BFab
62
6
10
50.014706
20
-85.464367
11
50.014706
21
-86.164367
0
LINE
8
BFab
62
6
10
43.014706
20
-82.914367
11
43.014706
21
-80.414367
0
LINE
8
BFab
62
6
10
43.014706
20
-80.414367
11
45.514706
21
-80.414367
0
LINE
8
BFab
62
6
10
50.014706
20
-86.164367
11
54.514706
21
-86.164367
0
LINE
8
BFab
62
6
10
54.514706
20
-81.464367
11
50.014706
21
-81.464367
0
LINE
8
BFab
62
6
10
54.514706
20
-82.664367
11
57.014706
21
-82.664367
0
LINE
8
BFab
62
6
10
49.014706
20
-79.464367
11
49.514706
21
-79.964367
0
LINE
8
BFab
62
6
10
46.014706
20
-83.964367
11
48.514706
21
-83.964367
0
LINE
8
BFab
62
6
10
54.514706
20
-86.164367
11
54.514706
21
-81.464367
0
LINE
8
BFab
62
6
10
57.014706
20
-82.664367
11
57.014706
21
-85.164367
0
LINE
8
BFab
62
6
10
57.014706
20
-85.164367
11
54.514706
21
-85.164367
0
LINE
8
BFab
62
6
10
45.514706
20
-82.914367
11
43.014706
21
-82.914367
0
LINE
8
BFab
62
6
10
49.514706
20
-80.964367
11
49.514706
21
-79.964367
0
LINE
8
BFab
62
6
10
45.514706
20
-83.414367
11
45.514706
21
-79.964367
0
LINE
8
BFab
62
6
10
45.514706
20
-79.964367
11
46.014706
21
-79.464367
0
ARC
8
BFab
62
6
10
50.014706
20
-80.964367
30
0
40
0.5
50
180.0
51
270.0
0
ARC
8
BFab
62
6
10
48.514706
20
-85.464367
30
0
40
1.5
50
0.0
51
90.0
0
LINE
8
FFab
62
5
10
55.014706
20
-80.164367
11
55.014706
21
-95.164367
0
LINE
8
FFab
62
5
10
40.014706
20
-80.164367
11
55.014706
21
-80.164367
0
LINE
8
FFab
62
5
10
40.014706
20
-95.164367
11
40.014706
21
-80.164367
0
LINE
8
FFab
62
5
10
55.014706
20
-95.164367
11
40.014706
21
-95.164367
0
LINE
8
Eco2
62
4
10
92.884626
20
-78.027235
11
92.884626
21
-74.827235
0
LINE
8
Eco2
62
4
10
83.384626
20
-88.027235
11
83.384626
21
-74.227235
0
LINE
8
Eco2
62
4
10
87.684626
20
-78.027235
11
92.884626
21
-78.027235
0
LINE
8
Eco2
62
4
10
83.384626
20
-88.027235
11
97.184626
21
-88.027235
0
LINE
8
Eco2
62
4
10
87.684626
20
-78.027235
11
87.684626
21
-74.827235
0
LINE
8
Eco2
62
4
10
97.184626
20
-74.227235
11
83.384626
21
-74.227235
0
LINE
8
Eco2
62
4
10
97.184626
20
-74.227235
11
97.184626
21
-88.027235
0
LINE
8
Eco2
62
4
10
92.884626
20
-74.827235
11
87.684626
21
-74.827235
0
LINE
8
BFab
62
6
10
88.784626
20
-77.427235
11
91.284626
21
-77.427235
0
LINE
8
BFab
62
6
10
88.284626
20
-76.927235
11
88.784626
21
-77.427235
0
LINE
8
BFab
62
6
10
97.284626
20
-74.927235
11
92.784626
21
-74.927235
0
LINE
8
BFab
62
6
10
99.784626
20
-76.127235
11
99.784626
21
-78.627235
0
LINE
8
BFab
62
6
10
88.784626
20
-72.927235
11
91.784626
21
-72.927235
0
LINE
8
BFab
62
6
10
99.784626
20
-78.627235
11
97.284626
21
-78.627235
0
LINE
8
BFab
62
6
10
97.284626
20
-76.127235
11
99.784626
21
-76.127235
0
LINE
8
BFab
62
6
10
85.784626
20
-76.377235
11
85.784626
21
-73.877235
0
LINE
8
BFab
62
6
10
88.284626
20
-76.377235
11
85.784626
21
-76.377235
0
LINE
8
BFab
62
6
10
92.784626
20
-78.927235
11
92.784626
21
-79.627235
0
LINE
8
BFab
62
6
10
88.284626
20
-76.877235
11
88.284626
21
-73.427235
0
LINE
8
BFab
62
6
10
91.784626
20
-72.927235
11
92.284626
21
-73.427235
0
LINE
8
BFab
62
6
10
85.784626
20
-73.877235
11
88.284626
21
-73.877235
0
LINE
8
BFab
62
6
10
92.284626
20
-74.427235
11
92.284626
21
-73.427235
0
LINE
8
BFab
62
6
10
97.284626
20
-79.627235
11
97.284626
21
-74.927235
0
LINE
8
BFab
62
6
10
88.284626
20
-73.427235
11
88.784626
21
-72.927235
0
LINE
8
BFab
62
6
10
92.784626
20
-79.627235
11
97.284626
21
-79.627235
0
ARC
8
BFab
62
6
10
91.284626
20
-78.927235
30
0
40
1.5
50
0.0
51
90.0
0
ARC
8
BFab
62
6
10
92.784626
20
-74.427235
30
0
40
0.5
50
180.0
51
270.0
0
LINE
8
FFab
62
5
10
82.784626
20
-88.627235
11
82.784626
21
-73.627235
0
LINE
8
FFab
62
5
10
97.784626
20
-73.627235
11
97.784626
21
-88.627235
0
LINE
8
FFab
62
5
10
97.784626
20
-88.627235
11
82.784626
21
-88.627235
0
LINE
8
FFab
62
5
10
82.784626
20
-73.627235
11
97.784626
21
-73.627235
0
LINE
8
Eco2
62
4
10
185.042402
20
-140.266367
11
185.042402
21
-126.466367
0
LINE
8
Eco2
62
4
10
189.342402
20
-130.266367
11
194.542402
21
-130.266367
0
LINE
8
Eco2
62
4
10
185.042402
20
-140.266367
11
198.842402
21
-140.266367
0
LINE
8
Eco2
62
4
10
189.342402
20
-130.266367
11
189.342402
21
-127.066367
0
LINE
8
Eco2
62
4
10
198.842402
20
-126.466367
11
185.042402
21
-126.466367
0
LINE
8
Eco2
62
4
10
198.842402
20
-126.466367
11
198.842402
21
-140.266367
0
LINE
8
Eco2
62
4
10
194.542402
20
-130.266367
11
194.542402
21
-127.066367
0
LINE
8
Eco2
62
4
10
194.542402
20
-127.066367
11
189.342402
21
-127.066367
0
LINE
8
BFab
62
6
10
201.442402
20
-128.366367
11
201.442402
21
-130.866367
0
LINE
8
BFab
62
6
10
194.442402
20
-131.166367
11
194.442402
21
-131.866367
0
LINE
8
BFab
62
6
10
194.442402
20
-131.866367
11
198.942402
21
-131.866367
0
LINE
8
BFab
62
6
10
198.942402
20
-127.166367
11
194.442402
21
-127.166367
0
LINE
8
BFab
62
6
10
189.942402
20
-129.166367
11
190.442402
21
-129.666367
0
LINE
8
BFab
62
6
10
187.442402
20
-126.116367
11
189.942402
21
-126.116367
0
LINE
8
BFab
62
6
10
193.942402
20
-126.666367
11
193.942402
21
-125.666367
0
LINE
8
BFab
62
6
10
189.942402
20
-125.666367
11
190.442402
21
-125.166367
0
LINE
8
BFab
62
6
10
193.442402
20
-125.166367
11
193.942402
21
-125.666367
0
LINE
8
BFab
62
6
10
198.942402
20
-128.366367
11
201.442402
21
-128.366367
0
LINE
8
BFab
62
6
10
190.442402
20
-129.666367
11
192.942402
21
-129.666367
0
LINE
8
BFab
62
6
10
190.442402
20
-125.166367
11
193.442402
21
-125.166367
0
LINE
8
BFab
62
6
10
201.442402
20
-130.866367
11
198.942402
21
-130.866367
0
LINE
8
BFab
62
6
10
189.942402
20
-129.116367
11
189.942402
21
-125.666367
0
LINE
8
BFab
62
6
10
198.942402
20
-131.866367
11
198.942402
21
-127.166367
0
LINE
8
BFab
62
6
10
187.442402
20
-128.616367
11
187.442402
21
-126.116367
0
LINE
8
BFab
62
6
10
189.942402
20
-128.616367
11
187.442402
21
-128.616367
0
ARC
8
BFab
62
6
10
194.442402
20
-126.666367
30
0
40
0.5
50
180.0
51
270.0
0
ARC
8
BFab
62
6
10
192.942402
20
-131.166367
30
0
40
1.5
50
0.0
51
90.0
0
LINE
8
FFab
62
5
10
199.442402
20
-140.866367
11
184.442402
21
-140.866367
0
LINE
8
FFab
62
5
10
199.442402
20
-125.866367
11
199.442402
21
-140.866367
0
LINE
8
FFab
62
5
10
184.442402
20
-140.866367
11
184.442402
21
-125.866367
0
LINE
8
FFab
62
5
10
184.442402
20
-125.866367
11
199.442402
21
-125.866367
0
LINE
8
Eco2
62
4
10
187.408538
20
-111.767751
11
182.208538
21
-111.767751
0
LINE
8
Eco2
62
4
10
177.908538
20
-124.967751
11
177.908538
21
-111.167751
0
LINE
8
Eco2
62
4
10
182.208538
20
-114.967751
11
182.208538
21
-111.767751
0
LINE
8
Eco2
62
4
10
182.208538
20
-114.967751
11
187.408538
21
-114.967751
0
LINE
8
Eco2
62
4
10
191.708538
20
-111.167751
11
177.908538
21
-111.167751
0
LINE
8
Eco2
62
4
10
187.408538
20
-114.967751
11
187.408538
21
-111.767751
0
LINE
8
Eco2
62
4
10
191.708538
20
-111.167751
11
191.708538
21
-124.967751
0
LINE
8
Eco2
62
4
10
177.908538
20
-124.967751
11
191.708538
21
-124.967751
0
LINE
8
BFab
62
6
10
183.308538
20
-109.867751
11
186.308538
21
-109.867751
0
LINE
8
BFab
62
6
10
187.308538
20
-115.867751
11
187.308538
21
-116.567751
0
LINE
8
BFab
62
6
10
187.308538
20
-116.567751
11
191.808538
21
-116.567751
0
LINE
8
BFab
62
6
10
182.808538
20
-113.817751
11
182.808538
21
-110.367751
0
LINE
8
BFab
62
6
10
191.808538
20
-113.067751
11
194.308538
21
-113.067751
0
LINE
8
BFab
62
6
10
191.808538
20
-116.567751
11
191.808538
21
-111.867751
0
LINE
8
BFab
62
6
10
194.308538
20
-115.567751
11
191.808538
21
-115.567751
0
LINE
8
BFab
62
6
10
180.308538
20
-113.317751
11
180.308538
21
-110.817751
0
LINE
8
BFab
62
6
10
191.808538
20
-111.867751
11
187.308538
21
-111.867751
0
LINE
8
BFab
62
6
10
186.308538
20
-109.867751
11
186.808538
21
-110.367751
0
LINE
8
BFab
62
6
10
180.308538
20
-110.817751
11
182.808538
21
-110.817751
0
LINE
8
BFab
62
6
10
182.808538
20
-110.367751
11
183.308538
21
-109.867751
0
LINE
8
BFab
62
6
10
194.308538
20
-113.067751
11
194.308538
21
-115.567751
0
LINE
8
BFab
62
6
10
183.308538
20
-114.367751
11
185.808538
21
-114.367751
0
LINE
8
BFab
62
6
10
182.808538
20
-113.317751
11
180.308538
21
-113.317751
0
LINE
8
BFab
62
6
10
182.808538
20
-113.867751
11
183.308538
21
-114.367751
0
LINE
8
BFab
62
6
10
186.808538
20
-111.367751
11
186.808538
21
-110.367751
0
ARC
8
BFab
62
6
10
187.308538
20
-111.367751
30
0
40
0.5
50
180.0
51
270.0
0
ARC
8
BFab
62
6
10
185.808538
20
-115.867751
30
0
40
1.5
50
0.0
51
90.0
0
LINE
8
FFab
62
5
10
192.308538
20
-110.567751
11
192.308538
21
-125.567751
0
LINE
8
FFab
62
5
10
177.308538
20
-110.567751
11
192.308538
21
-110.567751
0
LINE
8
FFab
62
5
10
192.308538
20
-125.567751
11
177.308538
21
-125.567751
0
LINE
8
FFab
62
5
10
177.308538
20
-125.567751
11
177.308538
21
-110.567751
0
LINE
8
Eco2
62
4
10
126.823026
20
-95.850748
11
113.023026
21
-95.850748
0
LINE
8
Eco2
62
4
10
126.823026
20
-95.850748
11
126.823026
21
-109.650748
0
LINE
8
Eco2
62
4
10
122.523026
20
-96.450748
11
117.323026
21
-96.450748
0
LINE
8
Eco2
62
4
10
113.023026
20
-109.650748
11
126.823026
21
-109.650748
0
LINE
8
Eco2
62
4
10
113.023026
20
-109.650748
11
113.023026
21
-95.850748
0
LINE
8
Eco2
62
4
10
117.323026
20
-99.650748
11
117.323026
21
-96.450748
0
LINE
8
Eco2
62
4
10
117.323026
20
-99.650748
11
122.523026
21
-99.650748
0
LINE
8
Eco2
62
4
10
122.523026
20
-99.650748
11
122.523026
21
-96.450748
0
LINE
8
BFab
62
6
10
118.423026
20
-94.550748
11
121.423026
21
-94.550748
0
LINE
8
BFab
62
6
10
121.423026
20
-94.550748
11
121.923026
21
-95.050748
0
LINE
8
BFab
62
6
10
118.423026
20
-99.050748
11
120.923026
21
-99.050748
0
LINE
8
BFab
62
6
10
117.923026
20
-98.550748
11
118.423026
21
-99.050748
0
LINE
8
BFab
62
6
10
115.423026
20
-95.500748
11
117.923026
21
-95.500748
0
LINE
8
BFab
62
6
10
129.423026
20
-97.750748
11
129.423026
21
-100.250748
0
LINE
8
BFab
62
6
10
129.423026
20
-100.250748
11
126.923026
21
-100.250748
0
LINE
8
BFab
62
6
10
121.923026
20
-96.050748
11
121.923026
21
-95.050748
0
LINE
8
BFab
62
6
10
126.923026
20
-97.750748
11
129.423026
21
-97.750748
0
LINE
8
BFab
62
6
10
122.423026
20
-100.550748
11
122.423026
21
-101.250748
0
LINE
8
BFab
62
6
10
115.423026
20
-98.000748
11
115.423026
21
-95.500748
0
LINE
8
BFab
62
6
10
122.423026
20
-101.250748
11
126.923026
21
-101.250748
0
LINE
8
BFab
62
6
10
126.923026
20
-101.250748
11
126.923026
21
-96.550748
0
LINE
8
BFab
62
6
10
117.923026
20
-98.000748
11
115.423026
21
-98.000748
0
LINE
8
BFab
62
6
10
117.923026
20
-95.050748
11
118.423026
21
-94.550748
0
LINE
8
BFab
62
6
10
126.923026
20
-96.550748
11
122.423026
21
-96.550748
0
LINE
8
BFab
62
6
10
117.923026
20
-98.500748
11
117.923026
21
-95.050748
0
ARC
8
BFab
62
6
10
120.923026
20
-100.550748
30
0
40
1.5
50
0.0
51
90.0
0
ARC
8
BFab
62
6
10
122.423026
20
-96.050748
30
0
40
0.5
50
180.0
51
270.0
0
LINE
8
FFab
62
5
10
112.423026
20
-110.250748
11
112.423026
21
-95.250748
0
LINE
8
FFab
62
5
10
127.423026
20
-95.250748
11
127.423026
21
-110.250748
0
LINE
8
FFab
62
5
10
127.423026
20
-110.250748
11
112.423026
21
-110.250748
0
LINE
8
FFab
62
5
10
112.423026
20
-95.250748
11
127.423026
21
-95.250748
0
LINE
8
Eco2
62
4
10
114.997899
20
-148.007243
11
128.797899
21
-148.007243
0
LINE
8
Eco2
62
4
10
128.797899
20
-134.207243
11
114.997899
21
-134.207243
0
LINE
8
Eco2
62
4
10
124.497899
20
-138.007243
11
124.497899
21
-134.807243
0
LINE
8
Eco2
62
4
10
119.297899
20
-138.007243
11
119.297899
21
-134.807243
0
LINE
8
Eco2
62
4
10
128.797899
20
-134.207243
11
128.797899
21
-148.007243
0
LINE
8
Eco2
62
4
10
119.297899
20
-138.007243
11
124.497899
21
-138.007243
0
LINE
8
Eco2
62
4
10
114.997899
20
-148.007243
11
114.997899
21
-134.207243
0
LINE
8
Eco2
62
4
10
124.497899
20
-134.807243
11
119.297899
21
-134.807243
0
LINE
8
BFab
62
6
10
124.397899
20
-139.607243
11
128.897899
21
-139.607243
0
LINE
8
BFab
62
6
10
117.397899
20
-136.357243
11
117.397899
21
-133.857243
0
LINE
8
BFab
62
6
10
128.897899
20
-134.907243
11
124.397899
21
-134.907243
0
LINE
8
BFab
62
6
10
124.397899
20
-138.907243
11
124.397899
21
-139.607243
0
LINE
8
BFab
62
6
10
119.897899
20
-136.907243
11
120.397899
21
-137.407243
0
LINE
8
BFab
62
6
10
128.897899
20
-139.607243
11
128.897899
21
-134.907243
0
LINE
8
BFab
62
6
10
123.397899
20
-132.907243
11
123.897899
21
-133.407243
0
LINE
8
BFab
62
6
10
131.397899
20
-136.107243
11
131.397899
21
-138.607243
0
LINE
8
BFab
62
6
10
120.397899
20
-137.407243
11
122.897899
21
-137.407243
0
LINE
8
BFab
62
6
10
123.897899
20
-134.407243
11
123.897899
21
-133.407243
0
LINE
8
BFab
62
6
10
120.397899
20
-132.907243
11
123.397899
21
-132.907243
0
LINE
8
BFab
62
6
10
119.897899
20
-133.407243
11
120.397899
21
-132.907243
0
LINE
8
BFab
62
6
10
119.897899
20
-136.357243
11
117.397899
21
-136.357243
0
LINE
8
BFab
62
6
10
131.397899
20
-138.607243
11
128.897899
21
-138.607243
0
LINE
8
BFab
62
6
10
128.897899
20
-136.107243
11
131.397899
21
-136.107243
0
LINE
8
BFab
62
6
10
119.897899
20
-136.857243
11
119.897899
21
-133.407243
0
LINE
8
BFab
62
6
10
117.397899
20
-133.857243
11
119.897899
21
-133.857243
0
ARC
8
BFab
62
6
10
122.897899
20
-138.907243
30
0
40
1.5
50
0.0
51
90.0
0
ARC
8
BFab
62
6
10
124.397899
20
-134.407243
30
0
40
0.5
50
180.0
51
270.0
0
LINE
8
FFab
62
5
10
129.397899
20
-133.607243
11
129.397899
21
-148.607243
0
LINE
8
FFab
62
5
10
129.397899
20
-148.607243
11
114.397899
21
-148.607243
0
LINE
8
FFab
62
5
10
114.397899
20
-133.607243
11
129.397899
21
-133.607243
0
LINE
8
FFab
62
5
10
114.397899
20
-148.607243
11
114.397899
21
-133.607243
0
LINE
8
Eco2
62
4
10
184.524029
20
-95.760519
11
170.724029
21
-95.760519
0
LINE
8
Eco2
62
4
10
180.224029
20
-96.360519
11
175.024029
21
-96.360519
0
LINE
8
Eco2
62
4
10
170.724029
20
-109.560519
11
184.524029
21
-109.560519
0
LINE
8
Eco2
62
4
10
175.024029
20
-99.560519
11
180.224029
21
-99.560519
0
LINE
8
Eco2
62
4
10
184.524029
20
-95.760519
11
184.524029
21
-109.560519
0
LINE
8
Eco2
62
4
10
175.024029
20
-99.560519
11
175.024029
21
-96.360519
0
LINE
8
Eco2
62
4
10
180.224029
20
-99.560519
11
180.224029
21
-96.360519
0
LINE
8
Eco2
62
4
10
170.724029
20
-109.560519
11
170.724029
21
-95.760519
0
LINE
8
BFab
62
6
10
187.124029
20
-97.660519
11
187.124029
21
-100.160519
0
LINE
8
BFab
62
6
10
179.124029
20
-94.460519
11
179.624029
21
-94.960519
0
LINE
8
BFab
62
6
10
175.624029
20
-98.410519
11
175.624029
21
-94.960519
0
LINE
8
BFab
62
6
10
176.124029
20
-98.960519
11
178.624029
21
-98.960519
0
LINE
8
BFab
62
6
10
184.624029
20
-97.660519
11
187.124029
21
-97.660519
0
LINE
8
BFab
62
6
10
173.124029
20
-97.910519
11
173.124029
21
-95.410519
0
LINE
8
BFab
62
6
10
179.624029
20
-95.960519
11
179.624029
21
-94.960519
0
LINE
8
BFab
62
6
10
187.124029
20
-100.160519
11
184.624029
21
-100.160519
0
LINE
8
BFab
62
6
10
184.624029
20
-101.160519
11
184.624029
21
-96.460519
0
LINE
8
BFab
62
6
10
180.124029
20
-100.460519
11
180.124029
21
-101.160519
0
LINE
8
BFab
62
6
10
173.124029
20
-95.410519
11
175.624029
21
-95.410519
0
LINE
8
BFab
62
6
10
176.124029
20
-94.460519
11
179.124029
21
-94.460519
0
LINE
8
BFab
62
6
10
180.124029
20
-101.160519
11
184.624029
21
-101.160519
0
LINE
8
BFab
62
6
10
175.624029
20
-98.460519
11
176.124029
21
-98.960519
0
LINE
8
BFab
62
6
10
175.624029
20
-94.960519
11
176.124029
21
-94.460519
0
LINE
8
BFab
62
6
10
184.624029
20
-96.460519
11
180.124029
21
-96.460519
0
LINE
8
BFab
62
6
10
175.624029
20
-97.910519
11
173.124029
21
-97.910519
0
ARC
8
BFab
62
6
10
180.124029
20
-95.960519
30
0
40
0.5
50
180.0
51
270.0
0
ARC
8
BFab
62
6
10
178.624029
20
-100.460519
30
0
40
1.5
50
0.0
51
90.0
0
LINE
8
FFab
62
5
10
185.124029
20
-110.160519
11
170.124029
21
-110.160519
0
LINE
8
FFab
62
5
10
170.124029
20
-95.160519
11
185.124029
21
-95.160519
0
LINE
8
FFab
62
5
10
170.124029
20
-110.160519
11
170.124029
21
-95.160519
0
LINE
8
FFab
62
5
10
185.124029
20
-95.160519
11
185.124029
21
-110.160519
0
LINE
8
Eco2
62
4
10
37.730195
20
-99.971597
11
42.930195
21
-99.971597
0
LINE
8
Eco2
62
4
10
42.930195
20
-96.771597
11
37.730195
21
-96.771597
0
LINE
8
Eco2
62
4
10
42.930195
20
-99.971597
11
42.930195
21
-96.771597
0
LINE
8
Eco2
62
4
10
47.230195
20
-96.171597
11
47.230195
21
-109.971597
0
LINE
8
Eco2
62
4
10
33.430195
20
-109.971597
11
33.430195
21
-96.171597
0
LINE
8
Eco2
62
4
10
47.230195
20
-96.171597
11
33.430195
21
-96.171597
0
LINE
8
Eco2
62
4
10
37.730195
20
-99.971597
11
37.730195
21
-96.771597
0
LINE
8
Eco2
62
4
10
33.430195
20
-109.971597
11
47.230195
21
-109.971597
0
LINE
8
BFab
62
6
10
42.330195
20
-96.371597
11
42.330195
21
-95.371597
0
LINE
8
BFab
62
6
10
38.330195
20
-95.371597
11
38.830195
21
-94.871597
0
LINE
8
BFab
62
6
10
35.830195
20
-95.821597
11
38.330195
21
-95.821597
0
LINE
8
BFab
62
6
10
41.830195
20
-94.871597
11
42.330195
21
-95.371597
0
LINE
8
BFab
62
6
10
49.830195
20
-100.571597
11
47.330195
21
-100.571597
0
LINE
8
BFab
62
6
10
38.830195
20
-99.371597
11
41.330195
21
-99.371597
0
LINE
8
BFab
62
6
10
42.830195
20
-100.871597
11
42.830195
21
-101.571597
0
LINE
8
BFab
62
6
10
38.330195
20
-98.321597
11
35.830195
21
-98.321597
0
LINE
8
BFab
62
6
10
38.830195
20
-94.871597
11
41.830195
21
-94.871597
0
LINE
8
BFab
62
6
10
42.830195
20
-101.571597
11
47.330195
21
-101.571597
0
LINE
8
BFab
62
6
10
38.330195
20
-98.871597
11
38.830195
21
-99.371597
0
LINE
8
BFab
62
6
10
49.830195
20
-98.071597
11
49.830195
21
-100.571597
0
LINE
8
BFab
62
6
10
47.330195
20
-98.071597
11
49.830195
21
-98.071597
0
LINE
8
BFab
62
6
10
35.830195
20
-98.321597
11
35.830195
21
-95.821597
0
LINE
8
BFab
62
6
10
47.330195
20
-96.871597
11
42.830195
21
-96.871597
0
LINE
8
BFab
62
6
10
38.330195
20
-98.821597
11
38.330195
21
-95.371597
0
LINE
8
BFab
62
6
10
47.330195
20
-101.571597
11
47.330195
21
-96.871597
0
ARC
8
BFab
62
6
10
42.830195
20
-96.371597
30
0
40
0.5
50
180.0
51
270.0
0
ARC
8
BFab
62
6
10
41.330195
20
-100.871597
30
0
40
1.5
50
0.0
51
90.0
0
LINE
8
FFab
62
5
10
47.830195
20
-95.571597
11
47.830195
21
-110.571597
0
LINE
8
FFab
62
5
10
47.830195
20
-110.571597
11
32.830195
21
-110.571597
0
LINE
8
FFab
62
5
10
32.830195
20
-110.571597
11
32.830195
21
-95.571597
0
LINE
8
FFab
62
5
10
32.830195
20
-95.571597
11
47.830195
21
-95.571597
0
LINE
8
Eco2
62
4
10
64.112758
20
-86.764263
11
77.912758
21
-86.764263
0
LINE
8
Eco2
62
4
10
64.112758
20
-86.764263
11
64.112758
21
-72.964263
0
LINE
8
Eco2
62
4
10
68.412758
20
-76.764263
11
73.612758
21
-76.764263
0
LINE
8
Eco2
62
4
10
68.412758
20
-76.764263
11
68.412758
21
-73.564263
0
LINE
8
Eco2
62
4
10
73.612758
20
-76.764263
11
73.612758
21
-73.564263
0
LINE
8
Eco2
62
4
10
77.912758
20
-72.964263
11
77.912758
21
-86.764263
0
LINE
8
Eco2
62
4
10
73.612758
20
-73.564263
11
68.412758
21
-73.564263
0
LINE
8
Eco2
62
4
10
77.912758
20
-72.964263
11
64.112758
21
-72.964263
0
LINE
8
BFab
62
6
10
69.512758
20
-71.664263
11
72.512758
21
-71.664263
0
LINE
8
BFab
62
6
10
80.512758
20
-74.864263
11
80.512758
21
-77.364263
0
LINE
8
BFab
62
6
10
73.012758
20
-73.164263
11
73.012758
21
-72.164263
0
LINE
8
BFab
62
6
10
69.012758
20
-72.164263
11
69.512758
21
-71.664263
0
LINE
8
BFab
62
6
10
78.012758
20
-78.364263
11
78.012758
21
-73.664263
0
LINE
8
BFab
62
6
10
78.012758
20
-74.864263
11
80.512758
21
-74.864263
0
LINE
8
BFab
62
6
10
69.512758
20
-76.164263
11
72.012758
21
-76.164263
0
LINE
8
BFab
62
6
10
69.012758
20
-75.614263
11
69.012758
21
-72.164263
0
LINE
8
BFab
62
6
10
73.512758
20
-78.364263
11
78.012758
21
-78.364263
0
LINE
8
BFab
62
6
10
66.512758
20
-75.114263
11
66.512758
21
-72.614263
0
LINE
8
BFab
62
6
10
69.012758
20
-75.114263
11
66.512758
21
-75.114263
0
LINE
8
BFab
62
6
10
69.012758
20
-75.664263
11
69.512758
21
-76.164263
0
LINE
8
BFab
62
6
10
66.512758
20
-72.614263
11
69.012758
21
-72.614263
0
LINE
8
BFab
62
6
10
78.012758
20
-73.664263
11
73.512758
21
-73.664263
0
LINE
8
BFab
62
6
10
73.512758
20
-77.664263
11
73.512758
21
-78.364263
0
LINE
8
BFab
62
6
10
80.512758
20
-77.364263
11
78.012758
21
-77.364263
0
LINE
8
BFab
62
6
10
72.512758
20
-71.664263
11
73.012758
21
-72.164263
0
ARC
8
BFab
62
6
10
73.512758
20
-73.164263
30
0
40
0.5
50
180.0
51
270.0
0
ARC
8
BFab
62
6
10
72.012758
20
-77.664263
30
0
40
1.5
50
0.0
51
90.0
0
LINE
8
FFab
62
5
10
63.512758
20
-72.364263
11
78.512758
21
-72.364263
0
LINE
8
FFab
62
5
10
78.512758
20
-72.364263
11
78.512758
21
-87.364263
0
LINE
8
FFab
62
5
10
63.512758
20
-87.364263
11
63.512758
21
-72.364263
0
LINE
8
FFab
62
5
10
78.512758
20
-87.364263
11
63.512758
21
-87.364263
0
LINE
8
Eco2
62
4
10
191.286924
20
-91.844776
11
191.286924
21
-88.644776
0
LINE
8
Eco2
62
4
10
186.986924
20
-101.844776
11
200.786924
21
-101.844776
0
LINE
8
Eco2
62
4
10
196.486924
20
-91.844776
11
196.486924
21
-88.644776
0
LINE
8
Eco2
62
4
10
191.286924
20
-91.844776
11
196.486924
21
-91.844776
0
LINE
8
Eco2
62
4
10
200.786924
20
-88.044776
11
200.786924
21
-101.844776
0
LINE
8
Eco2
62
4
10
196.486924
20
-88.644776
11
191.286924
21
-88.644776
0
LINE
8
Eco2
62
4
10
186.986924
20
-101.844776
11
186.986924
21
-88.044776
0
LINE
8
Eco2
62
4
10
200.786924
20
-88.044776
11
186.986924
21
-88.044776
0
LINE
8
BFab
62
6
10
191.886924
20
-87.244776
11
192.386924
21
-86.744776
0
LINE
8
BFab
62
6
10
200.886924
20
-89.944776
11
203.386924
21
-89.944776
0
LINE
8
BFab
62
6
10
195.386924
20
-86.744776
11
195.886924
21
-87.244776
0
LINE
8
BFab
62
6
10
191.886924
20
-90.694776
11
191.886924
21
-87.244776
0
LINE
8
BFab
62
6
10
203.386924
20
-89.944776
11
203.386924
21
-92.444776
0
LINE
8
BFab
62
6
10
191.886924
20
-90.744776
11
192.386924
21
-91.244776
0
LINE
8
BFab
62
6
10
196.386924
20
-92.744776
11
196.386924
21
-93.444776
0
LINE
8
BFab
62
6
10
189.386924
20
-87.694776
11
191.886924
21
-87.694776
0
LINE
8
BFab
62
6
10
200.886924
20
-93.444776
11
200.886924
21
-88.744776
0
LINE
8
BFab
62
6
10
192.386924
20
-91.244776
11
194.886924
21
-91.244776
0
LINE
8
BFab
62
6
10
195.886924
20
-88.244776
11
195.886924
21
-87.244776
0
LINE
8
BFab
62
6
10
191.886924
20
-90.194776
11
189.386924
21
-90.194776
0
LINE
8
BFab
62
6
10
196.386924
20
-93.444776
11
200.886924
21
-93.444776
0
LINE
8
BFab
62
6
10
189.386924
20
-90.194776
11
189.386924
21
-87.694776
0
LINE
8
BFab
62
6
10
192.386924
20
-86.744776
11
195.386924
21
-86.744776
0
LINE
8
BFab
62
6
10
200.886924
20
-88.744776
11
196.386924
21
-88.744776
0
LINE
8
BFab
62
6
10
203.386924
20
-92.444776
11
200.886924
21
-92.444776
0
ARC
8
BFab
62
6
10
196.386924
20
-88.244776
30
0
40
0.5
50
180.0
51
270.0
0
ARC
8
BFab
62
6
10
194.886924
20
-92.744776
30
0
40
1.5
50
0.0
51
90.0
0
LINE
8
FFab
62
5
10
186.386924
20
-102.444776
11
186.386924
21
-87.444776
0
LINE
8
FFab
62
5
10
201.386924
20
-87.444776
11
201.386924
21
-102.444776
0
LINE
8
FFab
62
5
10
186.386924
20
-87.444776
11
201.386924
21
-87.444776
0
LINE
8
FFab
62
5
10
201.386924
20
-102.444776
11
186.386924
21
-102.444776
0
LINE
8
Eco2
62
4
10
173.007727
20
-137.828185
11
178.207727
21
-137.828185
0
LINE
8
Eco2
62
4
10
168.707727
20
-147.828185
11
168.707727
21
-134.028185
0
LINE
8
Eco2
62
4
10
182.507727
20
-134.028185
11
182.507727
21
-147.828185
0
LINE
8
Eco2
62
4
10
178.207727
20
-137.828185
11
178.207727
21
-134.628185
0
LINE
8
Eco2
62
4
10
178.207727
20
-134.628185
11
173.007727
21
-134.628185
0
LINE
8
Eco2
62
4
10
182.507727
20
-134.028185
11
168.707727
21
-134.028185
0
LINE
8
Eco2
62
4
10
168.707727
20
-147.828185
11
182.507727
21
-147.828185
0
LINE
8
Eco2
62
4
10
173.007727
20
-137.828185
11
173.007727
21
-134.628185
0
LINE
8
BFab
62
6
10
173.607727
20
-136.728185
11
174.107727
21
-137.228185
0
LINE
8
BFab
62
6
10
177.107727
20
-132.728185
11
177.607727
21
-133.228185
0
LINE
8
BFab
62
6
10
171.107727
20
-133.678185
11
173.607727
21
-133.678185
0
LINE
8
BFab
62
6
10
173.607727
20
-136.178185
11
171.107727
21
-136.178185
0
LINE
8
BFab
62
6
10
185.107727
20
-135.928185
11
185.107727
21
-138.428185
0
LINE
8
BFab
62
6
10
171.107727
20
-136.178185
11
171.107727
21
-133.678185
0
LINE
8
BFab
62
6
10
177.607727
20
-134.228185
11
177.607727
21
-133.228185
0
LINE
8
BFab
62
6
10
174.107727
20
-137.228185
11
176.607727
21
-137.228185
0
LINE
8
BFab
62
6
10
178.107727
20
-138.728185
11
178.107727
21
-139.428185
0
LINE
8
BFab
62
6
10
182.607727
20
-135.928185
11
185.107727
21
-135.928185
0
LINE
8
BFab
62
6
10
173.607727
20
-133.228185
11
174.107727
21
-132.728185
0
LINE
8
BFab
62
6
10
182.607727
20
-139.428185
11
182.607727
21
-134.728185
0
LINE
8
BFab
62
6
10
178.107727
20
-139.428185
11
182.607727
21
-139.428185
0
LINE
8
BFab
62
6
10
185.107727
20
-138.428185
11
182.607727
21
-138.428185
0
LINE
8
BFab
62
6
10
182.607727
20
-134.728185
11
178.107727
21
-134.728185
0
LINE
8
BFab
62
6
10
174.107727
20
-132.728185
11
177.107727
21
-132.728185
0
LINE
8
BFab
62
6
10
173.607727
20
-136.678185
11
173.607727
21
-133.228185
0
ARC
8
BFab
62
6
10
178.107727
20
-134.228185
30
0
40
0.5
50
180.0
51
270.0
0
ARC
8
BFab
62
6
10
176.607727
20
-138.728185
30
0
40
1.5
50
0.0
51
90.0
0
LINE
8
FFab
62
5
10
168.107727
20
-148.428185
11
168.107727
21
-133.428185
0
LINE
8
FFab
62
5
10
168.107727
20
-133.428185
11
183.107727
21
-133.428185
0
LINE
8
FFab
62
5
10
183.107727
20
-133.428185
11
183.107727
21
-148.428185
0
LINE
8
FFab
62
5
10
183.107727
20
-148.428185
11
168.107727
21
-148.428185
0
LINE
8
Eco2
62
4
10
99.055326
20
-104.185752
11
93.855326
21
-104.185752
0
LINE
8
Eco2
62
4
10
99.055326
20
-107.385752
11
99.055326
21
-104.185752
0
LINE
8
Eco2
62
4
10
93.855326
20
-107.385752
11
99.055326
21
-107.385752
0
LINE
8
Eco2
62
4
10
103.355326
20
-103.585752
11
103.355326
21
-117.385752
0
LINE
8
Eco2
62
4
10
93.855326
20
-107.385752
11
93.855326
21
-104.185752
0
LINE
8
Eco2
62
4
10
103.355326
20
-103.585752
11
89.555326
21
-103.585752
0
LINE
8
Eco2
62
4
10
89.555326
20
-117.385752
11
89.555326
21
-103.585752
0
LINE
8
Eco2
62
4
10
89.555326
20
-117.385752
11
103.355326
21
-117.385752
0
LINE
8
BFab
62
6
10
94.455326
20
-106.285752
11
94.955326
21
-106.785752
0
LINE
8
BFab
62
6
10
94.455326
20
-105.735752
11
91.955326
21
-105.735752
0
LINE
8
BFab
62
6
10
91.955326
20
-103.235752
11
94.455326
21
-103.235752
0
LINE
8
BFab
62
6
10
94.455326
20
-106.235752
11
94.455326
21
-102.785752
0
LINE
8
BFab
62
6
10
98.455326
20
-103.785752
11
98.455326
21
-102.785752
0
LINE
8
BFab
62
6
10
98.955326
20
-108.285752
11
98.955326
21
-108.985752
0
LINE
8
BFab
62
6
10
105.955326
20
-107.985752
11
103.455326
21
-107.985752
0
LINE
8
BFab
62
6
10
103.455326
20
-104.285752
11
98.955326
21
-104.285752
0
LINE
8
BFab
62
6
10
103.455326
20
-105.485752
11
105.955326
21
-105.485752
0
LINE
8
BFab
62
6
10
97.955326
20
-102.285752
11
98.455326
21
-102.785752
0
LINE
8
BFab
62
6
10
94.955326
20
-102.285752
11
97.955326
21
-102.285752
0
LINE
8
BFab
62
6
10
91.955326
20
-105.735752
11
91.955326
21
-103.235752
0
LINE
8
BFab
62
6
10
94.455326
20
-102.785752
11
94.955326
21
-102.285752
0
LINE
8
BFab
62
6
10
94.955326
20
-106.785752
11
97.455326
21
-106.785752
0
LINE
8
BFab
62
6
10
103.455326
20
-108.985752
11
103.455326
21
-104.285752
0
LINE
8
BFab
62
6
10
98.955326
20
-108.985752
11
103.455326
21
-108.985752
0
LINE
8
BFab
62
6
10
105.955326
20
-105.485752
11
105.955326
21
-107.985752
0
ARC
8
BFab
62
6
10
98.955326
20
-103.785752
30
0
40
0.5
50
180.0
51
270.0
0
ARC
8
BFab
62
6
10
97.455326
20
-108.285752
30
0
40
1.5
50
0.0
51
90.0
0
LINE
8
FFab
62
5
10
88.955326
20
-117.985752
11
88.955326
21
-102.985752
0
LINE
8
FFab
62
5
10
103.955326
20
-102.985752
11
103.955326
21
-117.985752
0
LINE
8
FFab
62
5
10
103.955326
20
-117.985752
11
88.955326
21
-117.985752
0
LINE
8
FFab
62
5
10
88.955326
20
-102.985752
11
103.955326
21
-102.985752
0
LINE
8
Eco2
62
4
10
254.596563
20
-99.837858
11
259.796563
21
-99.837858
0
LINE
8
Eco2
62
4
10
254.596563
20
-99.837858
11
254.596563
21
-96.637858
0
LINE
8
Eco2
62
4
10
259.796563
20
-99.837858
11
259.796563
21
-96.637858
0
LINE
8
Eco2
62
4
10
250.296563
20
-109.837858
11
264.096563
21
-109.837858
0
LINE
8
Eco2
62
4
10
264.096563
20
-96.037858
11
250.296563
21
-96.037858
0
LINE
8
Eco2
62
4
10
250.296563
20
-109.837858
11
250.296563
21
-96.037858
0
LINE
8
Eco2
62
4
10
264.096563
20
-96.037858
11
264.096563
21
-109.837858
0
LINE
8
Eco2
62
4
10
259.796563
20
-96.637858
11
254.596563
21
-96.637858
0
LINE
8
BFab
62
6
10
252.696563
20
-98.187858
11
252.696563
21
-95.687858
0
LINE
8
BFab
62
6
10
264.196563
20
-97.937858
11
266.696563
21
-97.937858
0
LINE
8
BFab
62
6
10
259.196563
20
-96.237858
11
259.196563
21
-95.237858
0
LINE
8
BFab
62
6
10
252.696563
20
-95.687858
11
255.196563
21
-95.687858
0
LINE
8
BFab
62
6
10
259.696563
20
-101.437858
11
264.196563
21
-101.437858
0
LINE
8
BFab
62
6
10
264.196563
20
-96.737858
11
259.696563
21
-96.737858
0
LINE
8
BFab
62
6
10
266.696563
20
-97.937858
11
266.696563
21
-100.437858
0
LINE
8
BFab
62
6
10
266.696563
20
-100.437858
11
264.196563
21
-100.437858
0
LINE
8
BFab
62
6
10
255.196563
20
-98.687858
11
255.196563
21
-95.237858
0
LINE
8
BFab
62
6
10
255.696563
20
-94.737858
11
258.696563
21
-94.737858
0
LINE
8
BFab
62
6
10
255.196563
20
-95.237858
11
255.696563
21
-94.737858
0
LINE
8
BFab
62
6
10
259.696563
20
-100.737858
11
259.696563
21
-101.437858
0
LINE
8
BFab
62
6
10
255.196563
20
-98.187858
11
252.696563
21
-98.187858
0
LINE
8
BFab
62
6
10
255.196563
20
-98.737858
11
255.696563
21
-99.237858
0
LINE
8
BFab
62
6
10
255.696563
20
-99.237858
11
258.196563
21
-99.237858
0
LINE
8
BFab
62
6
10
264.196563
20
-101.437858
11
264.196563
21
-96.737858
0
LINE
8
BFab
62
6
10
258.696563
20
-94.737858
11
259.196563
21
-95.237858
0
ARC
8
BFab
62
6
10
258.196563
20
-100.737858
30
0
40
1.5
50
0.0
51
90.0
0
ARC
8
BFab
62
6
10
259.696563
20
-96.237858
30
0
40
0.5
50
180.0
51
270.0
0
LINE
8
FFab
62
5
10
264.696563
20
-95.437858
11
264.696563
21
-110.437858
0
LINE
8
FFab
62
5
10
249.696563
20
-110.437858
11
249.696563
21
-95.437858
0
LINE
8
FFab
62
5
10
264.696563
20
-110.437858
11
249.696563
21
-110.437858
0
LINE
8
FFab
62
5
10
249.696563
20
-95.437858
11
264.696563
21
-95.437858
0
CIRCLE
8
Cmts
62
1
10
28.0
20
-99.4
40
2.2
0
CIRCLE
8
FCrtYd
62
7
10
28.0
20
-99.4
40
2.45
0
LINE
8
Eco2
62
4
10
120.23789
20
-94.178418
11
134.03789
21
-94.178418
0
LINE
8
Eco2
62
4
10
129.73789
20
-84.178418
11
129.73789
21
-80.978418
0
LINE
8
Eco2
62
4
10
120.23789
20
-94.178418
11
120.23789
21
-80.378418
0
LINE
8
Eco2
62
4
10
124.53789
20
-84.178418
11
129.73789
21
-84.178418
0
LINE
8
Eco2
62
4
10
124.53789
20
-84.178418
11
124.53789
21
-80.978418
0
LINE
8
Eco2
62
4
10
129.73789
20
-80.978418
11
124.53789
21
-80.978418
0
LINE
8
Eco2
62
4
10
134.03789
20
-80.378418
11
120.23789
21
-80.378418
0
LINE
8
Eco2
62
4
10
134.03789
20
-80.378418
11
134.03789
21
-94.178418
0
LINE
8
BFab
62
6
10
136.63789
20
-84.778418
11
134.13789
21
-84.778418
0
LINE
8
BFab
62
6
10
134.13789
20
-82.278418
11
136.63789
21
-82.278418
0
LINE
8
BFab
62
6
10
129.63789
20
-85.778418
11
134.13789
21
-85.778418
0
LINE
8
BFab
62
6
10
125.63789
20
-83.578418
11
128.13789
21
-83.578418
0
LINE
8
BFab
62
6
10
122.63789
20
-82.528418
11
122.63789
21
-80.028418
0
LINE
8
BFab
62
6
10
122.63789
20
-80.028418
11
125.13789
21
-80.028418
0
LINE
8
BFab
62
6
10
129.13789
20
-80.578418
11
129.13789
21
-79.578418
0
LINE
8
BFab
62
6
10
125.13789
20
-83.078418
11
125.63789
21
-83.578418
0
LINE
8
BFab
62
6
10
125.13789
20
-83.028418
11
125.13789
21
-79.578418
0
LINE
8
BFab
62
6
10
128.63789
20
-79.078418
11
129.13789
21
-79.578418
0
LINE
8
BFab
62
6
10
125.63789
20
-79.078418
11
128.63789
21
-79.078418
0
LINE
8
BFab
62
6
10
129.63789
20
-85.078418
11
129.63789
21
-85.778418
0
LINE
8
BFab
62
6
10
125.13789
20
-79.578418
11
125.63789
21
-79.078418
0
LINE
8
BFab
62
6
10
134.13789
20
-85.778418
11
134.13789
21
-81.078418
0
LINE
8
BFab
62
6
10
125.13789
20
-82.528418
11
122.63789
21
-82.528418
0
LINE
8
BFab
62
6
10
136.63789
20
-82.278418
11
136.63789
21
-84.778418
0
LINE
8
BFab
62
6
10
134.13789
20
-81.078418
11
129.63789
21
-81.078418
0
ARC
8
BFab
62
6
10
129.63789
20
-80.578418
30
0
40
0.5
50
180.0
51
270.0
0
ARC
8
BFab
62
6
10
128.13789
20
-85.078418
30
0
40
1.5
50
0.0
51
90.0
0
LINE
8
FFab
62
5
10
134.63789
20
-94.778418
11
119.63789
21
-94.778418
0
LINE
8
FFab
62
5
10
119.63789
20
-79.778418
11
134.63789
21
-79.778418
0
LINE
8
FFab
62
5
10
119.63789
20
-94.778418
11
119.63789
21
-79.778418
0
LINE
8
FFab
62
5
10
134.63789
20
-79.778418
11
134.63789
21
-94.778418
0
LINE
8
Eco2
62
4
10
80.797267
20
-61.35703
11
80.797267
21
-58.15703
0
LINE
8
Eco2
62
4
10
75.597267
20
-61.35703
11
75.597267
21
-58.15703
0
LINE
8
Eco2
62
4
10
85.097267
20
-57.55703
11
71.297267
21
-57.55703
0
LINE
8
Eco2
62
4
10
75.597267
20
-61.35703
11
80.797267
21
-61.35703
0
LINE
8
Eco2
62
4
10
71.297267
20
-71.35703
11
71.297267
21
-57.55703
0
LINE
8
Eco2
62
4
10
80.797267
20
-58.15703
11
75.597267
21
-58.15703
0
LINE
8
Eco2
62
4
10
71.297267
20
-71.35703
11
85.097267
21
-71.35703
0
LINE
8
Eco2
62
4
10
85.097267
20
-57.55703
11
85.097267
21
-71.35703
0
LINE
8
BFab
62
6
10
87.697267
20
-59.45703
11
87.697267
21
-61.95703
0
LINE
8
BFab
62
6
10
79.697267
20
-56.25703
11
80.197267
21
-56.75703
0
LINE
8
BFab
62
6
10
76.197267
20
-56.75703
11
76.697267
21
-56.25703
0
LINE
8
BFab
62
6
10
76.197267
20
-60.20703
11
76.197267
21
-56.75703
0
LINE
8
BFab
62
6
10
73.697267
20
-59.70703
11
73.697267
21
-57.20703
0
LINE
8
BFab
62
6
10
80.697267
20
-62.25703
11
80.697267
21
-62.95703
0
LINE
8
BFab
62
6
10
85.197267
20
-58.25703
11
80.697267
21
-58.25703
0
LINE
8
BFab
62
6
10
80.197267
20
-57.75703
11
80.197267
21
-56.75703
0
LINE
8
BFab
62
6
10
76.697267
20
-56.25703
11
79.697267
21
-56.25703
0
LINE
8
BFab
62
6
10
76.697267
20
-60.75703
11
79.197267
21
-60.75703
0
LINE
8
BFab
62
6
10
80.697267
20
-62.95703
11
85.197267
21
-62.95703
0
LINE
8
BFab
62
6
10
85.197267
20
-62.95703
11
85.197267
21
-58.25703
0
LINE
8
BFab
62
6
10
76.197267
20
-59.70703
11
73.697267
21
-59.70703
0
LINE
8
BFab
62
6
10
73.697267
20
-57.20703
11
76.197267
21
-57.20703
0
LINE
8
BFab
62
6
10
85.197267
20
-59.45703
11
87.697267
21
-59.45703
0
LINE
8
BFab
62
6
10
76.197267
20
-60.25703
11
76.697267
21
-60.75703
0
LINE
8
BFab
62
6
10
87.697267
20
-61.95703
11
85.197267
21
-61.95703
0
ARC
8
BFab
62
6
10
79.197267
20
-62.25703
30
0
40
1.5
50
0.0
51
90.0
0
ARC
8
BFab
62
6
10
80.697267
20
-57.75703
30
0
40
0.5
50
180.0
51
270.0
0
LINE
8
FFab
62
5
10
85.697267
20
-71.95703
11
70.697267
21
-71.95703
0
LINE
8
FFab
62
5
10
85.697267
20
-56.95703
11
85.697267
21
-71.95703
0
LINE
8
FFab
62
5
10
70.697267
20
-56.95703
11
85.697267
21
-56.95703
0
LINE
8
FFab
62
5
10
70.697267
20
-71.95703
11
70.697267
21
-56.95703
0
LINE
8
Eco2
62
4
10
179.802411
20
-86.437548
11
179.802411
21
-72.637548
0
LINE
8
Eco2
62
4
10
193.602411
20
-72.637548
11
179.802411
21
-72.637548
0
LINE
8
Eco2
62
4
10
193.602411
20
-72.637548
11
193.602411
21
-86.437548
0
LINE
8
Eco2
62
4
10
189.302411
20
-73.237548
11
184.102411
21
-73.237548
0
LINE
8
Eco2
62
4
10
184.102411
20
-76.437548
11
189.302411
21
-76.437548
0
LINE
8
Eco2
62
4
10
184.102411
20
-76.437548
11
184.102411
21
-73.237548
0
LINE
8
Eco2
62
4
10
189.302411
20
-76.437548
11
189.302411
21
-73.237548
0
LINE
8
Eco2
62
4
10
179.802411
20
-86.437548
11
193.602411
21
-86.437548
0
LINE
8
BFab
62
6
10
189.202411
20
-77.337548
11
189.202411
21
-78.037548
0
LINE
8
BFab
62
6
10
184.702411
20
-75.287548
11
184.702411
21
-71.837548
0
LINE
8
BFab
62
6
10
184.702411
20
-75.337548
11
185.202411
21
-75.837548
0
LINE
8
BFab
62
6
10
193.702411
20
-74.537548
11
196.202411
21
-74.537548
0
LINE
8
BFab
62
6
10
193.702411
20
-73.337548
11
189.202411
21
-73.337548
0
LINE
8
BFab
62
6
10
182.202411
20
-74.787548
11
182.202411
21
-72.287548
0
LINE
8
BFab
62
6
10
184.702411
20
-71.837548
11
185.202411
21
-71.337548
0
LINE
8
BFab
62
6
10
184.702411
20
-74.787548
11
182.202411
21
-74.787548
0
LINE
8
BFab
62
6
10
193.702411
20
-78.037548
11
193.702411
21
-73.337548
0
LINE
8
BFab
62
6
10
188.702411
20
-72.837548
11
188.702411
21
-71.837548
0
LINE
8
BFab
62
6
10
189.202411
20
-78.037548
11
193.702411
21
-78.037548
0
LINE
8
BFab
62
6
10
182.202411
20
-72.287548
11
184.702411
21
-72.287548
0
LINE
8
BFab
62
6
10
185.202411
20
-75.837548
11
187.702411
21
-75.837548
0
LINE
8
BFab
62
6
10
185.202411
20
-71.337548
11
188.202411
21
-71.337548
0
LINE
8
BFab
62
6
10
196.202411
20
-77.037548
11
193.702411
21
-77.037548
0
LINE
8
BFab
62
6
10
196.202411
20
-74.537548
11
196.202411
21
-77.037548
0
LINE
8
BFab
62
6
10
188.202411
20
-71.337548
11
188.702411
21
-71.837548
0
ARC
8
BFab
62
6
10
189.202411
20
-72.837548
30
0
40
0.5
50
180.0
51
270.0
0
ARC
8
BFab
62
6
10
187.702411
20
-77.337548
30
0
40
1.5
50
0.0
51
90.0
0
LINE
8
FFab
62
5
10
179.202411
20
-87.037548
11
179.202411
21
-72.037548
0
LINE
8
FFab
62
5
10
194.202411
20
-72.037548
11
194.202411
21
-87.037548
0
LINE
8
FFab
62
5
10
179.202411
20
-72.037548
11
194.202411
21
-72.037548
0
LINE
8
FFab
62
5
10
194.202411
20
-87.037548
11
179.202411
21
-87.037548
0
LINE
8
Eco2
62
4
10
252.612052
20
-81.230626
11
247.412052
21
-81.230626
0
LINE
8
Eco2
62
4
10
247.412052
20
-84.430626
11
252.612052
21
-84.430626
0
LINE
8
Eco2
62
4
10
243.112052
20
-94.430626
11
243.112052
21
-80.630626
0
LINE
8
Eco2
62
4
10
243.112052
20
-94.430626
11
256.912052
21
-94.430626
0
LINE
8
Eco2
62
4
10
252.612052
20
-84.430626
11
252.612052
21
-81.230626
0
LINE
8
Eco2
62
4
10
247.412052
20
-84.430626
11
247.412052
21
-81.230626
0
LINE
8
Eco2
62
4
10
256.912052
20
-80.630626
11
256.912052
21
-94.430626
0
LINE
8
Eco2
62
4
10
256.912052
20
-80.630626
11
243.112052
21
-80.630626
0
LINE
8
BFab
62
6
10
252.512052
20
-85.330626
11
252.512052
21
-86.030626
0
LINE
8
BFab
62
6
10
245.512052
20
-80.280626
11
248.012052
21
-80.280626
0
LINE
8
BFab
62
6
10
248.012052
20
-82.780626
11
245.512052
21
-82.780626
0
LINE
8
BFab
62
6
10
245.512052
20
-82.780626
11
245.512052
21
-80.280626
0
LINE
8
BFab
62
6
10
248.012052
20
-79.830626
11
248.512052
21
-79.330626
0
LINE
8
BFab
62
6
10
248.512052
20
-79.330626
11
251.512052
21
-79.330626
0
LINE
8
BFab
62
6
10
259.512052
20
-82.530626
11
259.512052
21
-85.030626
0
LINE
8
BFab
62
6
10
248.512052
20
-83.830626
11
251.012052
21
-83.830626
0
LINE
8
BFab
62
6
10
248.012052
20
-83.330626
11
248.512052
21
-83.830626
0
LINE
8
BFab
62
6
10
252.512052
20
-86.030626
11
257.012052
21
-86.030626
0
LINE
8
BFab
62
6
10
257.012052
20
-82.530626
11
259.512052
21
-82.530626
0
LINE
8
BFab
62
6
10
251.512052
20
-79.330626
11
252.012052
21
-79.830626
0
LINE
8
BFab
62
6
10
259.512052
20
-85.030626
11
257.012052
21
-85.030626
0
LINE
8
BFab
62
6
10
252.012052
20
-80.830626
11
252.012052
21
-79.830626
0
LINE
8
BFab
62
6
10
248.012052
20
-83.280626
11
248.012052
21
-79.830626
0
LINE
8
BFab
62
6
10
257.012052
20
-86.030626
11
257.012052
21
-81.330626
0
LINE
8
BFab
62
6
10
257.012052
20
-81.330626
11
252.512052
21
-81.330626
0
ARC
8
BFab
62
6
10
252.512052
20
-80.830626
30
0
40
0.5
50
180.0
51
270.0
0
ARC
8
BFab
62
6
10
251.012052
20
-85.330626
30
0
40
1.5
50
0.0
51
90.0
0
LINE
8
FFab
62
5
10
257.512052
20
-95.030626
11
242.512052
21
-95.030626
0
LINE
8
FFab
62
5
10
257.512052
20
-80.030626
11
257.512052
21
-95.030626
0
LINE
8
FFab
62
5
10
242.512052
20
-80.030626
11
257.512052
21
-80.030626
0
LINE
8
FFab
62
5
10
242.512052
20
-95.030626
11
242.512052
21
-80.030626
0
LINE
8
Eco2
62
4
10
101.039838
20
-91.978519
11
101.039838
21
-88.778519
0
LINE
8
Eco2
62
4
10
96.739838
20
-101.978519
11
110.539838
21
-101.978519
0
LINE
8
Eco2
62
4
10
101.039838
20
-91.978519
11
106.239838
21
-91.978519
0
LINE
8
Eco2
62
4
10
110.539838
20
-88.178519
11
110.539838
21
-101.978519
0
LINE
8
Eco2
62
4
10
96.739838
20
-101.978519
11
96.739838
21
-88.178519
0
LINE
8
Eco2
62
4
10
106.239838
20
-91.978519
11
106.239838
21
-88.778519
0
LINE
8
Eco2
62
4
10
110.539838
20
-88.178519
11
96.739838
21
-88.178519
0
LINE
8
Eco2
62
4
10
106.239838
20
-88.778519
11
101.039838
21
-88.778519
0
LINE
8
BFab
62
6
10
113.139838
20
-90.078519
11
113.139838
21
-92.578519
0
LINE
8
BFab
62
6
10
101.639838
20
-90.328519
11
99.139838
21
-90.328519
0
LINE
8
BFab
62
6
10
101.639838
20
-87.378519
11
102.139838
21
-86.878519
0
LINE
8
BFab
62
6
10
105.139838
20
-86.878519
11
105.639838
21
-87.378519
0
LINE
8
BFab
62
6
10
102.139838
20
-86.878519
11
105.139838
21
-86.878519
0
LINE
8
BFab
62
6
10
110.639838
20
-93.578519
11
110.639838
21
-88.878519
0
LINE
8
BFab
62
6
10
101.639838
20
-90.828519
11
101.639838
21
-87.378519
0
LINE
8
BFab
62
6
10
110.639838
20
-88.878519
11
106.139838
21
-88.878519
0
LINE
8
BFab
62
6
10
106.139838
20
-93.578519
11
110.639838
21
-93.578519
0
LINE
8
BFab
62
6
10
102.139838
20
-91.378519
11
104.639838
21
-91.378519
0
LINE
8
BFab
62
6
10
105.639838
20
-88.378519
11
105.639838
21
-87.378519
0
LINE
8
BFab
62
6
10
113.139838
20
-92.578519
11
110.639838
21
-92.578519
0
LINE
8
BFab
62
6
10
99.139838
20
-87.828519
11
101.639838
21
-87.828519
0
LINE
8
BFab
62
6
10
101.639838
20
-90.878519
11
102.139838
21
-91.378519
0
LINE
8
BFab
62
6
10
110.639838
20
-90.078519
11
113.139838
21
-90.078519
0
LINE
8
BFab
62
6
10
106.139838
20
-92.878519
11
106.139838
21
-93.578519
0
LINE
8
BFab
62
6
10
99.139838
20
-90.328519
11
99.139838
21
-87.828519
0
ARC
8
BFab
62
6
10
106.139838
20
-88.378519
30
0
40
0.5
50
180.0
51
270.0
0
ARC
8
BFab
62
6
10
104.639838
20
-92.878519
30
0
40
1.5
50
0.0
51
90.0
0
LINE
8
FFab
62
5
10
111.139838
20
-102.578519
11
96.139838
21
-102.578519
0
LINE
8
FFab
62
5
10
96.139838
20
-102.578519
11
96.139838
21
-87.578519
0
LINE
8
FFab
62
5
10
111.139838
20
-87.578519
11
111.139838
21
-102.578519
0
LINE
8
FFab
62
5
10
96.139838
20
-87.578519
11
111.139838
21
-87.578519
0
LINE
8
Eco2
62
4
10
209.842137
20
-77.893496
11
209.842137
21
-74.693496
0
LINE
8
Eco2
62
4
10
200.342137
20
-87.893496
11
214.142137
21
-87.893496
0
LINE
8
Eco2
62
4
10
209.842137
20
-74.693496
11
204.642137
21
-74.693496
0
LINE
8
Eco2
62
4
10
204.642137
20
-77.893496
11
204.642137
21
-74.693496
0
LINE
8
Eco2
62
4
10
200.342137
20
-87.893496
11
200.342137
21
-74.093496
0
LINE
8
Eco2
62
4
10
214.142137
20
-74.093496
11
214.142137
21
-87.893496
0
LINE
8
Eco2
62
4
10
204.642137
20
-77.893496
11
209.842137
21
-77.893496
0
LINE
8
Eco2
62
4
10
214.142137
20
-74.093496
11
200.342137
21
-74.093496
0
LINE
8
BFab
62
6
10
214.242137
20
-79.493496
11
214.242137
21
-74.793496
0
LINE
8
BFab
62
6
10
216.742137
20
-75.993496
11
216.742137
21
-78.493496
0
LINE
8
BFab
62
6
10
209.742137
20
-79.493496
11
214.242137
21
-79.493496
0
LINE
8
BFab
62
6
10
208.742137
20
-72.793496
11
209.242137
21
-73.293496
0
LINE
8
BFab
62
6
10
205.242137
20
-73.293496
11
205.742137
21
-72.793496
0
LINE
8
BFab
62
6
10
209.742137
20
-78.793496
11
209.742137
21
-79.493496
0
LINE
8
BFab
62
6
10
205.742137
20
-77.293496
11
208.242137
21
-77.293496
0
LINE
8
BFab
62
6
10
216.742137
20
-78.493496
11
214.242137
21
-78.493496
0
LINE
8
BFab
62
6
10
214.242137
20
-74.793496
11
209.742137
21
-74.793496
0
LINE
8
BFab
62
6
10
205.242137
20
-76.743496
11
205.242137
21
-73.293496
0
LINE
8
BFab
62
6
10
202.742137
20
-73.743496
11
205.242137
21
-73.743496
0
LINE
8
BFab
62
6
10
202.742137
20
-76.243496
11
202.742137
21
-73.743496
0
LINE
8
BFab
62
6
10
205.242137
20
-76.793496
11
205.742137
21
-77.293496
0
LINE
8
BFab
62
6
10
209.242137
20
-74.293496
11
209.242137
21
-73.293496
0
LINE
8
BFab
62
6
10
205.242137
20
-76.243496
11
202.742137
21
-76.243496
0
LINE
8
BFab
62
6
10
214.242137
20
-75.993496
11
216.742137
21
-75.993496
0
LINE
8
BFab
62
6
10
205.742137
20
-72.793496
11
208.742137
21
-72.793496
0
ARC
8
BFab
62
6
10
209.742137
20
-74.293496
30
0
40
0.5
50
180.0
51
270.0
0
ARC
8
BFab
62
6
10
208.242137
20
-78.793496
30
0
40
1.5
50
0.0
51
90.0
0
LINE
8
FFab
62
5
10
199.742137
20
-73.493496
11
214.742137
21
-73.493496
0
LINE
8
FFab
62
5
10
214.742137
20
-73.493496
11
214.742137
21
-88.493496
0
LINE
8
FFab
62
5
10
214.742137
20
-88.493496
11
199.742137
21
-88.493496
0
LINE
8
FFab
62
5
10
199.742137
20
-88.493496
11
199.742137
21
-73.493496
0
LINE
8
Eco2
62
4
10
117.724346
20
-72.771287
11
117.724346
21
-86.571287
0
LINE
8
Eco2
62
4
10
113.424346
20
-73.371287
11
108.224346
21
-73.371287
0
LINE
8
Eco2
62
4
10
108.224346
20
-76.571287
11
108.224346
21
-73.371287
0
LINE
8
Eco2
62
4
10
108.224346
20
-76.571287
11
113.424346
21
-76.571287
0
LINE
8
Eco2
62
4
10
103.924346
20
-86.571287
11
103.924346
21
-72.771287
0
LINE
8
Eco2
62
4
10
117.724346
20
-72.771287
11
103.924346
21
-72.771287
0
LINE
8
Eco2
62
4
10
103.924346
20
-86.571287
11
117.724346
21
-86.571287
0
LINE
8
Eco2
62
4
10
113.424346
20
-76.571287
11
113.424346
21
-73.371287
0
LINE
8
BFab
62
6
10
120.324346
20
-74.671287
11
120.324346
21
-77.171287
0
LINE
8
BFab
62
6
10
120.324346
20
-77.171287
11
117.824346
21
-77.171287
0
LINE
8
BFab
62
6
10
109.324346
20
-71.471287
11
112.324346
21
-71.471287
0
LINE
8
BFab
62
6
10
109.324346
20
-75.971287
11
111.824346
21
-75.971287
0
LINE
8
BFab
62
6
10
112.324346
20
-71.471287
11
112.824346
21
-71.971287
0
LINE
8
BFab
62
6
10
106.324346
20
-74.921287
11
106.324346
21
-72.421287
0
LINE
8
BFab
62
6
10
108.824346
20
-75.471287
11
109.324346
21
-75.971287
0
LINE
8
BFab
62
6
10
117.824346
20
-73.471287
11
113.324346
21
-73.471287
0
LINE
8
BFab
62
6
10
117.824346
20
-74.671287
11
120.324346
21
-74.671287
0
LINE
8
BFab
62
6
10
113.324346
20
-78.171287
11
117.824346
21
-78.171287
0
LINE
8
BFab
62
6
10
112.824346
20
-72.971287
11
112.824346
21
-71.971287
0
LINE
8
BFab
62
6
10
108.824346
20
-74.921287
11
106.324346
21
-74.921287
0
LINE
8
BFab
62
6
10
113.324346
20
-77.471287
11
113.324346
21
-78.171287
0
LINE
8
BFab
62
6
10
108.824346
20
-75.421287
11
108.824346
21
-71.971287
0
LINE
8
BFab
62
6
10
117.824346
20
-78.171287
11
117.824346
21
-73.471287
0
LINE
8
BFab
62
6
10
108.824346
20
-71.971287
11
109.324346
21
-71.471287
0
LINE
8
BFab
62
6
10
106.324346
20
-72.421287
11
108.824346
21
-72.421287
0
ARC
8
BFab
62
6
10
113.324346
20
-72.971287
30
0
40
0.5
50
180.0
51
270.0
0
ARC
8
BFab
62
6
10
111.824346
20
-77.471287
30
0
40
1.5
50
0.0
51
90.0
0
LINE
8
FFab
62
5
10
103.324346
20
-87.171287
11
103.324346
21
-72.171287
0
LINE
8
FFab
62
5
10
118.324346
20
-87.171287
11
103.324346
21
-87.171287
0
LINE
8
FFab
62
5
10
103.324346
20
-72.171287
11
118.324346
21
-72.171287
0
LINE
8
FFab
62
5
10
118.324346
20
-72.171287
11
118.324346
21
-87.171287
0
CIRCLE
8
Cmts
62
1
10
115.3
20
-91.3
40
2.2
0
CIRCLE
8
FCrtYd
62
7
10
115.3
20
-91.3
40
2.45
0
CIRCLE
8
Cmts
62
1
10
269.6
20
-99.5
40
2.2
0
CIRCLE
8
FCrtYd
62
7
10
269.6
20
-99.5
40
2.45
0
LINE
8
Eco2
62
4
10
35.112486
20
-79.566486
11
21.312486
21
-79.566486
0
LINE
8
Eco2
62
4
10
35.112486
20
-79.566486
11
35.112486
21
-93.366486
0
LINE
8
Eco2
62
4
10
30.812486
20
-80.166486
11
25.612486
21
-80.166486
0
LINE
8
Eco2
62
4
10
21.312486
20
-93.366486
11
35.112486
21
-93.366486
0
LINE
8
Eco2
62
4
10
21.312486
20
-93.366486
11
21.312486
21
-79.566486
0
LINE
8
Eco2
62
4
10
25.612486
20
-83.366486
11
25.612486
21
-80.166486
0
LINE
8
Eco2
62
4
10
25.612486
20
-83.366486
11
30.812486
21
-83.366486
0
LINE
8
Eco2
62
4
10
30.812486
20
-83.366486
11
30.812486
21
-80.166486
0
LINE
8
BFab
62
6
10
26.212486
20
-81.716486
11
23.712486
21
-81.716486
0
LINE
8
BFab
62
6
10
30.212486
20
-79.766486
11
30.212486
21
-78.766486
0
LINE
8
BFab
62
6
10
26.712486
20
-82.766486
11
29.212486
21
-82.766486
0
LINE
8
BFab
62
6
10
23.712486
20
-79.216486
11
26.212486
21
-79.216486
0
LINE
8
BFab
62
6
10
35.212486
20
-84.966486
11
35.212486
21
-80.266486
0
LINE
8
BFab
62
6
10
26.712486
20
-78.266486
11
29.712486
21
-78.266486
0
LINE
8
BFab
62
6
10
30.712486
20
-84.266486
11
30.712486
21
-84.966486
0
LINE
8
BFab
62
6
10
26.212486
20
-78.766486
11
26.712486
21
-78.266486
0
LINE
8
BFab
62
6
10
37.712486
20
-81.466486
11
37.712486
21
-83.966486
0
LINE
8
BFab
62
6
10
29.712486
20
-78.266486
11
30.212486
21
-78.766486
0
LINE
8
BFab
62
6
10
23.712486
20
-81.716486
11
23.712486
21
-79.216486
0
LINE
8
BFab
62
6
10
26.212486
20
-82.266486
11
26.712486
21
-82.766486
0
LINE
8
BFab
62
6
10
26.212486
20
-82.216486
11
26.212486
21
-78.766486
0
LINE
8
BFab
62
6
10
30.712486
20
-84.966486
11
35.212486
21
-84.966486
0
LINE
8
BFab
62
6
10
37.712486
20
-83.966486
11
35.212486
21
-83.966486
0
LINE
8
BFab
62
6
10
35.212486
20
-81.466486
11
37.712486
21
-81.466486
0
LINE
8
BFab
62
6
10
35.212486
20
-80.266486
11
30.712486
21
-80.266486
0
ARC
8
BFab
62
6
10
29.212486
20
-84.266486
30
0
40
1.5
50
0.0
51
90.0
0
ARC
8
BFab
62
6
10
30.712486
20
-79.766486
30
0
40
0.5
50
180.0
51
270.0
0
LINE
8
FFab
62
5
10
20.712486
20
-78.966486
11
35.712486
21
-78.966486
0
LINE
8
FFab
62
5
10
20.712486
20
-93.966486
11
20.712486
21
-78.966486
0
LINE
8
FFab
62
5
10
35.712486
20
-78.966486
11
35.712486
21
-93.966486
0
LINE
8
FFab
62
5
10
35.712486
20
-93.966486
11
20.712486
21
-93.966486
0
LINE
8
Eco2
62
4
10
217.026642
20
-90.10073
11
211.826642
21
-90.10073
0
LINE
8
Eco2
62
4
10
211.826642
20
-93.30073
11
217.026642
21
-93.30073
0
LINE
8
Eco2
62
4
10
221.326642
20
-89.50073
11
221.326642
21
-103.30073
0
LINE
8
Eco2
62
4
10
207.526642
20
-103.30073
11
207.526642
21
-89.50073
0
LINE
8
Eco2
62
4
10
207.526642
20
-103.30073
11
221.326642
21
-103.30073
0
LINE
8
Eco2
62
4
10
211.826642
20
-93.30073
11
211.826642
21
-90.10073
0
LINE
8
Eco2
62
4
10
217.026642
20
-93.30073
11
217.026642
21
-90.10073
0
LINE
8
Eco2
62
4
10
221.326642
20
-89.50073
11
207.526642
21
-89.50073
0
LINE
8
BFab
62
6
10
212.426642
20
-91.65073
11
209.926642
21
-91.65073
0
LINE
8
BFab
62
6
10
212.426642
20
-88.70073
11
212.926642
21
-88.20073
0
LINE
8
BFab
62
6
10
221.426642
20
-91.40073
11
223.926642
21
-91.40073
0
LINE
8
BFab
62
6
10
216.926642
20
-94.90073
11
221.426642
21
-94.90073
0
LINE
8
BFab
62
6
10
212.426642
20
-92.15073
11
212.426642
21
-88.70073
0
LINE
8
BFab
62
6
10
223.926642
20
-93.90073
11
221.426642
21
-93.90073
0
LINE
8
BFab
62
6
10
221.426642
20
-90.20073
11
216.926642
21
-90.20073
0
LINE
8
BFab
62
6
10
223.926642
20
-91.40073
11
223.926642
21
-93.90073
0
LINE
8
BFab
62
6
10
216.926642
20
-94.20073
11
216.926642
21
-94.90073
0
LINE
8
BFab
62
6
10
209.926642
20
-89.15073
11
212.426642
21
-89.15073
0
LINE
8
BFab
62
6
10
221.426642
20
-94.90073
11
221.426642
21
-90.20073
0
LINE
8
BFab
62
6
10
209.926642
20
-91.65073
11
209.926642
21
-89.15073
0
LINE
8
BFab
62
6
10
212.926642
20
-88.20073
11
215.926642
21
-88.20073
0
LINE
8
BFab
62
6
10
212.926642
20
-92.70073
11
215.426642
21
-92.70073
0
LINE
8
BFab
62
6
10
215.926642
20
-88.20073
11
216.426642
21
-88.70073
0
LINE
8
BFab
62
6
10
212.426642
20
-92.20073
11
212.926642
21
-92.70073
0
LINE
8
BFab
62
6
10
216.426642
20
-89.70073
11
216.426642
21
-88.70073
0
ARC
8
BFab
62
6
10
215.426642
20
-94.20073
30
0
40
1.5
50
0.0
51
90.0
0
ARC
8
BFab
62
6
10
216.926642
20
-89.70073
30
0
40
0.5
50
180.0
51
270.0
0
LINE
8
FFab
62
5
10
221.926642
20
-103.90073
11
206.926642
21
-103.90073
0
LINE
8
FFab
62
5
10
206.926642
20
-88.90073
11
221.926642
21
-88.90073
0
LINE
8
FFab
62
5
10
206.926642
20
-103.90073
11
206.926642
21
-88.90073
0
LINE
8
FFab
62
5
10
221.926642
20
-88.90073
11
221.926642
21
-103.90073
0
LINE
8
Eco2
62
4
10
194.171428
20
-117.252013
11
194.171428
21
-103.452013
0
LINE
8
Eco2
62
4
10
207.971428
20
-103.452013
11
207.971428
21
-117.252013
0
LINE
8
Eco2
62
4
10
198.471428
20
-107.252013
11
203.671428
21
-107.252013
0
LINE
8
Eco2
62
4
10
203.671428
20
-107.252013
11
203.671428
21
-104.052013
0
LINE
8
Eco2
62
4
10
203.671428
20
-104.052013
11
198.471428
21
-104.052013
0
LINE
8
Eco2
62
4
10
198.471428
20
-107.252013
11
198.471428
21
-104.052013
0
LINE
8
Eco2
62
4
10
207.971428
20
-103.452013
11
194.171428
21
-103.452013
0
LINE
8
Eco2
62
4
10
194.171428
20
-117.252013
11
207.971428
21
-117.252013
0
LINE
8
BFab
62
6
10
196.571428
20
-103.102013
11
199.071428
21
-103.102013
0
LINE
8
BFab
62
6
10
208.071428
20
-104.152013
11
203.571428
21
-104.152013
0
LINE
8
BFab
62
6
10
199.571428
20
-102.152013
11
202.571428
21
-102.152013
0
LINE
8
BFab
62
6
10
199.571428
20
-106.652013
11
202.071428
21
-106.652013
0
LINE
8
BFab
62
6
10
199.071428
20
-105.602013
11
196.571428
21
-105.602013
0
LINE
8
BFab
62
6
10
202.571428
20
-102.152013
11
203.071428
21
-102.652013
0
LINE
8
BFab
62
6
10
199.071428
20
-106.152013
11
199.571428
21
-106.652013
0
LINE
8
BFab
62
6
10
203.071428
20
-103.652013
11
203.071428
21
-102.652013
0
LINE
8
BFab
62
6
10
199.071428
20
-106.102013
11
199.071428
21
-102.652013
0
LINE
8
BFab
62
6
10
208.071428
20
-108.852013
11
208.071428
21
-104.152013
0
LINE
8
BFab
62
6
10
210.571428
20
-105.352013
11
210.571428
21
-107.852013
0
LINE
8
BFab
62
6
10
196.571428
20
-105.602013
11
196.571428
21
-103.102013
0
LINE
8
BFab
62
6
10
208.071428
20
-105.352013
11
210.571428
21
-105.352013
0
LINE
8
BFab
62
6
10
203.571428
20
-108.152013
11
203.571428
21
-108.852013
0
LINE
8
BFab
62
6
10
210.571428
20
-107.852013
11
208.071428
21
-107.852013
0
LINE
8
BFab
62
6
10
203.571428
20
-108.852013
11
208.071428
21
-108.852013
0
LINE
8
BFab
62
6
10
199.071428
20
-102.652013
11
199.571428
21
-102.152013
0
ARC
8
BFab
62
6
10
202.071428
20
-108.152013
30
0
40
1.5
50
0.0
51
90.0
0
ARC
8
BFab
62
6
10
203.571428
20
-103.652013
30
0
40
0.5
50
180.0
51
270.0
0
LINE
8
FFab
62
5
10
193.571428
20
-102.852013
11
208.571428
21
-102.852013
0
LINE
8
FFab
62
5
10
208.571428
20
-117.852013
11
193.571428
21
-117.852013
0
LINE
8
FFab
62
5
10
208.571428
20
-102.852013
11
208.571428
21
-117.852013
0
LINE
8
FFab
62
5
10
193.571428
20
-117.852013
11
193.571428
21
-102.852013
0
LINE
8
Eco2
62
4
10
85.700115
20
-90.23447
11
80.500115
21
-90.23447
0
LINE
8
Eco2
62
4
10
90.000115
20
-89.63447
11
76.200115
21
-89.63447
0
LINE
8
Eco2
62
4
10
76.200115
20
-103.43447
11
90.000115
21
-103.43447
0
LINE
8
Eco2
62
4
10
80.500115
20
-93.43447
11
85.700115
21
-93.43447
0
LINE
8
Eco2
62
4
10
90.000115
20
-89.63447
11
90.000115
21
-103.43447
0
LINE
8
Eco2
62
4
10
85.700115
20
-93.43447
11
85.700115
21
-90.23447
0
LINE
8
Eco2
62
4
10
76.200115
20
-103.43447
11
76.200115
21
-89.63447
0
LINE
8
Eco2
62
4
10
80.500115
20
-93.43447
11
80.500115
21
-90.23447
0
LINE
8
BFab
62
6
10
90.100115
20
-95.03447
11
90.100115
21
-90.33447
0
LINE
8
BFab
62
6
10
84.600115
20
-88.33447
11
85.100115
21
-88.83447
0
LINE
8
BFab
62
6
10
90.100115
20
-91.53447
11
92.600115
21
-91.53447
0
LINE
8
BFab
62
6
10
90.100115
20
-90.33447
11
85.600115
21
-90.33447
0
LINE
8
BFab
62
6
10
81.100115
20
-91.78447
11
78.600115
21
-91.78447
0
LINE
8
BFab
62
6
10
85.600115
20
-94.33447
11
85.600115
21
-95.03447
0
LINE
8
BFab
62
6
10
92.600115
20
-91.53447
11
92.600115
21
-94.03447
0
LINE
8
BFab
62
6
10
81.600115
20
-92.83447
11
84.100115
21
-92.83447
0
LINE
8
BFab
62
6
10
81.100115
20
-92.33447
11
81.600115
21
-92.83447
0
LINE
8
BFab
62
6
10
78.600115
20
-91.78447
11
78.600115
21
-89.28447
0
LINE
8
BFab
62
6
10
85.100115
20
-89.83447
11
85.100115
21
-88.83447
0
LINE
8
BFab
62
6
10
78.600115
20
-89.28447
11
81.100115
21
-89.28447
0
LINE
8
BFab
62
6
10
92.600115
20
-94.03447
11
90.100115
21
-94.03447
0
LINE
8
BFab
62
6
10
81.100115
20
-92.28447
11
81.100115
21
-88.83447
0
LINE
8
BFab
62
6
10
81.600115
20
-88.33447
11
84.600115
21
-88.33447
0
LINE
8
BFab
62
6
10
85.600115
20
-95.03447
11
90.100115
21
-95.03447
0
LINE
8
BFab
62
6
10
81.100115
20
-88.83447
11
81.600115
21
-88.33447
0
ARC
8
BFab
62
6
10
85.600115
20
-89.83447
30
0
40
0.5
50
180.0
51
270.0
0
ARC
8
BFab
62
6
10
84.100115
20
-94.33447
30
0
40
1.5
50
0.0
51
90.0
0
LINE
8
FFab
62
5
10
75.600115
20
-89.03447
11
90.600115
21
-89.03447
0
LINE
8
FFab
62
5
10
90.600115
20
-104.03447
11
75.600115
21
-104.03447
0
LINE
8
FFab
62
5
10
75.600115
20
-104.03447
11
75.600115
21
-89.03447
0
LINE
8
FFab
62
5
10
90.600115
20
-89.03447
11
90.600115
21
-104.03447
0
CIRCLE
8
Cmts
62
1
10
96.1
20
-123.4
40
2.2
0
CIRCLE
8
FCrtYd
62
7
10
96.1
20
-123.4
40
2.45
0
LINE
8
BCrtYd
62
8
10
47.099466
20
-94.130073
11
47.099466
21
-91.830073
0
LINE
8
BCrtYd
62
8
10
47.099466
20
-94.130073
11
51.799466
21
-94.130073
0
LINE
8
BCrtYd
62
8
10
51.799466
20
-94.130073
11
51.799466
21
-91.830073
0
LINE
8
BCrtYd
62
8
10
51.799466
20
-91.830073
11
47.099466
21
-91.830073
0
LINE
8
BFab
62
6
10
50.849466
20
-93.880073
11
50.849466
21
-92.080073
0
LINE
8
BFab
62
6
10
49.099466
20
-92.980073
11
49.699466
21
-93.380073
0
LINE
8
BFab
62
6
10
49.699466
20
-93.380073
11
49.699466
21
-92.580073
0
LINE
8
BFab
62
6
10
49.099466
20
-92.980073
11
49.099466
21
-92.430073
0
LINE
8
BFab
62
6
10
50.849466
20
-92.080073
11
48.049466
21
-92.080073
0
LINE
8
BFab
62
6
10
48.699466
20
-92.980073
11
49.099466
21
-92.980073
0
LINE
8
BFab
62
6
10
49.099466
20
-92.980073
11
49.099466
21
-93.530073
0
LINE
8
BFab
62
6
10
48.049466
20
-93.880073
11
50.849466
21
-93.880073
0
LINE
8
BFab
62
6
10
48.049466
20
-92.080073
11
48.049466
21
-93.880073
0
LINE
8
BFab
62
6
10
49.699466
20
-92.580073
11
49.099466
21
-92.980073
0
LINE
8
BFab
62
6
10
49.699466
20
-92.980073
11
50.199466
21
-92.980073
0
LINE
8
BCrtYd
62
8
10
101.753896
20
-72.185711
11
101.753896
21
-69.885711
0
LINE
8
BCrtYd
62
8
10
97.053896
20
-72.185711
11
101.753896
21
-72.185711
0
LINE
8
BCrtYd
62
8
10
97.053896
20
-72.185711
11
97.053896
21
-69.885711
0
LINE
8
BCrtYd
62
8
10
101.753896
20
-69.885711
11
97.053896
21
-69.885711
0
LINE
8
BFab
62
6
10
100.803896
20
-70.135711
11
98.003896
21
-70.135711
0
LINE
8
BFab
62
6
10
99.653896
20
-71.035711
11
100.153896
21
-71.035711
0
LINE
8
BFab
62
6
10
98.653896
20
-71.035711
11
99.053896
21
-71.035711
0
LINE
8
BFab
62
6
10
99.053896
20
-71.035711
11
99.053896
21
-71.585711
0
LINE
8
BFab
62
6
10
99.053896
20
-71.035711
11
99.653896
21
-71.435711
0
LINE
8
BFab
62
6
10
99.653896
20
-71.435711
11
99.653896
21
-70.635711
0
LINE
8
BFab
62
6
10
98.003896
20
-70.135711
11
98.003896
21
-71.935711
0
LINE
8
BFab
62
6
10
99.653896
20
-70.635711
11
99.053896
21
-71.035711
0
LINE
8
BFab
62
6
10
100.803896
20
-71.935711
11
100.803896
21
-70.135711
0
LINE
8
BFab
62
6
10
98.003896
20
-71.935711
11
100.803896
21
-71.935711
0
LINE
8
BFab
62
6
10
99.053896
20
-71.035711
11
99.053896
21
-70.485711
0
LINE
8
BCrtYd
62
8
10
192.474239
20
-121.15251
11
192.474239
21
-118.85251
0
LINE
8
BCrtYd
62
8
10
192.474239
20
-118.85251
11
187.774239
21
-118.85251
0
LINE
8
BCrtYd
62
8
10
187.774239
20
-121.15251
11
187.774239
21
-118.85251
0
LINE
8
BCrtYd
62
8
10
187.774239
20
-121.15251
11
192.474239
21
-121.15251
0
LINE
8
BFab
62
6
10
189.774239
20
-120.00251
11
189.774239
21
-120.55251
0
LINE
8
BFab
62
6
10
189.774239
20
-120.00251
11
189.774239
21
-119.45251
0
LINE
8
BFab
62
6
10
188.724239
20
-120.90251
11
191.524239
21
-120.90251
0
LINE
8
BFab
62
6
10
189.374239
20
-120.00251
11
189.774239
21
-120.00251
0
LINE
8
BFab
62
6
10
190.374239
20
-120.00251
11
190.874239
21
-120.00251
0
LINE
8
BFab
62
6
10
191.524239
20
-119.10251
11
188.724239
21
-119.10251
0
LINE
8
BFab
62
6
10
190.374239
20
-119.60251
11
189.774239
21
-120.00251
0
LINE
8
BFab
62
6
10
190.374239
20
-120.40251
11
190.374239
21
-119.60251
0
LINE
8
BFab
62
6
10
189.774239
20
-120.00251
11
190.374239
21
-120.40251
0
LINE
8
BFab
62
6
10
188.724239
20
-119.10251
11
188.724239
21
-120.90251
0
LINE
8
BFab
62
6
10
191.524239
20
-120.90251
11
191.524239
21
-119.10251
0
LINE
8
BCrtYd
62
8
10
105.169113
20
-139.965819
11
109.869113
21
-139.965819
0
LINE
8
BCrtYd
62
8
10
105.169113
20
-139.965819
11
105.169113
21
-137.665819
0
LINE
8
BCrtYd
62
8
10
109.869113
20
-139.965819
11
109.869113
21
-137.665819
0
LINE
8
BCrtYd
62
8
10
109.869113
20
-137.665819
11
105.169113
21
-137.665819
0
LINE
8
BFab
62
6
10
107.169113
20
-138.815819
11
107.169113
21
-138.265819
0
LINE
8
BFab
62
6
10
106.119113
20
-137.915819
11
106.119113
21
-139.715819
0
LINE
8
BFab
62
6
10
107.769113
20
-138.415819
11
107.169113
21
-138.815819
0
LINE
8
BFab
62
6
10
108.919113
20
-139.715819
11
108.919113
21
-137.915819
0
LINE
8
BFab
62
6
10
106.769113
20
-138.815819
11
107.169113
21
-138.815819
0
LINE
8
BFab
62
6
10
107.769113
20
-138.815819
11
108.269113
21
-138.815819
0
LINE
8
BFab
62
6
10
107.169113
20
-138.815819
11
107.169113
21
-139.365819
0
LINE
8
BFab
62
6
10
107.169113
20
-138.815819
11
107.769113
21
-139.215819
0
LINE
8
BFab
62
6
10
107.769113
20
-139.215819
11
107.769113
21
-138.415819
0
LINE
8
BFab
62
6
10
108.919113
20
-137.915819
11
106.119113
21
-137.915819
0
LINE
8
BFab
62
6
10
106.119113
20
-139.715819
11
108.919113
21
-139.715819
0
LINE
8
BCrtYd
62
8
10
82.684874
20
-103.000172
11
87.384874
21
-103.000172
0
LINE
8
BCrtYd
62
8
10
87.384874
20
-100.700172
11
82.684874
21
-100.700172
0
LINE
8
BCrtYd
62
8
10
87.384874
20
-103.000172
11
87.384874
21
-100.700172
0
LINE
8
BCrtYd
62
8
10
82.684874
20
-103.000172
11
82.684874
21
-100.700172
0
LINE
8
BFab
62
6
10
84.284874
20
-101.850172
11
84.684874
21
-101.850172
0
LINE
8
BFab
62
6
10
86.434874
20
-100.950172
11
83.634874
21
-100.950172
0
LINE
8
BFab
62
6
10
86.434874
20
-102.750172
11
86.434874
21
-100.950172
0
LINE
8
BFab
62
6
10
84.684874
20
-101.850172
11
85.284874
21
-102.250172
0
LINE
8
BFab
62
6
10
85.284874
20
-101.850172
11
85.784874
21
-101.850172
0
LINE
8
BFab
62
6
10
85.284874
20
-101.450172
11
84.684874
21
-101.850172
0
LINE
8
BFab
62
6
10
84.684874
20
-101.850172
11
84.684874
21
-101.300172
0
LINE
8
BFab
62
6
10
84.684874
20
-101.850172
11
84.684874
21
-102.400172
0
LINE
8
BFab
62
6
10
83.634874
20
-102.750172
11
86.434874
21
-102.750172
0
LINE
8
BFab
62
6
10
85.284874
20
-102.250172
11
85.284874
21
-101.450172
0
LINE
8
BFab
62
6
10
83.634874
20
-100.950172
11
83.634874
21
-102.750172
0
LINE
8
BCrtYd
62
8
10
272.249625
20
-89.352404
11
272.249625
21
-87.052404
0
LINE
8
BCrtYd
62
8
10
276.949625
20
-87.052404
11
272.249625
21
-87.052404
0
LINE
8
BCrtYd
62
8
10
272.249625
20
-89.352404
11
276.949625
21
-89.352404
0
LINE
8
BCrtYd
62
8
10
276.949625
20
-89.352404
11
276.949625
21
-87.052404
0
LINE
8
BFab
62
6
10
273.199625
20
-89.102404
11
275.999625
21
-89.102404
0
LINE
8
BFab
62
6
10
274.249625
20
-88.202404
11
274.849625
21
-88.602404
0
LINE
8
BFab
62
6
10
275.999625
20
-87.302404
11
273.199625
21
-87.302404
0
LINE
8
BFab
62
6
10
273.199625
20
-87.302404
11
273.199625
21
-89.102404
0
LINE
8
BFab
62
6
10
274.249625
20
-88.202404
11
274.249625
21
-87.652404
0
LINE
8
BFab
62
6
10
273.849625
20
-88.202404
11
274.249625
21
-88.202404
0
LINE
8
BFab
62
6
10
274.849625
20
-88.202404
11
275.349625
21
-88.202404
0
LINE
8
BFab
62
6
10
274.249625
20
-88.202404
11
274.249625
21
-88.752404
0
LINE
8
BFab
62
6
10
275.999625
20
-89.102404
11
275.999625
21
-87.302404
0
LINE
8
BFab
62
6
10
274.849625
20
-88.602404
11
274.849625
21
-87.802404
0
LINE
8
BFab
62
6
10
274.849625
20
-87.802404
11
274.249625
21
-88.202404
0
LINE
8
BCrtYd
62
8
10
203.023324
20
-68.671023
11
203.023324
21
-66.371023
0
LINE
8
BCrtYd
62
8
10
207.723324
20
-68.671023
11
207.723324
21
-66.371023
0
LINE
8
BCrtYd
62
8
10
203.023324
20
-68.671023
11
207.723324
21
-68.671023
0
LINE
8
BCrtYd
62
8
10
207.723324
20
-66.371023
11
203.023324
21
-66.371023
0
LINE
8
BFab
62
6
10
205.023324
20
-67.521023
11
205.023324
21
-66.971023
0
LINE
8
BFab
62
6
10
206.773324
20
-68.421023
11
206.773324
21
-66.621023
0
LINE
8
BFab
62
6
10
203.973324
20
-68.421023
11
206.773324
21
-68.421023
0
LINE
8
BFab
62
6
10
205.623324
20
-67.121023
11
205.023324
21
-67.521023
0
LINE
8
BFab
62
6
10
205.623324
20
-67.921023
11
205.623324
21
-67.121023
0
LINE
8
BFab
62
6
10
206.773324
20
-66.621023
11
203.973324
21
-66.621023
0
LINE
8
BFab
62
6
10
205.623324
20
-67.521023
11
206.123324
21
-67.521023
0
LINE
8
BFab
62
6
10
205.023324
20
-67.521023
11
205.023324
21
-68.071023
0
LINE
8
BFab
62
6
10
204.623324
20
-67.521023
11
205.023324
21
-67.521023
0
LINE
8
BFab
62
6
10
205.023324
20
-67.521023
11
205.623324
21
-67.921023
0
LINE
8
BFab
62
6
10
203.973324
20
-66.621023
11
203.973324
21
-68.421023
0
LINE
8
BCrtYd
62
8
10
32.497241
20
-90.632194
11
27.797241
21
-90.632194
0
LINE
8
BCrtYd
62
8
10
27.797241
20
-92.932194
11
32.497241
21
-92.932194
0
LINE
8
BCrtYd
62
8
10
32.497241
20
-92.932194
11
32.497241
21
-90.632194
0
LINE
8
BCrtYd
62
8
10
27.797241
20
-92.932194
11
27.797241
21
-90.632194
0
LINE
8
BFab
62
6
10
30.397241
20
-91.782194
11
30.897241
21
-91.782194
0
LINE
8
BFab
62
6
10
29.797241
20
-91.782194
11
29.797241
21
-91.232194
0
LINE
8
BFab
62
6
10
29.797241
20
-91.782194
11
29.797241
21
-92.332194
0
LINE
8
BFab
62
6
10
28.747241
20
-92.682194
11
31.547241
21
-92.682194
0
LINE
8
BFab
62
6
10
30.397241
20
-92.182194
11
30.397241
21
-91.382194
0
LINE
8
BFab
62
6
10
28.747241
20
-90.882194
11
28.747241
21
-92.682194
0
LINE
8
BFab
62
6
10
29.797241
20
-91.782194
11
30.397241
21
-92.182194
0
LINE
8
BFab
62
6
10
30.397241
20
-91.382194
11
29.797241
21
-91.782194
0
LINE
8
BFab
62
6
10
31.547241
20
-92.682194
11
31.547241
21
-90.882194
0
LINE
8
BFab
62
6
10
29.397241
20
-91.782194
11
29.797241
21
-91.782194
0
LINE
8
BFab
62
6
10
31.547241
20
-90.882194
11
28.747241
21
-90.882194
0
LINE
8
BCrtYd
62
8
10
89.869381
20
-87.592939
11
89.869381
21
-85.292939
0
LINE
8
BCrtYd
62
8
10
94.569381
20
-85.292939
11
89.869381
21
-85.292939
0
LINE
8
BCrtYd
62
8
10
89.869381
20
-87.592939
11
94.569381
21
-87.592939
0
LINE
8
BCrtYd
62
8
10
94.569381
20
-87.592939
11
94.569381
21
-85.292939
0
LINE
8
BFab
62
6
10
93.619381
20
-87.342939
11
93.619381
21
-85.542939
0
LINE
8
BFab
62
6
10
93.619381
20
-85.542939
11
90.819381
21
-85.542939
0
LINE
8
BFab
62
6
10
90.819381
20
-85.542939
11
90.819381
21
-87.342939
0
LINE
8
BFab
62
6
10
91.869381
20
-86.442939
11
91.869381
21
-85.892939
0
LINE
8
BFab
62
6
10
90.819381
20
-87.342939
11
93.619381
21
-87.342939
0
LINE
8
BFab
62
6
10
92.469381
20
-86.442939
11
92.969381
21
-86.442939
0
LINE
8
BFab
62
6
10
91.469381
20
-86.442939
11
91.869381
21
-86.442939
0
LINE
8
BFab
62
6
10
92.469381
20
-86.042939
11
91.869381
21
-86.442939
0
LINE
8
BFab
62
6
10
92.469381
20
-86.842939
11
92.469381
21
-86.042939
0
LINE
8
BFab
62
6
10
91.869381
20
-86.442939
11
92.469381
21
-86.842939
0
LINE
8
BFab
62
6
10
91.869381
20
-86.442939
11
91.869381
21
-86.992939
0
LINE
8
BCrtYd
62
8
10
201.552628
20
-98.029539
11
201.552628
21
-95.729539
0
LINE
8
BCrtYd
62
8
10
196.852628
20
-98.029539
11
201.552628
21
-98.029539
0
LINE
8
BCrtYd
62
8
10
196.852628
20
-98.029539
11
196.852628
21
-95.729539
0
LINE
8
BCrtYd
62
8
10
201.552628
20
-95.729539
11
196.852628
21
-95.729539
0
LINE
8
BFab
62
6
10
200.602628
20
-97.779539
11
200.602628
21
-95.979539
0
LINE
8
BFab
62
6
10
198.852628
20
-96.879539
11
198.852628
21
-97.429539
0
LINE
8
BFab
62
6
10
197.802628
20
-97.779539
11
200.602628
21
-97.779539
0
LINE
8
BFab
62
6
10
199.452628
20
-96.879539
11
199.952628
21
-96.879539
0
LINE
8
BFab
62
6
10
197.802628
20
-95.979539
11
197.802628
21
-97.779539
0
LINE
8
BFab
62
6
10
198.852628
20
-96.879539
11
199.452628
21
-97.279539
0
LINE
8
BFab
62
6
10
198.452628
20
-96.879539
11
198.852628
21
-96.879539
0
LINE
8
BFab
62
6
10
199.452628
20
-96.479539
11
198.852628
21
-96.879539
0
LINE
8
BFab
62
6
10
200.602628
20
-95.979539
11
197.802628
21
-95.979539
0
LINE
8
BFab
62
6
10
198.852628
20
-96.879539
11
198.852628
21
-96.329539
0
LINE
8
BFab
62
6
10
199.452628
20
-97.279539
11
199.452628
21
-96.479539
0
LINE
8
BCrtYd
62
8
10
75.29752
20
-86.329967
11
75.29752
21
-84.029967
0
LINE
8
BCrtYd
62
8
10
70.59752
20
-86.329967
11
75.29752
21
-86.329967
0
LINE
8
BCrtYd
62
8
10
75.29752
20
-84.029967
11
70.59752
21
-84.029967
0
LINE
8
BCrtYd
62
8
10
70.59752
20
-86.329967
11
70.59752
21
-84.029967
0
LINE
8
BFab
62
6
10
72.59752
20
-85.179967
11
72.59752
21
-85.729967
0
LINE
8
BFab
62
6
10
71.54752
20
-84.279967
11
71.54752
21
-86.079967
0
LINE
8
BFab
62
6
10
73.19752
20
-85.579967
11
73.19752
21
-84.779967
0
LINE
8
BFab
62
6
10
72.19752
20
-85.179967
11
72.59752
21
-85.179967
0
LINE
8
BFab
62
6
10
74.34752
20
-86.079967
11
74.34752
21
-84.279967
0
LINE
8
BFab
62
6
10
72.59752
20
-85.179967
11
72.59752
21
-84.629967
0
LINE
8
BFab
62
6
10
74.34752
20
-84.279967
11
71.54752
21
-84.279967
0
LINE
8
BFab
62
6
10
71.54752
20
-86.079967
11
74.34752
21
-86.079967
0
LINE
8
BFab
62
6
10
72.59752
20
-85.179967
11
73.19752
21
-85.579967
0
LINE
8
BFab
62
6
10
73.19752
20
-85.179967
11
73.69752
21
-85.179967
0
LINE
8
BFab
62
6
10
73.19752
20
-84.779967
11
72.59752
21
-85.179967
0
LINE
8
BCrtYd
62
8
10
44.614955
20
-107.237302
11
39.914955
21
-107.237302
0
LINE
8
BCrtYd
62
8
10
44.614955
20
-109.537302
11
44.614955
21
-107.237302
0
LINE
8
BCrtYd
62
8
10
39.914955
20
-109.537302
11
39.914955
21
-107.237302
0
LINE
8
BCrtYd
62
8
10
39.914955
20
-109.537302
11
44.614955
21
-109.537302
0
LINE
8
BFab
62
6
10
42.514955
20
-108.787302
11
42.514955
21
-107.987302
0
LINE
8
BFab
62
6
10
43.664955
20
-109.287302
11
43.664955
21
-107.487302
0
LINE
8
BFab
62
6
10
41.914955
20
-108.387302
11
42.514955
21
-108.787302
0
LINE
8
BFab
62
6
10
42.514955
20
-107.987302
11
41.914955
21
-108.387302
0
LINE
8
BFab
62
6
10
41.914955
20
-108.387302
11
41.914955
21
-108.937302
0
LINE
8
BFab
62
6
10
43.664955
20
-107.487302
11
40.864955
21
-107.487302
0
LINE
8
BFab
62
6
10
40.864955
20
-107.487302
11
40.864955
21
-109.287302
0
LINE
8
BFab
62
6
10
40.864955
20
-109.287302
11
43.664955
21
-109.287302
0
LINE
8
BFab
62
6
10
41.514955
20
-108.387302
11
41.914955
21
-108.387302
0
LINE
8
BFab
62
6
10
42.514955
20
-108.387302
11
43.014955
21
-108.387302
0
LINE
8
BFab
62
6
10
41.914955
20
-108.387302
11
41.914955
21
-107.837302
0
LINE
8
BCrtYd
62
8
10
183.273434
20
-144.012946
11
183.273434
21
-141.712946
0
LINE
8
BCrtYd
62
8
10
178.573434
20
-144.012946
11
178.573434
21
-141.712946
0
LINE
8
BCrtYd
62
8
10
183.273434
20
-141.712946
11
178.573434
21
-141.712946
0
LINE
8
BCrtYd
62
8
10
178.573434
20
-144.012946
11
183.273434
21
-144.012946
0
LINE
8
BFab
62
6
10
180.173434
20
-142.862946
11
180.573434
21
-142.862946
0
LINE
8
BFab
62
6
10
182.323434
20
-143.762946
11
182.323434
21
-141.962946
0
LINE
8
BFab
62
6
10
179.523434
20
-141.962946
11
179.523434
21
-143.762946
0
LINE
8
BFab
62
6
10
180.573434
20
-142.862946
11
180.573434
21
-143.412946
0
LINE
8
BFab
62
6
10
181.173434
20
-142.862946
11
181.673434
21
-142.862946
0
LINE
8
BFab
62
6
10
181.173434
20
-142.462946
11
180.573434
21
-142.862946
0
LINE
8
BFab
62
6
10
180.573434
20
-142.862946
11
181.173434
21
-143.262946
0
LINE
8
BFab
62
6
10
180.573434
20
-142.862946
11
180.573434
21
-142.312946
0
LINE
8
BFab
62
6
10
182.323434
20
-141.962946
11
179.523434
21
-141.962946
0
LINE
8
BFab
62
6
10
181.173434
20
-143.262946
11
181.173434
21
-142.462946
0
LINE
8
BFab
62
6
10
179.523434
20
-143.762946
11
182.323434
21
-143.762946
0
LINE
8
BCrtYd
62
8
10
189.668109
20
-82.622306
11
194.368109
21
-82.622306
0
LINE
8
BCrtYd
62
8
10
189.668109
20
-82.622306
11
189.668109
21
-80.322306
0
LINE
8
BCrtYd
62
8
10
194.368109
20
-80.322306
11
189.668109
21
-80.322306
0
LINE
8
BCrtYd
62
8
10
194.368109
20
-82.622306
11
194.368109
21
-80.322306
0
LINE
8
BFab
62
6
10
192.268109
20
-81.072306
11
191.668109
21
-81.472306
0
LINE
8
BFab
62
6
10
192.268109
20
-81.872306
11
192.268109
21
-81.072306
0
LINE
8
BFab
62
6
10
190.618109
20
-82.372306
11
193.418109
21
-82.372306
0
LINE
8
BFab
62
6
10
191.668109
20
-81.472306
11
191.668109
21
-82.022306
0
LINE
8
BFab
62
6
10
191.268109
20
-81.472306
11
191.668109
21
-81.472306
0
LINE
8
BFab
62
6
10
190.618109
20
-80.572306
11
190.618109
21
-82.372306
0
LINE
8
BFab
62
6
10
192.268109
20
-81.472306
11
192.768109
21
-81.472306
0
LINE
8
BFab
62
6
10
191.668109
20
-81.472306
11
191.668109
21
-80.922306
0
LINE
8
BFab
62
6
10
191.668109
20
-81.472306
11
192.268109
21
-81.872306
0
LINE
8
BFab
62
6
10
193.418109
20
-80.572306
11
190.618109
21
-80.572306
0
LINE
8
BFab
62
6
10
193.418109
20
-82.372306
11
193.418109
21
-80.572306
0
LINE
8
BCrtYd
62
8
10
115.109105
20
-83.836993
11
110.409105
21
-83.836993
0
LINE
8
BCrtYd
62
8
10
110.409105
20
-86.136993
11
115.109105
21
-86.136993
0
LINE
8
BCrtYd
62
8
10
115.109105
20
-86.136993
11
115.109105
21
-83.836993
0
LINE
8
BCrtYd
62
8
10
110.409105
20
-86.136993
11
110.409105
21
-83.836993
0
LINE
8
BFab
62
6
10
111.359105
20
-84.086993
11
111.359105
21
-85.886993
0
LINE
8
BFab
62
6
10
113.009105
20
-84.586993
11
112.409105
21
-84.986993
0
LINE
8
BFab
62
6
10
111.359105
20
-85.886993
11
114.159105
21
-85.886993
0
LINE
8
BFab
62
6
10
114.159105
20
-84.086993
11
111.359105
21
-84.086993
0
LINE
8
BFab
62
6
10
112.409105
20
-84.986993
11
112.409105
21
-84.436993
0
LINE
8
BFab
62
6
10
114.159105
20
-85.886993
11
114.159105
21
-84.086993
0
LINE
8
BFab
62
6
10
113.009105
20
-85.386993
11
113.009105
21
-84.586993
0
LINE
8
BFab
62
6
10
113.009105
20
-84.986993
11
113.509105
21
-84.986993
0
LINE
8
BFab
62
6
10
112.409105
20
-84.986993
11
113.009105
21
-85.386993
0
LINE
8
BFab
62
6
10
112.009105
20
-84.986993
11
112.409105
21
-84.986993
0
LINE
8
BFab
62
6
10
112.409105
20
-84.986993
11
112.409105
21
-85.536993
0
LINE
8
BCrtYd
62
8
10
126.719593
20
-93.632356
11
126.719593
21
-91.332356
0
LINE
8
BCrtYd
62
8
10
131.419593
20
-91.332356
11
126.719593
21
-91.332356
0
LINE
8
BCrtYd
62
8
10
131.419593
20
-93.632356
11
131.419593
21
-91.332356
0
LINE
8
BCrtYd
62
8
10
126.719593
20
-93.632356
11
131.419593
21
-93.632356
0
LINE
8
BFab
62
6
10
127.669593
20
-93.382356
11
130.469593
21
-93.382356
0
LINE
8
BFab
62
6
10
129.319593
20
-92.882356
11
129.319593
21
-92.082356
0
LINE
8
BFab
62
6
10
127.669593
20
-91.582356
11
127.669593
21
-93.382356
0
LINE
8
BFab
62
6
10
128.719593
20
-92.482356
11
128.719593
21
-91.932356
0
LINE
8
BFab
62
6
10
128.719593
20
-92.482356
11
128.719593
21
-93.032356
0
LINE
8
BFab
62
6
10
128.719593
20
-92.482356
11
129.319593
21
-92.882356
0
LINE
8
BFab
62
6
10
129.319593
20
-92.482356
11
129.819593
21
-92.482356
0
LINE
8
BFab
62
6
10
129.319593
20
-92.082356
11
128.719593
21
-92.482356
0
LINE
8
BFab
62
6
10
128.319593
20
-92.482356
11
128.719593
21
-92.482356
0
LINE
8
BFab
62
6
10
130.469593
20
-91.582356
11
127.669593
21
-91.582356
0
LINE
8
BFab
62
6
10
130.469593
20
-93.382356
11
130.469593
21
-91.582356
0
LINE
8
BCrtYd
62
8
10
217.392347
20
-99.485484
11
222.092347
21
-99.485484
0
LINE
8
BCrtYd
62
8
10
222.092347
20
-99.485484
11
222.092347
21
-97.185484
0
LINE
8
BCrtYd
62
8
10
222.092347
20
-97.185484
11
217.392347
21
-97.185484
0
LINE
8
BCrtYd
62
8
10
217.392347
20
-99.485484
11
217.392347
21
-97.185484
0
LINE
8
BFab
62
6
10
218.342347
20
-97.435484
11
218.342347
21
-99.235484
0
LINE
8
BFab
62
6
10
221.142347
20
-97.435484
11
218.342347
21
-97.435484
0
LINE
8
BFab
62
6
10
219.992347
20
-97.935484
11
219.392347
21
-98.335484
0
LINE
8
BFab
62
6
10
219.392347
20
-98.335484
11
219.392347
21
-97.785484
0
LINE
8
BFab
62
6
10
218.342347
20
-99.235484
11
221.142347
21
-99.235484
0
LINE
8
BFab
62
6
10
219.992347
20
-98.335484
11
220.492347
21
-98.335484
0
LINE
8
BFab
62
6
10
219.392347
20
-98.335484
11
219.992347
21
-98.735484
0
LINE
8
BFab
62
6
10
221.142347
20
-99.235484
11
221.142347
21
-97.435484
0
LINE
8
BFab
62
6
10
219.392347
20
-98.335484
11
219.392347
21
-98.885484
0
LINE
8
BFab
62
6
10
219.992347
20
-98.735484
11
219.992347
21
-97.935484
0
LINE
8
BFab
62
6
10
218.992347
20
-98.335484
11
219.392347
21
-98.335484
0
LINE
8
BCrtYd
62
8
10
82.482027
20
-70.922734
11
82.482027
21
-68.622734
0
LINE
8
BCrtYd
62
8
10
77.782027
20
-70.922734
11
82.482027
21
-70.922734
0
LINE
8
BCrtYd
62
8
10
82.482027
20
-68.622734
11
77.782027
21
-68.622734
0
LINE
8
BCrtYd
62
8
10
77.782027
20
-70.922734
11
77.782027
21
-68.622734
0
LINE
8
BFab
62
6
10
81.532027
20
-68.872734
11
78.732027
21
-68.872734
0
LINE
8
BFab
62
6
10
78.732027
20
-68.872734
11
78.732027
21
-70.672734
0
LINE
8
BFab
62
6
10
81.532027
20
-70.672734
11
81.532027
21
-68.872734
0
LINE
8
BFab
62
6
10
80.382027
20
-70.172734
11
80.382027
21
-69.372734
0
LINE
8
BFab
62
6
10
80.382027
20
-69.772734
11
80.882027
21
-69.772734
0
LINE
8
BFab
62
6
10
78.732027
20
-70.672734
11
81.532027
21
-70.672734
0
LINE
8
BFab
62
6
10
79.782027
20
-69.772734
11
80.382027
21
-70.172734
0
LINE
8
BFab
62
6
10
79.782027
20
-69.772734
11
79.782027
21
-70.322734
0
LINE
8
BFab
62
6
10
79.382027
20
-69.772734
11
79.782027
21
-69.772734
0
LINE
8
BFab
62
6
10
79.782027
20
-69.772734
11
79.782027
21
-69.222734
0
LINE
8
BFab
62
6
10
80.382027
20
-69.372734
11
79.782027
21
-69.772734
0
LINE
8
BCrtYd
62
8
10
124.207782
20
-109.216449
11
124.207782
21
-106.916449
0
LINE
8
BCrtYd
62
8
10
119.507782
20
-109.216449
11
119.507782
21
-106.916449
0
LINE
8
BCrtYd
62
8
10
119.507782
20
-109.216449
11
124.207782
21
-109.216449
0
LINE
8
BCrtYd
62
8
10
124.207782
20
-106.916449
11
119.507782
21
-106.916449
0
LINE
8
BFab
62
6
10
121.107782
20
-108.066449
11
121.507782
21
-108.066449
0
LINE
8
BFab
62
6
10
121.507782
20
-108.066449
11
121.507782
21
-108.616449
0
LINE
8
BFab
62
6
10
123.257782
20
-108.966449
11
123.257782
21
-107.166449
0
LINE
8
BFab
62
6
10
121.507782
20
-108.066449
11
122.107782
21
-108.466449
0
LINE
8
BFab
62
6
10
122.107782
20
-108.066449
11
122.607782
21
-108.066449
0
LINE
8
BFab
62
6
10
120.457782
20
-107.166449
11
120.457782
21
-108.966449
0
LINE
8
BFab
62
6
10
122.107782
20
-107.666449
11
121.507782
21
-108.066449
0
LINE
8
BFab
62
6
10
121.507782
20
-108.066449
11
121.507782
21
-107.516449
0
LINE
8
BFab
62
6
10
123.257782
20
-107.166449
11
120.457782
21
-107.166449
0
LINE
8
BFab
62
6
10
120.457782
20
-108.966449
11
123.257782
21
-108.966449
0
LINE
8
BFab
62
6
10
122.107782
20
-108.466449
11
122.107782
21
-107.666449
0
LINE
8
BCrtYd
62
8
10
150.388516
20
-95.832977
11
150.388516
21
-94.532977
0
LINE
8
BCrtYd
62
8
10
144.338516
20
-100.382977
11
153.138516
21
-100.382977
0
LINE
8
BCrtYd
62
8
10
153.138516
20
-100.382977
11
153.138516
21
-95.832977
0
LINE
8
BCrtYd
62
8
10
153.138516
20
-95.832977
11
150.388516
21
-95.832977
0
LINE
8
BCrtYd
62
8
10
144.338516
20
-95.832977
11
144.338516
21
-100.382977
0
LINE
8
BCrtYd
62
8
10
150.388516
20
-94.532977
11
147.088516
21
-94.532977
0
LINE
8
BCrtYd
62
8
10
147.088516
20
-95.832977
11
144.338516
21
-95.832977
0
LINE
8
BCrtYd
62
8
10
147.088516
20
-94.532977
11
147.088516
21
-95.832977
0
LINE
8
BFab
62
6
10
145.388516
20
-96.332977
11
152.088516
21
-96.332977
0
LINE
8
BFab
62
6
10
147.338516
20
-94.982977
11
147.538516
21
-94.782977
0
LINE
8
BFab
62
6
10
152.088516
20
-98.932977
11
145.388516
21
-98.932977
0
LINE
8
BFab
62
6
10
148.638516
20
-95.032977
11
148.638516
21
-96.332977
0
LINE
8
BFab
62
6
10
147.538516
20
-94.782977
11
148.388516
21
-94.782977
0
LINE
8
BFab
62
6
10
148.388516
20
-94.782977
11
148.588516
21
-94.982977
0
LINE
8
BFab
62
6
10
147.338516
20
-96.282977
11
147.338516
21
-94.982977
0
LINE
8
BFab
62
6
10
148.588516
20
-94.982977
11
148.638516
21
-95.032977
0
LINE
8
BFab
62
6
10
145.388516
20
-98.932977
11
145.388516
21
-96.332977
0
LINE
8
BFab
62
6
10
152.088516
20
-96.332977
11
152.088516
21
-98.932977
0
LINE
8
BCrtYd
62
8
10
204.03713
20
-113.436769
11
204.03713
21
-111.136769
0
LINE
8
BCrtYd
62
8
10
208.73713
20
-111.136769
11
204.03713
21
-111.136769
0
LINE
8
BCrtYd
62
8
10
208.73713
20
-113.436769
11
208.73713
21
-111.136769
0
LINE
8
BCrtYd
62
8
10
204.03713
20
-113.436769
11
208.73713
21
-113.436769
0
LINE
8
BFab
62
6
10
206.03713
20
-112.286769
11
206.63713
21
-112.686769
0
LINE
8
BFab
62
6
10
206.63713
20
-112.286769
11
207.13713
21
-112.286769
0
LINE
8
BFab
62
6
10
206.63713
20
-111.886769
11
206.03713
21
-112.286769
0
LINE
8
BFab
62
6
10
206.03713
20
-112.286769
11
206.03713
21
-112.836769
0
LINE
8
BFab
62
6
10
204.98713
20
-111.386769
11
204.98713
21
-113.186769
0
LINE
8
BFab
62
6
10
207.78713
20
-113.186769
11
207.78713
21
-111.386769
0
LINE
8
BFab
62
6
10
206.63713
20
-112.686769
11
206.63713
21
-111.886769
0
LINE
8
BFab
62
6
10
206.03713
20
-112.286769
11
206.03713
21
-111.736769
0
LINE
8
BFab
62
6
10
204.98713
20
-113.186769
11
207.78713
21
-113.186769
0
LINE
8
BFab
62
6
10
205.63713
20
-112.286769
11
206.03713
21
-112.286769
0
LINE
8
BFab
62
6
10
207.78713
20
-111.386769
11
204.98713
21
-111.386769
0
LINE
8
BCrtYd
62
8
10
252.977757
20
-90.615385
11
252.977757
21
-88.315385
0
LINE
8
BCrtYd
62
8
10
257.677757
20
-90.615385
11
257.677757
21
-88.315385
0
LINE
8
BCrtYd
62
8
10
257.677757
20
-88.315385
11
252.977757
21
-88.315385
0
LINE
8
BCrtYd
62
8
10
252.977757
20
-90.615385
11
257.677757
21
-90.615385
0
LINE
8
BFab
62
6
10
253.927757
20
-90.365385
11
256.727757
21
-90.365385
0
LINE
8
BFab
62
6
10
255.577757
20
-89.465385
11
256.077757
21
-89.465385
0
LINE
8
BFab
62
6
10
254.577757
20
-89.465385
11
254.977757
21
-89.465385
0
LINE
8
BFab
62
6
10
255.577757
20
-89.865385
11
255.577757
21
-89.065385
0
LINE
8
BFab
62
6
10
254.977757
20
-89.465385
11
254.977757
21
-88.915385
0
LINE
8
BFab
62
6
10
254.977757
20
-89.465385
11
255.577757
21
-89.865385
0
LINE
8
BFab
62
6
10
253.927757
20
-88.565385
11
253.927757
21
-90.365385
0
LINE
8
BFab
62
6
10
254.977757
20
-89.465385
11
254.977757
21
-90.015385
0
LINE
8
BFab
62
6
10
256.727757
20
-90.365385
11
256.727757
21
-88.565385
0
LINE
8
BFab
62
6
10
255.577757
20
-89.065385
11
254.977757
21
-89.465385
0
LINE
8
BFab
62
6
10
256.727757
20
-88.565385
11
253.927757
21
-88.565385
0
LINE
8
BCrtYd
62
8
10
117.053628
20
-124.558585
11
117.053628
21
-122.258585
0
LINE
8
BCrtYd
62
8
10
112.353628
20
-124.558585
11
117.053628
21
-124.558585
0
LINE
8
BCrtYd
62
8
10
117.053628
20
-122.258585
11
112.353628
21
-122.258585
0
LINE
8
BCrtYd
62
8
10
112.353628
20
-124.558585
11
112.353628
21
-122.258585
0
LINE
8
BFab
62
6
10
114.353628
20
-123.408585
11
114.953628
21
-123.808585
0
LINE
8
BFab
62
6
10
114.953628
20
-123.808585
11
114.953628
21
-123.008585
0
LINE
8
BFab
62
6
10
113.953628
20
-123.408585
11
114.353628
21
-123.408585
0
LINE
8
BFab
62
6
10
116.103628
20
-124.308585
11
116.103628
21
-122.508585
0
LINE
8
BFab
62
6
10
113.303628
20
-122.508585
11
113.303628
21
-124.308585
0
LINE
8
BFab
62
6
10
114.953628
20
-123.008585
11
114.353628
21
-123.408585
0
LINE
8
BFab
62
6
10
114.353628
20
-123.408585
11
114.353628
21
-123.958585
0
LINE
8
BFab
62
6
10
116.103628
20
-122.508585
11
113.303628
21
-122.508585
0
LINE
8
BFab
62
6
10
113.303628
20
-124.308585
11
116.103628
21
-124.308585
0
LINE
8
BFab
62
6
10
114.953628
20
-123.408585
11
115.453628
21
-123.408585
0
LINE
8
BFab
62
6
10
114.353628
20
-123.408585
11
114.353628
21
-122.858585
0
LINE
8
BCrtYd
62
8
10
107.924597
20
-99.244229
11
103.224597
21
-99.244229
0
LINE
8
BCrtYd
62
8
10
103.224597
20
-101.544229
11
107.924597
21
-101.544229
0
LINE
8
BCrtYd
62
8
10
103.224597
20
-101.544229
11
103.224597
21
-99.244229
0
LINE
8
BCrtYd
62
8
10
107.924597
20
-101.544229
11
107.924597
21
-99.244229
0
LINE
8
BFab
62
6
10
105.824597
20
-100.394229
11
106.324597
21
-100.394229
0
LINE
8
BFab
62
6
10
104.174597
20
-101.294229
11
106.974597
21
-101.294229
0
LINE
8
BFab
62
6
10
104.824597
20
-100.394229
11
105.224597
21
-100.394229
0
LINE
8
BFab
62
6
10
105.824597
20
-99.994229
11
105.224597
21
-100.394229
0
LINE
8
BFab
62
6
10
105.224597
20
-100.394229
11
105.224597
21
-99.844229
0
LINE
8
BFab
62
6
10
106.974597
20
-101.294229
11
106.974597
21
-99.494229
0
LINE
8
BFab
62
6
10
104.174597
20
-99.494229
11
104.174597
21
-101.294229
0
LINE
8
BFab
62
6
10
105.224597
20
-100.394229
11
105.224597
21
-100.944229
0
LINE
8
BFab
62
6
10
106.974597
20
-99.494229
11
104.174597
21
-99.494229
0
LINE
8
BFab
62
6
10
105.824597
20
-100.794229
11
105.824597
21
-99.994229
0
LINE
8
BFab
62
6
10
105.224597
20
-100.394229
11
105.824597
21
-100.794229
0
LINE
8
BCrtYd
62
8
10
194.908104
20
-136.451125
11
199.608104
21
-136.451125
0
LINE
8
BCrtYd
62
8
10
199.608104
20
-136.451125
11
199.608104
21
-134.151125
0
LINE
8
BCrtYd
62
8
10
199.608104
20
-134.151125
11
194.908104
21
-134.151125
0
LINE
8
BCrtYd
62
8
10
194.908104
20
-136.451125
11
194.908104
21
-134.151125
0
LINE
8
BFab
62
6
10
197.508104
20
-135.701125
11
197.508104
21
-134.901125
0
LINE
8
BFab
62
6
10
196.508104
20
-135.301125
11
196.908104
21
-135.301125
0
LINE
8
BFab
62
6
10
195.858104
20
-136.201125
11
198.658104
21
-136.201125
0
LINE
8
BFab
62
6
10
197.508104
20
-135.301125
11
198.008104
21
-135.301125
0
LINE
8
BFab
62
6
10
197.508104
20
-134.901125
11
196.908104
21
-135.301125
0
LINE
8
BFab
62
6
10
196.908104
20
-135.301125
11
196.908104
21
-134.751125
0
LINE
8
BFab
62
6
10
195.858104
20
-134.401125
11
195.858104
21
-136.201125
0
LINE
8
BFab
62
6
10
198.658104
20
-134.401125
11
195.858104
21
-134.401125
0
LINE
8
BFab
62
6
10
196.908104
20
-135.301125
11
197.508104
21
-135.701125
0
LINE
8
BFab
62
6
10
196.908104
20
-135.301125
11
196.908104
21
-135.851125
0
LINE
8
BFab
62
6
10
198.658104
20
-136.201125
11
198.658104
21
-134.401125
0
LINE
8
BCrtYd
62
8
10
236.664214
20
-98.222507
11
236.664214
21
-95.922507
0
LINE
8
BCrtYd
62
8
10
241.364214
20
-98.222507
11
241.364214
21
-95.922507
0
LINE
8
BCrtYd
62
8
10
236.664214
20
-98.222507
11
241.364214
21
-98.222507
0
LINE
8
BCrtYd
62
8
10
241.364214
20
-95.922507
11
236.664214
21
-95.922507
0
LINE
8
BFab
62
6
10
239.264214
20
-97.472507
11
239.264214
21
-96.672507
0
LINE
8
BFab
62
6
10
238.264214
20
-97.072507
11
238.664214
21
-97.072507
0
LINE
8
BFab
62
6
10
240.414214
20
-97.972507
11
240.414214
21
-96.172507
0
LINE
8
BFab
62
6
10
239.264214
20
-96.672507
11
238.664214
21
-97.072507
0
LINE
8
BFab
62
6
10
237.614214
20
-97.972507
11
240.414214
21
-97.972507
0
LINE
8
BFab
62
6
10
238.664214
20
-97.072507
11
238.664214
21
-96.522507
0
LINE
8
BFab
62
6
10
238.664214
20
-97.072507
11
238.664214
21
-97.622507
0
LINE
8
BFab
62
6
10
240.414214
20
-96.172507
11
237.614214
21
-96.172507
0
LINE
8
BFab
62
6
10
237.614214
20
-96.172507
11
237.614214
21
-97.972507
0
LINE
8
BFab
62
6
10
238.664214
20
-97.072507
11
239.264214
21
-97.472507
0
LINE
8
BFab
62
6
10
239.264214
20
-97.072507
11
239.764214
21
-97.072507
0
LINE
8
BCrtYd
62
8
10
226.995189
20
-65.108049
11
222.295189
21
-65.108049
0
LINE
8
BCrtYd
62
8
10
226.995189
20
-67.408049
11
226.995189
21
-65.108049
0
LINE
8
BCrtYd
62
8
10
222.295189
20
-67.408049
11
226.995189
21
-67.408049
0
LINE
8
BCrtYd
62
8
10
222.295189
20
-67.408049
11
222.295189
21
-65.108049
0
LINE
8
BFab
62
6
10
224.895189
20
-66.658049
11
224.895189
21
-65.858049
0
LINE
8
BFab
62
6
10
223.895189
20
-66.258049
11
224.295189
21
-66.258049
0
LINE
8
BFab
62
6
10
224.295189
20
-66.258049
11
224.295189
21
-66.808049
0
LINE
8
BFab
62
6
10
223.245189
20
-65.358049
11
223.245189
21
-67.158049
0
LINE
8
BFab
62
6
10
224.895189
20
-66.258049
11
225.395189
21
-66.258049
0
LINE
8
BFab
62
6
10
226.045189
20
-65.358049
11
223.245189
21
-65.358049
0
LINE
8
BFab
62
6
10
226.045189
20
-67.158049
11
226.045189
21
-65.358049
0
LINE
8
BFab
62
6
10
224.295189
20
-66.258049
11
224.295189
21
-65.708049
0
LINE
8
BFab
62
6
10
224.295189
20
-66.258049
11
224.895189
21
-66.658049
0
LINE
8
BFab
62
6
10
224.895189
20
-65.858049
11
224.295189
21
-66.258049
0
LINE
8
BFab
62
6
10
223.245189
20
-67.158049
11
226.045189
21
-67.158049
0
LINE
8
BCrtYd
62
8
10
100.757123
20
-114.665355
11
96.057123
21
-114.665355
0
LINE
8
BCrtYd
62
8
10
96.057123
20
-116.965355
11
100.757123
21
-116.965355
0
LINE
8
BCrtYd
62
8
10
96.057123
20
-116.965355
11
96.057123
21
-114.665355
0
LINE
8
BCrtYd
62
8
10
100.757123
20
-116.965355
11
100.757123
21
-114.665355
0
LINE
8
BFab
62
6
10
98.657123
20
-116.215355
11
98.657123
21
-115.415355
0
LINE
8
BFab
62
6
10
97.657123
20
-115.815355
11
98.057123
21
-115.815355
0
LINE
8
BFab
62
6
10
98.657123
20
-115.415355
11
98.057123
21
-115.815355
0
LINE
8
BFab
62
6
10
98.057123
20
-115.815355
11
98.657123
21
-116.215355
0
LINE
8
BFab
62
6
10
98.057123
20
-115.815355
11
98.057123
21
-116.365355
0
LINE
8
BFab
62
6
10
97.007123
20
-116.715355
11
99.807123
21
-116.715355
0
LINE
8
BFab
62
6
10
99.807123
20
-114.915355
11
97.007123
21
-114.915355
0
LINE
8
BFab
62
6
10
98.657123
20
-115.815355
11
99.157123
21
-115.815355
0
LINE
8
BFab
62
6
10
99.807123
20
-116.715355
11
99.807123
21
-114.915355
0
LINE
8
BFab
62
6
10
98.057123
20
-115.815355
11
98.057123
21
-115.265355
0
LINE
8
BFab
62
6
10
97.007123
20
-114.915355
11
97.007123
21
-116.715355
0
LINE
8
BCrtYd
62
8
10
185.289733
20
-105.745278
11
185.289733
21
-103.445278
0
LINE
8
BCrtYd
62
8
10
185.289733
20
-103.445278
11
180.589733
21
-103.445278
0
LINE
8
BCrtYd
62
8
10
180.589733
20
-105.745278
11
185.289733
21
-105.745278
0
LINE
8
BCrtYd
62
8
10
180.589733
20
-105.745278
11
180.589733
21
-103.445278
0
LINE
8
BFab
62
6
10
181.539733
20
-103.695278
11
181.539733
21
-105.495278
0
LINE
8
BFab
62
6
10
183.189733
20
-104.595278
11
183.689733
21
-104.595278
0
LINE
8
BFab
62
6
10
183.189733
20
-104.195278
11
182.589733
21
-104.595278
0
LINE
8
BFab
62
6
10
184.339733
20
-103.695278
11
181.539733
21
-103.695278
0
LINE
8
BFab
62
6
10
184.339733
20
-105.495278
11
184.339733
21
-103.695278
0
LINE
8
BFab
62
6
10
182.589733
20
-104.595278
11
182.589733
21
-105.145278
0
LINE
8
BFab
62
6
10
182.189733
20
-104.595278
11
182.589733
21
-104.595278
0
LINE
8
BFab
62
6
10
182.589733
20
-104.595278
11
183.189733
21
-104.995278
0
LINE
8
BFab
62
6
10
182.589733
20
-104.595278
11
182.589733
21
-104.045278
0
LINE
8
BFab
62
6
10
181.539733
20
-105.495278
11
184.339733
21
-105.495278
0
LINE
8
BFab
62
6
10
183.189733
20
-104.995278
11
183.189733
21
-104.195278
0
LINE
8
BCrtYd
62
8
10
121.482655
20
-147.572948
11
126.182655
21
-147.572948
0
LINE
8
BCrtYd
62
8
10
121.482655
20
-147.572948
11
121.482655
21
-145.272948
0
LINE
8
BCrtYd
62
8
10
126.182655
20
-147.572948
11
126.182655
21
-145.272948
0
LINE
8
BCrtYd
62
8
10
126.182655
20
-145.272948
11
121.482655
21
-145.272948
0
LINE
8
BFab
62
6
10
123.482655
20
-146.422948
11
124.082655
21
-146.822948
0
LINE
8
BFab
62
6
10
124.082655
20
-146.022948
11
123.482655
21
-146.422948
0
LINE
8
BFab
62
6
10
124.082655
20
-146.822948
11
124.082655
21
-146.022948
0
LINE
8
BFab
62
6
10
122.432655
20
-145.522948
11
122.432655
21
-147.322948
0
LINE
8
BFab
62
6
10
123.482655
20
-146.422948
11
123.482655
21
-145.872948
0
LINE
8
BFab
62
6
10
125.232655
20
-145.522948
11
122.432655
21
-145.522948
0
LINE
8
BFab
62
6
10
122.432655
20
-147.322948
11
125.232655
21
-147.322948
0
LINE
8
BFab
62
6
10
124.082655
20
-146.422948
11
124.582655
21
-146.422948
0
LINE
8
BFab
62
6
10
125.232655
20
-147.322948
11
125.232655
21
-145.522948
0
LINE
8
BFab
62
6
10
123.482655
20
-146.422948
11
123.482655
21
-146.972948
0
LINE
8
BFab
62
6
10
123.082655
20
-146.422948
11
123.482655
21
-146.422948
0
LINE
8
BCrtYd
62
8
10
173.354576
20
-90.229434
11
178.054576
21
-90.229434
0
LINE
8
BCrtYd
62
8
10
173.354576
20
-90.229434
11
173.354576
21
-87.929434
0
LINE
8
BCrtYd
62
8
10
178.054576
20
-87.929434
11
173.354576
21
-87.929434
0
LINE
8
BCrtYd
62
8
10
178.054576
20
-90.229434
11
178.054576
21
-87.929434
0
LINE
8
BFab
62
6
10
175.954576
20
-89.079434
11
176.454576
21
-89.079434
0
LINE
8
BFab
62
6
10
175.954576
20
-89.479434
11
175.954576
21
-88.679434
0
LINE
8
BFab
62
6
10
177.104576
20
-89.979434
11
177.104576
21
-88.179434
0
LINE
8
BFab
62
6
10
175.354576
20
-89.079434
11
175.954576
21
-89.479434
0
LINE
8
BFab
62
6
10
174.304576
20
-88.179434
11
174.304576
21
-89.979434
0
LINE
8
BFab
62
6
10
175.354576
20
-89.079434
11
175.354576
21
-88.529434
0
LINE
8
BFab
62
6
10
175.954576
20
-88.679434
11
175.354576
21
-89.079434
0
LINE
8
BFab
62
6
10
177.104576
20
-88.179434
11
174.304576
21
-88.179434
0
LINE
8
BFab
62
6
10
174.304576
20
-89.979434
11
177.104576
21
-89.979434
0
LINE
8
BFab
62
6
10
175.354576
20
-89.079434
11
175.354576
21
-89.629434
0
LINE
8
BFab
62
6
10
174.954576
20
-89.079434
11
175.354576
21
-89.079434
0
LINE
8
BCrtYd
62
8
10
210.207844
20
-84.078254
11
214.907844
21
-84.078254
0
LINE
8
BCrtYd
62
8
10
214.907844
20
-84.078254
11
214.907844
21
-81.778254
0
LINE
8
BCrtYd
62
8
10
214.907844
20
-81.778254
11
210.207844
21
-81.778254
0
LINE
8
BCrtYd
62
8
10
210.207844
20
-84.078254
11
210.207844
21
-81.778254
0
LINE
8
BFab
62
6
10
213.957844
20
-82.028254
11
211.157844
21
-82.028254
0
LINE
8
BFab
62
6
10
211.157844
20
-82.028254
11
211.157844
21
-83.828254
0
LINE
8
BFab
62
6
10
211.807844
20
-82.928254
11
212.207844
21
-82.928254
0
LINE
8
BFab
62
6
10
212.207844
20
-82.928254
11
212.207844
21
-82.378254
0
LINE
8
BFab
62
6
10
212.807844
20
-83.328254
11
212.807844
21
-82.528254
0
LINE
8
BFab
62
6
10
213.957844
20
-83.828254
11
213.957844
21
-82.028254
0
LINE
8
BFab
62
6
10
212.807844
20
-82.928254
11
213.307844
21
-82.928254
0
LINE
8
BFab
62
6
10
212.207844
20
-82.928254
11
212.807844
21
-83.328254
0
LINE
8
BFab
62
6
10
212.807844
20
-82.528254
11
212.207844
21
-82.928254
0
LINE
8
BFab
62
6
10
211.157844
20
-83.828254
11
213.957844
21
-83.828254
0
LINE
8
BFab
62
6
10
212.207844
20
-82.928254
11
212.207844
21
-83.478254
0
LINE
8
BCrtYd
62
8
10
260.162265
20
-106.022619
11
264.862265
21
-106.022619
0
LINE
8
BCrtYd
62
8
10
264.862265
20
-106.022619
11
264.862265
21
-103.722619
0
LINE
8
BCrtYd
62
8
10
264.862265
20
-103.722619
11
260.162265
21
-103.722619
0
LINE
8
BCrtYd
62
8
10
260.162265
20
-106.022619
11
260.162265
21
-103.722619
0
LINE
8
BFab
62
6
10
262.162265
20
-104.872619
11
262.162265
21
-105.422619
0
LINE
8
BFab
62
6
10
263.912265
20
-103.972619
11
261.112265
21
-103.972619
0
LINE
8
BFab
62
6
10
262.762265
20
-104.472619
11
262.162265
21
-104.872619
0
LINE
8
BFab
62
6
10
262.162265
20
-104.872619
11
262.162265
21
-104.322619
0
LINE
8
BFab
62
6
10
262.762265
20
-105.272619
11
262.762265
21
-104.472619
0
LINE
8
BFab
62
6
10
262.162265
20
-104.872619
11
262.762265
21
-105.272619
0
LINE
8
BFab
62
6
10
261.112265
20
-103.972619
11
261.112265
21
-105.772619
0
LINE
8
BFab
62
6
10
262.762265
20
-104.872619
11
263.262265
21
-104.872619
0
LINE
8
BFab
62
6
10
261.112265
20
-105.772619
11
263.912265
21
-105.772619
0
LINE
8
BFab
62
6
10
261.762265
20
-104.872619
11
262.162265
21
-104.872619
0
LINE
8
BFab
62
6
10
263.912265
20
-105.772619
11
263.912265
21
-103.972619
0
LINE
8
BCrtYd
62
8
10
234.179703
20
-80.515278
11
229.479703
21
-80.515278
0
LINE
8
BCrtYd
62
8
10
234.179703
20
-82.815278
11
234.179703
21
-80.515278
0
LINE
8
BCrtYd
62
8
10
229.479703
20
-82.815278
11
229.479703
21
-80.515278
0
LINE
8
BCrtYd
62
8
10
229.479703
20
-82.815278
11
234.179703
21
-82.815278
0
LINE
8
BFab
62
6
10
233.229703
20
-82.565278
11
233.229703
21
-80.765278
0
LINE
8
BFab
62
6
10
233.229703
20
-80.765278
11
230.429703
21
-80.765278
0
LINE
8
BFab
62
6
10
232.079703
20
-81.265278
11
231.479703
21
-81.665278
0
LINE
8
BFab
62
6
10
232.079703
20
-82.065278
11
232.079703
21
-81.265278
0
LINE
8
BFab
62
6
10
231.479703
20
-81.665278
11
232.079703
21
-82.065278
0
LINE
8
BFab
62
6
10
231.079703
20
-81.665278
11
231.479703
21
-81.665278
0
LINE
8
BFab
62
6
10
231.479703
20
-81.665278
11
231.479703
21
-82.215278
0
LINE
8
BFab
62
6
10
231.479703
20
-81.665278
11
231.479703
21
-81.115278
0
LINE
8
BFab
62
6
10
230.429703
20
-82.565278
11
233.229703
21
-82.565278
0
LINE
8
BFab
62
6
10
230.429703
20
-80.765278
11
230.429703
21
-82.565278
0
LINE
8
BFab
62
6
10
232.079703
20
-81.665278
11
232.579703
21
-81.665278
0
LINE
8
BCrtYd
62
8
10
68.113007
20
-99.437204
11
63.413007
21
-99.437204
0
LINE
8
BCrtYd
62
8
10
68.113007
20
-101.737204
11
68.113007
21
-99.437204
0
LINE
8
BCrtYd
62
8
10
63.413007
20
-101.737204
11
68.113007
21
-101.737204
0
LINE
8
BCrtYd
62
8
10
63.413007
20
-101.737204
11
63.413007
21
-99.437204
0
LINE
8
BFab
62
6
10
66.013007
20
-100.587204
11
66.513007
21
-100.587204
0
LINE
8
BFab
62
6
10
67.163007
20
-99.687204
11
64.363007
21
-99.687204
0
LINE
8
BFab
62
6
10
66.013007
20
-100.987204
11
66.013007
21
-100.187204
0
LINE
8
BFab
62
6
10
64.363007
20
-99.687204
11
64.363007
21
-101.487204
0
LINE
8
BFab
62
6
10
65.013007
20
-100.587204
11
65.413007
21
-100.587204
0
LINE
8
BFab
62
6
10
67.163007
20
-101.487204
11
67.163007
21
-99.687204
0
LINE
8
BFab
62
6
10
64.363007
20
-101.487204
11
67.163007
21
-101.487204
0
LINE
8
BFab
62
6
10
65.413007
20
-100.587204
11
65.413007
21
-101.137204
0
LINE
8
BFab
62
6
10
65.413007
20
-100.587204
11
66.013007
21
-100.987204
0
LINE
8
BFab
62
6
10
65.413007
20
-100.587204
11
65.413007
21
-100.037204
0
LINE
8
BFab
62
6
10
66.013007
20
-100.187204
11
65.413007
21
-100.587204
0
LINE
8
Edge
62
2
10
165.738515
20
-148.932977
11
164.566855
21
-146.594029
0
ARC
8
Edge
62
2
10
255.738516
20
-101.932978
30
0
40
14.31782
50
-114.775142
51
-68.962491
0
ARC
8
Edge
62
2
10
124.738519
20
-87.932976
30
0
40
15.999997
50
-4e-06
51
55.304843
0
ARC
8
Edge
62
2
10
99.738517
20
-135.93298
30
0
40
7.211099
50
-171.869915
51
-123.690085
0
ARC
8
Edge
62
2
10
148.685325
20
-153.09255
30
0
40
17.159657
50
22.253743
51
89.822389
0
ARC
8
Edge
62
2
10
172.738518
20
-87.93298
30
0
40
16.000001
50
124.695125
51
179.999971
0
ARC
8
Edge
62
2
10
64.738518
20
-136.932978
30
0
40
27.459061
50
10.491481
51
117.474436
0
LINE
8
Edge
62
2
10
163.631156
20
-74.777905
11
188.140667
21
-58.512073
0
ARC
8
Edge
62
2
10
84.738517
20
-93.932979
30
0
40
43.124182
50
55.222166
51
100.608061
0
ARC
8
Edge
62
2
10
266.738517
20
-87.932979
30
0
40
15.678961
50
29.93176
51
65.224864
0
ARC
8
Edge
62
2
10
255.890501
20
-42.86496
30
0
40
31.037193
50
-155.0995
51
-80.738237
0
LINE
8
Edge
62
2
10
245.406828
20
-112.570839
11
249.738516
21
-114.932977
0
ARC
8
Edge
62
2
10
142.738514
20
-93.932974
30
0
40
2.0
50
-179.999943
51
-89.999943
0
ARC
8
Edge
62
2
10
30.738515
20
-95.932978
30
0
40
23.186284
50
75.379117
51
106.461692
0
ARC
8
Edge
62
2
10
37.738516
20
-88.932975
30
0
40
22.398762
50
-203.19858
51
-166.484263
0
LINE
8
Edge
62
2
10
204.877143
20
-136.952783
11
205.738517
21
-131.932975
0
ARC
8
Edge
62
2
10
173.738517
20
-145.932974
30
0
40
8.544007
50
-159.443941
51
-69.443941
0
LINE
8
Edge
62
2
10
92.599888
20
-136.952776
11
91.738518
21
-131.932976
0
ARC
8
Edge
62
2
10
41.586534
20
-42.864956
30
0
40
31.037196
50
-99.261779
51
-24.900517
0
ARC
8
Edge
62
2
10
148.791707
20
-153.092549
30
0
40
17.159656
50
90.177597
51
157.746244
0
ARC
8
Edge
62
2
10
30.738517
20
-87.932976
30
0
40
15.678965
50
114.775149
51
150.068252
0
LINE
8
Edge
62
2
10
52.070204
20
-112.570835
11
47.738516
21
-114.932977
0
ARC
8
Edge
62
2
10
232.738517
20
-136.932975
30
0
40
27.45906
50
62.525568
51
169.508523
0
LINE
8
Edge
62
2
10
154.738516
20
-95.932977
11
142.738516
21
-95.932974
0
ARC
8
Edge
62
2
10
41.738515
20
-101.932979
30
0
40
14.31782
50
-111.037504
51
-65.224852
0
ARC
8
Edge
62
2
10
219.738516
20
-60.932976
30
0
40
9.433979
50
32.00539
51
84.289413
0
ARC
8
Edge
62
2
10
77.738515
20
-60.932979
30
0
40
9.43398
50
95.710582
51
147.994605
0
ARC
8
Edge
62
2
10
54.738517
20
-76.932976
30
0
40
42.435935
50
-156.037512
51
-115.306673
0
ARC
8
Edge
62
2
10
154.738514
20
-93.932977
30
0
40
2.0
50
-89.999943
51
5.7e-05
0
LINE
8
Edge
62
2
10
140.738516
20
-93.932976
11
140.738516
21
-87.932977
0
LINE
8
Edge
62
2
10
133.845876
20
-74.777902
11
109.336367
21
-58.512068
0
LINE
8
Edge
62
2
10
120.73852
20
-153.932977
11
95.738517
21
-141.932976
0
ARC
8
Edge
62
2
10
242.738517
20
-76.932973
30
0
40
42.435939
50
-64.693329
51
-23.962491
0
LINE
8
Edge
62
2
10
176.738517
20
-153.932974
11
201.738516
21
-141.932977
0
ARC
8
Edge
62
2
10
197.738516
20
-135.932976
30
0
40
7.211103
50
-56.309937
51
-8.130107
0
LINE
8
Edge
62
2
10
131.738519
20
-148.932975
11
132.910174
21
-146.59403
0
LINE
8
Edge
62
2
10
156.738516
20
-93.932978
11
156.738517
21
-87.932972
0
ARC
8
Edge
62
2
10
259.738518
20
-88.932976
30
0
40
22.39876
50
-13.51572
51
23.198597
0
ARC
8
Edge
62
2
10
212.738519
20
-93.932978
30
0
40
43.124181
50
79.391939
51
124.777833
0
ARC
8
Edge
62
2
10
266.738519
20
-95.932977
30
0
40
23.186283
50
73.538308
51
104.620882
0
ARC
8
Edge
62
2
10
123.738518
20
-145.932974
30
0
40
8.544005
50
-110.556049
51
-20.556049
0
ENDSEC
0
EOF
