  0
SECTION
  2
HEADER
  9
$ACADVER
  1
AC1006
  9
$EXTMIN
 10
0.000000
 20
0.000000
 30
0.000000
  9
$EXTMAX
 10
1153.000000
 20
1471.000000
 30
0.000000
  0
ENDSEC
  0
SECTION
  2
ENTITIES
  0
POLYLINE
  8
0
 66
1
 70
1
  0
VERTEX
  8
0
 10
484.547238
 20
1396.873130
 42
0.016531
  0
VERTEX
  8
0
 10
478.842987
 20
1395.863412
 42
0.041089
  0
VERTEX
  8
0
 10
474.784268
 20
1394.650524
 42
0.051695
  0
VERTEX
  8
0
 10
471.564491
 20
1392.991350
 42
0.044284
  0
VERTEX
  8
0
 10
468.568160
 20
1390.629054
 42
0.119979
  0
VERTEX
  8
0
 10
465.262840
 20
1385.538041
 42
0.094720
  0
VERTEX
  8
0
 10
464.290230
 20
1379.021188
 42
0.077061
  0
VERTEX
  8
0
 10
465.784695
 20
1371.436440
 42
0.048450
  0
VERTEX
  8
0
 10
469.683136
 20
1363.265890
 42
0.000000
  0
VERTEX
  8
0
 10
472.987778
 20
1357.777988
 42
0.000000
  0
VERTEX
  8
0
 10
470.243889
 20
1359.550811
 42
-0.010284
  0
VERTEX
  8
0
 10
468.826737
 20
1360.508309
 42
-0.003018
  0
VERTEX
  8
0
 10
466.690392
 20
1362.036042
 42
-0.003029
  0
VERTEX
  8
0
 10
464.306959
 20
1363.784422
 42
-0.003249
  0
VERTEX
  8
0
 10
462.000000
 20
1365.521673
 42
0.012529
  0
VERTEX
  8
0
 10
455.078986
 20
1370.534998
 42
0.006756
  0
VERTEX
  8
0
 10
446.319781
 20
1376.378512
 42
0.006556
  0
VERTEX
  8
0
 10
437.753192
 20
1381.769603
 42
0.019963
  0
VERTEX
  8
0
 10
431.748499
 20
1385.117843
 42
0.050864
  0
VERTEX
  8
0
 10
420.269393
 20
1389.531918
 42
0.023150
  0
VERTEX
  8
0
 10
404.555977
 20
1393.032034
 42
0.021054
  0
VERTEX
  8
0
 10
389.272689
 20
1395.042207
 42
0.102216
  0
VERTEX
  8
0
 10
380.632596
 20
1394.043761
 42
0.055090
  0
VERTEX
  8
0
 10
376.852577
 20
1392.315457
 42
0.053653
  0
VERTEX
  8
0
 10
373.504325
 20
1389.790577
 42
0.051543
  0
VERTEX
  8
0
 10
370.658330
 20
1386.509358
 42
0.043951
  0
VERTEX
  8
0
 10
368.366871
 20
1382.540865
 42
0.062136
  0
VERTEX
  8
0
 10
366.383433
 20
1376.384740
 42
0.089701
  0
VERTEX
  8
0
 10
366.334073
 20
1370.679141
 42
0.078593
  0
VERTEX
  8
0
 10
368.335178
 20
1364.781873
 42
0.037664
  0
VERTEX
  8
0
 10
372.588644
 20
1357.986785
 42
-0.008171
  0
VERTEX
  8
0
 10
374.596084
 20
1355.164401
 42
-0.037666
  0
VERTEX
  8
0
 10
375.603514
 20
1353.431524
 42
-0.152357
  0
VERTEX
  8
0
 10
375.724070
 20
1352.627973
 42
-0.454963
  0
VERTEX
  8
0
 10
375.312035
 20
1352.367705
 42
0.017711
  0
VERTEX
  8
0
 10
369.767738
 20
1353.813854
 42
0.028452
  0
VERTEX
  8
0
 10
364.947630
 20
1354.605787
 42
0.026314
  0
VERTEX
  8
0
 10
359.809074
 20
1354.880134
 42
0.012688
  0
VERTEX
  8
0
 10
353.216772
 20
1354.717595
 42
0.013248
  0
VERTEX
  8
0
 10
344.726612
 20
1354.066647
 42
0.040991
  0
VERTEX
  8
0
 10
339.078887
 20
1353.010020
 42
0.060876
  0
VERTEX
  8
0
 10
335.051350
 20
1351.361594
 42
0.077491
  0
VERTEX
  8
0
 10
331.895551
 20
1348.888187
 42
0.073388
  0
VERTEX
  8
0
 10
329.564980
 20
1345.516786
 42
0.026780
  0
VERTEX
  8
0
 10
327.273912
 20
1340.169416
 42
0.027064
  0
VERTEX
  8
0
 10
325.542834
 20
1334.515776
 42
0.060827
  0
VERTEX
  8
0
 10
325.000000
 20
1330.070181
 42
0.084112
  0
VERTEX
  8
0
 10
325.673796
 20
1326.093162
 42
0.035768
  0
VERTEX
  8
0
 10
327.820348
 20
1321.115795
 42
0.032845
  0
VERTEX
  8
0
 10
331.028163
 20
1315.816579
 42
0.029621
  0
VERTEX
  8
0
 10
335.006245
 20
1310.787362
 42
0.000000
  0
VERTEX
  8
0
 10
339.723257
 20
1305.500000
 42
0.000000
  0
VERTEX
  8
0
 10
332.111629
 20
1305.785721
 42
0.031924
  0
VERTEX
  8
0
 10
326.327806
 20
1305.633536
 42
0.080893
  0
VERTEX
  8
0
 10
322.267693
 20
1304.590044
 42
0.086476
  0
VERTEX
  8
0
 10
318.909347
 20
1302.363162
 42
0.040309
  0
VERTEX
  8
0
 10
315.405579
 20
1298.465095
 42
0.033656
  0
VERTEX
  8
0
 10
313.983879
 20
1296.315423
 42
0.051139
  0
VERTEX
  8
0
 10
313.081888
 20
1294.267303
 42
0.044588
  0
VERTEX
  8
0
 10
312.539302
 20
1291.880576
 42
0.019220
  0
VERTEX
  8
0
 10
312.226330
 20
1288.629956
 42
0.019804
  0
VERTEX
  8
0
 10
312.159831
 20
1284.925081
 42
0.062123
  0
VERTEX
  8
0
 10
312.520700
 20
1282.466550
 42
0.054691
  0
VERTEX
  8
0
 10
313.499931
 20
1280.008448
 42
0.012911
  0
VERTEX
  8
0
 10
315.676464
 20
1276.155334
 42
0.015860
  0
VERTEX
  8
0
 10
317.505429
 20
1273.312743
 42
0.009081
  0
VERTEX
  8
0
 10
319.881117
 20
1269.996338
 42
0.009064
  0
VERTEX
  8
0
 10
322.393545
 20
1266.745046
 42
0.014879
  0
VERTEX
  8
0
 10
324.649369
 20
1264.098071
 42
0.000000
  0
VERTEX
  8
0
 10
329.818972
 20
1258.385475
 42
0.000000
  0
VERTEX
  8
0
 10
323.898866
 20
1258.813696
 42
0.015388
  0
VERTEX
  8
0
 10
320.098214
 20
1258.971261
 42
0.094455
  0
VERTEX
  8
0
 10
318.176943
 20
1258.626225
 42
0.091226
  0
VERTEX
  8
0
 10
316.487596
 20
1257.595139
 42
0.013865
  0
VERTEX
  8
0
 10
313.604501
 20
1254.867659
 42
0.069218
  0
VERTEX
  8
0
 10
309.495021
 20
1249.430164
 42
0.083859
  0
VERTEX
  8
0
 10
307.355893
 20
1243.414327
 42
0.079138
  0
VERTEX
  8
0
 10
307.246839
 20
1236.751775
 42
0.054164
  0
VERTEX
  8
0
 10
309.120798
 20
1229.406684
 42
0.045358
  0
VERTEX
  8
0
 10
311.519720
 20
1224.423733
 42
0.045942
  0
VERTEX
  8
0
 10
314.769064
 20
1219.977943
 42
0.046413
  0
VERTEX
  8
0
 10
318.740703
 20
1216.240225
 42
0.048358
  0
VERTEX
  8
0
 10
323.281965
 20
1213.357118
 42
0.016102
  0
VERTEX
  8
0
 10
326.098660
 20
1212.041987
 42
0.003165
  0
VERTEX
  8
0
 10
331.245924
 20
1209.876114
 42
0.003354
  0
VERTEX
  8
0
 10
337.278925
 20
1207.429630
 42
0.003107
  0
VERTEX
  8
0
 10
343.500000
 20
1205.000000
 42
-0.003156
  0
VERTEX
  8
0
 10
349.727089
 20
1202.567318
 42
-0.003386
  0
VERTEX
  8
0
 10
355.778170
 20
1200.111676
 42
-0.003207
  0
VERTEX
  8
0
 10
360.947404
 20
1197.934089
 42
-0.015979
  0
VERTEX
  8
0
 10
363.800058
 20
1196.601318
 42
0.000000
  0
VERTEX
  8
0
 10
368.790956
 20
1194.072239
 42
0.000000
  0
VERTEX
  8
0
 10
367.295690
 20
1189.786119
 42
0.066139
  0
VERTEX
  8
0
 10
366.172053
 20
1184.343093
 42
0.048736
  0
VERTEX
  8
0
 10
366.331660
 20
1178.182886
 42
0.043676
  0
VERTEX
  8
0
 10
367.760051
 20
1171.500828
 42
0.033199
  0
VERTEX
  8
0
 10
370.429334
 20
1164.500000
 42
0.030019
  0
VERTEX
  8
0
 10
375.768738
 20
1154.505522
 42
0.012210
  0
VERTEX
  8
0
 10
384.160827
 20
1141.558464
 42
0.012316
  0
VERTEX
  8
0
 10
393.405165
 20
1128.722524
 42
0.023040
  0
VERTEX
  8
0
 10
401.599136
 20
1118.892036
 42
-0.044383
  0
VERTEX
  8
0
 10
406.943832
 20
1111.893660
 42
-0.067462
  0
VERTEX
  8
0
 10
410.120662
 20
1104.944485
 42
-0.066529
  0
VERTEX
  8
0
 10
411.359141
 20
1097.328412
 42
-0.041857
  0
VERTEX
  8
0
 10
410.859852
 20
1088.313009
 42
0.018365
  0
VERTEX
  8
0
 10
410.242466
 20
1082.296919
 42
0.032197
  0
VERTEX
  8
0
 10
410.236627
 20
1077.293960
 42
0.014743
  0
VERTEX
  8
0
 10
410.890346
 20
1070.261209
 42
0.001268
  0
VERTEX
  8
0
 10
413.136114
 20
1052.346240
 42
0.016454
  0
VERTEX
  8
0
 10
413.940782
 20
1047.364694
 42
0.050139
  0
VERTEX
  8
0
 10
414.930225
 20
1044.087848
 42
0.041937
  0
VERTEX
  8
0
 10
416.644553
 20
1040.772814
 42
0.008980
  0
VERTEX
  8
0
 10
420.192482
 20
1035.346240
 42
0.000000
  0
VERTEX
  8
0
 10
426.205711
 20
1026.500000
 42
0.000000
  0
VERTEX
  8
0
 10
425.703835
 20
1018.094821
 42
-0.014106
  0
VERTEX
  8
0
 10
425.281647
 20
1013.301357
 42
-0.037327
  0
VERTEX
  8
0
 10
424.629634
 20
1009.923445
 42
-0.038422
  0
VERTEX
  8
0
 10
423.494511
 20
1006.735838
 42
-0.015713
  0
VERTEX
  8
0
 10
421.492473
 20
1002.594821
 42
0.018875
  0
VERTEX
  8
0
 10
419.947354
 20
999.346656
 42
0.016929
  0
VERTEX
  8
0
 10
418.590164
 20
995.872382
 42
0.017596
  0
VERTEX
  8
0
 10
417.546600
 20
992.538634
 42
0.031833
  0
VERTEX
  8
0
 10
416.965974
 20
989.739588
 42
-0.027138
  0
VERTEX
  8
0
 10
416.298773
 20
986.364261
 42
-0.060297
  0
VERTEX
  8
0
 10
415.352810
 20
983.924364
 42
-0.048639
  0
VERTEX
  8
0
 10
413.723657
 20
981.478033
 42
-0.012708
  0
VERTEX
  8
0
 10
410.644021
 20
977.896019
 42
0.039625
  0
VERTEX
  8
0
 10
404.621582
 20
970.077171
 42
0.086778
  0
VERTEX
  8
0
 10
401.660694
 20
963.151423
 42
0.089809
  0
VERTEX
  8
0
 10
401.279287
 20
955.786753
 42
0.044740
  0
VERTEX
  8
0
 10
403.295329
 20
946.634490
 42
-0.002476
  0
VERTEX
  8
0
 10
408.021868
 20
931.424124
 42
-0.016905
  0
VERTEX
  8
0
 10
410.059811
 20
923.840478
 42
-0.031861
  0
VERTEX
  8
0
 10
410.976964
 20
918.333154
 42
-0.026841
  0
VERTEX
  8
0
 10
411.258595
 20
912.427013
 42
-0.047985
  0
VERTEX
  8
0
 10
410.049224
 20
900.601985
 42
-0.027551
  0
VERTEX
  8
0
 10
406.460327
 20
886.714995
 42
-0.027568
  0
VERTEX
  8
0
 10
401.377332
 20
873.337346
 42
-0.048952
  0
VERTEX
  8
0
 10
395.564149
 20
863.091027
 42
0.030826
  0
VERTEX
  8
0
 10
388.359479
 20
851.399117
 42
0.032306
  0
VERTEX
  8
0
 10
382.772279
 20
839.087804
 42
0.034538
  0
VERTEX
  8
0
 10
379.180053
 20
827.154364
 42
0.055894
  0
VERTEX
  8
0
 10
378.000000
 20
816.631253
 42
0.051555
  0
VERTEX
  8
0
 10
378.530215
 20
811.502647
 42
0.029616
  0
VERTEX
  8
0
 10
380.161105
 20
805.499058
 42
0.027503
  0
VERTEX
  8
0
 10
382.695151
 20
799.144663
 42
0.025408
  0
VERTEX
  8
0
 10
385.971683
 20
792.931001
 42
-0.049467
  0
VERTEX
  8
0
 10
392.219569
 20
779.562933
 42
-0.030563
  0
VERTEX
  8
0
 10
396.972060
 20
762.862707
 42
-0.030746
  0
VERTEX
  8
0
 10
399.561061
 20
746.257370
 42
-0.066500
  0
VERTEX
  8
0
 10
399.050220
 20
733.366984
 42
-0.037238
  0
VERTEX
  8
0
 10
397.389521
 20
726.776783
 42
-0.021475
  0
VERTEX
  8
0
 10
394.473504
 20
719.128271
 42
-0.019365
  0
VERTEX
  8
0
 10
390.487298
 20
710.789295
 42
-0.015268
  0
VERTEX
  8
0
 10
385.556838
 20
702.080772
 42
0.011093
  0
VERTEX
  8
0
 10
381.199611
 20
694.532428
 42
0.026319
  0
VERTEX
  8
0
 10
378.386907
 20
688.690431
 42
0.028706
  0
VERTEX
  8
0
 10
376.346783
 20
682.898907
 42
0.015750
  0
VERTEX
  8
0
 10
374.487208
 20
675.609990
 42
0.045791
  0
VERTEX
  8
0
 10
373.190945
 20
665.440336
 42
0.069702
  0
VERTEX
  8
0
 10
374.113149
 20
656.597851
 42
0.080409
  0
VERTEX
  8
0
 10
377.233787
 20
649.289656
 42
0.089022
  0
VERTEX
  8
0
 10
382.418180
 20
643.630205
 42
-0.073556
  0
VERTEX
  8
0
 10
385.365317
 20
640.605110
 42
-0.083292
  0
VERTEX
  8
0
 10
387.160030
 20
636.976308
 42
-0.077209
  0
VERTEX
  8
0
 10
387.753666
 20
632.732615
 42
-0.052981
  0
VERTEX
  8
0
 10
387.165891
 20
627.898333
 42
0.031755
  0
VERTEX
  8
0
 10
386.345886
 20
622.923614
 42
0.023473
  0
VERTEX
  8
0
 10
386.050656
 20
617.351961
 42
0.023896
  0
VERTEX
  8
0
 10
386.274032
 20
612.008968
 42
0.045364
  0
VERTEX
  8
0
 10
387.045158
 20
607.776882
 42
-0.026598
  0
VERTEX
  8
0
 10
387.481210
 20
605.805773
 42
-0.056964
  0
VERTEX
  8
0
 10
387.560098
 20
604.251926
 42
-0.063391
  0
VERTEX
  8
0
 10
387.286677
 20
602.827863
 42
-0.040868
  0
VERTEX
  8
0
 10
386.634595
 20
601.276882
 42
-0.101290
  0
VERTEX
  8
0
 10
383.273496
 20
597.133890
 42
-0.059145
  0
VERTEX
  8
0
 10
377.866381
 20
593.674389
 42
-0.021902
  0
VERTEX
  8
0
 10
367.696999
 20
589.287957
 42
-0.001973
  0
VERTEX
  8
0
 10
341.733186
 20
579.530384
 42
0.007011
  0
VERTEX
  8
0
 10
336.300933
 20
577.426152
 42
0.001462
  0
VERTEX
  8
0
 10
326.835626
 20
573.573975
 42
0.001534
  0
VERTEX
  8
0
 10
315.875665
 20
569.036762
 42
0.001449
  0
VERTEX
  8
0
 10
304.733186
 20
564.345918
 42
-0.001850
  0
VERTEX
  8
0
 10
282.347790
 20
554.943072
 42
-0.007067
  0
VERTEX
  8
0
 10
268.290785
 20
549.331293
 42
-0.007169
  0
VERTEX
  8
0
 10
254.176721
 20
544.157515
 42
-0.001944
  0
VERTEX
  8
0
 10
231.693573
 20
536.377645
 42
0.011594
  0
VERTEX
  8
0
 10
199.431689
 20
524.512060
 42
0.009999
  0
VERTEX
  8
0
 10
166.105957
 20
510.593999
 42
0.010074
  0
VERTEX
  8
0
 10
133.666422
 20
495.489749
 42
0.012415
  0
VERTEX
  8
0
 10
104.078009
 20
480.057993
 42
-0.003236
  0
VERTEX
  8
0
 10
99.986464
 20
477.827582
 42
-0.001532
  0
VERTEX
  8
0
 10
94.684146
 20
475.002395
 42
-0.001518
  0
VERTEX
  8
0
 10
89.118631
 20
472.080429
 42
-0.002148
  0
VERTEX
  8
0
 10
84.144615
 20
469.515362
 42
0.017749
  0
VERTEX
  8
0
 10
72.413374
 20
462.994585
 42
0.012152
  0
VERTEX
  8
0
 10
59.559185
 20
454.807622
 42
0.011879
  0
VERTEX
  8
0
 10
47.952366
 20
446.605611
 42
0.037092
  0
VERTEX
  8
0
 10
40.722459
 20
440.352412
 42
0.055739
  0
VERTEX
  8
0
 10
35.290460
 20
433.526929
 42
0.100672
  0
VERTEX
  8
0
 10
32.782157
 20
426.866484
 42
0.100455
  0
VERTEX
  8
0
 10
33.072408
 20
419.745398
 42
0.055320
  0
VERTEX
  8
0
 10
36.085664
 20
411.528895
 42
0.045304
  0
VERTEX
  8
0
 10
39.085589
 20
406.664048
 42
0.037279
  0
VERTEX
  8
0
 10
43.098353
 20
402.067034
 42
0.037668
  0
VERTEX
  8
0
 10
47.693235
 20
398.170594
 42
0.049714
  0
VERTEX
  8
0
 10
52.431681
 20
395.402647
 42
0.032639
  0
VERTEX
  8
0
 10
55.779153
 20
394.127032
 42
0.029468
  0
VERTEX
  8
0
 10
59.379852
 20
393.246237
 42
0.020759
  0
VERTEX
  8
0
 10
64.054822
 20
392.589934
 42
0.006654
  0
VERTEX
  8
0
 10
71.043333
 20
391.996903
 42
-0.002168
  0
VERTEX
  8
0
 10
76.142613
 20
391.610233
 42
-0.003473
  0
VERTEX
  8
0
 10
80.491132
 20
391.231104
 42
-0.000739
  0
VERTEX
  8
0
 10
84.301462
 20
390.866532
 42
-0.173853
  0
VERTEX
  8
0
 10
84.614702
 20
390.718631
 42
-0.413401
  0
VERTEX
  8
0
 10
84.615063
 20
390.458302
 42
-0.001197
  0
VERTEX
  8
0
 10
81.952726
 20
387.793940
 42
-0.005458
  0
VERTEX
  8
0
 10
78.843475
 20
384.764064
 42
-0.003268
  0
VERTEX
  8
0
 10
75.086339
 20
381.228555
 42
0.015571
  0
VERTEX
  8
0
 10
68.085362
 20
374.308022
 42
0.021901
  0
VERTEX
  8
0
 10
62.320378
 20
367.684960
 42
0.023663
  0
VERTEX
  8
0
 10
57.513964
 20
361.024932
 42
0.024325
  0
VERTEX
  8
0
 10
53.405748
 20
354.000000
 42
0.022098
  0
VERTEX
  8
0
 10
51.885264
 20
350.739404
 42
0.045410
  0
VERTEX
  8
0
 10
51.049657
 20
348.051408
 42
0.039249
  0
VERTEX
  8
0
 10
50.646142
 20
345.016439
 42
0.012827
  0
VERTEX
  8
0
 10
50.519333
 20
340.500000
 42
0.011113
  0
VERTEX
  8
0
 10
50.606231
 20
336.113553
 42
0.038295
  0
VERTEX
  8
0
 10
50.942581
 20
333.290506
 42
0.052447
  0
VERTEX
  8
0
 10
51.636096
 20
331.048046
 42
0.037895
  0
VERTEX
  8
0
 10
52.846543
 20
328.725756
 42
0.031612
  0
VERTEX
  8
0
 10
53.954092
 20
327.172544
 42
0.024505
  0
VERTEX
  8
0
 10
55.342092
 20
325.626692
 42
0.025066
  0
VERTEX
  8
0
 10
56.785570
 20
324.308593
 42
0.053214
  0
VERTEX
  8
0
 10
58.046883
 20
323.475756
 42
0.100115
  0
VERTEX
  8
0
 10
62.711692
 20
322.146052
 42
0.032174
  0
VERTEX
  8
0
 10
69.944440
 20
322.046272
 42
0.028519
  0
VERTEX
  8
0
 10
78.724364
 20
322.994244
 42
0.020150
  0
VERTEX
  8
0
 10
88.439124
 20
325.012839
 42
-0.002584
  0
VERTEX
  8
0
 10
93.115703
 20
326.157265
 42
-0.003673
  0
VERTEX
  8
0
 10
97.285444
 20
327.122521
 42
-0.002083
  0
VERTEX
  8
0
 10
100.811557
 20
327.896131
 42
-0.053001
  0
VERTEX
  8
0
 10
101.788679
 20
328.000000
 42
0.082437
  0
VERTEX
  8
0
 10
102.691286
 20
328.149835
 42
0.005840
  0
VERTEX
  8
0
 10
105.105552
 20
329.005711
 42
0.008114
  0
VERTEX
  8
0
 10
107.970653
 20
330.112338
 42
0.006027
  0
VERTEX
  8
0
 10
111.099555
 20
331.423696
 42
0.000000
  0
VERTEX
  8
0
 10
119.000000
 20
334.847393
 42
0.000000
  0
VERTEX
  8
0
 10
119.003806
 20
321.673696
 42
0.009060
  0
VERTEX
  8
0
 10
119.108127
 20
316.007486
 42
0.007119
  0
VERTEX
  8
0
 10
119.419833
 20
309.872898
 42
0.007206
  0
VERTEX
  8
0
 10
119.873184
 20
304.176539
 42
0.017558
  0
VERTEX
  8
0
 10
120.414723
 20
300.000000
 42
0.033029
  0
VERTEX
  8
0
 10
122.071060
 20
292.928815
 42
0.022536
  0
VERTEX
  8
0
 10
124.834218
 20
285.146883
 42
0.020732
  0
VERTEX
  8
0
 10
127.968873
 20
278.270395
 42
0.099171
  0
VERTEX
  8
0
 10
130.622866
 20
274.898782
 42
0.054108
  0
VERTEX
  8
0
 10
134.112210
 20
272.521163
 42
0.004734
  0
VERTEX
  8
0
 10
143.623372
 20
267.562884
 42
0.002804
  0
VERTEX
  8
0
 10
153.608153
 20
262.547667
 42
0.115476
  0
VERTEX
  8
0
 10
155.947885
 20
262.000000
 42
-0.069323
  0
VERTEX
  8
0
 10
156.719415
 20
261.892513
 42
-0.027317
  0
VERTEX
  8
0
 10
157.735762
 20
261.542718
 42
-0.026399
  0
VERTEX
  8
0
 10
158.808569
 20
261.039133
 42
-0.029846
  0
VERTEX
  8
0
 10
159.777494
 20
260.443296
 42
-0.153142
  0
VERTEX
  8
0
 10
161.441859
 20
258.280365
 42
-0.093334
  0
VERTEX
  8
0
 10
161.978474
 20
255.073764
 42
-0.072053
  0
VERTEX
  8
0
 10
161.322787
 20
251.115916
 42
-0.045318
  0
VERTEX
  8
0
 10
159.500000
 20
246.787849
 42
0.059985
  0
VERTEX
  8
0
 10
157.248680
 20
240.972347
 42
0.132732
  0
VERTEX
  8
0
 10
157.316607
 20
236.252644
 42
0.146305
  0
VERTEX
  8
0
 10
159.712389
 20
232.505500
 42
0.079066
  0
VERTEX
  8
0
 10
164.410531
 20
229.601829
 42
-0.095098
  0
VERTEX
  8
0
 10
167.455368
 20
227.583343
 42
-0.101050
  0
VERTEX
  8
0
 10
169.458690
 20
224.619293
 42
-0.063522
  0
VERTEX
  8
0
 10
170.715749
 20
220.006578
 42
-0.017347
  0
VERTEX
  8
0
 10
171.504361
 20
212.487155
 42
-0.004334
  0
VERTEX
  8
0
 10
171.901603
 20
205.997465
 42
-0.051197
  0
VERTEX
  8
0
 10
171.775932
 20
203.478028
 42
-0.114169
  0
VERTEX
  8
0
 10
171.116973
 20
201.825801
 42
-0.053489
  0
VERTEX
  8
0
 10
169.601318
 20
200.075686
 42
0.092769
  0
VERTEX
  8
0
 10
167.394126
 20
197.083777
 42
0.236485
  0
VERTEX
  8
0
 10
167.430445
 20
194.461814
 42
0.105286
  0
VERTEX
  8
0
 10
169.918899
 20
191.434964
 42
0.013087
  0
VERTEX
  8
0
 10
176.758339
 20
186.270717
 42
0.010236
  0
VERTEX
  8
0
 10
181.075719
 20
183.316436
 42
0.007468
  0
VERTEX
  8
0
 10
185.986559
 20
180.205420
 42
0.007551
  0
VERTEX
  8
0
 10
190.732223
 20
177.395125
 42
0.016465
  0
VERTEX
  8
0
 10
194.470356
 20
175.417436
 42
-0.023114
  0
VERTEX
  8
0
 10
198.946590
 20
172.972554
 42
-0.024914
  0
VERTEX
  8
0
 10
203.063299
 20
170.180559
 42
-0.019802
  0
VERTEX
  8
0
 10
207.590963
 20
166.478833
 42
-0.008063
  0
VERTEX
  8
0
 10
213.462017
 20
161.106250
 42
0.009256
  0
VERTEX
  8
0
 10
221.701858
 20
153.602032
 42
0.011845
  0
VERTEX
  8
0
 10
229.574543
 20
147.017810
 42
0.013004
  0
VERTEX
  8
0
 10
236.575019
 20
141.731138
 42
0.032782
  0
VERTEX
  8
0
 10
242.000000
 20
138.365623
 42
0.061083
  0
VERTEX
  8
0
 10
244.555388
 20
137.381207
 42
0.037883
  0
VERTEX
  8
0
 10
247.728527
 20
136.836624
 42
0.020206
  0
VERTEX
  8
0
 10
252.560701
 20
136.576246
 42
0.003709
  0
VERTEX
  8
0
 10
261.500000
 20
136.522528
 42
0.005222
  0
VERTEX
  8
0
 10
270.228818
 20
136.625994
 42
0.017170
  0
VERTEX
  8
0
 10
275.981266
 20
136.952125
 42
0.023594
  0
VERTEX
  8
0
 10
280.638982
 20
137.599708
 42
0.019796
  0
VERTEX
  8
0
 10
285.500000
 20
138.711841
 42
-0.010896
  0
VERTEX
  8
0
 10
289.037381
 20
139.587670
 42
-0.007617
  0
VERTEX
  8
0
 10
293.059375
 20
140.426812
 42
-0.007688
  0
VERTEX
  8
0
 10
296.940645
 20
141.113372
 42
-0.015822
  0
VERTEX
  8
0
 10
300.000000
 20
141.507319
 42
0.006711
  0
VERTEX
  8
0
 10
303.217692
 20
141.862193
 42
0.002584
  0
VERTEX
  8
0
 10
307.675000
 20
142.437837
 42
0.002558
  0
VERTEX
  8
0
 10
312.503719
 20
143.112007
 42
0.003152
  0
VERTEX
  8
0
 10
317.000000
 20
143.792196
 42
-0.015017
  0
VERTEX
  8
0
 10
322.886619
 20
144.540326
 42
-0.011431
  0
VERTEX
  8
0
 10
329.369887
 20
145.017836
 42
-0.009667
  0
VERTEX
  8
0
 10
336.896862
 20
145.253694
 42
-0.005509
  0
VERTEX
  8
0
 10
346.000000
 20
145.262554
 42
0.012701
  0
VERTEX
  8
0
 10
367.203144
 20
145.588193
 42
0.015673
  0
VERTEX
  8
0
 10
386.919066
 20
147.012204
 42
0.017269
  0
VERTEX
  8
0
 10
404.117139
 20
149.400338
 42
0.034109
  0
VERTEX
  8
0
 10
417.500000
 20
152.685334
 42
0.066167
  0
VERTEX
  8
0
 10
437.377780
 20
162.068605
 42
0.049235
  0
VERTEX
  8
0
 10
456.394165
 20
177.183055
 42
0.045694
  0
VERTEX
  8
0
 10
473.437050
 20
197.030862
 42
0.040114
  0
VERTEX
  8
0
 10
487.441472
 20
220.500000
 42
0.009573
  0
VERTEX
  8
0
 10
492.620926
 20
231.539842
 42
0.024679
  0
VERTEX
  8
0
 10
495.806257
 20
239.747964
 42
0.026775
  0
VERTEX
  8
0
 10
498.020677
 20
247.834236
 42
0.013159
  0
VERTEX
  8
0
 10
500.009423
 20
258.319559
 42
0.007496
  0
VERTEX
  8
0
 10
501.899571
 20
271.161723
 42
0.014041
  0
VERTEX
  8
0
 10
502.979627
 20
281.604387
 42
0.017229
  0
VERTEX
  8
0
 10
503.330943
 20
290.268509
 42
0.028495
  0
VERTEX
  8
0
 10
502.958551
 20
297.577984
 42
-0.003153
  0
VERTEX
  8
0
 10
502.557504
 20
301.512797
 42
-0.001207
  0
VERTEX
  8
0
 10
502.047307
 20
306.991658
 42
-0.001195
  0
VERTEX
  8
0
 10
501.521995
 20
312.942354
 42
-0.001468
  0
VERTEX
  8
0
 10
501.061203
 20
318.500000
 42
0.019871
  0
VERTEX
  8
0
 10
499.752790
 20
329.394833
 42
0.020367
  0
VERTEX
  8
0
 10
497.590752
 20
340.061164
 42
0.018929
  0
VERTEX
  8
0
 10
494.407541
 20
351.191005
 42
0.013181
  0
VERTEX
  8
0
 10
490.014791
 20
363.500000
 42
-0.010173
  0
VERTEX
  8
0
 10
487.900354
 20
369.314188
 42
-0.020237
  0
VERTEX
  8
0
 10
486.508804
 20
374.011885
 42
-0.022950
  0
VERTEX
  8
0
 10
485.612246
 20
378.398120
 42
-0.018225
  0
VERTEX
  8
0
 10
485.036765
 20
383.199496
 42
0.010424
  0
VERTEX
  8
0
 10
484.554351
 20
387.835291
 42
0.034618
  0
VERTEX
  8
0
 10
483.964578
 20
390.841173
 42
0.049665
  0
VERTEX
  8
0
 10
483.106566
 20
393.105539
 42
0.047117
  0
VERTEX
  8
0
 10
481.806520
 20
395.199496
 42
-0.049054
  0
VERTEX
  8
0
 10
480.462741
 20
397.382676
 42
-0.054839
  0
VERTEX
  8
0
 10
479.629641
 20
399.707081
 42
-0.034198
  0
VERTEX
  8
0
 10
479.087041
 20
402.941425
 42
-0.007720
  0
VERTEX
  8
0
 10
478.627938
 20
408.500000
 42
0.000000
  0
VERTEX
  8
0
 10
477.957255
 20
418.500000
 42
0.000000
  0
VERTEX
  8
0
 10
481.483658
 20
412.037011
 42
0.036435
  0
VERTEX
  8
0
 10
486.380302
 20
404.436445
 42
0.063786
  0
VERTEX
  8
0
 10
491.597319
 20
399.083699
 42
0.065522
  0
VERTEX
  8
0
 10
497.892199
 20
395.310507
 42
0.040675
  0
VERTEX
  8
0
 10
506.059980
 20
392.532711
 42
-0.013154
  0
VERTEX
  8
0
 10
512.382444
 20
390.763699
 42
-0.026617
  0
VERTEX
  8
0
 10
517.232533
 20
388.980359
 42
-0.027377
  0
VERTEX
  8
0
 10
521.778499
 20
386.726312
 42
-0.014786
  0
VERTEX
  8
0
 10
527.124214
 20
383.488267
 42
-0.058617
  0
VERTEX
  8
0
 10
535.527318
 20
376.534635
 42
-0.080457
  0
VERTEX
  8
0
 10
541.072185
 20
368.461612
 42
-0.062837
  0
VERTEX
  8
0
 10
544.631538
 20
357.566463
 42
-0.022853
  0
VERTEX
  8
0
 10
546.976401
 20
341.458221
 42
0.022466
  0
VERTEX
  8
0
 10
548.744784
 20
329.243921
 42
0.048631
  0
VERTEX
  8
0
 10
551.418108
 20
320.149245
 42
0.059332
  0
VERTEX
  8
0
 10
555.374575
 20
312.934475
 42
0.054042
  0
VERTEX
  8
0
 10
561.025315
 20
306.596095
 42
0.033244
  0
VERTEX
  8
0
 10
566.221094
 20
302.494505
 42
0.065145
  0
VERTEX
  8
0
 10
570.908124
 20
300.103740
 42
0.056638
  0
VERTEX
  8
0
 10
576.474309
 20
298.809737
 42
0.019867
  0
VERTEX
  8
0
 10
584.672566
 20
298.189297
 42
0.000000
  0
VERTEX
  8
0
 10
595.845131
 20
297.789064
 42
0.000000
  0
VERTEX
  8
0
 10
592.321769
 20
292.884800
 42
0.063422
  0
VERTEX
  8
0
 10
587.610823
 20
284.185376
 42
0.094488
  0
VERTEX
  8
0
 10
586.055171
 20
275.695254
 42
0.100735
  0
VERTEX
  8
0
 10
587.758153
 20
267.625855
 42
0.081058
  0
VERTEX
  8
0
 10
592.557362
 20
260.147424
 42
0.042362
  0
VERTEX
  8
0
 10
596.606644
 20
256.346184
 42
0.082647
  0
VERTEX
  8
0
 10
600.473630
 20
254.212400
 42
0.063736
  0
VERTEX
  8
0
 10
605.466639
 20
253.137727
 42
0.017170
  0
VERTEX
  8
0
 10
613.575714
 20
252.728973
 42
-0.004855
  0
VERTEX
  8
0
 10
618.283263
 20
252.607782
 42
-0.028565
  0
VERTEX
  8
0
 10
620.742330
 20
252.379511
 42
-0.147141
  0
VERTEX
  8
0
 10
621.530492
 20
252.006665
 42
-0.508759
  0
VERTEX
  8
0
 10
621.481204
 20
251.536783
 42
0.040850
  0
VERTEX
  8
0
 10
618.061285
 20
249.163407
 42
0.043121
  0
VERTEX
  8
0
 10
615.139399
 20
246.304409
 42
0.043704
  0
VERTEX
  8
0
 10
612.784571
 20
243.024928
 42
0.044369
  0
VERTEX
  8
0
 10
611.049278
 20
239.402162
 42
0.038092
  0
VERTEX
  8
0
 10
609.596003
 20
234.383702
 42
0.052068
  0
VERTEX
  8
0
 10
609.118634
 20
229.705319
 42
0.041676
  0
VERTEX
  8
0
 10
609.583153
 20
224.295790
 42
0.015409
  0
VERTEX
  8
0
 10
611.102576
 20
216.791754
 42
0.012183
  0
VERTEX
  8
0
 10
612.269767
 20
212.313440
 42
0.028384
  0
VERTEX
  8
0
 10
613.412525
 20
209.042143
 42
0.036856
  0
VERTEX
  8
0
 10
614.688542
 20
206.508249
 42
0.045118
  0
VERTEX
  8
0
 10
616.251020
 20
204.366885
 42
0.035402
  0
VERTEX
  8
0
 10
618.888528
 20
201.760365
 42
0.043008
  0
VERTEX
  8
0
 10
621.710183
 20
199.734214
 42
0.048224
  0
VERTEX
  8
0
 10
624.478771
 20
198.429408
 42
0.086224
  0
VERTEX
  8
0
 10
626.950340
 20
198.000000
 42
-0.030215
  0
VERTEX
  8
0
 10
627.735591
 20
197.952503
 42
-0.046975
  0
VERTEX
  8
0
 10
628.397912
 20
197.808073
 42
-0.059662
  0
VERTEX
  8
0
 10
628.858788
 20
197.597949
 42
-0.261701
  0
VERTEX
  8
0
 10
629.000000
 20
197.346631
 42
-0.175705
  0
VERTEX
  8
0
 10
628.840968
 20
196.908049
 42
-0.001807
  0
VERTEX
  8
0
 10
626.697628
 20
194.359929
 42
-0.005542
  0
VERTEX
  8
0
 10
624.166415
 20
191.438936
 42
-0.003537
  0
VERTEX
  8
0
 10
621.162137
 20
188.096631
 42
0.010319
  0
VERTEX
  8
0
 10
614.186578
 20
180.121259
 42
0.023456
  0
VERTEX
  8
0
 10
609.335448
 20
173.754253
 42
0.028079
  0
VERTEX
  8
0
 10
605.657173
 20
167.728346
 42
0.023200
  0
VERTEX
  8
0
 10
602.414450
 20
160.937616
 42
0.039090
  0
VERTEX
  8
0
 10
598.396444
 20
148.852190
 42
0.026779
  0
VERTEX
  8
0
 10
595.675068
 20
134.647140
 42
0.025588
  0
VERTEX
  8
0
 10
594.554654
 20
121.431243
 42
0.103254
  0
VERTEX
  8
0
 10
595.935443
 20
113.500000
 42
0.073768
  0
VERTEX
  8
0
 10
598.374538
 20
109.293025
 42
0.056587
  0
VERTEX
  8
0
 10
602.137728
 20
105.532386
 42
0.058929
  0
VERTEX
  8
0
 10
606.421748
 20
102.880512
 42
0.109576
  0
VERTEX
  8
0
 10
610.391323
 20
102.000000
 42
-0.034908
  0
VERTEX
  8
0
 10
611.387495
 20
101.930367
 42
-0.039625
  0
VERTEX
  8
0
 10
612.321756
 20
101.722643
 42
-0.043418
  0
VERTEX
  8
0
 10
613.070968
 20
101.419244
 42
-0.137270
  0
VERTEX
  8
0
 10
613.465510
 20
101.055805
 42
-0.256576
  0
VERTEX
  8
0
 10
613.499808
 20
100.387279
 42
-0.009850
  0
VERTEX
  8
0
 10
612.333734
 20
98.096012
 42
-0.015484
  0
VERTEX
  8
0
 10
610.765292
 20
95.365699
 42
-0.010052
  0
VERTEX
  8
0
 10
608.793211
 20
92.305805
 42
0.014027
  0
VERTEX
  8
0
 10
603.030883
 20
83.206940
 42
0.027974
  0
VERTEX
  8
0
 10
599.092248
 20
75.651885
 42
0.035645
  0
VERTEX
  8
0
 10
596.753335
 20
69.310757
 42
0.070814
  0
VERTEX
  8
0
 10
596.003738
 20
64.018880
 42
0.050942
  0
VERTEX
  8
0
 10
596.518225
 20
59.015725
 42
0.093746
  0
VERTEX
  8
0
 10
598.073581
 20
55.244933
 42
0.090229
  0
VERTEX
  8
0
 10
600.946922
 20
52.210462
 42
0.044449
  0
VERTEX
  8
0
 10
605.509548
 20
49.451527
 42
0.021817
  0
VERTEX
  8
0
 10
608.917171
 20
47.964845
 42
0.045101
  0
VERTEX
  8
0
 10
611.708834
 20
47.169280
 42
0.037515
  0
VERTEX
  8
0
 10
614.908357
 20
46.807861
 42
0.011076
  0
VERTEX
  8
0
 10
619.844145
 20
46.732153
 42
0.042290
  0
VERTEX
  8
0
 10
631.524867
 20
47.802073
 42
0.015171
  0
VERTEX
  8
0
 10
647.895737
 20
51.226589
 42
0.015343
  0
VERTEX
  8
0
 10
664.998796
 20
55.909075
 42
0.023318
  0
VERTEX
  8
0
 10
679.500000
 20
61.112934
 42
0.016681
  0
VERTEX
  8
0
 10
695.273288
 20
68.242744
 42
0.002762
  0
VERTEX
  8
0
 10
725.110572
 20
83.152699
 42
0.002883
  0
VERTEX
  8
0
 10
754.805844
 20
98.413089
 42
0.014726
  0
VERTEX
  8
0
 10
771.000000
 20
107.469778
 42
-0.003890
  0
VERTEX
  8
0
 10
778.057347
 20
111.619908
 42
-0.002333
  0
VERTEX
  8
0
 10
786.500000
 20
116.444269
 42
-0.002336
  0
VERTEX
  8
0
 10
794.945188
 20
121.166010
 42
-0.004068
  0
VERTEX
  8
0
 10
802.000000
 20
124.992623
 42
0.008123
  0
VERTEX
  8
0
 10
814.058322
 20
131.660316
 42
0.006798
  0
VERTEX
  8
0
 10
826.638102
 20
139.114900
 42
0.005671
  0
VERTEX
  8
0
 10
841.023218
 20
148.131384
 42
0.002977
  0
VERTEX
  8
0
 10
858.716024
 20
159.652073
 42
0.006570
  0
VERTEX
  8
0
 10
868.923117
 20
166.579478
 42
0.013218
  0
VERTEX
  8
0
 10
876.752531
 20
172.358477
 42
0.012056
  0
VERTEX
  8
0
 10
884.706787
 20
178.875359
 42
0.004576
  0
VERTEX
  8
0
 10
895.500000
 20
188.335217
 42
0.001552
  0
VERTEX
  8
0
 10
911.806563
 20
202.984521
 42
0.012951
  0
VERTEX
  8
0
 10
918.991392
 20
209.825901
 42
0.027166
  0
VERTEX
  8
0
 10
923.482001
 20
214.847235
 42
0.024931
  0
VERTEX
  8
0
 10
927.540905
 20
220.467204
 42
0.021252
  0
VERTEX
  8
0
 10
934.252630
 20
231.840281
 42
0.044481
  0
VERTEX
  8
0
 10
938.266916
 20
241.289132
 42
0.031739
  0
VERTEX
  8
0
 10
941.283531
 20
253.133884
 42
0.006438
  0
VERTEX
  8
0
 10
945.018167
 20
274.500000
 42
-0.008517
  0
VERTEX
  8
0
 10
948.685714
 20
294.979952
 42
-0.004186
  0
VERTEX
  8
0
 10
954.013412
 20
320.914735
 42
-0.003993
  0
VERTEX
  8
0
 10
960.299059
 20
349.160436
 42
-0.004124
  0
VERTEX
  8
0
 10
966.970389
 20
377.000000
 42
0.002857
  0
VERTEX
  8
0
 10
969.898657
 20
389.084536
 42
0.002455
  0
VERTEX
  8
0
 10
972.843653
 20
401.828125
 42
0.002472
  0
VERTEX
  8
0
 10
975.403220
 20
413.423566
 42
0.007114
  0
VERTEX
  8
0
 10
977.024275
 20
421.500000
 42
-0.005638
  0
VERTEX
  8
0
 10
978.386930
 20
428.394457
 42
-0.004346
  0
VERTEX
  8
0
 10
980.023319
 20
435.884375
 42
-0.004395
  0
VERTEX
  8
0
 10
981.674974
 20
442.857263
 42
-0.010469
  0
VERTEX
  8
0
 10
983.055771
 20
448.000000
 42
0.023597
  0
VERTEX
  8
0
 10
985.561398
 20
458.416534
 42
0.031410
  0
VERTEX
  8
0
 10
986.785379
 20
468.073614
 42
0.035302
  0
VERTEX
  8
0
 10
986.726249
 20
476.169757
 42
0.101304
  0
VERTEX
  8
0
 10
985.181192
 20
481.546937
 42
0.034275
  0
VERTEX
  8
0
 10
981.535931
 20
487.489297
 42
0.016236
  0
VERTEX
  8
0
 10
976.085549
 20
494.640595
 42
0.016219
  0
VERTEX
  8
0
 10
970.202406
 20
501.400822
 42
0.035499
  0
VERTEX
  8
0
 10
965.189142
 20
506.082933
 42
-0.025477
  0
VERTEX
  8
0
 10
962.483852
 20
508.509944
 42
-0.013341
  0
VERTEX
  8
0
 10
959.360270
 20
511.783601
 42
-0.013220
  0
VERTEX
  8
0
 10
956.321806
 20
515.327068
 42
-0.019382
  0
VERTEX
  8
0
 10
953.858025
 20
518.611276
 42
0.020884
  0
VERTEX
  8
0
 10
950.862251
 20
522.579754
 42
0.020360
  0
VERTEX
  8
0
 10
947.521483
 20
526.319564
 42
0.018344
  0
VERTEX
  8
0
 10
943.573199
 20
530.104656
 42
0.011728
  0
VERTEX
  8
0
 10
938.728495
 20
534.219872
 42
-0.003036
  0
VERTEX
  8
0
 10
934.970738
 20
537.300986
 42
-0.005105
  0
VERTEX
  8
0
 10
931.858536
 20
539.938690
 42
-0.001063
  0
VERTEX
  8
0
 10
929.184847
 20
542.262023
 42
-0.455163
  0
VERTEX
  8
0
 10
929.185064
 20
542.477189
 42
-0.010820
  0
VERTEX
  8
0
 10
929.437509
 20
542.687189
 42
-0.000042
  0
VERTEX
  8
0
 10
932.350851
 20
545.005496
 42
-0.000217
  0
VERTEX
  8
0
 10
935.656224
 20
547.632961
 42
-0.000137
  0
VERTEX
  8
0
 10
939.519960
 20
550.699807
 42
0.010115
  0
VERTEX
  8
0
 10
949.967272
 20
559.337732
 42
0.010322
  0
VERTEX
  8
0
 10
959.984985
 20
568.334340
 42
0.007598
  0
VERTEX
  8
0
 10
971.921891
 20
579.853408
 42
0.002553
  0
VERTEX
  8
0
 10
989.000000
 20
597.016734
 42
-0.002537
  0
VERTEX
  8
0
 10
1005.688576
 20
613.789657
 42
-0.046928
  0
VERTEX
  8
0
 10
1011.462980
 20
618.546341
 42
-0.079407
  0
VERTEX
  8
0
 10
1017.247634
 20
621.246984
 42
-0.012524
  0
VERTEX
  8
0
 10
1029.438198
 20
624.402113
 42
0.000000
  0
VERTEX
  8
0
 10
1036.376397
 20
626.013571
 42
0.000000
  0
VERTEX
  8
0
 10
1039.278123
 20
623.256786
 42
-0.040020
  0
VERTEX
  8
0
 10
1043.016588
 20
619.087819
 42
-0.012330
  0
VERTEX
  8
0
 10
1047.969016
 20
612.243115
 42
-0.012598
  0
VERTEX
  8
0
 10
1052.626539
 20
605.079603
 42
-0.033741
  0
VERTEX
  8
0
 10
1055.456132
 20
599.695110
 42
-0.012889
  0
VERTEX
  8
0
 10
1056.557816
 20
597.019630
 42
-0.005289
  0
VERTEX
  8
0
 10
1057.919677
 20
593.337534
 42
-0.005229
  0
VERTEX
  8
0
 10
1059.299160
 20
589.352053
 42
-0.006677
  0
VERTEX
  8
0
 10
1060.482650
 20
585.649893
 42
0.024540
  0
VERTEX
  8
0
 10
1062.685326
 20
579.523070
 42
0.046838
  0
VERTEX
  8
0
 10
1065.135273
 20
574.905479
 42
0.062901
  0
VERTEX
  8
0
 10
1067.663564
 20
571.946357
 42
0.186652
  0
VERTEX
  8
0
 10
1070.110332
 20
571.000000
 42
0.258016
  0
VERTEX
  8
0
 10
1071.923052
 20
572.002137
 42
0.058358
  0
VERTEX
  8
0
 10
1073.490133
 20
575.295065
 42
0.022396
  0
VERTEX
  8
0
 10
1075.407786
 20
581.894086
 42
0.002366
  0
VERTEX
  8
0
 10
1079.116022
 20
597.500000
 42
0.020882
  0
VERTEX
  8
0
 10
1082.776077
 20
616.864854
 42
0.009046
  0
VERTEX
  8
0
 10
1086.097086
 20
642.883553
 42
0.008400
  0
VERTEX
  8
0
 10
1088.433266
 20
668.188004
 42
0.034966
  0
VERTEX
  8
0
 10
1088.515306
 20
683.500000
 42
0.026857
  0
VERTEX
  8
0
 10
1086.677762
 20
698.967472
 42
0.030475
  0
VERTEX
  8
0
 10
1083.231894
 20
713.495915
 42
0.031649
  0
VERTEX
  8
0
 10
1078.196489
 20
726.992808
 42
0.034262
  0
VERTEX
  8
0
 10
1071.608588
 20
739.377866
 42
0.062665
  0
VERTEX
  8
0
 10
1062.153031
 20
751.010584
 42
0.051720
  0
VERTEX
  8
0
 10
1049.515476
 20
760.813797
 42
0.050392
  0
VERTEX
  8
0
 10
1034.771126
 20
768.040325
 42
0.052504
  0
VERTEX
  8
0
 10
1019.080158
 20
772.048607
 42
0.032769
  0
VERTEX
  8
0
 10
1009.494010
 20
772.814021
 42
0.011235
  0
VERTEX
  8
0
 10
995.556030
 20
772.698264
 42
0.011054
  0
VERTEX
  8
0
 10
981.732349
 20
771.966584
 42
0.036676
  0
VERTEX
  8
0
 10
972.731668
 20
770.621861
 42
0.016843
  0
VERTEX
  8
0
 10
961.639650
 20
767.726826
 42
0.004161
  0
VERTEX
  8
0
 10
943.655441
 20
762.216619
 42
0.004375
  0
VERTEX
  8
0
 10
925.513162
 20
756.317362
 42
0.012756
  0
VERTEX
  8
0
 10
913.135517
 20
751.818202
 42
-0.004794
  0
VERTEX
  8
0
 10
906.753820
 20
749.382793
 42
-0.001661
  0
VERTEX
  8
0
 10
897.501328
 20
745.988004
 42
-0.001650
  0
VERTEX
  8
0
 10
887.282864
 20
742.315402
 42
-0.001919
  0
VERTEX
  8
0
 10
877.541024
 20
738.892427
 42
-0.009947
  0
VERTEX
  8
0
 10
858.780161
 20
732.796606
 42
-0.023382
  0
VERTEX
  8
0
 10
844.503616
 20
729.189007
 42
-0.029895
  0
VERTEX
  8
0
 10
832.364288
 20
727.466098
 42
-0.032972
  0
VERTEX
  8
0
 10
820.500000
 20
727.284615
 42
-0.057971
  0
VERTEX
  8
0
 10
805.158288
 20
729.861879
 42
-0.053321
  0
VERTEX
  8
0
 10
790.351307
 20
735.927422
 42
-0.052932
  0
VERTEX
  8
0
 10
777.061728
 20
745.040678
 42
-0.055343
  0
VERTEX
  8
0
 10
766.202197
 20
756.619223
 42
-0.043660
  0
VERTEX
  8
0
 10
758.027694
 20
769.788256
 42
-0.017703
  0
VERTEX
  8
0
 10
749.160575
 20
788.977435
 42
-0.017809
  0
VERTEX
  8
0
 10
741.403989
 20
809.469737
 42
-0.030385
  0
VERTEX
  8
0
 10
736.603335
 20
827.125781
 42
-0.066866
  0
VERTEX
  8
0
 10
735.755729
 20
839.010813
 42
-0.022322
  0
VERTEX
  8
0
 10
737.621005
 20
856.381203
 42
-0.022588
  0
VERTEX
  8
0
 10
741.067834
 20
873.670879
 42
-0.059150
  0
VERTEX
  8
0
 10
745.521827
 20
885.500000
 42
0.013446
  0
VERTEX
  8
0
 10
747.148937
 20
888.856529
 42
0.006493
  0
VERTEX
  8
0
 10
749.059518
 20
893.234375
 42
0.006434
  0
VERTEX
  8
0
 10
750.934016
 20
897.851593
 42
0.009183
  0
VERTEX
  8
0
 10
752.469105
 20
902.000000
 42
0.001540
  0
VERTEX
  8
0
 10
759.906061
 20
923.503499
 42
0.007678
  0
VERTEX
  8
0
 10
763.856953
 20
935.647547
 42
0.013413
  0
VERTEX
  8
0
 10
766.262154
 20
944.259231
 42
0.017837
  0
VERTEX
  8
0
 10
767.955366
 20
952.208751
 42
0.005482
  0
VERTEX
  8
0
 10
768.791261
 20
957.284307
 42
0.003459
  0
VERTEX
  8
0
 10
769.660868
 20
963.225257
 42
0.003473
  0
VERTEX
  8
0
 10
770.434854
 20
969.078055
 42
0.006378
  0
VERTEX
  8
0
 10
770.971155
 20
973.855955
 42
0.023719
  0
VERTEX
  8
0
 10
772.020945
 20
994.184608
 42
0.010579
  0
VERTEX
  8
0
 10
771.565392
 20
1020.993919
 42
0.009997
  0
VERTEX
  8
0
 10
770.055130
 20
1046.940514
 42
0.037646
  0
VERTEX
  8
0
 10
767.567681
 20
1063.029566
 42
0.016185
  0
VERTEX
  8
0
 10
765.654041
 20
1070.193872
 42
0.011957
  0
VERTEX
  8
0
 10
763.093768
 20
1077.990344
 42
0.008540
  0
VERTEX
  8
0
 10
759.391858
 20
1087.876635
 42
0.002968
  0
VERTEX
  8
0
 10
753.729435
 20
1102.000000
 42
0.004927
  0
VERTEX
  8
0
 10
744.937159
 20
1122.965271
 42
0.019523
  0
VERTEX
  8
0
 10
738.911040
 20
1135.569075
 42
0.019968
  0
VERTEX
  8
0
 10
731.984290
 20
1147.528889
 42
0.005324
  0
VERTEX
  8
0
 10
720.000000
 20
1166.000000
 42
-0.002494
  0
VERTEX
  8
0
 10
715.920110
 20
1172.210977
 42
-0.002048
  0
VERTEX
  8
0
 10
711.622728
 20
1178.884375
 42
-0.002067
  0
VERTEX
  8
0
 10
707.723941
 20
1185.049682
 42
-0.005477
  0
VERTEX
  8
0
 10
705.002795
 20
1189.500000
 42
0.004541
  0
VERTEX
  8
0
 10
702.453247
 20
1193.687268
 42
0.002325
  0
VERTEX
  8
0
 10
699.182999
 20
1198.895788
 42
0.002310
  0
VERTEX
  8
0
 10
695.764372
 20
1204.230179
 42
0.003474
  0
VERTEX
  8
0
 10
692.729461
 20
1208.847363
 42
-0.007401
  0
VERTEX
  8
0
 10
689.658213
 20
1213.600746
 42
-0.004351
  0
VERTEX
  8
0
 10
686.119949
 20
1219.370026
 42
-0.004351
  0
VERTEX
  8
0
 10
682.682954
 20
1225.199462
 42
-0.007407
  0
VERTEX
  8
0
 10
679.925149
 20
1230.138856
 42
0.005407
  0
VERTEX
  8
0
 10
677.390540
 20
1234.721476
 42
0.004782
  0
VERTEX
  8
0
 10
674.653313
 20
1239.440742
 42
0.004807
  0
VERTEX
  8
0
 10
672.105867
 20
1243.644910
 42
0.014568
  0
VERTEX
  8
0
 10
670.262838
 20
1246.436498
 42
0.008118
  0
VERTEX
  8
0
 10
662.704831
 20
1256.826776
 42
0.006555
  0
VERTEX
  8
0
 10
654.263213
 20
1267.743481
 42
0.006699
  0
VERTEX
  8
0
 10
645.874731
 20
1278.016846
 42
0.011192
  0
VERTEX
  8
0
 10
638.512674
 20
1286.402030
 42
-0.003451
  0
VERTEX
  8
0
 10
633.972891
 20
1291.414053
 42
-0.001989
  0
VERTEX
  8
0
 10
628.572204
 20
1297.508492
 42
-0.001987
  0
VERTEX
  8
0
 10
623.197640
 20
1303.671477
 42
-0.003324
  0
VERTEX
  8
0
 10
618.733129
 20
1308.902030
 42
0.019278
  0
VERTEX
  8
0
 10
605.431207
 20
1323.515440
 42
0.008736
  0
VERTEX
  8
0
 10
586.965047
 20
1341.649412
 42
0.008184
  0
VERTEX
  8
0
 10
568.528640
 20
1358.567638
 42
0.032128
  0
VERTEX
  8
0
 10
556.359131
 20
1368.049202
 42
-0.001508
  0
VERTEX
  8
0
 10
551.700384
 20
1371.240963
 42
-0.001113
  0
VERTEX
  8
0
 10
546.563093
 20
1374.800290
 42
-0.001125
  0
VERTEX
  8
0
 10
541.723366
 20
1378.185615
 42
-0.002524
  0
VERTEX
  8
0
 10
538.068244
 20
1380.782253
 42
0.020877
  0
VERTEX
  8
0
 10
529.371953
 20
1386.491968
 42
0.030651
  0
VERTEX
  8
0
 10
521.252326
 20
1390.697994
 42
0.032312
  0
VERTEX
  8
0
 10
513.020367
 20
1393.722177
 42
0.027375
  0
VERTEX
  8
0
 10
504.000000
 20
1395.860206
 42
0.008922
  0
VERTEX
  8
0
 10
497.685275
 20
1396.880228
 42
0.022574
  0
VERTEX
  8
0
 10
493.056999
 20
1397.331348
 42
0.027544
  0
VERTEX
  8
0
 10
488.984390
 20
1397.318923
 42
0.021006
  0
SEQEND
  0
POLYLINE
  8
0
 66
1
 70
1
  0
VERTEX
  8
0
 10
503.355655
 20
1387.425235
 42
-0.035190
  0
VERTEX
  8
0
 10
511.167986
 20
1384.825502
 42
-0.021998
  0
VERTEX
  8
0
 10
519.912797
 20
1380.755656
 42
-0.021531
  0
VERTEX
  8
0
 10
528.567963
 20
1375.769744
 42
-0.026722
  0
VERTEX
  8
0
 10
536.135398
 20
1370.377348
 42
0.001125
  0
VERTEX
  8
0
 10
540.006076
 20
1367.308889
 42
0.000720
  0
VERTEX
  8
0
 10
544.514436
 20
1363.761921
 42
0.000724
  0
VERTEX
  8
0
 10
548.940588
 20
1360.300275
 42
0.001354
  0
VERTEX
  8
0
 10
552.533479
 20
1357.514296
 42
-0.018657
  0
VERTEX
  8
0
 10
556.351631
 20
1354.336180
 42
-0.006410
  0
VERTEX
  8
0
 10
561.641763
 20
1349.463944
 42
-0.006361
  0
VERTEX
  8
0
 10
567.344611
 20
1343.935829
 42
-0.007321
  0
VERTEX
  8
0
 10
572.639612
 20
1338.514296
 42
0.004577
  0
VERTEX
  8
0
 10
577.771452
 20
1333.201797
 42
0.004620
  0
VERTEX
  8
0
 10
582.983614
 20
1328.001075
 42
0.004509
  0
VERTEX
  8
0
 10
587.605132
 20
1323.555103
 42
0.018642
  0
VERTEX
  8
0
 10
590.519882
 20
1321.000000
 42
-0.027627
  0
VERTEX
  8
0
 10
593.393956
 20
1318.387796
 42
-0.006569
  0
VERTEX
  8
0
 10
597.873495
 20
1313.719020
 42
-0.006736
  0
VERTEX
  8
0
 10
602.884538
 20
1308.210097
 42
-0.006607
  0
VERTEX
  8
0
 10
607.778351
 20
1302.532835
 42
0.003671
  0
VERTEX
  8
0
 10
612.896623
 20
1296.524205
 42
0.002795
  0
VERTEX
  8
0
 10
618.588066
 20
1290.015129
 42
0.002825
  0
VERTEX
  8
0
 10
623.992681
 20
1283.972522
 42
0.006620
  0
VERTEX
  8
0
 10
628.117194
 20
1279.532835
 42
-0.020773
  0
VERTEX
  8
0
 10
638.359822
 20
1267.861969
 42
-0.011173
  0
VERTEX
  8
0
 10
650.047677
 20
1252.690779
 42
-0.011103
  0
VERTEX
  8
0
 10
660.803971
 20
1237.362266
 42
-0.026256
  0
VERTEX
  8
0
 10
667.940904
 20
1225.379375
 42
0.006859
  0
VERTEX
  8
0
 10
670.754078
 20
1220.210150
 42
0.004881
  0
VERTEX
  8
0
 10
674.041902
 20
1214.492691
 42
0.004928
  0
VERTEX
  8
0
 10
677.286490
 20
1209.098125
 42
0.010452
  0
VERTEX
  8
0
 10
679.926277
 20
1205.000000
 42
-0.005384
  0
VERTEX
  8
0
 10
682.542644
 20
1201.027264
 42
-0.002869
  0
VERTEX
  8
0
 10
685.698083
 20
1196.059375
 42
-0.002855
  0
VERTEX
  8
0
 10
688.863690
 20
1190.947097
 42
-0.004440
  0
VERTEX
  8
0
 10
691.528438
 20
1186.500000
 42
0.006427
  0
VERTEX
  8
0
 10
694.513776
 20
1181.562486
 42
0.002431
  0
VERTEX
  8
0
 10
698.807239
 20
1174.737500
 42
0.002407
  0
VERTEX
  8
0
 10
703.549463
 20
1167.358534
 42
0.002935
  0
VERTEX
  8
0
 10
708.061484
 20
1160.500000
 42
-0.004626
  0
VERTEX
  8
0
 10
720.649566
 20
1141.223670
 42
-0.018818
  0
VERTEX
  8
0
 10
727.748753
 20
1129.152178
 42
-0.019422
  0
VERTEX
  8
0
 10
733.813449
 20
1116.760606
 42
-0.005156
  0
VERTEX
  8
0
 10
742.507963
 20
1096.535152
 42
-0.005298
  0
VERTEX
  8
0
 10
751.285838
 20
1074.878720
 42
-0.028717
  0
VERTEX
  8
0
 10
755.237307
 20
1062.836825
 42
-0.035834
  0
VERTEX
  8
0
 10
757.375955
 20
1051.596308
 42
-0.011193
  0
VERTEX
  8
0
 10
758.987632
 20
1034.500000
 42
-0.017540
  0
VERTEX
  8
0
 10
760.129307
 20
1003.262596
 42
-0.023944
  0
VERTEX
  8
0
 10
758.822339
 20
975.129707
 42
-0.026743
  0
VERTEX
  8
0
 10
755.105799
 20
950.163295
 42
-0.037571
  0
VERTEX
  8
0
 10
748.961780
 20
928.500000
 42
0.000577
  0
VERTEX
  8
0
 10
746.789054
 20
922.553521
 42
0.000488
  0
VERTEX
  8
0
 10
744.505618
 20
916.262500
 42
0.000492
  0
VERTEX
  8
0
 10
742.435673
 20
910.524596
 42
0.001380
  0
VERTEX
  8
0
 10
741.000810
 20
906.500000
 42
-0.014398
  0
VERTEX
  8
0
 10
739.585604
 20
902.835079
 42
-0.007727
  0
VERTEX
  8
0
 10
737.640556
 20
898.393437
 42
-0.007687
  0
VERTEX
  8
0
 10
735.515326
 20
893.920823
 42
-0.011934
  0
VERTEX
  8
0
 10
733.531942
 20
890.137232
 42
0.030796
  0
VERTEX
  8
0
 10
729.802341
 20
882.319191
 42
0.054676
  0
VERTEX
  8
0
 10
727.871204
 20
875.456524
 42
0.039930
  0
VERTEX
  8
0
 10
727.147938
 20
866.992261
 42
0.009782
  0
VERTEX
  8
0
 10
727.345791
 20
853.000000
 42
0.013191
  0
VERTEX
  8
0
 10
728.455268
 20
834.556723
 42
0.029623
  0
VERTEX
  8
0
 10
730.490194
 20
820.688482
 42
0.029244
  0
VERTEX
  8
0
 10
734.167886
 20
807.050174
 42
0.012547
  0
VERTEX
  8
0
 10
740.583849
 20
789.306259
 42
0.014221
  0
VERTEX
  8
0
 10
748.794225
 20
769.913530
 42
0.031272
  0
VERTEX
  8
0
 10
756.389490
 20
755.723693
 42
0.038981
  0
VERTEX
  8
0
 10
764.454666
 20
744.706213
 42
0.041133
  0
VERTEX
  8
0
 10
774.000000
 20
735.286955
 42
0.019345
  0
VERTEX
  8
0
 10
780.546029
 20
730.229121
 42
0.028666
  0
VERTEX
  8
0
 10
786.680555
 20
726.367326
 42
0.027123
  0
VERTEX
  8
0
 10
793.466285
 20
723.086997
 42
0.015073
  0
VERTEX
  8
0
 10
802.050068
 20
719.797921
 42
0.012039
  0
VERTEX
  8
0
 10
808.077226
 20
717.855976
 42
0.038414
  0
VERTEX
  8
0
 10
812.208018
 20
716.971949
 42
0.029649
  0
VERTEX
  8
0
 10
816.946106
 20
716.617077
 42
0.005048
  0
VERTEX
  8
0
 10
826.000000
 20
716.568347
 42
0.008288
  0
VERTEX
  8
0
 10
832.702025
 20
716.711048
 42
0.009161
  0
VERTEX
  8
0
 10
839.175227
 20
717.075129
 42
0.009825
  0
VERTEX
  8
0
 10
845.070774
 20
717.631870
 42
0.016408
  0
VERTEX
  8
0
 10
850.000000
 20
718.359798
 42
0.027232
  0
VERTEX
  8
0
 10
859.785741
 20
720.691149
 42
0.004429
  0
VERTEX
  8
0
 10
878.463234
 20
726.411304
 42
0.005187
  0
VERTEX
  8
0
 10
898.888420
 20
733.098969
 42
0.007006
  0
VERTEX
  8
0
 10
917.206788
 20
739.595477
 42
-0.009997
  0
VERTEX
  8
0
 10
926.913574
 20
742.972704
 42
-0.003254
  0
VERTEX
  8
0
 10
941.376960
 20
747.578994
 42
-0.003287
  0
VERTEX
  8
0
 10
957.244098
 20
752.404667
 42
-0.004139
  0
VERTEX
  8
0
 10
972.000000
 20
756.654024
 42
-0.030199
  0
VERTEX
  8
0
 10
976.289095
 20
757.575981
 42
-0.020924
  0
VERTEX
  8
0
 10
981.221529
 20
758.118301
 42
-0.013254
  0
VERTEX
  8
0
 10
988.043666
 20
758.399273
 42
-0.003467
  0
VERTEX
  8
0
 10
999.000000
 20
758.483871
 42
-0.002961
  0
VERTEX
  8
0
 10
1010.975394
 20
758.422370
 42
-0.017124
  0
VERTEX
  8
0
 10
1017.295787
 20
758.135849
 42
-0.030132
  0
VERTEX
  8
0
 10
1021.853985
 20
757.494466
 42
-0.026208
  0
VERTEX
  8
0
 10
1026.524129
 20
756.289823
 42
-0.036589
  0
VERTEX
  8
0
 10
1033.811407
 20
753.396150
 42
-0.021772
  0
VERTEX
  8
0
 10
1042.033757
 20
748.960976
 42
-0.021761
  0
VERTEX
  8
0
 10
1049.592191
 20
743.990289
 42
-0.049928
  0
VERTEX
  8
0
 10
1054.686143
 20
739.477179
 42
-0.054300
  0
VERTEX
  8
0
 10
1059.091788
 20
733.529181
 42
-0.019545
  0
VERTEX
  8
0
 10
1064.054959
 20
724.222863
 42
-0.019620
  0
VERTEX
  8
0
 10
1068.572951
 20
713.873777
 42
-0.027831
  0
VERTEX
  8
0
 10
1071.700944
 20
704.330643
 42
-0.014847
  0
VERTEX
  8
0
 10
1073.156270
 20
698.154086
 42
-0.027016
  0
VERTEX
  8
0
 10
1073.918954
 20
693.027588
 42
-0.018567
  0
VERTEX
  8
0
 10
1074.276478
 20
686.710980
 42
-0.003776
  0
VERTEX
  8
0
 10
1074.409435
 20
675.500000
 42
-0.010041
  0
VERTEX
  8
0
 10
1074.200012
 20
662.225096
 42
-0.013688
  0
VERTEX
  8
0
 10
1073.443717
 20
650.280174
 42
-0.012020
  0
VERTEX
  8
0
 10
1071.946057
 20
637.273982
 42
-0.005613
  0
VERTEX
  8
0
 10
1069.412456
 20
620.500000
 42
-0.001598
  0
VERTEX
  8
0
 10
1067.496626
 20
608.946855
 42
-0.171608
  0
VERTEX
  8
0
 10
1066.736865
 20
607.580363
 42
-0.448099
  0
VERTEX
  8
0
 10
1065.694838
 20
607.705043
 42
-0.006116
  0
VERTEX
  8
0
 10
1061.655212
 20
613.648760
 42
0.040808
  0
VERTEX
  8
0
 10
1052.375683
 20
625.451654
 42
0.007415
  0
VERTEX
  8
0
 10
1033.122814
 20
645.599988
 42
0.002844
  0
VERTEX
  8
0
 10
1012.175076
 20
666.640308
 42
0.198007
  0
VERTEX
  8
0
 10
1007.663170
 20
668.500000
 42
0.189668
  0
VERTEX
  8
0
 10
1007.196820
 20
668.316495
 42
0.073993
  0
VERTEX
  8
0
 10
1006.757413
 20
667.765625
 42
0.059277
  0
VERTEX
  8
0
 10
1006.408588
 20
666.956818
 42
0.043657
  0
VERTEX
  8
0
 10
1006.213129
 20
666.000000
 42
0.128451
  0
VERTEX
  8
0
 10
1006.446613
 20
664.358067
 42
0.043110
  0
VERTEX
  8
0
 10
1007.580271
 20
662.195957
 42
0.027549
  0
VERTEX
  8
0
 10
1009.686266
 20
659.271884
 42
0.007980
  0
VERTEX
  8
0
 10
1013.249626
 20
655.000000
 42
-0.004982
  0
VERTEX
  8
0
 10
1016.297244
 20
651.390621
 42
-0.004417
  0
VERTEX
  8
0
 10
1019.398438
 20
647.574522
 42
-0.004438
  0
VERTEX
  8
0
 10
1022.129586
 20
644.089448
 42
-0.013528
  0
VERTEX
  8
0
 10
1023.897871
 20
641.657949
 42
0.007726
  0
VERTEX
  8
0
 10
1025.394069
 20
639.549585
 42
0.005379
  0
VERTEX
  8
0
 10
1027.145022
 20
637.214395
 42
0.005426
  0
VERTEX
  8
0
 10
1028.873776
 20
635.009720
 42
0.011173
  0
VERTEX
  8
0
 10
1030.283025
 20
633.330433
 42
0.000000
  0
VERTEX
  8
0
 10
1033.343303
 20
629.844970
 42
0.000000
  0
VERTEX
  8
0
 10
1029.921651
 20
630.484232
 42
0.065909
  0
VERTEX
  8
0
 10
1025.602939
 20
630.713649
 42
0.022889
  0
VERTEX
  8
0
 10
1019.402600
 20
629.938797
 42
0.023269
  0
VERTEX
  8
0
 10
1013.173654
 20
628.567953
 42
0.051539
  0
VERTEX
  8
0
 10
1008.637236
 20
626.828560
 42
0.061444
  0
VERTEX
  8
0
 10
1006.134475
 20
625.146072
 42
0.005986
  0
VERTEX
  8
0
 10
1000.672911
 20
620.292113
 42
0.007316
  0
VERTEX
  8
0
 10
994.157137
 20
614.183386
 42
0.005114
  0
VERTEX
  8
0
 10
986.984523
 20
607.115764
 42
-0.004126
  0
VERTEX
  8
0
 10
972.761738
 20
593.045664
 42
-0.005256
  0
VERTEX
  8
0
 10
959.403039
 20
580.317337
 42
-0.005807
  0
VERTEX
  8
0
 10
947.538558
 20
569.503284
 42
-0.012109
  0
VERTEX
  8
0
 10
938.000000
 20
561.415399
 42
-0.011925
  0
VERTEX
  8
0
 10
918.869603
 20
546.714318
 42
-0.008961
  0
VERTEX
  8
0
 10
897.163622
 20
531.432062
 42
-0.009096
  0
VERTEX
  8
0
 10
875.601653
 20
517.387488
 42
-0.015427
  0
VERTEX
  8
0
 10
857.000000
 20
506.531231
 42
0.000323
  0
VERTEX
  8
0
 10
852.120620
 20
503.877756
 42
0.000274
  0
VERTEX
  8
0
 10
846.968750
 20
501.068127
 42
0.000276
  0
VERTEX
  8
0
 10
842.278084
 20
498.503326
 42
0.000776
  0
VERTEX
  8
0
 10
839.000000
 20
496.701941
 42
-0.055158
  0
VERTEX
  8
0
 10
811.978106
 20
485.473442
 42
-0.030775
  0
VERTEX
  8
0
 10
777.183281
 20
477.616232
 42
-0.026879
  0
VERTEX
  8
0
 10
736.053271
 20
473.206137
 42
-0.019053
  0
VERTEX
  8
0
 10
689.632610
 20
472.511236
 42
-0.002132
  0
VERTEX
  8
0
 10
673.743371
 20
472.946662
 42
-0.013672
  0
VERTEX
  8
0
 10
665.711550
 20
473.421116
 42
-0.025441
  0
VERTEX
  8
0
 10
660.068934
 20
474.200274
 42
-0.023498
  0
VERTEX
  8
0
 10
654.380429
 20
475.562689
 42
0.005715
  0
VERTEX
  8
0
 10
646.380599
 20
477.782154
 42
0.014771
  0
VERTEX
  8
0
 10
640.548077
 20
479.145726
 42
0.015636
  0
VERTEX
  8
0
 10
634.838631
 20
480.119057
 42
0.007127
  0
VERTEX
  8
0
 10
627.326649
 20
481.050237
 42
-0.009039
  0
VERTEX
  8
0
 10
623.008519
 20
481.602283
 42
-0.006273
  0
VERTEX
  8
0
 10
618.149552
 20
482.375347
 42
-0.006328
  0
VERTEX
  8
0
 10
613.501107
 20
483.235545
 42
-0.012950
  0
VERTEX
  8
0
 10
609.884592
 20
484.050105
 42
0.026870
  0
VERTEX
  8
0
 10
599.961327
 20
485.996746
 42
0.010618
  0
VERTEX
  8
0
 10
586.146867
 20
487.644930
 42
0.010458
  0
VERTEX
  8
0
 10
572.419231
 20
488.698474
 42
0.031035
  0
VERTEX
  8
0
 10
562.980459
 20
488.638349
 42
0.022933
  0
VERTEX
  8
0
 10
551.073586
 20
487.271697
 42
0.019065
  0
VERTEX
  8
0
 10
538.575040
 20
484.760724
 42
0.014668
  0
VERTEX
  8
0
 10
523.555073
 20
480.672910
 42
0.006084
  0
VERTEX
  8
0
 10
503.500000
 20
474.310005
 42
0.003165
  0
VERTEX
  8
0
 10
490.753975
 20
470.004974
 42
0.024371
  0
VERTEX
  8
0
 10
484.903185
 20
467.662758
 42
0.056910
  0
VERTEX
  8
0
 10
481.910253
 20
465.855597
 42
0.232531
  0
VERTEX
  8
0
 10
481.000000
 20
464.004153
 42
0.061743
  0
VERTEX
  8
0
 10
481.102861
 20
463.174360
 42
0.060534
  0
VERTEX
  8
0
 10
481.405349
 20
462.388842
 42
0.065883
  0
VERTEX
  8
0
 10
481.851996
 20
461.763305
 42
0.113671
  0
VERTEX
  8
0
 10
482.379912
 20
461.407708
 42
0.146362
  0
VERTEX
  8
0
 10
483.419274
 20
461.328829
 42
0.002800
  0
VERTEX
  8
0
 10
488.750689
 20
462.523911
 42
0.006532
  0
VERTEX
  8
0
 10
494.989911
 20
464.045315
 42
0.004299
  0
VERTEX
  8
0
 10
502.129912
 20
465.951132
 42
-0.000471
  0
VERTEX
  8
0
 10
521.532189
 20
471.289474
 42
-0.001710
  0
VERTEX
  8
0
 10
533.876111
 20
474.627943
 42
-0.002455
  0
VERTEX
  8
0
 10
542.271796
 20
476.823705
 42
-0.010082
  0
VERTEX
  8
0
 10
547.392382
 20
478.026607
 42
-0.041188
  0
VERTEX
  8
0
 10
559.532958
 20
479.592086
 42
-0.022878
  0
VERTEX
  8
0
 10
574.470453
 20
479.594474
 42
-0.022339
  0
VERTEX
  8
0
 10
590.052439
 20
478.184234
 42
-0.028241
  0
VERTEX
  8
0
 10
604.253073
 20
475.432607
 42
0.012631
  0
VERTEX
  8
0
 10
608.762161
 20
474.411958
 42
0.007045
  0
VERTEX
  8
0
 10
614.298090
 20
473.385979
 42
0.007024
  0
VERTEX
  8
0
 10
619.930055
 20
472.505304
 42
0.011309
  0
VERTEX
  8
0
 10
624.753073
 20
471.931324
 42
-0.015332
  0
VERTEX
  8
0
 10
629.919141
 20
471.274330
 42
-0.008731
  0
VERTEX
  8
0
 10
636.120211
 20
470.180370
 42
-0.008549
  0
VERTEX
  8
0
 10
642.548258
 20
468.815813
 42
-0.010789
  0
VERTEX
  8
0
 10
648.442104
 20
467.324349
 42
0.000000
  0
VERTEX
  8
0
 10
661.384208
 20
463.750473
 42
0.000000
  0
VERTEX
  8
0
 10
693.356322
 20
463.342387
 42
0.005628
  0
VERTEX
  8
0
 10
717.991812
 20
463.305248
 42
0.007256
  0
VERTEX
  8
0
 10
740.615612
 20
463.854186
 42
0.008024
  0
VERTEX
  8
0
 10
760.116529
 20
464.924235
 42
0.017825
  0
VERTEX
  8
0
 10
774.909033
 20
466.505756
 42
0.016501
  0
VERTEX
  8
0
 10
784.709284
 20
468.240085
 42
0.007220
  0
VERTEX
  8
0
 10
797.581638
 20
471.153681
 42
0.007249
  0
VERTEX
  8
0
 10
810.714444
 20
474.528477
 42
0.012581
  0
VERTEX
  8
0
 10
821.500000
 20
477.761019
 42
0.027245
  0
VERTEX
  8
0
 10
829.160501
 20
480.739558
 42
0.007372
  0
VERTEX
  8
0
 10
840.942367
 20
486.286963
 42
0.007572
  0
VERTEX
  8
0
 10
853.893950
 20
492.864923
 42
0.008801
  0
VERTEX
  8
0
 10
866.000000
 20
499.520741
 42
0.012500
  0
VERTEX
  8
0
 10
875.524170
 20
505.298445
 42
0.002863
  0
VERTEX
  8
0
 10
891.312865
 20
515.552885
 42
0.002728
  0
VERTEX
  8
0
 10
906.936953
 20
525.950649
 42
0.014710
  0
VERTEX
  8
0
 10
915.228773
 20
531.896154
 42
0.000000
  0
VERTEX
  8
0
 10
920.435373
 20
535.866444
 42
0.000000
  0
VERTEX
  8
0
 10
925.056343
 20
531.683222
 42
0.003381
  0
VERTEX
  8
0
 10
927.197746
 20
529.770864
 42
0.001870
  0
VERTEX
  8
0
 10
929.837399
 20
527.462922
 42
0.001864
  0
VERTEX
  8
0
 10
932.529781
 20
525.144132
 42
0.003001
  0
VERTEX
  8
0
 10
934.843258
 20
523.190555
 42
-0.030668
  0
VERTEX
  8
0
 10
937.208780
 20
520.957640
 42
-0.013117
  0
VERTEX
  8
0
 10
940.098982
 20
517.706388
 42
-0.012922
  0
VERTEX
  8
0
 10
943.007759
 20
514.069380
 42
-0.016601
  0
VERTEX
  8
0
 10
945.480777
 20
510.572611
 42
0.016832
  0
VERTEX
  8
0
 10
948.015380
 20
506.992281
 42
0.014290
  0
VERTEX
  8
0
 10
950.922455
 20
503.384563
 42
0.014730
  0
VERTEX
  8
0
 10
953.825812
 20
500.181130
 42
0.030087
  0
VERTEX
  8
0
 10
956.319158
 20
497.882056
 42
-0.019584
  0
VERTEX
  8
0
 10
958.742955
 20
495.739484
 42
-0.010046
  0
VERTEX
  8
0
 10
961.617515
 20
492.877854
 42
-0.009968
  0
VERTEX
  8
0
 10
964.463318
 20
489.808506
 42
-0.014798
  0
VERTEX
  8
0
 10
966.819751
 20
487.000000
 42
0.001297
  0
VERTEX
  8
0
 10
969.020389
 20
484.228532
 42
0.001060
  0
VERTEX
  8
0
 10
971.388050
 20
481.275407
 42
0.001071
  0
VERTEX
  8
0
 10
973.577804
 20
478.567905
 42
0.002819
  0
VERTEX
  8
0
 10
975.162262
 20
476.639684
 42
-0.025238
  0
VERTEX
  8
0
 10
976.945692
 20
474.259382
 42
-0.073296
  0
VERTEX
  8
0
 10
977.830862
 20
472.409129
 42
-0.063873
  0
VERTEX
  8
0
 10
978.208037
 20
470.242024
 42
-0.015932
  0
VERTEX
  8
0
 10
978.254451
 20
466.639684
 42
-0.031530
  0
VERTEX
  8
0
 10
977.979219
 20
463.291438
 42
-0.014262
  0
VERTEX
  8
0
 10
977.218594
 20
458.953518
 42
-0.012767
  0
VERTEX
  8
0
 10
976.059090
 20
453.948090
 42
-0.009578
  0
VERTEX
  8
0
 10
974.537659
 20
448.500000
 42
0.008599
  0
VERTEX
  8
0
 10
973.010055
 20
443.070820
 42
0.005330
  0
VERTEX
  8
0
 10
971.394225
 20
436.646875
 42
0.005345
  0
VERTEX
  8
0
 10
969.933918
 20
430.268596
 42
0.009596
  0
VERTEX
  8
0
 10
968.892286
 20
425.000000
 42
-0.006804
  0
VERTEX
  8
0
 10
966.806371
 20
414.130771
 42
-0.006327
  0
VERTEX
  8
0
 10
964.377547
 20
403.054589
 42
-0.005520
  0
VERTEX
  8
0
 10
961.367091
 20
390.729330
 42
-0.003210
  0
VERTEX
  8
0
 10
957.495715
 20
376.000000
 42
0.006716
  0
VERTEX
  8
0
 10
952.049816
 20
354.672947
 42
0.003176
  0
VERTEX
  8
0
 10
945.570191
 20
327.027248
 42
0.002976
  0
VERTEX
  8
0
 10
939.651772
 20
300.300087
 42
0.011485
  0
VERTEX
  8
0
 10
936.458437
 20
283.605850
 42
-0.006492
  0
VERTEX
  8
0
 10
934.185970
 20
271.047481
 42
-0.008414
  0
VERTEX
  8
0
 10
931.759863
 20
259.599109
 42
-0.009184
  0
VERTEX
  8
0
 10
929.361207
 20
249.965367
 42
-0.025188
  0
VERTEX
  8
0
 10
927.204979
 20
243.297342
 42
-0.033553
  0
VERTEX
  8
0
 10
924.359745
 20
237.096748
 42
-0.014845
  0
VERTEX
  8
0
 10
919.826192
 20
229.305192
 42
-0.014720
  0
VERTEX
  8
0
 10
914.894179
 20
221.876550
 42
-0.038184
  0
VERTEX
  8
0
 10
910.797641
 20
216.931909
 42
-0.016736
  0
VERTEX
  8
0
 10
901.075562
 20
207.521132
 42
-0.004923
  0
VERTEX
  8
0
 10
885.546756
 20
193.740732
 42
-0.004794
  0
VERTEX
  8
0
 10
869.844405
 20
180.342596
 42
-0.019067
  0
VERTEX
  8
0
 10
859.827996
 20
172.590238
 42
-0.012285
  0
VERTEX
  8
0
 10
847.115179
 20
163.968030
 42
-0.004465
  0
VERTEX
  8
0
 10
828.689124
 20
152.352406
 42
-0.004532
  0
VERTEX
  8
0
 10
809.771944
 20
140.897545
 42
-0.010171
  0
VERTEX
  8
0
 10
795.163699
 20
132.628824
 42
0.004167
  0
VERTEX
  8
0
 10
789.328461
 20
129.417796
 42
0.001956
  0
VERTEX
  8
0
 10
781.833624
 20
125.173121
 42
0.001938
  0
VERTEX
  8
0
 10
774.013716
 20
120.663536
 42
0.002724
  0
VERTEX
  8
0
 10
767.073600
 20
116.574608
 42
-0.007761
  0
VERTEX
  8
0
 10
753.814405
 20
108.941528
 42
-0.008309
  0
VERTEX
  8
0
 10
740.620180
 20
101.900353
 42
-0.006810
  0
VERTEX
  8
0
 10
725.139834
 20
94.231172
 42
-0.003013
  0
VERTEX
  8
0
 10
704.500000
 20
84.506107
 42
0.001258
  0
VERTEX
  8
0
 10
696.377182
 20
80.713597
 42
0.001933
  0
VERTEX
  8
0
 10
689.367153
 20
77.385991
 42
0.000624
  0
VERTEX
  8
0
 10
683.312892
 20
74.474041
 42
0.056137
  0
VERTEX
  8
0
 10
682.473288
 20
73.945642
 42
-0.091346
  0
VERTEX
  8
0
 10
677.032102
 20
71.031590
 42
-0.006786
  0
VERTEX
  8
0
 10
660.843314
 20
66.095957
 42
-0.010339
  0
VERTEX
  8
0
 10
643.585898
 20
61.474060
 42
-0.017717
  0
VERTEX
  8
0
 10
629.000000
 20
58.432642
 42
-0.036541
  0
VERTEX
  8
0
 10
618.147967
 20
57.375670
 42
-0.106389
  0
VERTEX
  8
0
 10
610.789628
 20
58.775095
 42
-0.199577
  0
VERTEX
  8
0
 10
607.232349
 20
62.393347
 42
-0.175855
  0
VERTEX
  8
0
 10
607.047322
 20
67.711982
 42
-0.039006
  0
VERTEX
  8
0
 10
610.339548
 20
75.690600
 42
-0.019263
  0
VERTEX
  8
0
 10
615.675189
 20
85.277994
 42
-0.017707
  0
VERTEX
  8
0
 10
622.480888
 20
95.625672
 42
-0.015282
  0
VERTEX
  8
0
 10
630.330626
 20
106.000000
 42
-0.007744
  0
VERTEX
  8
0
 10
638.743062
 20
116.114345
 42
-0.006841
  0
VERTEX
  8
0
 10
647.814605
 20
126.395796
 42
-0.006780
  0
VERTEX
  8
0
 10
656.193323
 20
135.386090
 42
-0.022846
  0
VERTEX
  8
0
 10
662.010115
 20
140.929644
 42
0.007948
  0
VERTEX
  8
0
 10
675.838218
 20
153.343613
 42
0.011330
  0
VERTEX
  8
0
 10
687.683652
 20
164.832445
 42
0.012819
  0
VERTEX
  8
0
 10
697.179045
 20
174.976478
 42
0.030192
  0
VERTEX
  8
0
 10
703.584877
 20
183.122478
 42
0.365886
  0
VERTEX
  8
0
 10
703.419877
 20
184.844961
 42
0.369180
  0
VERTEX
  8
0
 10
701.702221
 20
184.959296
 42
0.015231
  0
VERTEX
  8
0
 10
691.592692
 20
176.928407
 42
0.001158
  0
VERTEX
  8
0
 10
665.000000
 20
154.343350
 42
0.010969
  0
VERTEX
  8
0
 10
654.268798
 20
144.771894
 42
0.009074
  0
VERTEX
  8
0
 10
643.253958
 20
134.124830
 42
0.009263
  0
VERTEX
  8
0
 10
632.975246
 20
123.432998
 42
0.014144
  0
VERTEX
  8
0
 10
624.501629
 20
113.750000
 42
-0.033881
  0
VERTEX
  8
0
 10
621.422334
 20
110.499379
 42
-0.136565
  0
VERTEX
  8
0
 10
619.012195
 20
109.265178
 42
-0.142196
  0
VERTEX
  8
0
 10
616.367408
 20
109.479016
 42
-0.037866
  0
VERTEX
  8
0
 10
612.500000
 20
111.294390
 42
-0.033467
  0
VERTEX
  8
0
 10
610.647363
 20
112.512095
 42
-0.046631
  0
VERTEX
  8
0
 10
609.185187
 20
113.851437
 42
-0.050453
  0
VERTEX
  8
0
 10
608.083197
 20
115.346452
 42
-0.050862
  0
VERTEX
  8
0
 10
607.306442
 20
117.027939
 42
-0.096229
  0
VERTEX
  8
0
 10
605.897725
 20
127.079763
 42
-0.035703
  0
VERTEX
  8
0
 10
607.672177
 20
141.315957
 42
-0.035652
  0
VERTEX
  8
0
 10
611.660110
 20
155.915244
 42
-0.057745
  0
VERTEX
  8
0
 10
617.289506
 20
167.471752
 42
-0.023646
  0
VERTEX
  8
0
 10
621.505756
 20
173.428679
 42
-0.008098
  0
VERTEX
  8
0
 10
628.153254
 20
181.658913
 42
-0.008277
  0
VERTEX
  8
0
 10
635.437522
 20
190.096653
 42
-0.013437
  0
VERTEX
  8
0
 10
641.931691
 20
196.990019
 42
-0.013799
  0
VERTEX
  8
0
 10
649.571389
 20
204.261939
 42
-0.003167
  0
VERTEX
  8
0
 10
662.882109
 20
216.097690
 42
-0.003450
  0
VERTEX
  8
0
 10
677.357969
 20
228.630384
 42
-0.005402
  0
VERTEX
  8
0
 10
690.000000
 20
239.189714
 42
0.016166
  0
VERTEX
  8
0
 10
700.145840
 20
248.041688
 42
0.011704
  0
VERTEX
  8
0
 10
710.883204
 20
258.518851
 42
0.011348
  0
VERTEX
  8
0
 10
720.322817
 20
268.619945
 42
0.038788
  0
VERTEX
  8
0
 10
725.770883
 20
275.766807
 42
0.012188
  0
VERTEX
  8
0
 10
728.673193
 20
280.506792
 42
0.023833
  0
VERTEX
  8
0
 10
730.707518
 20
284.439431
 42
0.022943
  0
VERTEX
  8
0
 10
731.941729
 20
287.495275
 42
0.288467
  0
VERTEX
  8
0
 10
731.677730
 20
288.655603
 42
0.304119
  0
VERTEX
  8
0
 10
730.414001
 20
288.905118
 42
0.082526
  0
VERTEX
  8
0
 10
728.597312
 20
287.765630
 42
0.039465
  0
VERTEX
  8
0
 10
726.027221
 20
285.099318
 42
0.009371
  0
VERTEX
  8
0
 10
722.195420
 20
280.256714
 42
-0.014485
  0
VERTEX
  8
0
 10
713.646372
 20
269.676657
 42
-0.028457
  0
VERTEX
  8
0
 10
706.151117
 20
261.876811
 42
-0.014469
  0
VERTEX
  8
0
 10
695.156149
 20
252.243675
 42
-0.001438
  0
VERTEX
  8
0
 10
668.076466
 20
230.000000
 42
-0.002636
  0
VERTEX
  8
0
 10
655.771686
 20
220.059446
 42
-0.019421
  0
VERTEX
  8
0
 10
649.694036
 20
215.577605
 42
-0.037596
  0
VERTEX
  8
0
 10
645.061531
 20
212.916507
 42
-0.030126
  0
VERTEX
  8
0
 10
639.730731
 20
210.750000
 42
-0.009570
  0
VERTEX
  8
0
 10
636.405908
 20
209.697236
 42
-0.010531
  0
VERTEX
  8
0
 10
633.147213
 20
208.807813
 42
-0.010003
  0
VERTEX
  8
0
 10
630.337576
 20
208.163625
 42
-0.051390
  0
VERTEX
  8
0
 10
628.749775
 20
208.000000
 42
-0.120757
  0
VERTEX
  8
0
 10
625.944059
 20
208.687648
 42
-0.088428
  0
VERTEX
  8
0
 10
623.395724
 20
210.653597
 42
-0.070288
  0
VERTEX
  8
0
 10
621.227013
 20
213.844379
 42
-0.041837
  0
VERTEX
  8
0
 10
619.549939
 20
218.130240
 42
-0.013936
  0
VERTEX
  8
0
 10
617.938236
 20
224.152605
 42
-0.046160
  0
VERTEX
  8
0
 10
617.360632
 20
228.211200
 42
-0.061041
  0
VERTEX
  8
0
 10
617.612652
 20
231.665984
 42
-0.040362
  0
VERTEX
  8
0
 10
618.696193
 20
235.500000
 42
-0.045841
  0
VERTEX
  8
0
 10
620.336146
 20
238.914754
 42
-0.091439
  0
VERTEX
  8
0
 10
622.309669
 20
241.157118
 42
-0.035847
  0
VERTEX
  8
0
 10
625.940832
 20
243.615010
 42
-0.002273
  0
VERTEX
  8
0
 10
637.122624
 20
250.000000
 42
0.016130
  0
VERTEX
  8
0
 10
639.853972
 20
251.661656
 42
0.010048
  0
VERTEX
  8
0
 10
642.950161
 20
253.774881
 42
0.010080
  0
VERTEX
  8
0
 10
645.922470
 20
255.983995
 42
0.017967
  0
VERTEX
  8
0
 10
648.262181
 20
257.935765
 42
0.028907
  0
VERTEX
  8
0
 10
652.797621
 20
262.503756
 42
0.008196
  0
VERTEX
  8
0
 10
659.310336
 20
270.117212
 42
0.008606
  0
VERTEX
  8
0
 10
665.782326
 20
278.218988
 42
0.018056
  0
VERTEX
  8
0
 10
670.470210
 20
284.775620
 42
0.116310
  0
VERTEX
  8
0
 10
671.879946
 20
288.601639
 42
0.584337
  0
VERTEX
  8
0
 10
670.455256
 20
289.650463
 42
0.067728
  0
VERTEX
  8
0
 10
664.693896
 20
286.052011
 42
0.013865
  0
VERTEX
  8
0
 10
655.658305
 20
278.106747
 42
-0.020036
  0
VERTEX
  8
0
 10
646.624292
 20
270.358412
 42
-0.059278
  0
VERTEX
  8
0
 10
639.670812
 20
266.090847
 42
-0.061588
  0
VERTEX
  8
0
 10
632.060159
 20
263.661197
 42
-0.022921
  0
VERTEX
  8
0
 10
620.920559
 20
262.089544
 42
-0.026866
  0
VERTEX
  8
0
 10
610.306054
 20
261.658261
 42
-0.085800
  0
VERTEX
  8
0
 10
603.361714
 20
262.952736
 42
-0.123472
  0
VERTEX
  8
0
 10
598.696093
 20
266.152711
 42
-0.090020
  0
VERTEX
  8
0
 10
595.426157
 20
271.554184
 42
-0.021931
  0
VERTEX
  8
0
 10
594.561708
 20
274.154432
 42
-0.068301
  0
VERTEX
  8
0
 10
594.303404
 20
275.978024
 42
-0.059356
  0
VERTEX
  8
0
 10
594.528407
 20
277.938785
 42
-0.013746
  0
VERTEX
  8
0
 10
595.384684
 20
281.153511
 42
-0.060030
  0
VERTEX
  8
0
 10
597.727879
 20
286.578495
 42
-0.026915
  0
VERTEX
  8
0
 10
602.001015
 20
293.080032
 42
-0.026800
  0
VERTEX
  8
0
 10
606.901289
 20
299.031164
 42
-0.066411
  0
VERTEX
  8
0
 10
611.227715
 20
302.643750
 42
0.011207
  0
VERTEX
  8
0
 10
612.717810
 20
303.631791
 42
0.019280
  0
VERTEX
  8
0
 10
613.906392
 20
304.528767
 42
0.014514
  0
VERTEX
  8
0
 10
614.778414
 20
305.284469
 42
0.426662
  0
VERTEX
  8
0
 10
614.784018
 20
305.549315
 42
-0.390124
  0
VERTEX
  8
0
 10
614.770864
 20
305.866325
 42
-0.003336
  0
VERTEX
  8
0
 10
616.498602
 20
307.879968
 42
-0.009163
  0
VERTEX
  8
0
 10
618.607276
 20
310.216772
 42
-0.005512
  0
VERTEX
  8
0
 10
621.189539
 20
312.914814
 42
0.013471
  0
VERTEX
  8
0
 10
625.550367
 20
317.618818
 42
0.067448
  0
VERTEX
  8
0
 10
627.533117
 20
320.606368
 42
0.253565
  0
VERTEX
  8
0
 10
627.459839
 20
322.218346
 42
0.263001
  0
VERTEX
  8
0
 10
626.076596
 20
323.000000
 42
0.134803
  0
VERTEX
  8
0
 10
624.092886
 20
322.455282
 42
0.017934
  0
VERTEX
  8
0
 10
620.404216
 20
320.081348
 42
0.016485
  0
VERTEX
  8
0
 10
615.579122
 20
316.483775
 42
0.006986
  0
VERTEX
  8
0
 10
609.340508
 20
311.359787
 42
-0.014524
  0
VERTEX
  8
0
 10
606.127397
 20
308.800876
 42
-0.067556
  0
VERTEX
  8
0
 10
604.061862
 20
307.649331
 42
-0.074036
  0
VERTEX
  8
0
 10
601.853499
 20
307.141854
 42
-0.019521
  0
VERTEX
  8
0
 10
598.221498
 20
307.000000
 42
-0.029249
  0
VERTEX
  8
0
 10
590.926615
 20
307.427097
 42
-0.019482
  0
VERTEX
  8
0
 10
582.651864
 20
308.727857
 42
-0.018843
  0
VERTEX
  8
0
 10
575.074381
 20
310.522559
 42
-0.065053
  0
VERTEX
  8
0
 10
570.436552
 20
312.484315
 42
-0.077981
  0
VERTEX
  8
0
 10
565.266872
 20
316.714130
 42
-0.071559
  0
VERTEX
  8
0
 10
561.460321
 20
322.442143
 42
-0.056329
  0
VERTEX
  8
0
 10
558.793292
 20
330.200129
 42
-0.026635
  0
VERTEX
  8
0
 10
557.049362
 20
340.652402
 42
0.016838
  0
VERTEX
  8
0
 10
554.694422
 20
356.696461
 42
0.041084
  0
VERTEX
  8
0
 10
551.607829
 20
368.228067
 42
0.053688
  0
VERTEX
  8
0
 10
547.315865
 20
377.092107
 42
0.056861
  0
VERTEX
  8
0
 10
541.303613
 20
384.652908
 42
0.049082
  0
VERTEX
  8
0
 10
535.472756
 20
389.439049
 42
0.031328
  0
VERTEX
  8
0
 10
527.883976
 20
393.850781
 42
0.029112
  0
VERTEX
  8
0
 10
519.096850
 20
397.625611
 42
0.026374
  0
VERTEX
  8
0
 10
509.638646
 20
400.497624
 42
-0.028881
  0
VERTEX
  8
0
 10
500.549923
 20
403.307242
 42
-0.091018
  0
VERTEX
  8
0
 10
495.096712
 20
406.569353
 42
-0.072674
  0
VERTEX
  8
0
 10
490.511717
 20
411.957151
 42
-0.014094
  0
VERTEX
  8
0
 10
484.014896
 20
423.000000
 42
0.003887
  0
VERTEX
  8
0
 10
481.908237
 20
426.754019
 42
0.004978
  0
VERTEX
  8
0
 10
479.907750
 20
430.175261
 42
0.003882
  0
VERTEX
  8
0
 10
478.182592
 20
433.009166
 42
0.041887
  0
VERTEX
  8
0
 10
477.383650
 20
434.085995
 42
-0.161817
  0
VERTEX
  8
0
 10
476.718574
 20
435.653821
 42
-0.033909
  0
VERTEX
  8
0
 10
476.680636
 20
438.676162
 42
-0.017343
  0
VERTEX
  8
0
 10
477.143032
 20
443.804528
 42
-0.002539
  0
VERTEX
  8
0
 10
478.493759
 20
454.161794
 42
-0.006436
  0
VERTEX
  8
0
 10
479.665038
 20
462.037808
 42
-0.007526
  0
VERTEX
  8
0
 10
480.985041
 20
469.479374
 42
-0.007823
  0
VERTEX
  8
0
 10
482.307923
 20
475.802021
 42
-0.026493
  0
VERTEX
  8
0
 10
483.452031
 20
479.858965
 42
-0.026357
  0
VERTEX
  8
0
 10
487.287008
 20
489.445216
 42
-0.022925
  0
VERTEX
  8
0
 10
492.273695
 20
499.044999
 42
-0.022711
  0
VERTEX
  8
0
 10
498.175090
 20
508.244942
 42
-0.024484
  0
VERTEX
  8
0
 10
504.749954
 20
516.634505
 42
0.005467
  0
VERTEX
  8
0
 10
511.358883
 20
524.437342
 42
0.010153
  0
VERTEX
  8
0
 10
516.519683
 20
530.931313
 42
0.006629
  0
VERTEX
  8
0
 10
520.437906
 20
536.216590
 42
0.157453
  0
VERTEX
  8
0
 10
521.000000
 20
537.957300
 42
0.553839
  0
VERTEX
  8
0
 10
519.668308
 20
538.790767
 42
0.061096
  0
VERTEX
  8
0
 10
515.964669
 20
536.393863
 42
0.028244
  0
VERTEX
  8
0
 10
510.030360
 20
530.833253
 42
0.009237
  0
VERTEX
  8
0
 10
501.916879
 20
522.000000
 42
0.021582
  0
VERTEX
  8
0
 10
488.299185
 20
505.205630
 42
0.048224
  0
VERTEX
  8
0
 10
479.831245
 20
491.136145
 42
0.047628
  0
VERTEX
  8
0
 10
474.154499
 20
475.595862
 42
0.020582
  0
VERTEX
  8
0
 10
469.472651
 20
454.041705
 42
0.006006
  0
VERTEX
  8
0
 10
467.918411
 20
444.454575
 42
0.022862
  0
VERTEX
  8
0
 10
467.295238
 20
438.425245
 42
0.022041
  0
VERTEX
  8
0
 10
467.213828
 20
432.259054
 42
0.005301
  0
VERTEX
  8
0
 10
467.637819
 20
422.041705
 42
-0.005445
  0
VERTEX
  8
0
 10
468.276438
 20
406.544579
 42
-0.020727
  0
VERTEX
  8
0
 10
468.168502
 20
396.865407
 42
-0.030123
  0
VERTEX
  8
0
 10
467.458024
 20
390.595038
 42
-0.174772
  0
VERTEX
  8
0
 10
465.832456
 20
387.750000
 42
-0.023470
  0
VERTEX
  8
0
 10
463.757567
 20
386.143937
 42
-0.403205
  0
VERTEX
  8
0
 10
462.983230
 20
386.264731
 42
-0.239626
  0
VERTEX
  8
0
 10
462.800324
 20
387.274846
 42
-0.013488
  0
VERTEX
  8
0
 10
463.826825
 20
390.390931
 42
0.025159
  0
VERTEX
  8
0
 10
464.681866
 20
393.205901
 42
0.084312
  0
VERTEX
  8
0
 10
464.828432
 20
395.121607
 42
0.059742
  0
VERTEX
  8
0
 10
464.360051
 20
397.306156
 42
0.008434
  0
VERTEX
  8
0
 10
462.790408
 20
401.640931
 42
-0.001509
  0
VERTEX
  8
0
 10
461.665287
 20
404.618621
 42
-0.001139
  0
VERTEX
  8
0
 10
460.446392
 20
407.896886
 42
-0.001151
  0
VERTEX
  8
0
 10
459.315061
 20
410.982826
 42
-0.002664
  0
VERTEX
  8
0
 10
458.483449
 20
413.305914
 42
0.124362
  0
VERTEX
  8
0
 10
456.010532
 20
417.032329
 42
0.429057
  0
VERTEX
  8
0
 10
453.429652
 20
416.843197
 42
0.095575
  0
VERTEX
  8
0
 10
450.574074
 20
411.571955
 42
0.012828
  0
VERTEX
  8
0
 10
447.068227
 20
399.391240
 42
-0.042542
  0
VERTEX
  8
0
 10
446.271830
 20
397.137158
 42
-0.068054
  0
VERTEX
  8
0
 10
445.188138
 20
395.410772
 42
-0.054715
  0
VERTEX
  8
0
 10
443.508037
 20
393.797775
 42
-0.018660
  0
VERTEX
  8
0
 10
440.749488
 20
391.835126
 42
-0.019885
  0
VERTEX
  8
0
 10
433.782561
 20
387.646537
 42
-0.085919
  0
VERTEX
  8
0
 10
429.230579
 20
386.086722
 42
-0.693950
  0
VERTEX
  8
0
 10
428.620102
 20
387.162408
 42
-0.055598
  0
VERTEX
  8
0
 10
432.054173
 20
390.443390
 42
0.011493
  0
VERTEX
  8
0
 10
434.119226
 20
392.094644
 42
0.011971
  0
VERTEX
  8
0
 10
436.077763
 20
393.817391
 42
0.011723
  0
VERTEX
  8
0
 10
437.697685
 20
395.384475
 42
0.050165
  0
VERTEX
  8
0
 10
438.540079
 20
396.429851
 42
0.096803
  0
VERTEX
  8
0
 10
439.670748
 20
399.219834
 42
0.005927
  0
VERTEX
  8
0
 10
441.287296
 20
408.094759
 42
0.009261
  0
VERTEX
  8
0
 10
442.623465
 20
416.947819
 42
0.032831
  0
VERTEX
  8
0
 10
443.000000
 20
422.676135
 42
0.023930
  0
VERTEX
  8
0
 10
442.910288
 20
424.549511
 42
0.145937
  0
VERTEX
  8
0
 10
442.549747
 20
425.437894
 42
0.183489
  0
VERTEX
  8
0
 10
441.807907
 20
425.875045
 42
0.042415
  0
VERTEX
  8
0
 10
440.337547
 20
426.000000
 42
0.073906
  0
VERTEX
  8
0
 10
439.001309
 20
425.801403
 42
0.023146
  0
VERTEX
  8
0
 10
437.088863
 20
425.121947
 42
0.022565
  0
VERTEX
  8
0
 10
434.995792
 20
424.154973
 42
0.023158
  0
VERTEX
  8
0
 10
433.016958
 20
423.010882
 42
-0.019052
  0
VERTEX
  8
0
 10
430.992857
 20
421.818347
 42
-0.015979
  0
VERTEX
  8
0
 10
428.762962
 20
420.706980
 42
-0.016276
  0
VERTEX
  8
0
 10
426.658454
 20
419.822517
 42
-0.042003
  0
VERTEX
  8
0
 10
425.076481
 20
419.365296
 42
0.000000
  0
VERTEX
  8
0
 10
421.794140
 20
418.708828
 42
0.000000
  0
VERTEX
  8
0
 10
425.372512
 20
423.689661
 42
0.040107
  0
VERTEX
  8
0
 10
430.553410
 20
432.277753
 42
0.038228
  0
VERTEX
  8
0
 10
434.392817
 20
441.719264
 42
0.039784
  0
VERTEX
  8
0
 10
436.408104
 20
450.315404
 42
0.143589
  0
VERTEX
  8
0
 10
435.661777
 20
455.831961
 42
0.144516
  0
VERTEX
  8
0
 10
434.129401
 20
457.626559
 42
0.062954
  0
VERTEX
  8
0
 10
431.282183
 20
459.006372
 42
0.058412
  0
VERTEX
  8
0
 10
427.859188
 20
459.731780
 42
0.069508
  0
VERTEX
  8
0
 10
424.563681
 20
459.577925
 42
-0.031088
  0
VERTEX
  8
0
 10
422.741747
 20
459.352155
 42
-0.106045
  0
VERTEX
  8
0
 10
421.566683
 20
459.529950
 42
-0.116441
  0
VERTEX
  8
0
 10
420.629453
 20
460.161976
 42
-0.041427
  0
VERTEX
  8
0
 10
419.628861
 20
461.443678
 42
-0.009063
  0
VERTEX
  8
0
 10
418.215869
 20
463.687878
 42
-0.228353
  0
VERTEX
  8
0
 10
418.148987
 20
464.391400
 42
-0.396263
  0
VERTEX
  8
0
 10
418.633207
 20
464.632519
 42
-0.017694
  0
VERTEX
  8
0
 10
420.565100
 20
463.975249
 42
0.047139
  0
VERTEX
  8
0
 10
421.928827
 20
463.599128
 42
0.014422
  0
VERTEX
  8
0
 10
424.046641
 20
463.287577
 42
0.014296
  0
VERTEX
  8
0
 10
426.450463
 20
463.073968
 42
0.015176
  0
VERTEX
  8
0
 10
428.815100
 20
463.003738
 42
0.049401
  0
VERTEX
  8
0
 10
433.692456
 20
463.490052
 42
0.078785
  0
VERTEX
  8
0
 10
437.612568
 20
464.944804
 42
0.088606
  0
VERTEX
  8
0
 10
440.572188
 20
467.384212
 42
0.080817
  0
VERTEX
  8
0
 10
442.618648
 20
470.771897
 42
-0.025225
  0
VERTEX
  8
0
 10
445.474933
 20
476.957775
 42
-0.034369
  0
VERTEX
  8
0
 10
448.694267
 20
482.188358
 42
-0.025666
  0
VERTEX
  8
0
 10
453.274117
 20
487.948316
 42
-0.007782
  0
VERTEX
  8
0
 10
460.791058
 20
496.203221
 42
0.019308
  0
VERTEX
  8
0
 10
472.224882
 20
509.356045
 42
0.024895
  0
VERTEX
  8
0
 10
481.618919
 20
522.316154
 42
0.025742
  0
VERTEX
  8
0
 10
488.225100
 20
533.696455
 42
0.119180
  0
VERTEX
  8
0
 10
490.000000
 20
541.037020
 42
0.199849
  0
VERTEX
  8
0
 10
489.311340
 20
542.691161
 42
0.292922
  0
VERTEX
  8
0
 10
487.816579
 20
543.012722
 42
0.128715
  0
VERTEX
  8
0
 10
485.740692
 20
541.549367
 42
0.057997
  0
VERTEX
  8
0
 10
483.887036
 20
538.750000
 42
-0.029370
  0
VERTEX
  8
0
 10
479.164952
 20
530.648804
 42
-0.018033
  0
VERTEX
  8
0
 10
472.721085
 20
521.670694
 42
-0.016157
  0
VERTEX
  8
0
 10
464.769051
 20
512.053455
 42
-0.012198
  0
VERTEX
  8
0
 10
455.448140
 20
502.000000
 42
0.005645
  0
VERTEX
  8
0
 10
445.347891
 20
491.388319
 42
0.021507
  0
VERTEX
  8
0
 10
439.415074
 20
484.435630
 42
0.034216
  0
VERTEX
  8
0
 10
435.986308
 20
479.369658
 42
0.105063
  0
VERTEX
  8
0
 10
434.700947
 20
475.454772
 42
-0.077452
  0
VERTEX
  8
0
 10
433.721960
 20
471.811002
 42
-0.225890
  0
VERTEX
  8
0
 10
431.796498
 20
470.158010
 42
-0.133716
  0
VERTEX
  8
0
 10
428.476588
 20
470.160579
 42
-0.022853
  0
VERTEX
  8
0
 10
422.412174
 20
472.118744
 42
0.019400
  0
VERTEX
  8
0
 10
419.569060
 20
473.058487
 42
0.031493
  0
VERTEX
  8
0
 10
417.085490
 20
473.607261
 42
0.035568
  0
VERTEX
  8
0
 10
414.790697
 20
473.799083
 42
0.037144
  0
VERTEX
  8
0
 10
412.525440
 20
473.658541
 42
-0.050129
  0
VERTEX
  8
0
 10
409.860092
 20
473.562435
 42
-0.059767
  0
VERTEX
  8
0
 10
407.388718
 20
474.021153
 42
-0.035587
  0
VERTEX
  8
0
 10
404.234651
 20
475.259255
 42
-0.007056
  0
VERTEX
  8
0
 10
398.794671
 20
477.949862
 42
0.011908
  0
VERTEX
  8
0
 10
394.275650
 20
480.130650
 42
0.018264
  0
VERTEX
  8
0
 10
390.254397
 20
481.780198
 42
0.021213
  0
VERTEX
  8
0
 10
386.709825
 20
482.916921
 42
0.035919
  0
VERTEX
  8
0
 10
383.653460
 20
483.524093
 42
-0.007545
  0
VERTEX
  8
0
 10
380.064338
 20
484.027635
 42
-0.108934
  0
VERTEX
  8
0
 10
378.873495
 20
484.491560
 42
-0.253417
  0
VERTEX
  8
0
 10
378.454534
 20
485.284826
 42
-0.056076
  0
VERTEX
  8
0
 10
378.648973
 20
486.864028
 42
-0.079410
  0
VERTEX
  8
0
 10
383.289029
 20
498.055647
 42
-0.034052
  0
VERTEX
  8
0
 10
392.711747
 20
511.265752
 42
-0.030267
  0
VERTEX
  8
0
 10
405.675114
 20
525.231692
 42
-0.023364
  0
VERTEX
  8
0
 10
421.361550
 20
538.861977
 42
-0.011980
  0
VERTEX
  8
0
 10
427.506161
 20
543.481955
 42
-0.027541
  0
VERTEX
  8
0
 10
432.389016
 20
546.581991
 42
-0.036774
  0
VERTEX
  8
0
 10
436.334491
 20
548.425445
 42
-0.091145
  0
VERTEX
  8
0
 10
439.460162
 20
549.000000
 42
0.043675
  0
VERTEX
  8
0
 10
440.639585
 20
549.103220
 42
0.116014
  0
VERTEX
  8
0
 10
441.411816
 20
549.434811
 42
0.147049
  0
VERTEX
  8
0
 10
441.847902
 20
550.017825
 42
0.087775
  0
VERTEX
  8
0
 10
442.000000
 20
550.877555
 42
0.235334
  0
VERTEX
  8
0
 10
440.640931
 20
553.605176
 42
0.152626
  0
VERTEX
  8
0
 10
437.256226
 20
554.815318
 42
0.086520
  0
VERTEX
  8
0
 10
432.006075
 20
554.117417
 42
0.041374
  0
VERTEX
  8
0
 10
425.685265
 20
551.537925
 42
0.040966
  0
VERTEX
  8
0
 10
418.923640
 20
547.373228
 42
0.016520
  0
VERTEX
  8
0
 10
410.398314
 20
540.660906
 42
0.015137
  0
VERTEX
  8
0
 10
401.015233
 20
532.259077
 42
0.012316
  0
VERTEX
  8
0
 10
391.472108
 20
522.720039
 42
0.014379
  0
VERTEX
  8
0
 10
383.358324
 20
513.694014
 42
0.035322
  0
VERTEX
  8
0
 10
378.085752
 20
506.505730
 42
0.036026
  0
VERTEX
  8
0
 10
373.937090
 20
498.731874
 42
0.015502
  0
VERTEX
  8
0
 10
369.496514
 20
487.842224
 42
-0.016844
  0
VERTEX
  8
0
 10
366.415580
 20
480.344440
 42
-0.018500
  0
VERTEX
  8
0
 10
362.923827
 20
473.306684
 42
-0.019669
  0
VERTEX
  8
0
 10
359.413169
 20
467.408462
 42
-0.052342
  0
VERTEX
  8
0
 10
356.332762
 20
463.605489
 42
-0.032565
  0
VERTEX
  8
0
 10
353.809081
 20
461.390749
 42
-0.041011
  0
VERTEX
  8
0
 10
351.198085
 20
459.705339
 42
-0.032138
  0
VERTEX
  8
0
 10
347.878051
 20
458.194821
 42
-0.011688
  0
VERTEX
  8
0
 10
343.000000
 20
456.472824
 42
0.009071
  0
VERTEX
  8
0
 10
340.531400
 20
455.615885
 42
0.005532
  0
VERTEX
  8
0
 10
337.646875
 20
454.519169
 42
0.005543
  0
VERTEX
  8
0
 10
334.811289
 20
453.368547
 42
0.009779
  0
VERTEX
  8
0
 10
332.500000
 20
452.347116
 42
-0.037878
  0
VERTEX
  8
0
 10
328.445660
 20
450.821226
 42
-0.053183
  0
VERTEX
  8
0
 10
324.642910
 20
450.137183
 42
-0.052955
  0
VERTEX
  8
0
 10
320.769002
 20
450.269327
 42
-0.037134
  0
VERTEX
  8
0
 10
316.500000
 20
451.197740
 42
0.000000
  0
VERTEX
  8
0
 10
312.500000
 20
452.384327
 42
0.000000
  0
VERTEX
  8
0
 10
318.314488
 20
453.066856
 42
0.021077
  0
VERTEX
  8
0
 10
321.153859
 20
453.522148
 42
0.038732
  0
VERTEX
  8
0
 10
323.403663
 20
454.165605
 42
0.046113
  0
VERTEX
  8
0
 10
325.240404
 20
455.048676
 42
0.051278
  0
VERTEX
  8
0
 10
326.814488
 20
456.227472
 42
-0.016352
  0
VERTEX
  8
0
 10
328.164087
 20
457.393483
 42
-0.006766
  0
VERTEX
  8
0
 10
330.060878
 20
458.884880
 42
-0.006686
  0
VERTEX
  8
0
 10
332.138983
 20
460.430220
 42
-0.008560
  0
VERTEX
  8
0
 10
334.094885
 20
461.794099
 42
0.030351
  0
VERTEX
  8
0
 10
338.148346
 20
464.891490
 42
0.032478
  0
VERTEX
  8
0
 10
341.700419
 20
468.392117
 42
0.033072
  0
VERTEX
  8
0
 10
344.288118
 20
471.715075
 42
0.149989
  0
VERTEX
  8
0
 10
345.000000
 20
474.034796
 42
0.185748
  0
VERTEX
  8
0
 10
344.473403
 20
475.403396
 42
0.275283
  0
VERTEX
  8
0
 10
343.277587
 20
475.771891
 42
0.078455
  0
VERTEX
  8
0
 10
340.951432
 20
474.802289
 42
0.011295
  0
VERTEX
  8
0
 10
336.615029
 20
471.997617
 42
-0.007537
  0
VERTEX
  8
0
 10
334.285833
 20
470.466202
 42
-0.010556
  0
VERTEX
  8
0
 10
332.156946
 20
469.174300
 42
-0.007162
  0
VERTEX
  8
0
 10
330.350858
 20
468.164042
 42
-0.124558
  0
VERTEX
  8
0
 10
329.702577
 20
468.000000
 42
0.109605
  0
VERTEX
  8
0
 10
329.079333
 20
467.861717
 42
0.009779
  0
VERTEX
  8
0
 10
327.629325
 20
467.150102
 42
0.012378
  0
VERTEX
  8
0
 10
325.919543
 20
466.214832
 42
0.009344
  0
VERTEX
  8
0
 10
324.087547
 20
465.106729
 42
-0.022189
  0
VERTEX
  8
0
 10
321.161095
 20
463.437747
 42
-0.073297
  0
VERTEX
  8
0
 10
319.064794
 20
462.725333
 42
-0.057089
  0
VERTEX
  8
0
 10
316.588337
 20
462.558635
 42
-0.009869
  0
VERTEX
  8
0
 10
311.892867
 20
462.871721
 42
-0.014265
  0
VERTEX
  8
0
 10
307.848849
 20
463.338207
 42
-0.036948
  0
VERTEX
  8
0
 10
304.984647
 20
463.970388
 42
-0.045361
  0
VERTEX
  8
0
 10
302.604524
 20
464.925895
 42
-0.033411
  0
VERTEX
  8
0
 10
300.165402
 20
466.385377
 42
-0.006902
  0
VERTEX
  8
0
 10
295.806713
 20
469.495880
 42
-0.196743
  0
VERTEX
  8
0
 10
295.099722
 20
470.652514
 42
-0.438366
  0
VERTEX
  8
0
 10
295.667665
 20
471.375085
 42
-0.018179
  0
VERTEX
  8
0
 10
299.334623
 20
471.529257
 42
0.032536
  0
VERTEX
  8
0
 10
311.805719
 20
472.412608
 42
0.062117
  0
VERTEX
  8
0
 10
321.499082
 20
474.989568
 42
0.143792
  0
VERTEX
  8
0
 10
325.894673
 20
478.468696
 42
0.391809
  0
VERTEX
  8
0
 10
325.419833
 20
482.066533
 42
0.064871
  0
VERTEX
  8
0
 10
324.462041
 20
482.671249
 42
0.107951
  0
VERTEX
  8
0
 10
323.534298
 20
482.877281
 42
0.077082
  0
VERTEX
  8
0
 10
322.393213
 20
482.704362
 42
0.020898
  0
VERTEX
  8
0
 10
320.669833
 20
482.082990
 42
-0.019351
  0
VERTEX
  8
0
 10
318.964840
 20
481.462283
 42
-0.005318
  0
VERTEX
  8
0
 10
316.235073
 20
480.618451
 42
-0.005366
  0
VERTEX
  8
0
 10
313.118711
 20
479.727602
 42
-0.005579
  0
VERTEX
  8
0
 10
310.024033
 20
478.915787
 42
0.000000
  0
VERTEX
  8
0
 10
302.548066
 20
477.043549
 42
0.000000
  0
VERTEX
  8
0
 10
296.353478
 20
479.521774
 42
0.010819
  0
VERTEX
  8
0
 10
293.811043
 20
480.475631
 42
0.011692
  0
VERTEX
  8
0
 10
291.294275
 20
481.292668
 42
0.011261
  0
VERTEX
  8
0
 10
289.108596
 20
481.892867
 42
0.053881
  0
VERTEX
  8
0
 10
287.829445
 20
482.070285
 42
-0.025615
  0
VERTEX
  8
0
 10
286.792001
 20
482.154902
 42
-0.016302
  0
VERTEX
  8
0
 10
285.596774
 20
482.354173
 42
-0.016374
  0
VERTEX
  8
0
 10
284.433923
 20
482.627121
 42
-0.029035
  0
VERTEX
  8
0
 10
283.500000
 20
482.938013
 42
-0.635843
  0
VERTEX
  8
0
 10
283.432572
 20
484.085867
 42
-0.077116
  0
VERTEX
  8
0
 10
286.655800
 20
485.236301
 42
-0.026351
  0
VERTEX
  8
0
 10
293.937387
 20
486.234297
 42
-0.010210
  0
VERTEX
  8
0
 10
304.100950
 20
486.876462
 42
0.007717
  0
VERTEX
  8
0
 10
313.934749
 20
487.448588
 42
0.052206
  0
VERTEX
  8
0
 10
318.727347
 20
488.310132
 42
0.135804
  0
VERTEX
  8
0
 10
321.098382
 20
489.770817
 42
0.189392
  0
VERTEX
  8
0
 10
322.000000
 20
492.065741
 42
0.173761
  0
VERTEX
  8
0
 10
321.278635
 20
494.078804
 42
0.106897
  0
VERTEX
  8
0
 10
319.282807
 20
495.658832
 42
0.075389
  0
VERTEX
  8
0
 10
316.118615
 20
496.659029
 42
0.040517
  0
VERTEX
  8
0
 10
312.027494
 20
496.965112
 42
0.027924
  0
VERTEX
  8
0
 10
305.994413
 20
496.589697
 42
0.016287
  0
VERTEX
  8
0
 10
298.825963
 20
495.502240
 42
0.016291
  0
VERTEX
  8
0
 10
291.748981
 20
493.951591
 42
0.028117
  0
VERTEX
  8
0
 10
286.000000
 20
492.144838
 42
-0.007089
  0
VERTEX
  8
0
 10
283.687447
 20
491.309745
 42
-0.040653
  0
VERTEX
  8
0
 10
282.425735
 20
490.986098
 42
-0.497007
  0
VERTEX
  8
0
 10
282.232596
 20
491.166988
 42
-0.207902
  0
VERTEX
  8
0
 10
282.440182
 20
491.534360
 42
-0.063719
  0
VERTEX
  8
0
 10
286.318740
 20
493.751137
 42
-0.028627
  0
VERTEX
  8
0
 10
291.870981
 20
495.682310
 42
-0.026100
  0
VERTEX
  8
0
 10
298.438207
 20
497.187490
 42
-0.022118
  0
VERTEX
  8
0
 10
305.500000
 20
498.102741
 42
0.009850
  0
VERTEX
  8
0
 10
314.830885
 20
499.080047
 42
0.014613
  0
VERTEX
  8
0
 10
322.954058
 20
500.335021
 42
0.012911
  0
VERTEX
  8
0
 10
331.689440
 20
502.181615
 42
0.005765
  0
VERTEX
  8
0
 10
343.090945
 20
505.040443
 42
0.077350
  0
VERTEX
  8
0
 10
347.183716
 20
506.827074
 42
0.017633
  0
VERTEX
  8
0
 10
353.437812
 20
511.117249
 42
0.017165
  0
VERTEX
  8
0
 10
360.612898
 20
516.811564
 42
0.013244
  0
VERTEX
  8
0
 10
368.046078
 20
523.485799
 42
-0.016541
  0
VERTEX
  8
0
 10
371.794292
 20
526.806933
 42
-0.007285
  0
VERTEX
  8
0
 10
376.956935
 20
530.959684
 42
-0.007201
  0
VERTEX
  8
0
 10
382.564085
 20
535.208463
 42
-0.009597
  0
VERTEX
  8
0
 10
387.784290
 20
538.894720
 42
0.011076
  0
VERTEX
  8
0
 10
395.697309
 20
544.517656
 42
0.034429
  0
VERTEX
  8
0
 10
400.662606
 20
548.774974
 42
0.053419
  0
VERTEX
  8
0
 10
403.379002
 20
552.090170
 42
0.241041
  0
VERTEX
  8
0
 10
403.637292
 20
554.502820
 42
0.109003
  0
VERTEX
  8
0
 10
403.187604
 20
555.183893
 42
0.196128
  0
VERTEX
  8
0
 10
402.576298
 20
555.430010
 42
0.086264
  0
VERTEX
  8
0
 10
401.585382
 20
555.253079
 42
0.011747
  0
VERTEX
  8
0
 10
399.616842
 20
554.484373
 42
0.035065
  0
VERTEX
  8
0
 10
391.970894
 20
550.640044
 42
0.017537
  0
VERTEX
  8
0
 10
382.859545
 20
544.786450
 42
0.016104
  0
VERTEX
  8
0
 10
373.043851
 20
537.503764
 42
0.013787
  0
VERTEX
  8
0
 10
363.182301
 20
529.229451
 42
-0.006770
  0
VERTEX
  8
0
 10
353.610813
 20
520.966910
 42
-0.024678
  0
VERTEX
  8
0
 10
347.219927
 20
516.116113
 42
-0.037282
  0
VERTEX
  8
0
 10
341.927803
 20
513.048184
 42
-0.040225
  0
VERTEX
  8
0
 10
336.368949
 20
510.889328
 42
-0.007807
  0
VERTEX
  8
0
 10
327.703401
 20
508.449833
 42
-0.018509
  0
VERTEX
  8
0
 10
321.167375
 20
506.975982
 42
-0.023162
  0
VERTEX
  8
0
 10
315.520250
 20
506.189053
 42
-0.022374
  0
VERTEX
  8
0
 10
309.758819
 20
505.915744
 42
0.027326
  0
VERTEX
  8
0
 10
302.975061
 20
505.526613
 42
0.032019
  0
VERTEX
  8
0
 10
296.630643
 20
504.398615
 42
0.030577
  0
VERTEX
  8
0
 10
290.244954
 20
502.415539
 42
0.021492
  0
VERTEX
  8
0
 10
283.328132
 20
499.448492
 42
-0.009809
  0
VERTEX
  8
0
 10
280.438196
 20
498.128066
 42
-0.012011
  0
VERTEX
  8
0
 10
277.685988
 20
497.012994
 42
-0.010543
  0
VERTEX
  8
0
 10
275.345012
 20
496.185338
 42
-0.079857
  0
VERTEX
  8
0
 10
274.191967
 20
496.000000
 42
0.075508
  0
VERTEX
  8
0
 10
269.887632
 20
495.346251
 42
0.004220
  0
VERTEX
  8
0
 10
256.952426
 20
491.204181
 42
0.007233
  0
VERTEX
  8
0
 10
243.535892
 20
486.566584
 42
0.012375
  0
VERTEX
  8
0
 10
232.500000
 20
482.260505
 42
0.009273
  0
VERTEX
  8
0
 10
215.286977
 20
474.670220
 42
0.010762
  0
VERTEX
  8
0
 10
199.211038
 20
466.797711
 42
0.011481
  0
VERTEX
  8
0
 10
185.616461
 20
459.373358
 42
0.031432
  0
VERTEX
  8
0
 10
176.500000
 20
453.326409
 42
0.024439
  0
VERTEX
  8
0
 10
165.096942
 20
443.772737
 42
0.024088
  0
VERTEX
  8
0
 10
154.622595
 20
433.107847
 42
0.024961
  0
VERTEX
  8
0
 10
145.617664
 20
421.933609
 42
0.032798
  0
VERTEX
  8
0
 10
138.629975
 20
410.857663
 42
0.032075
  0
VERTEX
  8
0
 10
135.357544
 20
403.780683
 42
0.016463
  0
VERTEX
  8
0
 10
132.133372
 20
394.550888
 42
0.012149
  0
VERTEX
  8
0
 10
128.612301
 20
382.252799
 42
0.004844
  0
VERTEX
  8
0
 10
124.360618
 20
365.237874
 42
-0.003137
  0
VERTEX
  8
0
 10
121.895452
 20
355.227276
 42
-0.014313
  0
VERTEX
  8
0
 10
120.259874
 20
349.460213
 42
-0.016158
  0
VERTEX
  8
0
 10
119.003414
 20
345.877371
 42
-0.413279
  0
VERTEX
  8
0
 10
118.146385
 20
345.497321
 42
0.161271
  0
VERTEX
  8
0
 10
117.225449
 20
345.540286
 42
0.009439
  0
VERTEX
  8
0
 10
114.500521
 20
344.721061
 42
0.013504
  0
VERTEX
  8
0
 10
111.245379
 20
343.577184
 42
0.009479
  0
VERTEX
  8
0
 10
107.643593
 20
342.122313
 42
-0.007609
  0
VERTEX
  8
0
 10
103.703306
 20
340.513544
 42
-0.006136
  0
VERTEX
  8
0
 10
99.423431
 20
338.901897
 42
-0.006206
  0
VERTEX
  8
0
 10
95.434301
 20
337.511147
 42
-0.015817
  0
VERTEX
  8
0
 10
92.500000
 20
336.630990
 42
0.000496
  0
VERTEX
  8
0
 10
89.672211
 20
335.876386
 42
0.000245
  0
VERTEX
  8
0
 10
86.079241
 20
334.911881
 42
0.000243
  0
VERTEX
  8
0
 10
82.350853
 20
333.907125
 42
0.000355
  0
VERTEX
  8
0
 10
79.067629
 20
333.018125
 42
-0.020346
  0
VERTEX
  8
0
 10
72.613358
 20
331.544615
 42
-0.044538
  0
VERTEX
  8
0
 10
67.570448
 20
331.065362
 42
-0.060609
  0
VERTEX
  8
0
 10
63.693468
 20
331.514516
 42
-0.111657
  0
VERTEX
  8
0
 10
60.860784
 20
332.913736
 42
-0.061638
  0
VERTEX
  8
0
 10
59.614567
 20
334.208012
 42
-0.092042
  0
VERTEX
  8
0
 10
58.919374
 20
335.611890
 42
-0.057651
  0
VERTEX
  8
0
 10
58.593123
 20
337.620082
 42
-0.012088
  0
VERTEX
  8
0
 10
58.515709
 20
341.186316
 42
-0.065026
  0
VERTEX
  8
0
 10
59.461590
 20
348.291893
 42
-0.069615
  0
VERTEX
  8
0
 10
62.197185
 20
354.740316
 42
-0.045461
  0
VERTEX
  8
0
 10
67.596963
 20
362.129461
 42
-0.012131
  0
VERTEX
  8
0
 10
77.500000
 20
372.840964
 42
0.002474
  0
VERTEX
  8
0
 10
82.618247
 20
378.166925
 42
0.003234
  0
VERTEX
  8
0
 10
87.242164
 20
383.089755
 42
0.002393
  0
VERTEX
  8
0
 10
91.068573
 20
387.256505
 42
0.030029
  0
VERTEX
  8
0
 10
92.409495
 20
388.921439
 42
-0.057335
  0
VERTEX
  8
0
 10
93.452829
 20
390.081383
 42
-0.025990
  0
VERTEX
  8
0
 10
95.054076
 20
391.354577
 42
-0.025321
  0
VERTEX
  8
0
 10
96.901748
 20
392.536698
 42
-0.031599
  0
VERTEX
  8
0
 10
98.730905
 20
393.432395
 42
0.021298
  0
VERTEX
  8
0
 10
100.364730
 20
394.191152
 42
0.039521
  0
VERTEX
  8
0
 10
101.605312
 20
394.962657
 42
0.055432
  0
VERTEX
  8
0
 10
102.336427
 20
395.638469
 42
0.393434
  0
VERTEX
  8
0
 10
102.320667
 20
396.079333
 42
0.159118
  0
VERTEX
  8
0
 10
101.577164
 20
396.456826
 42
0.001924
  0
VERTEX
  8
0
 10
96.158991
 20
397.277737
 42
0.005517
  0
VERTEX
  8
0
 10
89.840796
 20
398.139029
 42
0.003552
  0
VERTEX
  8
0
 10
82.499258
 20
399.004498
 42
-0.004293
  0
VERTEX
  8
0
 10
74.833730
 20
399.919672
 42
-0.004892
  0
VERTEX
  8
0
 10
67.512455
 20
400.930463
 42
-0.004450
  0
VERTEX
  8
0
 10
61.316382
 20
401.904201
 42
-0.027287
  0
VERTEX
  8
0
 10
58.160164
 20
402.607807
 42
-0.070606
  0
VERTEX
  8
0
 10
53.209457
 20
404.788317
 42
-0.056336
  0
VERTEX
  8
0
 10
48.626769
 20
408.407116
 42
-0.054075
  0
VERTEX
  8
0
 10
44.795013
 20
413.128200
 42
-0.053983
  0
VERTEX
  8
0
 10
42.062055
 20
418.563688
 42
-0.012345
  0
VERTEX
  8
0
 10
40.953500
 20
421.765250
 42
-0.056903
  0
VERTEX
  8
0
 10
40.573990
 20
423.687126
 42
-0.079938
  0
VERTEX
  8
0
 10
40.701866
 20
425.317744
 42
-0.039516
  0
VERTEX
  8
0
 10
41.350688
 20
427.296888
 42
-0.114535
  0
VERTEX
  8
0
 10
46.133369
 20
433.941859
 42
-0.024418
  0
VERTEX
  8
0
 10
57.366368
 20
442.841964
 42
-0.022069
  0
VERTEX
  8
0
 10
72.781863
 20
452.877543
 42
-0.012945
  0
VERTEX
  8
0
 10
92.029364
 20
463.569692
 42
0.001621
  0
VERTEX
  8
0
 10
100.155811
 20
467.846113
 42
0.001119
  0
VERTEX
  8
0
 10
109.328239
 20
472.737341
 42
0.001129
  0
VERTEX
  8
0
 10
118.125398
 20
477.479376
 42
0.002313
  0
VERTEX
  8
0
 10
124.995185
 20
481.243730
 42
-0.009949
  0
VERTEX
  8
0
 10
151.853039
 20
495.431754
 42
-0.011158
  0
VERTEX
  8
0
 10
178.256557
 20
507.984480
 42
-0.011395
  0
VERTEX
  8
0
 10
204.668873
 20
519.110572
 42
-0.011406
  0
VERTEX
  8
0
 10
231.552045
 20
529.017843
 42
0.002130
  0
VERTEX
  8
0
 10
255.150487
 20
537.220693
 42
0.005126
  0
VERTEX
  8
0
 10
272.533991
 20
543.547424
 42
0.005736
  0
VERTEX
  8
0
 10
288.583111
 20
549.786522
 42
0.003397
  0
VERTEX
  8
0
 10
307.587917
 20
557.577150
 42
-0.001433
  0
VERTEX
  8
0
 10
318.970732
 20
562.295603
 42
-0.001549
  0
VERTEX
  8
0
 10
330.091451
 20
566.827880
 42
-0.001459
  0
VERTEX
  8
0
 10
339.653717
 20
570.658106
 42
-0.007469
  0
VERTEX
  8
0
 10
345.000000
 20
572.689592
 42
0.006664
  0
VERTEX
  8
0
 10
354.063371
 20
576.116816
 42
0.003293
  0
VERTEX
  8
0
 10
365.486070
 20
580.698223
 42
0.002805
  0
VERTEX
  8
0
 10
376.322880
 20
585.198831
 42
0.016487
  0
VERTEX
  8
0
 10
381.914180
 20
587.778115
 42
0.050012
  0
VERTEX
  8
0
 10
383.472877
 20
588.766508
 42
0.020863
  0
VERTEX
  8
0
 10
385.368045
 20
590.384908
 42
0.020393
  0
VERTEX
  8
0
 10
387.268377
 20
592.300088
 42
0.024861
  0
VERTEX
  8
0
 10
388.877635
 20
594.245887
 42
-0.016147
  0
VERTEX
  8
0
 10
390.330893
 20
596.066739
 42
-0.022012
  0
VERTEX
  8
0
 10
391.762233
 20
597.603479
 42
-0.019682
  0
VERTEX
  8
0
 10
393.022510
 20
598.748505
 42
-0.176334
  0
VERTEX
  8
0
 10
393.713455
 20
599.000000
 42
0.336806
  0
VERTEX
  8
0
 10
394.667359
 20
599.724780
 42
0.076143
  0
VERTEX
  8
0
 10
394.925702
 20
601.879769
 42
0.040745
  0
VERTEX
  8
0
 10
394.515978
 20
605.454301
 42
0.012633
  0
VERTEX
  8
0
 10
393.329709
 20
610.738431
 42
-0.015381
  0
VERTEX
  8
0
 10
392.496362
 20
614.548319
 42
-0.036889
  0
VERTEX
  8
0
 10
392.176788
 20
617.419794
 42
-0.036686
  0
VERTEX
  8
0
 10
392.281832
 20
620.316472
 42
-0.015062
  0
VERTEX
  8
0
 10
392.829709
 20
624.212506
 42
0.025642
  0
VERTEX
  8
0
 10
393.832098
 20
632.627801
 42
0.079328
  0
VERTEX
  8
0
 10
393.313352
 20
638.310066
 42
0.088623
  0
VERTEX
  8
0
 10
391.096373
 20
643.193627
 42
0.037290
  0
VERTEX
  8
0
 10
386.559870
 20
648.832540
 42
-0.014133
  0
VERTEX
  8
0
 10
383.761308
 20
651.999260
 42
-0.079336
  0
VERTEX
  8
0
 10
382.608413
 20
653.935044
 42
-0.080240
  0
VERTEX
  8
0
 10
382.121926
 20
656.124130
 42
-0.014637
  0
VERTEX
  8
0
 10
382.000000
 20
660.288329
 42
-0.030161
  0
VERTEX
  8
0
 10
382.432649
 20
667.454098
 42
-0.026393
  0
VERTEX
  8
0
 10
383.727626
 20
674.848068
 42
-0.026904
  0
VERTEX
  8
0
 10
385.752667
 20
681.891709
 42
-0.035982
  0
VERTEX
  8
0
 10
388.376190
 20
688.000000
 42
0.003050
  0
VERTEX
  8
0
 10
401.019268
 20
712.796690
 42
0.031541
  0
VERTEX
  8
0
 10
405.509210
 20
723.347179
 42
0.059816
  0
VERTEX
  8
0
 10
407.410500
 20
731.857564
 42
0.025082
  0
VERTEX
  8
0
 10
408.000000
 20
743.601405
 42
0.036062
  0
VERTEX
  8
0
 10
407.050669
 20
756.746756
 42
0.028212
  0
VERTEX
  8
0
 10
404.199359
 20
770.769832
 42
0.028497
  0
VERTEX
  8
0
 10
399.842069
 20
784.188260
 42
0.040176
  0
VERTEX
  8
0
 10
394.360170
 20
795.500000
 42
-0.017268
  0
VERTEX
  8
0
 10
390.774379
 20
802.110114
 42
-0.036783
  0
VERTEX
  8
0
 10
388.570406
 20
807.487487
 42
-0.043262
  0
VERTEX
  8
0
 10
387.393825
 20
812.535827
 42
-0.035642
  0
VERTEX
  8
0
 10
387.000000
 20
818.053596
 42
-0.061556
  0
VERTEX
  8
0
 10
388.058104
 20
826.615694
 42
-0.031891
  0
VERTEX
  8
0
 10
391.347767
 20
836.896944
 42
-0.030105
  0
VERTEX
  8
0
 10
396.300872
 20
847.594448
 42
-0.031092
  0
VERTEX
  8
0
 10
402.455811
 20
857.500000
 42
0.017537
  0
VERTEX
  8
0
 10
406.568542
 20
863.735471
 42
0.031979
  0
VERTEX
  8
0
 10
409.405420
 20
869.130899
 42
0.027913
  0
VERTEX
  8
0
 10
411.764558
 20
875.317242
 42
0.010274
  0
VERTEX
  8
0
 10
414.419317
 20
884.280028
 42
0.014228
  0
VERTEX
  8
0
 10
416.977687
 20
894.781540
 42
0.016678
  0
VERTEX
  8
0
 10
418.784079
 20
904.871193
 42
0.017491
  0
VERTEX
  8
0
 10
419.732827
 20
913.554836
 42
0.058736
  0
VERTEX
  8
0
 10
419.484550
 20
919.260143
 42
0.022676
  0
VERTEX
  8
0
 10
418.505606
 20
923.940926
 42
0.003863
  0
VERTEX
  8
0
 10
416.170584
 20
932.745477
 42
0.004483
  0
VERTEX
  8
0
 10
413.454171
 20
942.338959
 42
0.006280
  0
VERTEX
  8
0
 10
410.843738
 20
950.854524
 42
-0.009812
  0
VERTEX
  8
0
 10
409.665851
 20
954.796092
 42
-0.058523
  0
VERTEX
  8
0
 10
409.337537
 20
956.913152
 42
-0.076899
  0
VERTEX
  8
0
 10
409.557472
 20
958.791596
 42
-0.023694
  0
VERTEX
  8
0
 10
410.449979
 20
961.508193
 42
-0.044602
  0
VERTEX
  8
0
 10
411.476025
 20
963.610998
 42
-0.014664
  0
VERTEX
  8
0
 10
413.342632
 20
966.507679
 42
-0.014476
  0
VERTEX
  8
0
 10
415.612608
 20
969.616435
 42
-0.015894
  0
VERTEX
  8
0
 10
417.991720
 20
972.490621
 42
0.017066
  0
VERTEX
  8
0
 10
420.885991
 20
976.003886
 42
0.025353
  0
VERTEX
  8
0
 10
423.150373
 20
979.283585
 42
0.026808
  0
VERTEX
  8
0
 10
424.978248
 20
982.629717
 42
0.022777
  0
VERTEX
  8
0
 10
426.549235
 20
986.336951
 42
-0.000054
  0
VERTEX
  8
0
 10
427.768037
 20
989.620882
 42
-0.000030
  0
VERTEX
  8
0
 10
429.245233
 20
993.598979
 42
-0.000030
  0
VERTEX
  8
0
 10
430.734859
 20
997.609065
 42
-0.000050
  0
VERTEX
  8
0
 10
431.995107
 20
1001.000000
 42
0.015490
  0
VERTEX
  8
0
 10
434.015892
 20
1006.998247
 42
0.025124
  0
VERTEX
  8
0
 10
435.313922
 20
1012.217889
 42
0.027320
  0
VERTEX
  8
0
 10
436.011584
 20
1017.209254
 42
0.023640
  0
VERTEX
  8
0
 10
436.207131
 20
1022.495231
 42
0.037828
  0
VERTEX
  8
0
 10
435.809224
 20
1027.115212
 42
0.061552
  0
VERTEX
  8
0
 10
434.705711
 20
1030.888996
 42
0.047391
  0
VERTEX
  8
0
 10
432.496012
 20
1034.913289
 42
0.014193
  0
VERTEX
  8
0
 10
428.396960
 20
1040.591831
 42
-0.022649
  0
VERTEX
  8
0
 10
424.715931
 20
1045.877326
 42
-0.072243
  0
VERTEX
  8
0
 10
422.971510
 20
1049.796127
 42
-0.036568
  0
VERTEX
  8
0
 10
421.861765
 20
1055.229714
 42
-0.002626
  0
VERTEX
  8
0
 10
419.972257
 20
1070.500000
 42
-0.011382
  0
VERTEX
  8
0
 10
419.480573
 20
1075.654725
 42
-0.015999
  0
VERTEX
  8
0
 10
419.294252
 20
1080.270962
 42
-0.016601
  0
VERTEX
  8
0
 10
419.405685
 20
1084.753845
 42
-0.013853
  0
VERTEX
  8
0
 10
419.813687
 20
1089.500000
 42
0.037611
  0
VERTEX
  8
0
 10
420.228197
 20
1100.325461
 42
0.078844
  0
VERTEX
  8
0
 10
418.606151
 20
1108.569275
 42
0.063127
  0
VERTEX
  8
0
 10
414.237049
 20
1117.008325
 42
0.017383
  0
VERTEX
  8
0
 10
405.308229
 20
1129.036396
 42
-0.009269
  0
VERTEX
  8
0
 10
390.411366
 20
1148.438246
 42
-0.023856
  0
VERTEX
  8
0
 10
380.600220
 20
1163.137240
 42
-0.032384
  0
VERTEX
  8
0
 10
374.736112
 20
1174.508882
 42
-0.103206
  0
VERTEX
  8
0
 10
373.000000
 20
1182.830214
 42
-0.021829
  0
VERTEX
  8
0
 10
373.131964
 20
1185.851504
 42
-0.049250
  0
VERTEX
  8
0
 10
373.554605
 20
1188.100955
 42
-0.075107
  0
VERTEX
  8
0
 10
374.216112
 20
1189.527966
 42
-0.251827
  0
VERTEX
  8
0
 10
375.093894
 20
1190.000000
 42
-0.174632
  0
VERTEX
  8
0
 10
375.670907
 20
1189.792131
 42
-0.002918
  0
VERTEX
  8
0
 10
378.315294
 20
1187.576562
 42
-0.007130
  0
VERTEX
  8
0
 10
381.368859
 20
1184.911929
 42
-0.004632
  0
VERTEX
  8
0
 10
384.824737
 20
1181.750000
 42
0.010886
  0
VERTEX
  8
0
 10
395.820447
 20
1171.939364
 42
0.019151
  0
VERTEX
  8
0
 10
405.378272
 20
1164.391452
 42
0.014298
  0
VERTEX
  8
0
 10
413.190063
 20
1159.029399
 42
0.353272
  0
VERTEX
  8
0
 10
415.622045
 20
1159.288711
 42
0.333532
  0
VERTEX
  8
0
 10
415.925267
 20
1161.416706
 42
0.037410
  0
VERTEX
  8
0
 10
413.087986
 20
1165.774805
 42
0.027090
  0
VERTEX
  8
0
 10
407.898885
 20
1171.860360
 42
0.008738
  0
VERTEX
  8
0
 10
399.580483
 20
1180.307881
 42
0.016383
  0
VERTEX
  8
0
 10
387.267101
 20
1191.615858
 42
0.037257
  0
VERTEX
  8
0
 10
377.109281
 20
1199.109831
 42
0.036484
  0
VERTEX
  8
0
 10
365.821064
 20
1205.104801
 42
0.015119
  0
VERTEX
  8
0
 10
349.796327
 20
1211.599003
 42
-0.005539
  0
VERTEX
  8
0
 10
335.022540
 20
1217.259242
 42
-0.022533
  0
VERTEX
  8
0
 10
326.244268
 20
1221.200589
 42
-0.037496
  0
VERTEX
  8
0
 10
320.721566
 20
1224.526305
 42
-0.093418
  0
VERTEX
  8
0
 10
317.461683
 20
1227.904919
 42
-0.045092
  0
VERTEX
  8
0
 10
315.458569
 20
1231.650477
 42
-0.035097
  0
VERTEX
  8
0
 10
313.957778
 20
1236.020490
 42
-0.036016
  0
VERTEX
  8
0
 10
313.158529
 20
1240.206959
 42
-0.090885
  0
VERTEX
  8
0
 10
313.358116
 20
1243.290710
 42
-0.082948
  0
VERTEX
  8
0
 10
314.751579
 20
1246.484368
 42
-0.049404
  0
VERTEX
  8
0
 10
317.352466
 20
1249.729313
 42
-0.050104
  0
VERTEX
  8
0
 10
320.339641
 20
1252.226427
 42
-0.150395
  0
VERTEX
  8
0
 10
322.853592
 20
1252.997478
 42
-0.060470
  0
VERTEX
  8
0
 10
327.591436
 20
1252.417802
 42
-0.011208
  0
VERTEX
  8
0
 10
336.081506
 20
1250.114178
 42
-0.012559
  0
VERTEX
  8
0
 10
344.644272
 20
1247.347820
 42
-0.035242
  0
VERTEX
  8
0
 10
350.424246
 20
1244.849015
 42
0.014403
  0
VERTEX
  8
0
 10
357.242228
 20
1241.558019
 42
0.005855
  0
VERTEX
  8
0
 10
366.698565
 20
1237.457077
 42
0.002442
  0
VERTEX
  8
0
 10
376.392968
 20
1233.442660
 42
0.097234
  0
VERTEX
  8
0
 10
378.647718
 20
1233.000000
 42
0.135194
  0
VERTEX
  8
0
 10
379.163399
 20
1233.142030
 42
0.100382
  0
VERTEX
  8
0
 10
379.602767
 20
1233.541291
 42
0.086892
  0
VERTEX
  8
0
 10
379.898468
 20
1234.138511
 42
0.071721
  0
VERTEX
  8
0
 10
380.000000
 20
1234.842692
 42
0.202997
  0
VERTEX
  8
0
 10
379.524890
 20
1235.964705
 42
0.034398
  0
VERTEX
  8
0
 10
377.708367
 20
1237.497611
 42
0.025309
  0
VERTEX
  8
0
 10
374.766859
 20
1239.431310
 42
0.008290
  0
VERTEX
  8
0
 10
370.250000
 20
1241.983785
 42
-0.003409
  0
VERTEX
  8
0
 10
358.837835
 20
1248.286602
 42
-0.010738
  0
VERTEX
  8
0
 10
351.305620
 20
1252.729158
 42
-0.014909
  0
VERTEX
  8
0
 10
345.450517
 20
1256.600329
 42
-0.014545
  0
VERTEX
  8
0
 10
339.786906
 20
1260.844358
 42
-0.032910
  0
VERTEX
  8
0
 10
328.653508
 20
1270.968755
 42
-0.075058
  0
VERTEX
  8
0
 10
322.096676
 20
1280.207817
 42
-0.116462
  0
VERTEX
  8
0
 10
320.167621
 20
1288.247750
 42
-0.177610
  0
VERTEX
  8
0
 10
322.588894
 20
1294.923275
 42
-0.034352
  0
VERTEX
  8
0
 10
324.219700
 20
1296.611217
 42
-0.091427
  0
VERTEX
  8
0
 10
325.641143
 20
1297.485819
 42
-0.074694
  0
VERTEX
  8
0
 10
327.448346
 20
1297.890193
 42
-0.017757
  0
VERTEX
  8
0
 10
330.539280
 20
1298.000000
 42
-0.081053
  0
VERTEX
  8
0
 10
339.512326
 20
1296.535793
 42
-0.019034
  0
VERTEX
  8
0
 10
353.790741
 20
1291.135776
 42
-0.018264
  0
VERTEX
  8
0
 10
370.590898
 20
1283.305349
 42
-0.013699
  0
VERTEX
  8
0
 10
388.500000
 20
1273.519799
 42
0.003410
  0
VERTEX
  8
0
 10
406.940844
 20
1262.945292
 42
0.017432
  0
VERTEX
  8
0
 10
417.420861
 20
1257.502948
 42
0.030904
  0
VERTEX
  8
0
 10
424.335135
 20
1254.722631
 42
0.104446
  0
VERTEX
  8
0
 10
429.146549
 20
1254.179537
 42
0.091370
  0
VERTEX
  8
0
 10
431.835372
 20
1254.946818
 42
0.278156
  0
VERTEX
  8
0
 10
432.816223
 20
1256.483857
 42
0.173584
  0
VERTEX
  8
0
 10
432.075332
 20
1258.732039
 42
0.040111
  0
VERTEX
  8
0
 10
429.338019
 20
1261.716294
 42
0.062587
  0
VERTEX
  8
0
 10
421.428802
 20
1267.402735
 42
0.003836
  0
VERTEX
  8
0
 10
395.766570
 20
1281.112306
 42
0.005490
  0
VERTEX
  8
0
 10
370.335139
 20
1294.094772
 42
0.030679
  0
VERTEX
  8
0
 10
356.246869
 20
1300.045970
 42
-0.054943
  0
VERTEX
  8
0
 10
351.103628
 20
1302.518544
 42
-0.037104
  0
VERTEX
  8
0
 10
345.847050
 20
1306.367908
 42
-0.033827
  0
VERTEX
  8
0
 10
340.711753
 20
1311.386195
 42
-0.027843
  0
VERTEX
  8
0
 10
335.930928
 20
1317.375952
 42
-0.023785
  0
VERTEX
  8
0
 10
332.182968
 20
1323.218276
 42
-0.081375
  0
VERTEX
  8
0
 10
330.596363
 20
1327.427877
 42
-0.096042
  0
VERTEX
  8
0
 10
330.569475
 20
1331.534290
 42
-0.041196
  0
VERTEX
  8
0
 10
332.023904
 20
1336.845406
 42
-0.030553
  0
VERTEX
  8
0
 10
334.290200
 20
1342.049394
 42
-0.118969
  0
VERTEX
  8
0
 10
336.559585
 20
1344.696962
 42
-0.108219
  0
VERTEX
  8
0
 10
339.905432
 20
1346.150127
 42
-0.023098
  0
VERTEX
  8
0
 10
346.213614
 20
1347.090309
 42
-0.025184
  0
VERTEX
  8
0
 10
352.956680
 20
1347.437262
 42
-0.028925
  0
VERTEX
  8
0
 10
359.392723
 20
1347.071408
 42
-0.028940
  0
VERTEX
  8
0
 10
365.740620
 20
1345.965525
 42
-0.025260
  0
VERTEX
  8
0
 10
372.219699
 20
1344.096438
 42
-0.028620
  0
VERTEX
  8
0
 10
379.833953
 20
1340.979104
 42
-0.008692
  0
VERTEX
  8
0
 10
390.995411
 20
1335.404632
 42
-0.009011
  0
VERTEX
  8
0
 10
402.234270
 20
1329.285162
 42
-0.020217
  0
VERTEX
  8
0
 10
410.479135
 20
1324.149819
 42
0.000445
  0
VERTEX
  8
0
 10
414.810897
 20
1321.207925
 42
0.000112
  0
VERTEX
  8
0
 10
421.871996
 20
1316.423900
 42
0.000114
  0
VERTEX
  8
0
 10
429.946124
 20
1310.958860
 42
0.000115
  0
VERTEX
  8
0
 10
438.000000
 20
1305.512919
 42
-0.000084
  0
VERTEX
  8
0
 10
445.905599
 20
1300.167963
 42
-0.000093
  0
VERTEX
  8
0
 10
453.534375
 20
1295.006223
 42
-0.000086
  0
VERTEX
  8
0
 10
460.038991
 20
1290.601700
 42
-0.000489
  0
VERTEX
  8
0
 10
463.500000
 20
1288.252308
 42
0.015174
  0
VERTEX
  8
0
 10
470.154618
 20
1284.015019
 42
0.003692
  0
VERTEX
  8
0
 10
481.394643
 20
1277.440290
 42
0.000904
  0
VERTEX
  8
0
 10
493.652472
 20
1270.420629
 42
0.130298
  0
VERTEX
  8
0
 10
495.239176
 20
1270.000000
 42
0.633809
  0
VERTEX
  8
0
 10
495.856020
 20
1271.306940
 42
0.037868
  0
VERTEX
  8
0
 10
491.869716
 20
1275.463098
 42
0.020507
  0
VERTEX
  8
0
 10
484.085432
 20
1281.881800
 42
0.006932
  0
VERTEX
  8
0
 10
472.251319
 20
1290.595204
 42
0.000794
  0
VERTEX
  8
0
 10
436.426776
 20
1316.128525
 42
0.004143
  0
VERTEX
  8
0
 10
416.546112
 20
1330.004177
 42
0.007087
  0
VERTEX
  8
0
 10
403.708552
 20
1338.541915
 42
0.025757
  0
VERTEX
  8
0
 10
395.215450
 20
1343.418442
 42
-0.056810
  0
VERTEX
  8
0
 10
387.991904
 20
1348.184298
 42
-0.038598
  0
VERTEX
  8
0
 10
380.939476
 20
1355.075914
 42
-0.039062
  0
VERTEX
  8
0
 10
375.170382
 20
1362.797141
 42
-0.068233
  0
VERTEX
  8
0
 10
371.866064
 20
1370.052702
 42
-0.034663
  0
VERTEX
  8
0
 10
371.331354
 20
1372.423831
 42
-0.082853
  0
VERTEX
  8
0
 10
371.354421
 20
1374.222078
 42
-0.059727
  0
VERTEX
  8
0
 10
371.975865
 20
1376.249208
 42
-0.011688
  0
VERTEX
  8
0
 10
373.604509
 20
1379.707287
 42
-0.039815
  0
VERTEX
  8
0
 10
376.392970
 20
1384.326435
 42
-0.121284
  0
VERTEX
  8
0
 10
379.160117
 20
1386.689051
 42
-0.104202
  0
VERTEX
  8
0
 10
382.961578
 20
1387.690791
 42
-0.025210
  0
VERTEX
  8
0
 10
389.500000
 20
1387.688129
 42
-0.039037
  0
VERTEX
  8
0
 10
397.370958
 20
1386.668293
 42
-0.012355
  0
VERTEX
  8
0
 10
408.908261
 20
1383.947480
 42
-0.012289
  0
VERTEX
  8
0
 10
420.274334
 20
1380.668267
 42
-0.040433
  0
VERTEX
  8
0
 10
427.500000
 20
1377.729497
 42
-0.027137
  0
VERTEX
  8
0
 10
437.693741
 20
1371.874503
 42
-0.005652
  0
VERTEX
  8
0
 10
454.877983
 20
1360.445047
 42
-0.006149
  0
VERTEX
  8
0
 10
472.084417
 20
1348.405621
 42
-0.018118
  0
VERTEX
  8
0
 10
483.500000
 20
1339.563161
 42
0.004270
  0
VERTEX
  8
0
 10
485.877774
 20
1337.613659
 42
0.002088
  0
VERTEX
  8
0
 10
488.940625
 20
1335.166926
 42
0.002071
  0
VERTEX
  8
0
 10
492.146511
 20
1332.649317
 42
0.003001
  0
VERTEX
  8
0
 10
495.000000
 20
1330.454872
 42
-0.015438
  0
VERTEX
  8
0
 10
503.020321
 20
1323.963214
 42
-0.006134
  0
VERTEX
  8
0
 10
513.636057
 20
1314.584887
 42
-0.004849
  0
VERTEX
  8
0
 10
527.091580
 20
1302.161085
 42
-0.002265
  0
VERTEX
  8
0
 10
544.292831
 20
1285.819333
 42
0.004372
  0
VERTEX
  8
0
 10
557.323832
 20
1273.543524
 42
0.017066
  0
VERTEX
  8
0
 10
565.696420
 20
1266.307768
 42
0.019577
  0
VERTEX
  8
0
 10
571.451145
 20
1262.028362
 42
0.360972
  0
VERTEX
  8
0
 10
573.557204
 20
1262.223871
 42
0.333711
  0
VERTEX
  8
0
 10
573.789321
 20
1263.856623
 42
0.020065
  0
VERTEX
  8
0
 10
571.064770
 20
1268.370176
 42
0.023312
  0
VERTEX
  8
0
 10
567.029617
 20
1273.906468
 42
0.013819
  0
VERTEX
  8
0
 10
561.740335
 20
1280.134351
 42
0.018192
  0
VERTEX
  8
0
 10
550.899080
 20
1291.357355
 42
0.004603
  0
VERTEX
  8
0
 10
532.461566
 20
1308.780292
 42
0.004611
  0
VERTEX
  8
0
 10
513.700281
 20
1325.865858
 42
0.018044
  0
VERTEX
  8
0
 10
501.648786
 20
1335.881063
 42
-0.029574
  0
VERTEX
  8
0
 10
493.435204
 20
1343.033183
 42
-0.020310
  0
VERTEX
  8
0
 10
484.971361
 20
1352.034678
 42
-0.020123
  0
VERTEX
  8
0
 10
477.765415
 20
1361.060047
 42
-0.058191
  0
VERTEX
  8
0
 10
473.816891
 20
1368.000000
 42
0.003659
  0
VERTEX
  8
0
 10
473.016383
 20
1369.850175
 42
0.003660
  0
VERTEX
  8
0
 10
472.188983
 20
1371.688202
 42
0.003580
  0
VERTEX
  8
0
 10
471.443588
 20
1373.281988
 42
0.014488
  0
VERTEX
  8
0
 10
470.954432
 20
1374.236431
 42
-0.124996
  0
VERTEX
  8
0
 10
469.876224
 20
1378.391811
 42
-0.122749
  0
VERTEX
  8
0
 10
470.899435
 20
1382.589311
 42
-0.114818
  0
VERTEX
  8
0
 10
473.861103
 20
1386.020997
 42
-0.099763
  0
VERTEX
  8
0
 10
478.184668
 20
1388.010576
 42
-0.045672
  0
VERTEX
  8
0
 10
483.359700
 20
1388.745825
 42
-0.018278
  0
VERTEX
  8
0
 10
490.522036
 20
1388.841095
 42
-0.018420
  0
VERTEX
  8
0
 10
497.782848
 20
1388.404288
 42
-0.038512
  0
SEQEND
  0
POLYLINE
  8
0
 66
1
 70
1
  0
VERTEX
  8
0
 10
271.495782
 20
485.993176
 42
0.270280
  0
VERTEX
  8
0
 10
271.454161
 20
484.369483
 42
0.050253
  0
VERTEX
  8
0
 10
273.214743
 20
481.811119
 42
0.049568
  0
VERTEX
  8
0
 10
275.739747
 20
479.369650
 42
0.080813
  0
VERTEX
  8
0
 10
278.337172
 20
477.922719
 42
-0.027240
  0
VERTEX
  8
0
 10
280.107656
 20
477.171160
 42
-0.122968
  0
VERTEX
  8
0
 10
280.959622
 20
476.452661
 42
-0.148122
  0
VERTEX
  8
0
 10
281.289772
 20
475.493071
 42
-0.045779
  0
VERTEX
  8
0
 10
281.206022
 20
473.950360
 42
0.057159
  0
VERTEX
  8
0
 10
281.159858
 20
472.486892
 42
0.087352
  0
VERTEX
  8
0
 10
281.481780
 20
471.261593
 42
0.075975
  0
VERTEX
  8
0
 10
282.244935
 20
470.103967
 42
0.033895
  0
VERTEX
  8
0
 10
283.560918
 20
468.831653
 42
-0.002805
  0
VERTEX
  8
0
 10
285.010815
 20
467.594538
 42
-0.000797
  0
VERTEX
  8
0
 10
287.250830
 20
465.655203
 42
-0.000803
  0
VERTEX
  8
0
 10
289.773279
 20
463.457186
 42
-0.000850
  0
VERTEX
  8
0
 10
292.241031
 20
461.292442
 42
0.008940
  0
VERTEX
  8
0
 10
294.639502
 20
459.256187
 42
0.010969
  0
VERTEX
  8
0
 10
296.953562
 20
457.445043
 42
0.009528
  0
VERTEX
  8
0
 10
298.950024
 20
456.010412
 42
0.074313
  0
VERTEX
  8
0
 10
299.975882
 20
455.507655
 42
-0.075936
  0
VERTEX
  8
0
 10
300.739660
 20
455.130276
 42
-0.122033
  0
VERTEX
  8
0
 10
301.214753
 20
454.585787
 42
-0.116973
  0
VERTEX
  8
0
 10
301.392528
 20
453.864604
 42
-0.066241
  0
VERTEX
  8
0
 10
301.281115
 20
452.966982
 42
0.144157
  0
VERTEX
  8
0
 10
301.349697
 20
450.723678
 42
0.092316
  0
VERTEX
  8
0
 10
302.610548
 20
448.421252
 42
0.067887
  0
VERTEX
  8
0
 10
305.051951
 20
446.146359
 42
0.035613
  0
VERTEX
  8
0
 10
308.611632
 20
443.996360
 42
0.028001
  0
VERTEX
  8
0
 10
311.533632
 20
442.704901
 42
0.043987
  0
VERTEX
  8
0
 10
314.175923
 20
441.967198
 42
0.034844
  0
VERTEX
  8
0
 10
317.316445
 20
441.605451
 42
0.011256
  0
VERTEX
  8
0
 10
322.000000
 20
441.500000
 42
0.011650
  0
VERTEX
  8
0
 10
326.769147
 20
441.611134
 42
0.036175
  0
VERTEX
  8
0
 10
329.961642
 20
441.992574
 42
0.043313
  0
VERTEX
  8
0
 10
332.744237
 20
442.786118
 42
0.023040
  0
VERTEX
  8
0
 10
336.031072
 20
444.216437
 42
-0.006264
  0
VERTEX
  8
0
 10
338.674574
 20
445.473866
 42
-0.002972
  0
VERTEX
  8
0
 10
342.109909
 20
447.030795
 42
-0.002945
  0
VERTEX
  8
0
 10
345.722410
 20
448.616759
 42
-0.004169
  0
VERTEX
  8
0
 10
348.957950
 20
449.982660
 42
0.023936
  0
VERTEX
  8
0
 10
355.688565
 20
453.142950
 42
0.060089
  0
VERTEX
  8
0
 10
360.134984
 20
456.230025
 42
0.053099
  0
VERTEX
  8
0
 10
364.027478
 20
460.512025
 42
0.015506
  0
VERTEX
  8
0
 10
369.066165
 20
467.866359
 42
-0.007696
  0
VERTEX
  8
0
 10
372.188135
 20
472.579299
 42
-0.024356
  0
VERTEX
  8
0
 10
374.475967
 20
475.594082
 42
-0.033725
  0
VERTEX
  8
0
 10
376.241427
 20
477.432042
 42
-0.185137
  0
VERTEX
  8
0
 10
377.500000
 20
477.923040
 42
-0.080931
  0
VERTEX
  8
0
 10
381.092409
 20
477.359226
 42
-0.025923
  0
VERTEX
  8
0
 10
386.147626
 20
475.404182
 42
-0.023368
  0
VERTEX
  8
0
 10
392.001455
 20
472.448402
 42
-0.016938
  0
VERTEX
  8
0
 10
398.235544
 20
468.641800
 42
-0.015762
  0
VERTEX
  8
0
 10
402.952057
 20
465.320153
 42
-0.026056
  0
VERTEX
  8
0
 10
406.685751
 20
462.193126
 42
-0.024675
  0
VERTEX
  8
0
 10
410.209862
 20
458.574404
 42
-0.012474
  0
VERTEX
  8
0
 10
414.300771
 20
453.696413
 42
-0.002572
  0
VERTEX
  8
0
 10
421.756675
 20
444.242262
 42
-0.029406
  0
VERTEX
  8
0
 10
424.450472
 20
440.336974
 42
-0.092429
  0
VERTEX
  8
0
 10
425.327578
 20
438.011718
 42
-0.207925
  0
VERTEX
  8
0
 10
424.899928
 20
436.214753
 42
-0.029478
  0
VERTEX
  8
0
 10
421.246632
 20
431.900108
 42
-0.023000
  0
VERTEX
  8
0
 10
416.807574
 20
427.653215
 42
-0.023043
  0
VERTEX
  8
0
 10
412.009003
 20
423.842085
 42
-0.030046
  0
VERTEX
  8
0
 10
407.273854
 20
420.839932
 42
0.024317
  0
VERTEX
  8
0
 10
402.089083
 20
417.635345
 42
0.043143
  0
VERTEX
  8
0
 10
398.212574
 20
414.445927
 42
0.055507
  0
VERTEX
  8
0
 10
395.873162
 20
411.583553
 42
0.239611
  0
VERTEX
  8
0
 10
395.652077
 20
409.464290
 42
0.174101
  0
VERTEX
  8
0
 10
396.853959
 20
408.069248
 42
0.098317
  0
VERTEX
  8
0
 10
398.999714
 20
407.360807
 42
0.080871
  0
VERTEX
  8
0
 10
401.661136
 20
407.463334
 42
0.069089
  0
VERTEX
  8
0
 10
404.312142
 20
408.394696
 42
-0.060562
  0
VERTEX
  8
0
 10
406.261940
 20
409.117132
 42
-0.009717
  0
VERTEX
  8
0
 10
410.235442
 20
409.982454
 42
-0.010623
  0
VERTEX
  8
0
 10
414.980532
 20
410.815289
 42
-0.009143
  0
VERTEX
  8
0
 10
420.000000
 20
411.493051
 42
0.002640
  0
VERTEX
  8
0
 10
424.942744
 20
412.095115
 42
0.003455
  0
VERTEX
  8
0
 10
429.453345
 20
412.700434
 42
0.002553
  0
VERTEX
  8
0
 10
433.224698
 20
413.252758
 42
0.032212
  0
VERTEX
  8
0
 10
434.628407
 20
413.559185
 42
0.000000
  0
VERTEX
  8
0
 10
436.756815
 20
414.169668
 42
0.000000
  0
VERTEX
  8
0
 10
435.103603
 20
406.834834
 42
0.000000
  0
VERTEX
  8
0
 10
433.450392
 20
399.500000
 42
0.000000
  0
VERTEX
  8
0
 10
425.475196
 20
394.715619
 42
0.017059
  0
VERTEX
  8
0
 10
419.282192
 20
390.706957
 42
0.034984
  0
VERTEX
  8
0
 10
414.783849
 20
387.080304
 42
0.045516
  0
VERTEX
  8
0
 10
411.874785
 20
383.838572
 42
0.132536
  0
VERTEX
  8
0
 10
410.777117
 20
381.065114
 42
0.233090
  0
VERTEX
  8
0
 10
411.567894
 20
378.862452
 42
0.139022
  0
VERTEX
  8
0
 10
414.075633
 20
377.518914
 42
0.067217
  0
VERTEX
  8
0
 10
418.670140
 20
377.144381
 42
0.020031
  0
VERTEX
  8
0
 10
425.692709
 20
377.799024
 42
0.016201
  0
VERTEX
  8
0
 10
430.312657
 20
378.570246
 42
0.029084
  0
VERTEX
  8
0
 10
434.030851
 20
379.543291
 42
0.028942
  0
VERTEX
  8
0
 10
437.623123
 20
380.944782
 42
0.015866
  0
VERTEX
  8
0
 10
441.853873
 20
383.049218
 42
0.013029
  0
VERTEX
  8
0
 10
448.148890
 20
386.648196
 42
0.056112
  0
VERTEX
  8
0
 10
451.557987
 20
389.280541
 42
0.083154
  0
VERTEX
  8
0
 10
453.605274
 20
392.057794
 42
0.052343
  0
VERTEX
  8
0
 10
455.046361
 20
395.832242
 42
0.000000
  0
VERTEX
  8
0
 10
456.288734
 20
400.500000
 42
0.000000
  0
VERTEX
  8
0
 10
457.287161
 20
397.256508
 42
-0.053625
  0
VERTEX
  8
0
 10
457.674433
 20
395.258692
 42
-0.081232
  0
VERTEX
  8
0
 10
457.537153
 20
393.497345
 42
-0.051686
  0
VERTEX
  8
0
 10
456.772595
 20
391.357580
 42
-0.010811
  0
VERTEX
  8
0
 10
454.974074
 20
387.799979
 42
-0.017166
  0
VERTEX
  8
0
 10
453.498436
 20
385.246599
 42
-0.015538
  0
VERTEX
  8
0
 10
451.803629
 20
382.712203
 42
-0.015775
  0
VERTEX
  8
0
 10
450.144141
 20
380.538497
 42
-0.046959
  0
VERTEX
  8
0
 10
448.831280
 20
379.204578
 42
0.046841
  0
VERTEX
  8
0
 10
447.116489
 20
377.463095
 42
0.085300
  0
VERTEX
  8
0
 10
446.138007
 20
375.729598
 42
0.185079
  0
VERTEX
  8
0
 10
446.164579
 20
374.539776
 42
0.304536
  0
VERTEX
  8
0
 10
446.968615
 20
374.000000
 42
-0.206533
  0
VERTEX
  8
0
 10
447.283894
 20
373.863967
 42
-0.140718
  0
VERTEX
  8
0
 10
447.465497
 20
373.512158
 42
-0.091132
  0
VERTEX
  8
0
 10
447.473633
 20
372.975483
 42
-0.049993
  0
VERTEX
  8
0
 10
447.299945
 20
372.339260
 42
0.040651
  0
VERTEX
  8
0
 10
447.062048
 20
371.527712
 42
0.279073
  0
VERTEX
  8
0
 10
447.195151
 20
371.151916
 42
0.224065
  0
VERTEX
  8
0
 10
447.626120
 20
371.044052
 42
0.028246
  0
VERTEX
  8
0
 10
448.581330
 20
371.290076
 42
-0.005821
  0
VERTEX
  8
0
 10
449.736373
 20
371.643473
 42
-0.000810
  0
VERTEX
  8
0
 10
452.139516
 20
372.344023
 42
-0.000927
  0
VERTEX
  8
0
 10
454.987820
 20
373.163617
 42
-0.000786
  0
VERTEX
  8
0
 10
458.000000
 20
374.019201
 42
0.011622
  0
VERTEX
  8
0
 10
464.047273
 20
375.879398
 42
0.018564
  0
VERTEX
  8
0
 10
469.108196
 20
377.777356
 42
0.017668
  0
VERTEX
  8
0
 10
472.982680
 20
379.560128
 42
0.138537
  0
VERTEX
  8
0
 10
474.429967
 20
380.886685
 42
-0.119693
  0
VERTEX
  8
0
 10
475.420205
 20
381.864274
 42
-0.379507
  0
VERTEX
  8
0
 10
476.261947
 20
381.707000
 42
-0.137110
  0
VERTEX
  8
0
 10
476.843459
 20
380.284760
 42
-0.028910
  0
VERTEX
  8
0
 10
477.000000
 20
377.579678
 42
0.063582
  0
VERTEX
  8
0
 10
477.577176
 20
373.059206
 42
0.013948
  0
VERTEX
  8
0
 10
479.760786
 20
365.518913
 42
0.015250
  0
VERTEX
  8
0
 10
482.578697
 20
357.559723
 42
0.024414
  0
VERTEX
  8
0
 10
485.514726
 20
350.977865
 42
-0.040273
  0
VERTEX
  8
0
 10
488.639836
 20
343.329639
 42
-0.024010
  0
VERTEX
  8
0
 10
491.163360
 20
333.820076
 42
-0.020004
  0
VERTEX
  8
0
 10
493.166318
 20
322.247099
 42
-0.011643
  0
VERTEX
  8
0
 10
494.686915
 20
308.233492
 42
-0.003599
  0
VERTEX
  8
0
 10
495.647269
 20
295.882919
 42
-0.021511
  0
VERTEX
  8
0
 10
495.824057
 20
289.429666
 42
-0.024820
  0
VERTEX
  8
0
 10
495.427725
 20
283.364892
 42
-0.005772
  0
VERTEX
  8
0
 10
494.139931
 20
273.233492
 42
-0.006140
  0
VERTEX
  8
0
 10
491.535665
 20
256.031903
 42
-0.027900
  0
VERTEX
  8
0
 10
489.341665
 20
246.142662
 42
-0.034544
  0
VERTEX
  8
0
 10
486.278237
 20
237.568910
 42
-0.012938
  0
VERTEX
  8
0
 10
480.858651
 20
226.000000
 42
-0.030947
  0
VERTEX
  8
0
 10
470.051891
 20
207.378951
 42
-0.038672
  0
VERTEX
  8
0
 10
457.722811
 20
191.656859
 42
-0.041616
  0
VERTEX
  8
0
 10
444.001440
 20
178.994457
 42
-0.048635
  0
VERTEX
  8
0
 10
429.035422
 20
169.508943
 42
-0.039459
  0
VERTEX
  8
0
 10
413.290061
 20
163.058175
 42
-0.034725
  0
VERTEX
  8
0
 10
396.041333
 20
158.827322
 42
-0.028152
  0
VERTEX
  8
0
 10
375.271467
 20
156.431899
 42
-0.013588
  0
VERTEX
  8
0
 10
348.500000
 20
155.592077
 42
0.011927
  0
VERTEX
  8
0
 10
330.997703
 20
155.101233
 42
0.016446
  0
VERTEX
  8
0
 10
315.330869
 20
153.769838
 42
0.016231
  0
VERTEX
  8
0
 10
299.626824
 20
151.394393
 42
0.011168
  0
VERTEX
  8
0
 10
282.000000
 20
147.730915
 42
-0.021107
  0
VERTEX
  8
0
 10
270.697437
 20
145.615238
 42
-0.026369
  0
VERTEX
  8
0
 10
260.067033
 20
144.654737
 42
-0.028944
  0
VERTEX
  8
0
 10
251.036104
 20
144.839794
 42
-0.081862
  0
VERTEX
  8
0
 10
244.932585
 20
146.344567
 42
-0.051337
  0
VERTEX
  8
0
 10
240.799730
 20
148.643663
 42
-0.010930
  0
VERTEX
  8
0
 10
234.153298
 20
153.511168
 42
-0.010968
  0
VERTEX
  8
0
 10
226.451459
 20
159.687333
 42
-0.008745
  0
VERTEX
  8
0
 10
218.413368
 20
166.671127
 42
0.016384
  0
VERTEX
  8
0
 10
211.992780
 20
172.079712
 42
0.021392
  0
VERTEX
  8
0
 10
205.763762
 20
176.569232
 42
0.023592
  0
VERTEX
  8
0
 10
199.780601
 20
180.111610
 42
0.032837
  0
VERTEX
  8
0
 10
194.102860
 20
182.658946
 42
-0.019942
  0
VERTEX
  8
0
 10
191.804799
 20
183.619630
 42
-0.006819
  0
VERTEX
  8
0
 10
188.551169
 20
185.189225
 42
-0.006766
  0
VERTEX
  8
0
 10
185.003497
 20
187.021105
 42
-0.007763
  0
VERTEX
  8
0
 10
181.667077
 20
188.868610
 42
-0.004060
  0
VERTEX
  8
0
 10
176.722105
 20
191.761669
 42
-0.066215
  0
VERTEX
  8
0
 10
175.218424
 20
192.952261
 42
-0.292661
  0
VERTEX
  8
0
 10
175.029814
 20
193.885452
 42
-0.132742
  0
VERTEX
  8
0
 10
175.800037
 20
194.933149
 42
0.110289
  0
VERTEX
  8
0
 10
178.470019
 20
198.247172
 42
0.069071
  0
VERTEX
  8
0
 10
180.045948
 20
202.993625
 42
0.049105
  0
VERTEX
  8
0
 10
180.597234
 20
209.500966
 42
0.020530
  0
VERTEX
  8
0
 10
180.115780
 20
218.298681
 42
0.009966
  0
VERTEX
  8
0
 10
179.543309
 20
223.226338
 42
0.039931
  0
VERTEX
  8
0
 10
178.894920
 20
226.189703
 42
0.057008
  0
VERTEX
  8
0
 10
177.912875
 20
228.454652
 42
0.037766
  0
VERTEX
  8
0
 10
176.314371
 20
230.798681
 42
0.040994
  0
VERTEX
  8
0
 10
174.156683
 20
233.087369
 42
0.030962
  0
VERTEX
  8
0
 10
171.449782
 20
235.236355
 42
0.030745
  0
VERTEX
  8
0
 10
168.471958
 20
237.052376
 42
0.038310
  0
VERTEX
  8
0
 10
165.500000
 20
238.342583
 42
-0.348144
  0
VERTEX
  8
0
 10
165.236227
 20
238.756140
 42
-0.036471
  0
VERTEX
  8
0
 10
165.450596
 20
239.967246
 42
-0.032153
  0
VERTEX
  8
0
 10
165.971191
 20
241.579219
 42
-0.017842
  0
VERTEX
  8
0
 10
166.799671
 20
243.473216
 42
0.031331
  0
VERTEX
  8
0
 10
167.723260
 20
245.749908
 42
0.016581
  0
VERTEX
  8
0
 10
168.593629
 20
248.670971
 42
0.016438
  0
VERTEX
  8
0
 10
169.288955
 20
251.729297
 42
0.024398
  0
VERTEX
  8
0
 10
169.677437
 20
254.448674
 42
0.012729
  0
VERTEX
  8
0
 10
169.936985
 20
258.279159
 42
0.075319
  0
VERTEX
  8
0
 10
169.720701
 20
260.271098
 42
0.092016
  0
VERTEX
  8
0
 10
168.936610
 20
261.927895
 42
0.023752
  0
VERTEX
  8
0
 10
167.085855
 20
264.249436
 42
0.033431
  0
VERTEX
  8
0
 10
165.606718
 20
265.722750
 42
0.030813
  0
VERTEX
  8
0
 10
163.905255
 20
267.029638
 42
0.032392
  0
VERTEX
  8
0
 10
162.196358
 20
268.027733
 42
0.062974
  0
VERTEX
  8
0
 10
160.708088
 20
268.550962
 42
-0.031329
  0
VERTEX
  8
0
 10
159.196092
 20
268.977450
 42
-0.014059
  0
VERTEX
  8
0
 10
157.267376
 20
269.715956
 42
-0.013855
  0
VERTEX
  8
0
 10
155.266207
 20
270.613232
 42
-0.018322
  0
VERTEX
  8
0
 10
153.500000
 20
271.545910
 42
0.017318
  0
VERTEX
  8
0
 10
151.482720
 20
272.616353
 42
0.006702
  0
VERTEX
  8
0
 10
148.618750
 20
273.964020
 42
0.006626
  0
VERTEX
  8
0
 10
145.473153
 20
275.343044
 42
0.008142
  0
VERTEX
  8
0
 10
142.500000
 20
276.543092
 42
-0.019860
  0
VERTEX
  8
0
 10
138.113173
 20
278.434432
 42
-0.054420
  0
VERTEX
  8
0
 10
135.250289
 20
280.211445
 42
-0.049031
  0
VERTEX
  8
0
 10
132.675724
 20
282.669354
 42
-0.013805
  0
VERTEX
  8
0
 10
129.167336
 20
286.981485
 42
0.000000
  0
VERTEX
  8
0
 10
126.834672
 20
290.015953
 42
0.000000
  0
VERTEX
  8
0
 10
127.474816
 20
315.257976
 42
-0.003514
  0
VERTEX
  8
0
 10
128.037373
 20
332.623524
 42
-0.021109
  0
VERTEX
  8
0
 10
128.774113
 20
341.629510
 42
-0.023316
  0
VERTEX
  8
0
 10
130.245604
 20
350.178325
 42
-0.004869
  0
VERTEX
  8
0
 10
133.666303
 20
365.000000
 42
-0.000847
  0
VERTEX
  8
0
 10
136.807489
 20
377.933986
 42
-0.035090
  0
VERTEX
  8
0
 10
137.683541
 20
380.667959
 42
-0.517191
  0
VERTEX
  8
0
 10
138.468111
 20
380.856584
 42
-0.110379
  0
VERTEX
  8
0
 10
139.461913
 20
379.500000
 42
0.075348
  0
VERTEX
  8
0
 10
141.611382
 20
376.092789
 42
0.031419
  0
VERTEX
  8
0
 10
145.427761
 20
372.204231
 42
0.031493
  0
VERTEX
  8
0
 10
149.803649
 20
368.744649
 42
0.059653
  0
VERTEX
  8
0
 10
153.770236
 20
366.644923
 42
0.039662
  0
VERTEX
  8
0
 10
156.212509
 20
365.920356
 42
0.022150
  0
VERTEX
  8
0
 10
159.273121
 20
365.411260
 42
0.018769
  0
VERTEX
  8
0
 10
162.944294
 20
365.105843
 42
0.011632
  0
VERTEX
  8
0
 10
167.270236
 20
365.009769
 42
0.034608
  0
VERTEX
  8
0
 10
174.982857
 20
365.552442
 42
0.060127
  0
VERTEX
  8
0
 10
181.177972
 20
367.197444
 42
0.059086
  0
VERTEX
  8
0
 10
186.876020
 20
370.293208
 42
0.032241
  0
VERTEX
  8
0
 10
193.070510
 20
375.304316
 42
-0.002267
  0
VERTEX
  8
0
 10
195.433529
 20
377.462430
 42
-0.002114
  0
VERTEX
  8
0
 10
197.871752
 20
379.650357
 42
-0.002105
  0
VERTEX
  8
0
 10
200.054625
 20
381.576151
 42
-0.007178
  0
VERTEX
  8
0
 10
201.498750
 20
382.803284
 42
0.045273
  0
VERTEX
  8
0
 10
203.138070
 20
384.426528
 42
0.123773
  0
VERTEX
  8
0
 10
203.847412
 20
385.881773
 42
0.063549
  0
VERTEX
  8
0
 10
204.020079
 20
388.026720
 42
0.005963
  0
VERTEX
  8
0
 10
203.709967
 20
393.319237
 42
0.022809
  0
VERTEX
  8
0
 10
202.375288
 20
404.767045
 42
0.052038
  0
VERTEX
  8
0
 10
200.094528
 20
413.149486
 42
0.073979
  0
VERTEX
  8
0
 10
196.862474
 20
418.829517
 42
0.136452
  0
VERTEX
  8
0
 10
192.614523
 20
421.956458
 42
0.064359
  0
VERTEX
  8
0
 10
191.109094
 20
422.316544
 42
0.004122
  0
VERTEX
  8
0
 10
186.599472
 20
422.759882
 42
0.005979
  0
VERTEX
  8
0
 10
181.198990
 20
423.180850
 42
0.004413
  0
VERTEX
  8
0
 10
175.212474
 20
423.522511
 42
-0.005799
  0
VERTEX
  8
0
 10
169.379614
 20
423.871632
 42
-0.009603
  0
VERTEX
  8
0
 10
164.468664
 20
424.317719
 42
-0.003660
  0
VERTEX
  8
0
 10
160.350671
 20
424.802208
 42
-0.378220
  0
VERTEX
  8
0
 10
160.000000
 20
425.199473
 42
-0.204829
  0
VERTEX
  8
0
 10
160.969793
 20
427.467481
 42
-0.004859
  0
VERTEX
  8
0
 10
169.561048
 20
435.518396
 42
-0.011447
  0
VERTEX
  8
0
 10
178.365456
 20
443.245596
 42
-0.025278
  0
VERTEX
  8
0
 10
185.500000
 20
448.634397
 42
-0.026896
  0
VERTEX
  8
0
 10
198.215647
 20
456.300985
 42
-0.011690
  0
VERTEX
  8
0
 10
215.856907
 20
465.160528
 42
-0.011302
  0
VERTEX
  8
0
 10
235.568076
 20
473.949500
 42
-0.012521
  0
VERTEX
  8
0
 10
255.000000
 20
481.526361
 42
-0.002017
  0
VERTEX
  8
0
 10
264.953518
 20
485.077679
 42
-0.018561
  0
VERTEX
  8
0
 10
269.330541
 20
486.439140
 42
-0.080697
  0
VERTEX
  8
0
 10
271.164694
 20
486.629467
 42
-0.568163
  0
SEQEND
  0
POLYLINE
  8
0
 66
1
 70
1
  0
VERTEX
  8
0
 10
429.628365
 20
451.792302
 42
-0.079880
  0
VERTEX
  8
0
 10
430.147201
 20
450.544854
 42
-0.017387
  0
VERTEX
  8
0
 10
430.611478
 20
448.254069
 42
-0.020308
  0
VERTEX
  8
0
 10
430.860792
 20
446.263248
 42
-0.723342
  0
VERTEX
  8
0
 10
430.570706
 20
446.139804
 42
-0.064863
  0
VERTEX
  8
0
 10
429.525077
 20
447.697634
 42
-0.023075
  0
VERTEX
  8
0
 10
428.440737
 20
450.155719
 42
-0.016081
  0
VERTEX
  8
0
 10
427.596192
 20
452.564987
 42
-0.506644
  0
VERTEX
  8
0
 10
427.915303
 20
453.000000
 42
-0.101990
  0
VERTEX
  8
0
 10
428.339817
 20
452.912497
 42
-0.051926
  0
VERTEX
  8
0
 10
428.817263
 20
452.645239
 42
-0.048522
  0
VERTEX
  8
0
 10
429.271169
 20
452.254274
 42
-0.052352
  0
SEQEND
  0
POLYLINE
  8
0
 66
1
 70
1
  0
VERTEX
  8
0
 10
118.000000
 20
259.195881
 42
0.016953
  0
VERTEX
  8
0
 10
113.749335
 20
257.427194
 42
0.085049
  0
VERTEX
  8
0
 10
111.626844
 20
255.981661
 42
0.105141
  0
VERTEX
  8
0
 10
110.329677
 20
254.059710
 42
0.032752
  0
VERTEX
  8
0
 10
109.232903
 20
250.735649
 42
0.021995
  0
VERTEX
  8
0
 10
108.155678
 20
245.662687
 42
0.101602
  0
VERTEX
  8
0
 10
108.266864
 20
242.679637
 42
0.118219
  0
VERTEX
  8
0
 10
109.535088
 20
240.214255
 42
0.034652
  0
VERTEX
  8
0
 10
112.550655
 20
237.164326
 42
0.071929
  0
VERTEX
  8
0
 10
118.029640
 20
233.588936
 42
0.092657
  0
VERTEX
  8
0
 10
123.843490
 20
232.105788
 42
0.108133
  0
VERTEX
  8
0
 10
129.114048
 20
232.904705
 42
0.134059
  0
VERTEX
  8
0
 10
133.101661
 20
235.826779
 42
0.054311
  0
VERTEX
  8
0
 10
134.241955
 20
237.632078
 42
0.080338
  0
VERTEX
  8
0
 10
134.784469
 20
239.420586
 42
0.045088
  0
VERTEX
  8
0
 10
134.896192
 20
241.954318
 42
0.007238
  0
VERTEX
  8
0
 10
134.596475
 20
246.900092
 42
0.015019
  0
VERTEX
  8
0
 10
133.806268
 20
254.395347
 42
0.092436
  0
VERTEX
  8
0
 10
132.592876
 20
258.063950
 42
0.171574
  0
VERTEX
  8
0
 10
130.497285
 20
259.928737
 42
0.086154
  0
VERTEX
  8
0
 10
126.992097
 20
260.695881
 42
0.033192
  0
VERTEX
  8
0
 10
124.946451
 20
260.649271
 42
0.019040
  0
VERTEX
  8
0
 10
122.497678
 20
260.336057
 42
0.018961
  0
VERTEX
  8
0
 10
120.049690
 20
259.831642
 42
0.029828
  0
SEQEND
  0
POLYLINE
  8
0
 66
1
 70
1
  0
VERTEX
  8
0
 10
127.793300
 20
248.428368
 42
-0.010696
  0
VERTEX
  8
0
 10
128.170194
 20
245.807420
 42
-0.013483
  0
VERTEX
  8
0
 10
128.401365
 20
243.367570
 42
-0.011603
  0
VERTEX
  8
0
 10
128.491622
 20
241.331403
 42
-0.097179
  0
VERTEX
  8
0
 10
128.334139
 20
240.428368
 42
-0.300681
  0
VERTEX
  8
0
 10
126.247470
 20
238.937964
 42
-0.063952
  0
VERTEX
  8
0
 10
121.574909
 20
239.367485
 42
-0.060576
  0
VERTEX
  8
0
 10
116.870750
 20
241.033641
 42
-0.187912
  0
VERTEX
  8
0
 10
114.645786
 20
243.480684
 42
-0.164739
  0
VERTEX
  8
0
 10
114.544428
 20
246.022048
 42
-0.078389
  0
VERTEX
  8
0
 10
115.965027
 20
249.015153
 42
-0.071395
  0
VERTEX
  8
0
 10
118.437866
 20
251.711712
 42
-0.086493
  0
VERTEX
  8
0
 10
121.422968
 20
253.395375
 42
-0.002719
  0
VERTEX
  8
0
 10
123.028563
 20
253.955306
 42
-0.003731
  0
VERTEX
  8
0
 10
124.479260
 20
254.440319
 42
-0.002421
  0
VERTEX
  8
0
 10
125.701744
 20
254.832378
 42
-0.043813
  0
VERTEX
  8
0
 10
126.102173
 20
254.921053
 42
-0.369412
  0
VERTEX
  8
0
 10
126.377721
 20
254.741558
 42
-0.007725
  0
VERTEX
  8
0
 10
126.847338
 20
253.046392
 42
-0.014104
  0
VERTEX
  8
0
 10
127.332452
 20
250.942316
 42
-0.008545
  0
SEQEND
  0
POLYLINE
  8
0
 66
1
 70
1
  0
VERTEX
  8
0
 10
118.294611
 20
202.674640
 42
-0.184676
  0
VERTEX
  8
0
 10
118.295688
 20
201.753973
 42
-0.039055
  0
VERTEX
  8
0
 10
117.596127
 20
200.276219
 42
-0.032697
  0
VERTEX
  8
0
 10
116.391912
 20
198.460382
 42
-0.017639
  0
VERTEX
  8
0
 10
114.690519
 20
196.383011
 42
0.016034
  0
VERTEX
  8
0
 10
112.193494
 20
193.354072
 42
0.075155
  0
VERTEX
  8
0
 10
111.099409
 20
191.385857
 42
0.074608
  0
VERTEX
  8
0
 10
110.632044
 20
189.175536
 42
0.015668
  0
VERTEX
  8
0
 10
110.520679
 20
185.214063
 42
0.036237
  0
VERTEX
  8
0
 10
110.914302
 20
180.022240
 42
0.169825
  0
VERTEX
  8
0
 10
112.288840
 20
177.411109
 42
0.177209
  0
VERTEX
  8
0
 10
114.951427
 20
176.288451
 42
0.040153
  0
VERTEX
  8
0
 10
119.934140
 20
176.448037
 42
0.027435
  0
VERTEX
  8
0
 10
124.796951
 20
177.268442
 42
0.165297
  0
VERTEX
  8
0
 10
126.950496
 20
178.587681
 42
0.166856
  0
VERTEX
  8
0
 10
127.843203
 20
180.938847
 42
0.028084
  0
VERTEX
  8
0
 10
127.726263
 20
185.821413
 42
0.048814
  0
VERTEX
  8
0
 10
126.710817
 20
191.477177
 42
0.037398
  0
VERTEX
  8
0
 10
124.556038
 20
197.380941
 42
0.035404
  0
VERTEX
  8
0
 10
121.928298
 20
202.242847
 42
0.206425
  0
VERTEX
  8
0
 10
119.575972
 20
203.843144
 42
0.041571
  0
VERTEX
  8
0
 10
118.728648
 20
203.934292
 42
0.193209
  0
VERTEX
  8
0
 10
118.276810
 20
203.765430
 42
0.240768
  0
VERTEX
  8
0
 10
118.126020
 20
203.363471
 42
0.063273
  0
SEQEND
  0
POLYLINE
  8
0
 66
1
 70
1
  0
VERTEX
  8
0
 10
121.514111
 20
189.878421
 42
-0.021720
  0
VERTEX
  8
0
 10
121.811873
 20
185.756376
 42
-0.116527
  0
VERTEX
  8
0
 10
121.360357
 20
183.566463
 42
-0.199021
  0
VERTEX
  8
0
 10
120.117011
 20
182.425353
 42
-0.085286
  0
VERTEX
  8
0
 10
117.856989
 20
182.015313
 42
-0.261542
  0
VERTEX
  8
0
 10
116.084147
 20
182.989133
 42
-0.139999
  0
VERTEX
  8
0
 10
115.375811
 20
185.464763
 42
-0.082963
  0
VERTEX
  8
0
 10
115.988955
 20
189.145681
 42
-0.047739
  0
VERTEX
  8
0
 10
117.851499
 20
193.250000
 42
-0.017485
  0
VERTEX
  8
0
 10
118.506601
 20
194.303354
 42
-0.024465
  0
VERTEX
  8
0
 10
119.168746
 20
195.192187
 42
-0.022441
  0
VERTEX
  8
0
 10
119.764499
 20
195.852477
 42
-0.200592
  0
VERTEX
  8
0
 10
120.117421
 20
196.000000
 42
-0.337839
  0
VERTEX
  8
0
 10
120.416626
 20
195.771786
 42
-0.010820
  0
VERTEX
  8
0
 10
120.810758
 20
194.201786
 42
-0.016824
  0
VERTEX
  8
0
 10
121.192278
 20
192.225202
 42
-0.010372
  0
SEQEND
  0
POLYLINE
  8
0
 66
1
 70
1
  0
VERTEX
  8
0
 10
63.312913
 20
183.897522
 42
0.081939
  0
VERTEX
  8
0
 10
60.181747
 20
182.403693
 42
0.094473
  0
VERTEX
  8
0
 10
57.872677
 20
180.040190
 42
0.087250
  0
VERTEX
  8
0
 10
56.472570
 20
176.830269
 42
0.059381
  0
VERTEX
  8
0
 10
56.000000
 20
172.865141
 42
0.057734
  0
VERTEX
  8
0
 10
56.444676
 20
169.026933
 42
0.110699
  0
VERTEX
  8
0
 10
57.789608
 20
166.251092
 42
0.129669
  0
VERTEX
  8
0
 10
60.017724
 20
164.587948
 42
0.096124
  0
VERTEX
  8
0
 10
63.047749
 20
164.000000
 42
0.112570
  0
VERTEX
  8
0
 10
65.783690
 20
164.623875
 42
0.090061
  0
VERTEX
  8
0
 10
68.236406
 20
166.404797
 42
0.069206
  0
VERTEX
  8
0
 10
70.397828
 20
169.400998
 42
0.035656
  0
VERTEX
  8
0
 10
72.267957
 20
173.640307
 42
0.021343
  0
VERTEX
  8
0
 10
73.565074
 20
177.811383
 42
0.069713
  0
VERTEX
  8
0
 10
73.909190
 20
180.674455
 42
0.118854
  0
VERTEX
  8
0
 10
73.395032
 20
182.637362
 42
0.147716
  0
VERTEX
  8
0
 10
72.065741
 20
183.964816
 42
0.061359
  0
VERTEX
  8
0
 10
70.317409
 20
184.640583
 42
0.063574
  0
VERTEX
  8
0
 10
68.478505
 20
184.860992
 42
0.048835
  0
VERTEX
  8
0
 10
66.265590
 20
184.627149
 42
0.019693
  0
SEQEND
  0
POLYLINE
  8
0
 66
1
 70
1
  0
VERTEX
  8
0
 10
68.492036
 20
175.326697
 42
-0.011264
  0
VERTEX
  8
0
 10
67.823618
 20
173.823087
 42
-0.011079
  0
VERTEX
  8
0
 10
67.084644
 20
172.342710
 42
-0.011015
  0
VERTEX
  8
0
 10
66.380138
 20
171.074839
 42
-0.040902
  0
VERTEX
  8
0
 10
65.856171
 20
170.326697
 42
-0.118810
  0
VERTEX
  8
0
 10
64.654232
 20
169.428881
 42
-0.086245
  0
VERTEX
  8
0
 10
63.023179
 20
169.041843
 42
-0.093379
  0
VERTEX
  8
0
 10
61.474389
 20
169.236927
 42
-0.178280
  0
VERTEX
  8
0
 10
60.500000
 20
170.000000
 42
-0.152678
  0
VERTEX
  8
0
 10
60.402946
 20
170.379210
 42
-0.191552
  0
VERTEX
  8
0
 10
60.553320
 20
170.706250
 42
-0.130133
  0
VERTEX
  8
0
 10
60.955534
 20
170.927284
 42
-0.060996
  0
VERTEX
  8
0
 10
61.549391
 20
171.000000
 42
0.086801
  0
VERTEX
  8
0
 10
62.310054
 20
171.133055
 42
0.203567
  0
VERTEX
  8
0
 10
62.724836
 20
171.517903
 42
0.135275
  0
VERTEX
  8
0
 10
62.832181
 20
172.217495
 42
0.032321
  0
VERTEX
  8
0
 10
62.618074
 20
173.385578
 42
-0.124333
  0
VERTEX
  8
0
 10
62.621085
 20
175.404745
 42
-0.158989
  0
VERTEX
  8
0
 10
63.609994
 20
176.967369
 42
-0.101886
  0
VERTEX
  8
0
 10
65.756944
 20
178.107457
 42
-0.033586
  0
VERTEX
  8
0
 10
69.263420
 20
178.883999
 42
-0.477483
  0
VERTEX
  8
0
 10
69.463890
 20
178.700897
 42
-0.038330
  0
VERTEX
  8
0
 10
69.351737
 20
177.886892
 42
-0.029941
  0
VERTEX
  8
0
 10
69.026802
 20
176.728167
 42
-0.015630
  0
SEQEND
  0
POLYLINE
  8
0
 66
1
 70
1
  0
VERTEX
  8
0
 10
638.489996
 20
1177.000000
 42
0.010872
  0
VERTEX
  8
0
 10
640.214133
 20
1169.073301
 42
0.016652
  0
VERTEX
  8
0
 10
642.084006
 20
1162.296393
 42
0.019204
  0
VERTEX
  8
0
 10
644.023880
 20
1156.828553
 42
0.047833
  0
VERTEX
  8
0
 10
645.961894
 20
1153.059382
 42
-0.019025
  0
VERTEX
  8
0
 10
648.496756
 20
1148.757475
 42
-0.029540
  0
VERTEX
  8
0
 10
650.312918
 20
1144.852816
 42
-0.032204
  0
VERTEX
  8
0
 10
651.546200
 20
1141.027945
 42
-0.029833
  0
VERTEX
  8
0
 10
652.316250
 20
1136.977589
 42
-0.066197
  0
VERTEX
  8
0
 10
652.298315
 20
1132.462281
 42
-0.273796
  0
VERTEX
  8
0
 10
650.669874
 20
1130.409635
 42
-0.087345
  0
VERTEX
  8
0
 10
646.585873
 20
1129.618307
 42
-0.004286
  0
VERTEX
  8
0
 10
632.785048
 20
1129.500000
 42
0.007620
  0
VERTEX
  8
0
 10
619.501125
 20
1129.297544
 42
0.054040
  0
VERTEX
  8
0
 10
613.125449
 20
1128.409124
 42
0.120794
  0
VERTEX
  8
0
 10
609.463030
 20
1126.470415
 42
0.113185
  0
VERTEX
  8
0
 10
607.006474
 20
1123.015630
 42
0.089484
  0
VERTEX
  8
0
 10
606.070884
 20
1118.714935
 42
0.040624
  0
VERTEX
  8
0
 10
606.333734
 20
1112.940747
 42
0.037260
  0
VERTEX
  8
0
 10
607.642390
 20
1106.523825
 42
0.034494
  0
VERTEX
  8
0
 10
609.912818
 20
1100.198636
 42
-0.011775
  0
VERTEX
  8
0
 10
611.084274
 20
1097.349066
 42
-0.017138
  0
VERTEX
  8
0
 10
611.970286
 20
1094.780935
 42
-0.012729
  0
VERTEX
  8
0
 10
612.565642
 20
1092.650385
 42
-0.202868
  0
VERTEX
  8
0
 10
612.453561
 20
1091.924860
 42
-0.094156
  0
VERTEX
  8
0
 10
611.897985
 20
1091.318027
 42
-0.004244
  0
VERTEX
  8
0
 10
609.606769
 20
1089.636146
 42
-0.006988
  0
VERTEX
  8
0
 10
606.829625
 20
1087.692023
 42
-0.004933
  0
VERTEX
  8
0
 10
603.657909
 20
1085.582530
 42
0.009330
  0
VERTEX
  8
0
 10
600.319601
 20
1083.319646
 42
0.009062
  0
VERTEX
  8
0
 10
597.034924
 20
1080.912184
 42
0.009003
  0
VERTEX
  8
0
 10
594.224591
 20
1078.691990
 42
0.032896
  0
VERTEX
  8
0
 10
592.567363
 20
1077.140694
 42
0.051956
  0
VERTEX
  8
0
 10
590.849830
 20
1074.875819
 42
0.079630
  0
VERTEX
  8
0
 10
589.924258
 20
1072.598717
 42
0.036876
  0
VERTEX
  8
0
 10
589.381554
 20
1069.089341
 42
0.003828
  0
VERTEX
  8
0
 10
588.779957
 20
1060.754650
 42
0.012147
  0
VERTEX
  8
0
 10
588.400080
 20
1051.288164
 42
0.034480
  0
VERTEX
  8
0
 10
588.750597
 20
1044.695492
 42
0.024233
  0
VERTEX
  8
0
 10
590.065248
 20
1037.060132
 42
0.003695
  0
VERTEX
  8
0
 10
593.533602
 20
1022.000000
 42
-0.014906
  0
VERTEX
  8
0
 10
595.577902
 20
1012.114963
 42
-0.035258
  0
VERTEX
  8
0
 10
596.355425
 20
1004.639417
 42
-0.048662
  0
VERTEX
  8
0
 10
595.998524
 20
999.078906
 42
-0.119046
  0
VERTEX
  8
0
 10
594.418248
 20
995.323632
 42
-0.059681
  0
VERTEX
  8
0
 10
593.099504
 20
993.920817
 42
-0.012987
  0
VERTEX
  8
0
 10
590.494393
 20
991.852292
 42
-0.013359
  0
VERTEX
  8
0
 10
587.334144
 20
989.603788
 42
-0.012444
  0
VERTEX
  8
0
 10
583.983754
 20
987.471404
 42
0.031283
  0
VERTEX
  8
0
 10
576.980825
 20
982.634501
 42
0.094934
  0
VERTEX
  8
0
 10
573.204158
 20
978.280365
 42
0.103093
  0
VERTEX
  8
0
 10
571.473628
 20
973.053660
 42
0.040840
  0
VERTEX
  8
0
 10
571.225504
 20
965.454610
 42
0.039651
  0
VERTEX
  8
0
 10
572.090177
 20
958.749683
 42
0.044793
  0
VERTEX
  8
0
 10
573.989571
 20
952.544420
 42
0.033204
  0
VERTEX
  8
0
 10
577.449888
 20
945.434587
 42
0.011181
  0
VERTEX
  8
0
 10
583.398523
 20
935.548684
 42
-0.020097
  0
VERTEX
  8
0
 10
587.989878
 20
927.601029
 42
-0.046840
  0
VERTEX
  8
0
 10
590.601157
 20
921.249478
 42
-0.060710
  0
VERTEX
  8
0
 10
591.592846
 20
915.646444
 42
-0.065031
  0
VERTEX
  8
0
 10
591.170882
 20
910.103014
 42
-0.020781
  0
VERTEX
  8
0
 10
590.614097
 20
907.898651
 42
-0.020500
  0
VERTEX
  8
0
 10
589.874095
 20
905.737926
 42
-0.020878
  0
VERTEX
  8
0
 10
589.070919
 20
903.903556
 42
-0.070394
  0
VERTEX
  8
0
 10
588.338809
 20
902.821886
 42
0.023589
  0
VERTEX
  8
0
 10
587.402132
 20
901.683261
 42
0.151409
  0
VERTEX
  8
0
 10
587.155809
 20
900.988439
 42
0.174448
  0
VERTEX
  8
0
 10
587.363680
 20
900.328770
 42
0.033691
  0
VERTEX
  8
0
 10
588.200177
 20
899.371251
 42
0.167738
  0
VERTEX
  8
0
 10
589.906620
 20
898.540587
 42
0.156844
  0
VERTEX
  8
0
 10
591.816390
 20
898.908900
 42
0.093476
  0
VERTEX
  8
0
 10
593.916764
 20
900.635649
 42
0.035028
  0
VERTEX
  8
0
 10
596.160623
 20
903.737350
 42
0.037420
  0
VERTEX
  8
0
 10
597.349114
 20
906.012203
 42
0.050643
  0
VERTEX
  8
0
 10
598.046185
 20
908.222980
 42
0.038633
  0
VERTEX
  8
0
 10
598.394370
 20
910.949567
 42
0.012665
  0
VERTEX
  8
0
 10
598.493441
 20
915.000000
 42
0.042416
  0
VERTEX
  8
0
 10
597.958431
 20
921.230763
 42
0.051245
  0
VERTEX
  8
0
 10
596.377078
 20
926.882164
 42
0.036575
  0
VERTEX
  8
0
 10
593.230330
 20
933.423855
 42
0.010882
  0
VERTEX
  8
0
 10
587.494733
 20
942.922393
 42
-0.018412
  0
VERTEX
  8
0
 10
583.763177
 20
949.317771
 42
-0.021438
  0
VERTEX
  8
0
 10
580.711687
 20
955.659244
 42
-0.022438
  0
VERTEX
  8
0
 10
578.602294
 20
961.250564
 42
-0.079135
  0
VERTEX
  8
0
 10
578.000000
 20
965.032197
 42
-0.032592
  0
VERTEX
  8
0
 10
578.070829
 20
966.117648
 42
-0.009514
  0
VERTEX
  8
0
 10
578.319988
 20
967.773511
 42
-0.009516
  0
VERTEX
  8
0
 10
578.672319
 20
969.631452
 42
-0.010059
  0
VERTEX
  8
0
 10
579.089320
 20
971.440442
 42
-0.037692
  0
VERTEX
  8
0
 10
579.929262
 20
973.957985
 42
-0.089269
  0
VERTEX
  8
0
 10
581.000850
 20
975.609972
 42
-0.065350
  0
VERTEX
  8
0
 10
582.786298
 20
977.073921
 42
-0.013467
  0
VERTEX
  8
0
 10
586.306429
 20
979.133262
 42
0.040874
  0
VERTEX
  8
0
 10
594.239898
 20
984.377662
 42
0.060537
  0
VERTEX
  8
0
 10
600.120668
 20
990.274142
 42
0.071026
  0
VERTEX
  8
0
 10
603.743478
 20
996.582132
 42
0.094613
  0
VERTEX
  8
0
 10
604.994423
 20
1003.057112
 42
0.043779
  0
VERTEX
  8
0
 10
604.583097
 20
1007.866347
 42
0.006274
  0
VERTEX
  8
0
 10
602.760562
 20
1017.585320
 42
0.007713
  0
VERTEX
  8
0
 10
600.562895
 20
1027.729629
 42
0.015511
  0
VERTEX
  8
0
 10
598.459316
 20
1035.643974
 42
-0.016034
  0
VERTEX
  8
0
 10
597.143968
 20
1040.613686
 42
-0.020504
  0
VERTEX
  8
0
 10
596.269858
 20
1045.267267
 42
-0.018047
  0
VERTEX
  8
0
 10
595.707985
 20
1050.421631
 42
-0.008911
  0
VERTEX
  8
0
 10
595.347993
 20
1057.000000
 42
-0.006293
  0
VERTEX
  8
0
 10
595.229915
 20
1061.866029
 42
-0.009293
  0
VERTEX
  8
0
 10
595.259432
 20
1066.137143
 42
-0.005129
  0
VERTEX
  8
0
 10
595.387343
 20
1069.713035
 42
-0.153182
  0
VERTEX
  8
0
 10
595.693595
 20
1070.551977
 42
-0.073996
  0
VERTEX
  8
0
 10
596.357086
 20
1071.194130
 42
-0.002715
  0
VERTEX
  8
0
 10
599.221363
 20
1073.221304
 42
-0.004900
  0
VERTEX
  8
0
 10
602.653673
 20
1075.572866
 42
-0.003416
  0
VERTEX
  8
0
 10
606.570619
 20
1078.161806
 42
0.008641
  0
VERTEX
  8
0
 10
611.412862
 20
1081.435548
 42
0.023907
  0
VERTEX
  8
0
 10
614.663161
 20
1083.955922
 42
0.033967
  0
VERTEX
  8
0
 10
616.797067
 20
1086.047114
 42
0.083921
  0
VERTEX
  8
0
 10
617.957527
 20
1087.897461
 42
0.054537
  0
VERTEX
  8
0
 10
618.647760
 20
1090.264507
 42
0.108159
  0
VERTEX
  8
0
 10
618.568576
 20
1092.208366
 42
0.035212
  0
VERTEX
  8
0
 10
617.605637
 20
1095.051254
 42
0.001610
  0
VERTEX
  8
0
 10
613.608489
 20
1104.500000
 42
-0.037751
  0
VERTEX
  8
0
 10
612.029163
 20
1109.141723
 42
-0.037557
  0
VERTEX
  8
0
 10
611.162356
 20
1113.976149
 42
-0.039707
  0
VERTEX
  8
0
 10
611.064587
 20
1118.232988
 42
-0.127675
  0
VERTEX
  8
0
 10
611.923274
 20
1120.910095
 42
-0.215947
  0
VERTEX
  8
0
 10
613.939767
 20
1122.234334
 42
-0.026857
  0
VERTEX
  8
0
 10
619.288611
 20
1122.781870
 42
-0.026633
  0
VERTEX
  8
0
 10
626.265403
 20
1122.747370
 42
-0.016140
  0
VERTEX
  8
0
 10
634.490750
 20
1122.001141
 42
0.017269
  0
VERTEX
  8
0
 10
643.100130
 20
1121.239667
 42
0.046426
  0
VERTEX
  8
0
 10
649.236843
 20
1121.479750
 42
0.067075
  0
VERTEX
  8
0
 10
653.744033
 20
1122.706971
 42
0.096703
  0
VERTEX
  8
0
 10
657.162576
 20
1125.008730
 42
0.035940
  0
VERTEX
  8
0
 10
658.631772
 20
1126.705811
 42
0.073594
  0
VERTEX
  8
0
 10
659.465565
 20
1128.251187
 42
0.064578
  0
VERTEX
  8
0
 10
659.877074
 20
1130.101154
 42
0.022479
  0
VERTEX
  8
0
 10
660.000000
 20
1132.833983
 42
0.047753
  0
VERTEX
  8
0
 10
659.473669
 20
1138.332387
 42
0.033848
  0
VERTEX
  8
0
 10
657.888029
 20
1144.328262
 42
0.033348
  0
VERTEX
  8
0
 10
655.465967
 20
1150.172691
 42
0.041174
  0
VERTEX
  8
0
 10
652.426034
 20
1155.222850
 42
-0.024348
  0
VERTEX
  8
0
 10
650.769819
 20
1157.775953
 42
-0.012302
  0
VERTEX
  8
0
 10
648.923240
 20
1161.138678
 42
-0.012188
  0
VERTEX
  8
0
 10
647.182451
 20
1164.713140
 42
-0.017734
  0
VERTEX
  8
0
 10
645.838623
 20
1167.951373
 42
0.017468
  0
VERTEX
  8
0
 10
644.579123
 20
1170.990978
 42
0.017014
  0
VERTEX
  8
0
 10
643.100253
 20
1173.962565
 42
0.017189
  0
VERTEX
  8
0
 10
641.624242
 20
1176.480671
 42
0.058820
  0
VERTEX
  8
0
 10
640.429925
 20
1177.951373
 42
0.000000
  0
VERTEX
  8
0
 10
637.808051
 20
1180.500000
 42
0.000000
  0
SEQEND
  0
POLYLINE
  8
0
 66
1
 70
1
  0
VERTEX
  8
0
 10
715.500000
 20
1015.571621
 42
0.055726
  0
VERTEX
  8
0
 10
712.428878
 20
1013.219966
 42
0.023703
  0
VERTEX
  8
0
 10
708.860035
 20
1009.454298
 42
0.023537
  0
VERTEX
  8
0
 10
705.491707
 20
1005.150860
 42
0.034499
  0
VERTEX
  8
0
 10
702.987597
 20
1001.048810
 42
0.093644
  0
VERTEX
  8
0
 10
701.761713
 20
996.975837
 42
0.058742
  0
VERTEX
  8
0
 10
701.820280
 20
991.986372
 42
0.046283
  0
VERTEX
  8
0
 10
703.165904
 20
986.013413
 42
0.024810
  0
VERTEX
  8
0
 10
705.857143
 20
978.942886
 42
-0.005859
  0
VERTEX
  8
0
 10
707.444008
 20
975.206137
 42
-0.007952
  0
VERTEX
  8
0
 10
708.783036
 20
971.794007
 42
-0.005597
  0
VERTEX
  8
0
 10
709.822681
 20
968.917956
 42
-0.084116
  0
VERTEX
  8
0
 10
710.000000
 20
967.871400
 42
-0.250068
  0
VERTEX
  8
0
 10
709.267020
 20
966.497484
 42
-0.032242
  0
VERTEX
  8
0
 10
706.285354
 20
964.765802
 42
-0.026541
  0
VERTEX
  8
0
 10
701.744408
 20
962.799542
 42
-0.010481
  0
VERTEX
  8
0
 10
695.312515
 20
960.563336
 42
0.063342
  0
VERTEX
  8
0
 10
690.863740
 20
958.468092
 42
0.056830
  0
VERTEX
  8
0
 10
686.898089
 20
955.259857
 42
0.059449
  0
VERTEX
  8
0
 10
683.928043
 20
951.419471
 42
0.088754
  0
VERTEX
  8
0
 10
682.426610
 20
947.460491
 42
0.079963
  0
VERTEX
  8
0
 10
682.182531
 20
938.024014
 42
0.072921
  0
VERTEX
  8
0
 10
684.867839
 20
928.661303
 42
0.111828
  0
VERTEX
  8
0
 10
689.140469
 20
923.013161
 42
0.363093
  0
VERTEX
  8
0
 10
693.495614
 20
922.996360
 42
0.034897
  0
VERTEX
  8
0
 10
694.312267
 20
923.776428
 42
0.180795
  0
VERTEX
  8
0
 10
694.540276
 20
924.345937
 42
0.163701
  0
VERTEX
  8
0
 10
694.349602
 20
924.959221
 42
0.027409
  0
VERTEX
  8
0
 10
693.563367
 20
925.929981
 42
-0.068144
  0
VERTEX
  8
0
 10
691.732391
 20
928.609267
 42
-0.036296
  0
VERTEX
  8
0
 10
690.199834
 20
932.328659
 42
-0.034672
  0
VERTEX
  8
0
 10
689.134982
 20
936.516964
 42
-0.039081
  0
VERTEX
  8
0
 10
688.714182
 20
940.647288
 42
-0.055518
  0
VERTEX
  8
0
 10
689.135422
 20
945.448481
 42
-0.116134
  0
VERTEX
  8
0
 10
690.688750
 20
948.838417
 42
-0.108421
  0
VERTEX
  8
0
 10
693.675340
 20
951.322996
 42
-0.044572
  0
VERTEX
  8
0
 10
698.576144
 20
953.330713
 42
0.005958
  0
VERTEX
  8
0
 10
706.290015
 20
955.815678
 42
0.024762
  0
VERTEX
  8
0
 10
710.841424
 20
957.597113
 42
0.041016
  0
VERTEX
  8
0
 10
713.885605
 20
959.278276
 42
0.057832
  0
VERTEX
  8
0
 10
716.250000
 20
961.278261
 42
0.090940
  0
VERTEX
  8
0
 10
718.273650
 20
964.423068
 42
0.117234
  0
VERTEX
  8
0
 10
718.809118
 20
967.805607
 42
0.068471
  0
VERTEX
  8
0
 10
717.821078
 20
972.371032
 42
0.014863
  0
VERTEX
  8
0
 10
714.826117
 20
979.878519
 42
-0.017651
  0
VERTEX
  8
0
 10
711.829745
 20
987.512928
 42
-0.067233
  0
VERTEX
  8
0
 10
710.792935
 20
992.513368
 42
-0.096132
  0
VERTEX
  8
0
 10
711.296018
 20
996.633827
 42
-0.061308
  0
VERTEX
  8
0
 10
713.339593
 20
1001.024331
 42
-0.000327
  0
VERTEX
  8
0
 10
714.654732
 20
1003.127862
 42
-0.000163
  0
VERTEX
  8
0
 10
716.321437
 20
1005.787903
 42
-0.000162
  0
VERTEX
  8
0
 10
718.048715
 20
1008.540630
 42
-0.000239
  0
VERTEX
  8
0
 10
719.566866
 20
1010.955763
 42
0.006103
  0
VERTEX
  8
0
 10
720.882176
 20
1013.103705
 42
0.008736
  0
VERTEX
  8
0
 10
721.991517
 20
1015.042203
 42
0.005315
  0
VERTEX
  8
0
 10
722.873088
 20
1016.688327
 42
0.120845
  0
VERTEX
  8
0
 10
723.000000
 20
1017.205763
 42
0.371008
  0
VERTEX
  8
0
 10
722.393246
 20
1017.910918
 42
0.091319
  0
VERTEX
  8
0
 10
720.738161
 20
1017.857273
 42
0.053259
  0
VERTEX
  8
0
 10
718.302078
 20
1017.047413
 42
0.028705
  0
SEQEND
  0
POLYLINE
  8
0
 66
1
 70
1
  0
VERTEX
  8
0
 10
688.906693
 20
896.057879
 42
0.059660
  0
VERTEX
  8
0
 10
679.247511
 20
891.698162
 42
0.176483
  0
VERTEX
  8
0
 10
674.751816
 20
886.119011
 42
0.149665
  0
VERTEX
  8
0
 10
674.503200
 20
878.297509
 42
0.039454
  0
VERTEX
  8
0
 10
678.776641
 20
866.376759
 42
-0.018838
  0
VERTEX
  8
0
 10
682.984056
 20
856.006061
 42
-0.120736
  0
VERTEX
  8
0
 10
683.587091
 20
850.414485
 42
-0.179457
  0
VERTEX
  8
0
 10
681.405301
 20
846.304381
 42
-0.053513
  0
VERTEX
  8
0
 10
675.532372
 20
842.105179
 42
0.039661
  0
VERTEX
  8
0
 10
670.575144
 20
838.763834
 42
0.097841
  0
VERTEX
  8
0
 10
667.750276
 20
835.432869
 42
0.099710
  0
VERTEX
  8
0
 10
666.434451
 20
831.318664
 42
0.042230
  0
VERTEX
  8
0
 10
666.280973
 20
825.500000
 42
0.019287
  0
VERTEX
  8
0
 10
666.627009
 20
821.929318
 42
0.028536
  0
VERTEX
  8
0
 10
667.227912
 20
818.842062
 42
0.029934
  0
VERTEX
  8
0
 10
668.149579
 20
815.956296
 42
0.024599
  0
VERTEX
  8
0
 10
669.463340
 20
813.000000
 42
0.038588
  0
VERTEX
  8
0
 10
676.676579
 20
801.088569
 42
0.052270
  0
VERTEX
  8
0
 10
685.024052
 20
791.687196
 42
0.103310
  0
VERTEX
  8
0
 10
691.560942
 20
787.818635
 42
0.470338
  0
VERTEX
  8
0
 10
694.829537
 20
789.826201
 42
0.122178
  0
VERTEX
  8
0
 10
694.685225
 20
791.230228
 42
0.054492
  0
VERTEX
  8
0
 10
693.863814
 20
792.911528
 42
0.036315
  0
VERTEX
  8
0
 10
692.307355
 20
795.019891
 42
0.012630
  0
VERTEX
  8
0
 10
689.776763
 20
797.826201
 42
-0.030220
  0
VERTEX
  8
0
 10
682.098512
 20
806.967752
 42
-0.043000
  0
VERTEX
  8
0
 10
676.536149
 20
815.994555
 42
-0.050876
  0
VERTEX
  8
0
 10
673.437856
 20
824.111460
 42
-0.127911
  0
VERTEX
  8
0
 10
673.384226
 20
830.394742
 42
-0.102047
  0
VERTEX
  8
0
 10
673.970871
 20
831.611381
 42
-0.043417
  0
VERTEX
  8
0
 10
675.195685
 20
832.954223
 42
-0.035554
  0
VERTEX
  8
0
 10
676.963532
 20
834.364841
 42
-0.021220
  0
VERTEX
  8
0
 10
679.244284
 20
835.794648
 42
0.017747
  0
VERTEX
  8
0
 10
681.476161
 20
837.172319
 42
0.013267
  0
VERTEX
  8
0
 10
683.837383
 20
838.840414
 42
0.013453
  0
VERTEX
  8
0
 10
685.979915
 20
840.532555
 42
0.029594
  0
VERTEX
  8
0
 10
687.500000
 20
841.961656
 42
0.032904
  0
VERTEX
  8
0
 10
689.176476
 20
843.987620
 42
0.083967
  0
VERTEX
  8
0
 10
690.016485
 20
845.691805
 42
0.062363
  0
VERTEX
  8
0
 10
690.380248
 20
847.864923
 42
0.012349
  0
VERTEX
  8
0
 10
690.445854
 20
851.818323
 42
0.024664
  0
VERTEX
  8
0
 10
690.215876
 20
855.818970
 42
0.042276
  0
VERTEX
  8
0
 10
689.581031
 20
859.097978
 42
0.031569
  0
VERTEX
  8
0
 10
688.269764
 20
862.818336
 42
0.008254
  0
VERTEX
  8
0
 10
685.695854
 20
868.605529
 42
-0.010713
  0
VERTEX
  8
0
 10
683.897982
 20
872.702003
 42
-0.012638
  0
VERTEX
  8
0
 10
682.379407
 20
876.653865
 42
-0.011551
  0
VERTEX
  8
0
 10
681.264603
 20
880.034910
 42
-0.073984
  0
VERTEX
  8
0
 10
681.000000
 20
881.813376
 42
-0.060360
  0
VERTEX
  8
0
 10
681.212465
 20
883.566936
 42
-0.111551
  0
VERTEX
  8
0
 10
681.850824
 20
884.844665
 42
-0.075292
  0
VERTEX
  8
0
 10
683.163651
 20
886.031366
 42
-0.016722
  0
VERTEX
  8
0
 10
685.750000
 20
887.621478
 42
0.021687
  0
VERTEX
  8
0
 10
689.710453
 20
890.110903
 42
0.029916
  0
VERTEX
  8
0
 10
693.016824
 20
892.700082
 42
0.030798
  0
VERTEX
  8
0
 10
695.389895
 20
895.074742
 42
0.182871
  0
VERTEX
  8
0
 10
696.000000
 20
896.687091
 42
0.159913
  0
VERTEX
  8
0
 10
695.731916
 20
897.503876
 42
0.262007
  0
VERTEX
  8
0
 10
695.085995
 20
897.795448
 42
0.051500
  0
VERTEX
  8
0
 10
693.601501
 20
897.507822
 42
0.002628
  0
SEQEND
  0
POLYLINE
  8
0
 66
1
 70
1
  0
VERTEX
  8
0
 10
581.329545
 20
891.318182
 42
0.125351
  0
VERTEX
  8
0
 10
573.877245
 20
886.434420
 42
0.102849
  0
VERTEX
  8
0
 10
568.999380
 20
878.228185
 42
0.098510
  0
VERTEX
  8
0
 10
567.670305
 20
868.438292
 42
0.104664
  0
VERTEX
  8
0
 10
570.251164
 20
859.113689
 42
-0.009807
  0
VERTEX
  8
0
 10
571.893690
 20
855.789904
 42
-0.077475
  0
VERTEX
  8
0
 10
572.374849
 20
854.145887
 42
-0.117026
  0
VERTEX
  8
0
 10
572.227716
 20
852.721250
 42
-0.034069
  0
VERTEX
  8
0
 10
571.354575
 20
850.678992
 42
-0.010416
  0
VERTEX
  8
0
 10
570.595101
 20
849.265218
 42
-0.006492
  0
VERTEX
  8
0
 10
569.649310
 20
847.639008
 42
-0.006513
  0
VERTEX
  8
0
 10
568.674661
 20
846.059197
 42
-0.011736
  0
VERTEX
  8
0
 10
567.829012
 20
844.794227
 42
0.039647
  0
VERTEX
  8
0
 10
565.272897
 20
840.466428
 42
0.122164
  0
VERTEX
  8
0
 10
564.565704
 20
837.166707
 42
0.092015
  0
VERTEX
  8
0
 10
565.392773
 20
833.388585
 42
0.016875
  0
VERTEX
  8
0
 10
568.402627
 20
826.873457
 42
-0.009494
  0
VERTEX
  8
0
 10
570.789516
 20
821.900904
 42
-0.030393
  0
VERTEX
  8
0
 10
572.111220
 20
818.470633
 42
-0.041685
  0
VERTEX
  8
0
 10
572.777038
 20
815.543871
 42
-0.035105
  0
VERTEX
  8
0
 10
573.000000
 20
812.372161
 42
-0.018956
  0
VERTEX
  8
0
 10
572.897754
 20
809.676273
 42
-0.047310
  0
VERTEX
  8
0
 10
572.563855
 20
807.735375
 42
-0.062983
  0
VERTEX
  8
0
 10
571.951923
 20
806.249709
 42
-0.067322
  0
VERTEX
  8
0
 10
571.000000
 20
805.000000
 42
0.037139
  0
VERTEX
  8
0
 10
569.478824
 20
803.234349
 42
0.170647
  0
VERTEX
  8
0
 10
569.086908
 20
801.962311
 42
0.333133
  0
VERTEX
  8
0
 10
569.663057
 20
801.253188
 42
0.098547
  0
VERTEX
  8
0
 10
571.149674
 20
801.180449
 42
0.138761
  0
VERTEX
  8
0
 10
573.662884
 20
802.312835
 42
0.090432
  0
VERTEX
  8
0
 10
575.704827
 20
804.780209
 42
0.074908
  0
VERTEX
  8
0
 10
577.030500
 20
808.287034
 42
0.055397
  0
VERTEX
  8
0
 10
577.450086
 20
812.418811
 42
0.035952
  0
VERTEX
  8
0
 10
577.203524
 20
815.443017
 42
0.035292
  0
VERTEX
  8
0
 10
576.525992
 20
818.420008
 42
0.027315
  0
VERTEX
  8
0
 10
575.271861
 20
821.866967
 42
0.010956
  0
VERTEX
  8
0
 10
573.200086
 20
826.438861
 42
-0.003934
  0
VERTEX
  8
0
 10
571.590744
 20
829.861615
 42
-0.005768
  0
VERTEX
  8
0
 10
570.233775
 20
832.899340
 42
-0.002937
  0
VERTEX
  8
0
 10
569.131208
 20
835.487647
 42
-0.099533
  0
VERTEX
  8
0
 10
569.000000
 20
836.140234
 42
-0.130153
  0
VERTEX
  8
0
 10
569.162878
 20
836.755353
 42
-0.005383
  0
VERTEX
  8
0
 10
570.321875
 20
838.740418
 42
-0.009033
  0
VERTEX
  8
0
 10
571.775887
 20
841.073595
 42
-0.006258
  0
VERTEX
  8
0
 10
573.500000
 20
843.660465
 42
0.030395
  0
VERTEX
  8
0
 10
576.583829
 20
848.809464
 42
0.085068
  0
VERTEX
  8
0
 10
577.859144
 20
852.802769
 42
0.105330
  0
VERTEX
  8
0
 10
577.599817
 20
856.475708
 42
0.063252
  0
VERTEX
  8
0
 10
575.863636
 20
860.506546
 42
-0.037992
  0
VERTEX
  8
0
 10
575.036245
 20
862.188785
 42
-0.025983
  0
VERTEX
  8
0
 10
574.347610
 20
864.204538
 42
-0.026180
  0
VERTEX
  8
0
 10
573.879913
 20
866.249000
 42
-0.043163
  0
VERTEX
  8
0
 10
573.727273
 20
868.013887
 42
-0.063660
  0
VERTEX
  8
0
 10
574.303370
 20
872.520340
 42
-0.040880
  0
VERTEX
  8
0
 10
576.043813
 20
877.503615
 42
-0.041414
  0
VERTEX
  8
0
 10
578.448557
 20
881.900151
 42
-0.100905
  0
VERTEX
  8
0
 10
581.045682
 20
884.502366
 42
0.043203
  0
VERTEX
  8
0
 10
583.513140
 20
886.463652
 42
0.049190
  0
VERTEX
  8
0
 10
585.490437
 20
888.743055
 42
0.058561
  0
VERTEX
  8
0
 10
586.613025
 20
890.801578
 42
0.313225
  0
VERTEX
  8
0
 10
586.343098
 20
891.981902
 42
0.191421
  0
VERTEX
  8
0
 10
585.772151
 20
892.197210
 42
0.028500
  0
VERTEX
  8
0
 10
584.522589
 20
892.103775
 42
0.028660
  0
VERTEX
  8
0
 10
582.988287
 20
891.810411
 42
0.021125
  0
SEQEND
  0
POLYLINE
  8
0
 66
1
 70
1
  0
VERTEX
  8
0
 10
569.047727
 20
763.893881
 42
0.035255
  0
VERTEX
  8
0
 10
565.934309
 20
760.307465
 42
0.068146
  0
VERTEX
  8
0
 10
564.088361
 20
756.994557
 42
0.070655
  0
VERTEX
  8
0
 10
563.239667
 20
753.389292
 42
0.040604
  0
VERTEX
  8
0
 10
563.199616
 20
748.917093
 42
0.042927
  0
VERTEX
  8
0
 10
563.883218
 20
744.626804
 42
0.059633
  0
VERTEX
  8
0
 10
565.263578
 20
740.991949
 42
0.028165
  0
VERTEX
  8
0
 10
568.143883
 20
736.169112
 42
0.003089
  0
VERTEX
  8
0
 10
575.437833
 20
725.527384
 42
-0.008684
  0
VERTEX
  8
0
 10
578.560615
 20
720.860152
 42
-0.033317
  0
VERTEX
  8
0
 10
580.252694
 20
717.804345
 42
-0.051777
  0
VERTEX
  8
0
 10
581.119262
 20
715.320112
 42
-0.054418
  0
VERTEX
  8
0
 10
581.437833
 20
712.752451
 42
0.019409
  0
VERTEX
  8
0
 10
581.553079
 20
710.601348
 42
0.077200
  0
VERTEX
  8
0
 10
581.874615
 20
709.323094
 42
0.132293
  0
VERTEX
  8
0
 10
582.461814
 20
708.572067
 42
0.113993
  0
VERTEX
  8
0
 10
583.380173
 20
708.165089
 42
0.139800
  0
VERTEX
  8
0
 10
584.924042
 20
708.300766
 42
0.160412
  0
VERTEX
  8
0
 10
586.067575
 20
709.232271
 42
0.103127
  0
VERTEX
  8
0
 10
586.760869
 20
711.054341
 42
0.038372
  0
VERTEX
  8
0
 10
586.984687
 20
713.799660
 42
0.069161
  0
VERTEX
  8
0
 10
586.568911
 20
716.896491
 42
0.047046
  0
VERTEX
  8
0
 10
585.296078
 20
720.221615
 42
0.027025
  0
VERTEX
  8
0
 10
582.769554
 20
724.700034
 42
0.005934
  0
VERTEX
  8
0
 10
577.928717
 20
732.095964
 42
-0.010655
  0
VERTEX
  8
0
 10
573.863572
 20
738.436632
 42
-0.024181
  0
VERTEX
  8
0
 10
571.131834
 20
743.431731
 42
-0.031859
  0
VERTEX
  8
0
 10
569.502452
 20
747.413753
 42
-0.081354
  0
VERTEX
  8
0
 10
569.000000
 20
750.481355
 42
-0.075281
  0
VERTEX
  8
0
 10
569.183400
 20
751.692560
 42
-0.016027
  0
VERTEX
  8
0
 10
569.881250
 20
753.712738
 42
-0.016420
  0
VERTEX
  8
0
 10
570.851586
 20
756.023926
 42
-0.014965
  0
VERTEX
  8
0
 10
572.000000
 20
758.340336
 42
0.010309
  0
VERTEX
  8
0
 10
573.148738
 20
760.604190
 42
0.012806
  0
VERTEX
  8
0
 10
574.118750
 20
762.756959
 42
0.011138
  0
VERTEX
  8
0
 10
574.840756
 20
764.588736
 42
0.088526
  0
VERTEX
  8
0
 10
575.000000
 20
765.481104
 42
0.225902
  0
VERTEX
  8
0
 10
574.464761
 20
766.605318
 42
0.240137
  0
VERTEX
  8
0
 10
573.276904
 20
766.859439
 42
0.097948
  0
VERTEX
  8
0
 10
571.372329
 20
765.925604
 42
0.033577
  0
SEQEND
  0
POLYLINE
  8
0
 66
1
 70
1
  0
VERTEX
  8
0
 10
977.556704
 20
747.777494
 42
0.048556
  0
VERTEX
  8
0
 10
976.411588
 20
745.749275
 42
0.132091
  0
VERTEX
  8
0
 10
976.160226
 20
744.132959
 42
0.083146
  0
VERTEX
  8
0
 10
976.711403
 20
742.174165
 42
0.012122
  0
VERTEX
  8
0
 10
978.570070
 20
738.464241
 42
0.000000
  0
VERTEX
  8
0
 10
981.140141
 20
733.630602
 42
0.000000
  0
VERTEX
  8
0
 10
978.533810
 20
728.479281
 42
0.047003
  0
VERTEX
  8
0
 10
975.891424
 20
721.755748
 42
0.089774
  0
VERTEX
  8
0
 10
975.305516
 20
716.000657
 42
0.120052
  0
VERTEX
  8
0
 10
976.773026
 20
711.520917
 42
0.135321
  0
VERTEX
  8
0
 10
980.091194
 20
708.452842
 42
0.154662
  0
VERTEX
  8
0
 10
988.042232
 20
707.085068
 42
0.115176
  0
VERTEX
  8
0
 10
996.408385
 20
710.290366
 42
0.110783
  0
VERTEX
  8
0
 10
1002.729651
 20
717.009297
 42
0.134888
  0
VERTEX
  8
0
 10
1004.993411
 20
725.315100
 42
0.081372
  0
VERTEX
  8
0
 10
1004.516353
 20
728.189726
 42
0.066931
  0
VERTEX
  8
0
 10
1003.132456
 20
730.979404
 42
0.038151
  0
VERTEX
  8
0
 10
1000.374218
 20
734.457819
 42
0.008279
  0
VERTEX
  8
0
 10
995.072189
 20
740.000000
 42
0.016011
  0
VERTEX
  8
0
 10
988.152209
 20
746.563446
 42
0.077419
  0
VERTEX
  8
0
 10
983.610739
 20
749.489865
 42
0.175668
  0
VERTEX
  8
0
 10
980.289224
 20
749.723066
 42
0.172195
  0
SEQEND
  0
POLYLINE
  8
0
 66
1
 70
1
  0
VERTEX
  8
0
 10
588.606989
 20
688.418213
 42
0.126519
  0
VERTEX
  8
0
 10
588.131169
 20
684.288300
 42
0.091502
  0
VERTEX
  8
0
 10
589.592791
 20
679.870161
 42
0.069474
  0
VERTEX
  8
0
 10
593.030229
 20
675.260176
 42
0.037042
  0
VERTEX
  8
0
 10
598.400528
 20
670.575572
 42
-0.015828
  0
VERTEX
  8
0
 10
601.113775
 20
668.404215
 42
-0.013527
  0
VERTEX
  8
0
 10
603.833921
 20
665.952131
 42
-0.013737
  0
VERTEX
  8
0
 10
606.185968
 20
663.587139
 42
-0.037310
  0
VERTEX
  8
0
 10
607.672312
 20
661.751353
 42
-0.012341
  0
VERTEX
  8
0
 10
609.353988
 20
659.192013
 42
-0.108550
  0
VERTEX
  8
0
 10
609.803623
 20
657.922516
 42
-0.133309
  0
VERTEX
  8
0
 10
609.628957
 20
656.691191
 42
-0.022012
  0
VERTEX
  8
0
 10
608.575807
 20
654.510907
 42
0.043040
  0
VERTEX
  8
0
 10
607.620271
 20
652.300158
 42
0.104881
  0
VERTEX
  8
0
 10
607.421209
 20
650.545248
 42
0.184756
  0
VERTEX
  8
0
 10
607.968817
 20
649.443965
 42
0.188166
  0
VERTEX
  8
0
 10
609.106766
 20
649.000000
 42
0.194124
  0
VERTEX
  8
0
 10
610.831805
 20
649.695969
 42
0.048071
  0
VERTEX
  8
0
 10
612.853474
 20
652.058655
 42
0.048631
  0
VERTEX
  8
0
 10
614.475016
 20
654.927072
 42
0.105018
  0
VERTEX
  8
0
 10
614.996262
 20
657.396023
 42
0.091469
  0
VERTEX
  8
0
 10
614.364192
 20
660.799245
 42
0.063826
  0
VERTEX
  8
0
 10
612.509841
 20
664.246319
 42
0.041219
  0
VERTEX
  8
0
 10
609.056730
 20
668.317701
 42
0.012638
  0
VERTEX
  8
0
 10
603.206023
 20
673.875357
 42
-0.011630
  0
VERTEX
  8
0
 10
599.457133
 20
677.422125
 42
-0.022057
  0
VERTEX
  8
0
 10
596.637614
 20
680.474702
 42
-0.027414
  0
VERTEX
  8
0
 10
594.605954
 20
683.164991
 42
-0.050511
  0
VERTEX
  8
0
 10
593.314038
 20
685.580914
 42
0.029953
  0
VERTEX
  8
0
 10
591.945058
 20
688.414847
 42
0.130341
  0
VERTEX
  8
0
 10
590.659408
 20
689.743057
 42
0.310768
  0
VERTEX
  8
0
 10
589.537668
 20
689.675498
 42
0.136239
  0
SEQEND
  0
POLYLINE
  8
0
 66
1
 70
1
  0
VERTEX
  8
0
 10
749.378676
 20
630.808105
 42
0.024362
  0
VERTEX
  8
0
 10
742.845064
 20
623.891887
 42
0.010569
  0
VERTEX
  8
0
 10
734.816481
 20
614.106721
 42
0.010435
  0
VERTEX
  8
0
 10
727.302891
 20
604.121936
 42
0.028590
  0
VERTEX
  8
0
 10
722.563291
 20
596.679559
 42
0.065218
  0
VERTEX
  8
0
 10
717.217964
 20
583.283070
 42
0.140630
  0
VERTEX
  8
0
 10
717.548436
 20
572.279984
 42
0.176070
  0
VERTEX
  8
0
 10
723.405841
 20
564.701860
 42
0.114212
  0
VERTEX
  8
0
 10
733.969822
 20
561.003313
 42
-0.012033
  0
VERTEX
  8
0
 10
736.812651
 20
560.621818
 42
-0.015842
  0
VERTEX
  8
0
 10
739.382184
 20
560.129924
 42
-0.013293
  0
VERTEX
  8
0
 10
741.473586
 20
559.601666
 42
-0.128552
  0
VERTEX
  8
0
 10
742.257074
 20
559.142926
 42
-0.176371
  0
VERTEX
  8
0
 10
742.670169
 20
558.256842
 42
-0.038983
  0
VERTEX
  8
0
 10
742.685783
 20
556.553810
 42
-0.027593
  0
VERTEX
  8
0
 10
742.377325
 20
554.077620
 42
-0.009298
  0
VERTEX
  8
0
 10
741.662489
 20
550.509090
 42
0.018824
  0
VERTEX
  8
0
 10
740.452867
 20
543.810441
 42
0.037903
  0
VERTEX
  8
0
 10
740.103084
 20
538.456331
 42
0.039100
  0
VERTEX
  8
0
 10
740.568845
 20
533.218728
 42
0.021391
  0
VERTEX
  8
0
 10
741.911064
 20
526.909963
 42
0.024769
  0
VERTEX
  8
0
 10
743.787018
 20
520.886770
 42
0.032152
  0
VERTEX
  8
0
 10
746.121605
 20
515.598622
 42
0.035370
  0
VERTEX
  8
0
 10
748.879935
 20
511.107073
 42
0.046551
  0
VERTEX
  8
0
 10
752.028963
 20
507.476427
 42
0.043909
  0
VERTEX
  8
0
 10
754.243207
 20
505.702198
 42
0.098586
  0
VERTEX
  8
0
 10
756.225385
 20
504.884580
 42
0.046074
  0
VERTEX
  8
0
 10
759.178829
 20
504.580479
 42
0.003911
  0
VERTEX
  8
0
 10
766.820021
 20
504.559871
 42
0.007162
  0
VERTEX
  8
0
 10
773.170572
 20
504.683404
 42
0.024522
  0
VERTEX
  8
0
 10
777.284309
 20
505.024833
 42
0.034729
  0
VERTEX
  8
0
 10
780.523253
 20
505.685691
 42
0.030515
  0
VERTEX
  8
0
 10
783.787020
 20
506.809871
 42
-0.011058
  0
VERTEX
  8
0
 10
785.944808
 20
507.648316
 42
-0.012417
  0
VERTEX
  8
0
 10
788.056326
 20
508.356650
 42
-0.011746
  0
VERTEX
  8
0
 10
789.876441
 20
508.870865
 42
-0.063046
  0
VERTEX
  8
0
 10
790.896501
 20
509.000000
 42
-0.158155
  0
VERTEX
  8
0
 10
791.851645
 20
508.690127
 42
-0.028511
  0
VERTEX
  8
0
 10
793.318239
 20
507.493362
 42
-0.027588
  0
VERTEX
  8
0
 10
794.968701
 20
505.805507
 42
-0.019705
  0
VERTEX
  8
0
 10
796.629652
 20
503.750000
 42
0.031350
  0
VERTEX
  8
0
 10
799.356705
 20
500.531342
 42
0.078951
  0
VERTEX
  8
0
 10
801.800123
 20
498.682932
 42
0.109728
  0
VERTEX
  8
0
 10
804.169248
 20
498.023476
 42
0.105213
  0
VERTEX
  8
0
 10
806.633928
 20
498.413019
 42
0.103066
  0
VERTEX
  8
0
 10
807.325772
 20
498.858243
 42
0.223722
  0
VERTEX
  8
0
 10
807.539436
 20
499.437492
 42
0.096943
  0
VERTEX
  8
0
 10
807.278785
 20
500.343604
 42
0.012564
  0
VERTEX
  8
0
 10
806.311202
 20
502.121068
 42
0.024371
  0
VERTEX
  8
0
 10
805.321572
 20
503.657028
 42
0.008532
  0
VERTEX
  8
0
 10
803.756382
 20
505.767346
 42
0.008448
  0
VERTEX
  8
0
 10
801.952763
 20
508.034035
 42
0.009776
  0
VERTEX
  8
0
 10
800.157331
 20
510.128967
 42
0.013953
  0
VERTEX
  8
0
 10
797.556864
 20
512.886905
 42
0.066964
  0
VERTEX
  8
0
 10
795.845160
 20
514.196667
 42
0.091614
  0
VERTEX
  8
0
 10
794.113083
 20
514.802944
 42
0.039167
  0
VERTEX
  8
0
 10
791.657331
 20
514.989176
 42
0.026848
  0
VERTEX
  8
0
 10
789.714071
 20
514.879680
 42
0.013499
  0
VERTEX
  8
0
 10
787.279217
 20
514.544086
 42
0.013365
  0
VERTEX
  8
0
 10
784.773969
 20
514.060482
 42
0.019282
  0
VERTEX
  8
0
 10
782.591069
 20
513.489176
 42
-0.049020
  0
VERTEX
  8
0
 10
777.448073
 20
512.464960
 42
-0.020002
  0
VERTEX
  8
0
 10
770.323167
 20
512.046842
 42
-0.017909
  0
VERTEX
  8
0
 10
763.426497
 20
512.165442
 42
-0.093904
  0
VERTEX
  8
0
 10
759.758837
 20
513.064020
 42
-0.111702
  0
VERTEX
  8
0
 10
757.109234
 20
515.078297
 42
-0.029996
  0
VERTEX
  8
0
 10
753.939048
 20
519.351046
 42
-0.029185
  0
VERTEX
  8
0
 10
750.869440
 20
524.712155
 42
-0.028373
  0
VERTEX
  8
0
 10
748.412694
 20
530.444081
 42
-0.019164
  0
VERTEX
  8
0
 10
746.723145
 20
535.720905
 42
-0.059148
  0
VERTEX
  8
0
 10
746.151903
 20
539.415828
 42
-0.049234
  0
VERTEX
  8
0
 10
746.409708
 20
543.492166
 42
-0.010364
  0
VERTEX
  8
0
 10
747.705144
 20
550.520261
 42
0.033184
  0
VERTEX
  8
0
 10
748.770106
 20
558.264471
 42
0.167334
  0
VERTEX
  8
0
 10
747.658360
 20
562.422189
 42
0.165417
  0
VERTEX
  8
0
 10
744.213658
 20
565.041157
 42
0.032248
  0
VERTEX
  8
0
 10
736.563452
 20
567.057567
 42
-0.021904
  0
VERTEX
  8
0
 10
733.647994
 20
567.761893
 42
-0.038098
  0
VERTEX
  8
0
 10
731.317275
 20
568.631213
 42
-0.043812
  0
VERTEX
  8
0
 10
729.383716
 20
569.740166
 42
-0.044304
  0
VERTEX
  8
0
 10
727.680765
 20
571.165389
 42
-0.027937
  0
VERTEX
  8
0
 10
726.028177
 20
573.013739
 42
-0.096547
  0
VERTEX
  8
0
 10
725.288288
 20
574.430840
 42
-0.083872
  0
VERTEX
  8
0
 10
725.081278
 20
576.128610
 42
-0.017968
  0
VERTEX
  8
0
 10
725.325124
 20
579.097349
 42
-0.056331
  0
VERTEX
  8
0
 10
726.553958
 20
584.335417
 42
-0.029953
  0
VERTEX
  8
0
 10
729.168765
 20
590.470998
 42
-0.024861
  0
VERTEX
  8
0
 10
733.122820
 20
597.499227
 42
-0.014650
  0
VERTEX
  8
0
 10
738.496861
 20
605.500000
 42
-0.009218
  0
VERTEX
  8
0
 10
746.155215
 20
615.803028
 42
-0.018635
  0
VERTEX
  8
0
 10
752.628487
 20
623.568271
 42
-0.019560
  0
VERTEX
  8
0
 10
757.919294
 20
629.010516
 42
-0.141686
  0
VERTEX
  8
0
 10
761.125202
 20
630.675040
 42
0.123597
  0
VERTEX
  8
0
 10
764.077720
 20
632.077103
 42
0.299437
  0
VERTEX
  8
0
 10
764.758165
 20
634.279704
 42
0.229690
  0
VERTEX
  8
0
 10
762.948731
 20
636.286208
 42
0.096661
  0
VERTEX
  8
0
 10
759.291001
 20
637.000000
 42
0.070648
  0
VERTEX
  8
0
 10
757.204597
 20
636.703720
 42
0.069169
  0
VERTEX
  8
0
 10
755.266775
 20
635.837780
 42
0.041918
  0
VERTEX
  8
0
 10
752.948176
 20
634.103738
 42
0.009798
  0
SEQEND
  0
POLYLINE
  8
0
 66
1
 70
1
  0
VERTEX
  8
0
 10
698.712576
 20
452.379243
 42
0.175439
  0
VERTEX
  8
0
 10
698.428215
 20
451.772161
 42
0.005608
  0
VERTEX
  8
0
 10
698.209319
 20
449.024376
 42
0.010223
  0
VERTEX
  8
0
 10
698.051651
 20
445.730644
 42
0.006847
  0
VERTEX
  8
0
 10
698.000000
 20
441.959060
 42
0.030053
  0
VERTEX
  8
0
 10
698.558219
 20
432.680139
 42
0.068496
  0
VERTEX
  8
0
 10
700.337900
 20
425.907153
 42
0.088859
  0
VERTEX
  8
0
 10
703.497094
 20
420.989020
 42
0.085912
  0
VERTEX
  8
0
 10
708.200340
 20
417.404986
 42
0.085467
  0
VERTEX
  8
0
 10
711.724309
 20
416.279133
 42
0.066066
  0
VERTEX
  8
0
 10
715.762729
 20
416.251771
 42
0.044653
  0
VERTEX
  8
0
 10
720.969904
 20
417.385675
 42
0.014933
  0
VERTEX
  8
0
 10
728.339404
 20
419.938930
 42
-0.017345
  0
VERTEX
  8
0
 10
737.470401
 20
423.053226
 42
-0.020190
  0
VERTEX
  8
0
 10
746.347335
 20
425.354281
 42
-0.021693
  0
VERTEX
  8
0
 10
754.137809
 20
426.690620
 42
-0.059757
  0
VERTEX
  8
0
 10
759.700520
 20
426.730288
 42
-0.092503
  0
VERTEX
  8
0
 10
765.164708
 20
425.059623
 42
-0.042635
  0
VERTEX
  8
0
 10
771.464316
 20
421.053508
 42
-0.026593
  0
VERTEX
  8
0
 10
779.683365
 20
414.062817
 42
-0.007349
  0
VERTEX
  8
0
 10
791.825939
 20
402.225210
 42
0.005426
  0
VERTEX
  8
0
 10
798.420299
 20
395.746820
 42
0.007783
  0
VERTEX
  8
0
 10
804.413577
 20
390.162258
 42
0.005734
  0
VERTEX
  8
0
 10
809.472044
 20
385.698017
 42
0.079122
  0
VERTEX
  8
0
 10
811.543820
 20
384.417244
 42
0.089673
  0
VERTEX
  8
0
 10
818.226936
 20
382.944429
 42
0.048962
  0
VERTEX
  8
0
 10
826.633555
 20
383.447772
 42
0.043032
  0
VERTEX
  8
0
 10
836.036249
 20
385.785274
 42
0.033623
  0
VERTEX
  8
0
 10
845.743614
 20
389.853952
 42
-0.003822
  0
VERTEX
  8
0
 10
848.869896
 20
391.389133
 42
-0.004524
  0
VERTEX
  8
0
 10
851.849052
 20
392.790841
 42
-0.003961
  0
VERTEX
  8
0
 10
854.381985
 20
393.930512
 42
-0.028500
  0
VERTEX
  8
0
 10
855.636137
 20
394.399573
 42
-0.194345
  0
VERTEX
  8
0
 10
858.242452
 20
394.182774
 42
-0.080157
  0
VERTEX
  8
0
 10
861.163077
 20
392.067280
 42
-0.051800
  0
VERTEX
  8
0
 10
864.403084
 20
388.064327
 42
-0.020799
  0
VERTEX
  8
0
 10
868.000000
 20
382.000000
 42
0.019969
  0
VERTEX
  8
0
 10
871.995424
 20
375.238256
 42
0.073766
  0
VERTEX
  8
0
 10
875.260182
 20
371.522569
 42
0.106683
  0
VERTEX
  8
0
 10
878.775331
 20
369.647268
 42
0.070515
  0
VERTEX
  8
0
 10
883.326725
 20
369.021092
 42
0.053053
  0
VERTEX
  8
0
 10
887.858442
 20
369.521986
 42
0.017268
  0
VERTEX
  8
0
 10
894.390567
 20
371.194251
 42
0.014171
  0
VERTEX
  8
0
 10
900.684699
 20
373.234725
 42
0.111347
  0
VERTEX
  8
0
 10
903.266288
 20
374.866288
 42
0.422080
  0
VERTEX
  8
0
 10
903.248510
 20
376.193811
 42
0.129751
  0
VERTEX
  8
0
 10
901.289005
 20
377.265705
 42
0.053495
  0
VERTEX
  8
0
 10
897.173706
 20
377.827213
 42
0.024293
  0
VERTEX
  8
0
 10
891.733097
 20
377.719160
 42
-0.026723
  0
VERTEX
  8
0
 10
885.696797
 20
377.628600
 42
-0.138527
  0
VERTEX
  8
0
 10
882.555704
 20
378.647725
 42
-0.118396
  0
VERTEX
  8
0
 10
880.159753
 20
381.239970
 42
-0.017248
  0
VERTEX
  8
0
 10
876.848766
 20
387.664261
 42
0.017407
  0
VERTEX
  8
0
 10
875.386278
 20
390.499698
 42
0.013103
  0
VERTEX
  8
0
 10
873.590819
 20
393.513987
 42
0.013289
  0
VERTEX
  8
0
 10
871.750910
 20
396.261981
 42
0.029544
  0
VERTEX
  8
0
 10
870.176307
 20
398.226609
 42
0.063177
  0
VERTEX
  8
0
 10
864.472584
 20
403.128113
 42
0.128744
  0
VERTEX
  8
0
 10
858.919768
 20
405.015414
 42
0.106265
  0
VERTEX
  8
0
 10
852.432479
 20
404.100010
 42
0.034949
  0
VERTEX
  8
0
 10
843.589904
 20
400.132197
 42
-0.006167
  0
VERTEX
  8
0
 10
839.831798
 20
398.178920
 42
-0.006318
  0
VERTEX
  8
0
 10
836.056654
 20
396.335005
 42
-0.006145
  0
VERTEX
  8
0
 10
832.741545
 20
394.816924
 42
-0.026257
  0
VERTEX
  8
0
 10
830.709342
 20
394.041226
 42
-0.041853
  0
VERTEX
  8
0
 10
826.814618
 20
393.135571
 42
-0.033454
  0
VERTEX
  8
0
 10
822.516950
 20
392.799961
 42
-0.034504
  0
VERTEX
  8
0
 10
818.454458
 20
393.035566
 42
-0.066545
  0
VERTEX
  8
0
 10
815.311276
 20
393.871065
 42
-0.080618
  0
VERTEX
  8
0
 10
813.676197
 20
394.881629
 42
-0.008016
  0
VERTEX
  8
0
 10
810.233617
 20
397.965597
 42
-0.009929
  0
VERTEX
  8
0
 10
806.237963
 20
401.812209
 42
-0.007729
  0
VERTEX
  8
0
 10
802.043741
 20
406.145540
 42
0.017465
  0
VERTEX
  8
0
 10
794.210780
 20
413.929176
 42
0.013988
  0
VERTEX
  8
0
 10
785.264282
 20
421.765398
 42
0.013940
  0
VERTEX
  8
0
 10
776.704200
 20
428.456868
 42
0.042164
  0
VERTEX
  8
0
 10
770.406381
 20
432.329630
 42
0.099757
  0
VERTEX
  8
0
 10
763.027580
 20
434.357442
 42
0.039323
  0
VERTEX
  8
0
 10
752.444902
 20
434.259376
 42
0.035403
  0
VERTEX
  8
0
 10
740.214468
 20
432.302612
 42
0.029481
  0
VERTEX
  8
0
 10
727.589196
 20
428.557509
 42
-0.011842
  0
VERTEX
  8
0
 10
720.409613
 20
426.149324
 42
-0.047326
  0
VERTEX
  8
0
 10
715.873281
 20
425.204405
 42
-0.085073
  0
VERTEX
  8
0
 10
712.769622
 20
425.387592
 42
-0.140082
  0
VERTEX
  8
0
 10
710.487679
 20
426.655178
 42
-0.074878
  0
VERTEX
  8
0
 10
708.828440
 20
428.902793
 42
-0.049955
  0
VERTEX
  8
0
 10
707.619825
 20
431.871598
 42
-0.031751
  0
VERTEX
  8
0
 10
706.640146
 20
436.185541
 42
-0.009010
  0
VERTEX
  8
0
 10
705.667271
 20
443.000000
 42
0.004633
  0
VERTEX
  8
0
 10
704.872012
 20
448.941587
 42
0.055030
  0
VERTEX
  8
0
 10
704.293042
 20
451.187719
 42
0.159687
  0
VERTEX
  8
0
 10
703.421759
 20
452.267537
 42
0.115192
  0
VERTEX
  8
0
 10
701.955194
 20
452.795910
 42
0.028471
  0
VERTEX
  8
0
 10
700.934383
 20
452.856723
 42
0.032605
  0
VERTEX
  8
0
 10
699.959033
 20
452.795577
 42
0.034525
  0
VERTEX
  8
0
 10
699.153375
 20
452.634928
 42
0.130624
  0
SEQEND
  0
POLYLINE
  8
0
 66
1
 70
1
  0
VERTEX
  8
0
 10
249.500000
 20
469.327908
 42
0.047676
  0
VERTEX
  8
0
 10
246.115675
 20
468.236822
 42
0.057479
  0
VERTEX
  8
0
 10
243.221498
 20
466.572090
 42
0.041711
  0
VERTEX
  8
0
 10
240.142353
 20
463.870440
 42
0.013100
  0
VERTEX
  8
0
 10
236.000000
 20
459.343222
 42
0.020865
  0
VERTEX
  8
0
 10
227.988794
 20
449.295697
 42
0.108442
  0
VERTEX
  8
0
 10
225.144321
 20
442.845683
 42
0.146344
  0
VERTEX
  8
0
 10
225.698428
 20
436.794664
 42
0.049140
  0
VERTEX
  8
0
 10
229.839408
 20
428.843381
 42
0.027978
  0
VERTEX
  8
0
 10
234.011453
 20
423.172552
 42
0.030736
  0
VERTEX
  8
0
 10
238.670187
 20
418.188592
 42
0.031570
  0
VERTEX
  8
0
 10
243.780345
 20
413.931843
 42
0.033259
  0
VERTEX
  8
0
 10
249.300727
 20
410.432840
 42
0.030037
  0
VERTEX
  8
0
 10
252.039556
 20
409.148880
 42
0.033654
  0
VERTEX
  8
0
 10
254.811741
 20
408.257698
 42
0.029015
  0
VERTEX
  8
0
 10
258.005337
 20
407.657595
 42
0.014825
  0
VERTEX
  8
0
 10
262.066475
 20
407.257990
 42
0.010498
  0
VERTEX
  8
0
 10
267.148820
 20
407.016710
 42
0.062951
  0
VERTEX
  8
0
 10
269.778984
 20
407.278732
 42
0.067205
  0
VERTEX
  8
0
 10
272.187916
 20
408.183368
 42
0.012901
  0
VERTEX
  8
0
 10
276.248897
 20
410.504464
 42
0.029514
  0
VERTEX
  8
0
 10
283.655004
 20
415.615469
 42
0.046596
  0
VERTEX
  8
0
 10
289.266128
 20
420.908033
 42
0.057302
  0
VERTEX
  8
0
 10
292.834416
 20
426.046223
 42
0.123756
  0
VERTEX
  8
0
 10
294.000000
 20
430.683282
 42
0.122717
  0
VERTEX
  8
0
 10
292.167020
 20
438.039132
 42
0.019366
  0
VERTEX
  8
0
 10
284.611871
 20
451.018264
 42
0.019885
  0
VERTEX
  8
0
 10
276.053420
 20
463.377799
 42
0.112505
  0
VERTEX
  8
0
 10
269.969997
 20
468.515515
 42
0.094674
  0
VERTEX
  8
0
 10
266.897402
 20
469.427278
 42
0.015004
  0
VERTEX
  8
0
 10
260.594814
 20
469.867103
 42
0.017470
  0
VERTEX
  8
0
 10
254.095227
 20
469.897850
 42
0.046631
  0
SEQEND
  0
POLYLINE
  8
0
 66
1
 70
1
  0
VERTEX
  8
0
 10
317.000000
 20
399.822443
 42
-0.013466
  0
VERTEX
  8
0
 10
314.435471
 20
397.611699
 42
-0.002876
  0
VERTEX
  8
0
 10
309.856250
 20
393.918015
 42
-0.003005
  0
VERTEX
  8
0
 10
304.498450
 20
389.699358
 42
-0.002857
  0
VERTEX
  8
0
 10
299.000000
 20
385.473431
 42
0.008268
  0
VERTEX
  8
0
 10
289.772480
 20
378.221281
 42
0.015487
  0
VERTEX
  8
0
 10
282.596580
 20
372.008230
 42
0.009953
  0
VERTEX
  8
0
 10
277.243639
 20
366.874626
 42
0.414509
  0
VERTEX
  8
0
 10
277.242908
 20
365.423758
 42
0.293309
  0
VERTEX
  8
0
 10
277.764271
 20
365.310024
 42
0.005709
  0
VERTEX
  8
0
 10
280.443926
 20
366.340894
 42
0.011786
  0
VERTEX
  8
0
 10
283.619822
 20
367.692032
 42
0.007389
  0
VERTEX
  8
0
 10
287.271919
 20
369.413995
 42
0.027115
  0
VERTEX
  8
0
 10
303.349856
 20
378.398524
 42
0.035763
  0
VERTEX
  8
0
 10
316.860081
 20
388.358983
 42
0.037433
  0
VERTEX
  8
0
 10
326.098903
 20
397.528239
 42
0.328041
  0
VERTEX
  8
0
 10
326.535126
 20
402.943165
 42
0.223539
  0
VERTEX
  8
0
 10
325.104649
 20
403.875012
 42
0.113947
  0
VERTEX
  8
0
 10
322.920651
 20
403.679275
 42
0.071306
  0
VERTEX
  8
0
 10
320.131846
 20
402.302181
 42
0.034347
  0
SEQEND
  0
POLYLINE
  8
0
 66
1
 70
1
  0
VERTEX
  8
0
 10
397.666667
 20
388.333333
 42
0.276480
  0
VERTEX
  8
0
 10
396.764358
 20
384.738400
 42
0.041570
  0
VERTEX
  8
0
 10
399.615696
 20
377.529795
 42
0.041412
  0
VERTEX
  8
0
 10
404.405342
 20
369.585117
 42
0.045312
  0
VERTEX
  8
0
 10
410.312355
 20
362.793793
 42
0.035829
  0
VERTEX
  8
0
 10
415.703794
 20
358.319190
 42
0.044983
  0
VERTEX
  8
0
 10
421.300380
 20
355.031004
 42
0.067170
  0
VERTEX
  8
0
 10
425.541790
 20
353.685633
 42
0.465848
  0
VERTEX
  8
0
 10
427.000000
 20
354.911094
 42
0.164587
  0
VERTEX
  8
0
 10
426.822466
 20
355.435819
 42
0.003007
  0
VERTEX
  8
0
 10
425.000054
 20
357.791208
 42
0.007093
  0
VERTEX
  8
0
 10
422.800972
 20
360.517811
 42
0.004637
  0
VERTEX
  8
0
 10
420.191675
 20
363.602077
 42
-0.006066
  0
VERTEX
  8
0
 10
414.928618
 20
369.859349
 42
-0.006329
  0
VERTEX
  8
0
 10
409.894077
 20
376.155372
 42
-0.006642
  0
VERTEX
  8
0
 10
405.579279
 20
381.848004
 42
-0.017063
  0
VERTEX
  8
0
 10
402.657949
 20
386.107391
 42
0.043624
  0
VERTEX
  8
0
 10
401.328994
 20
387.840236
 42
0.102827
  0
VERTEX
  8
0
 10
400.013804
 20
388.787980
 42
0.154874
  0
VERTEX
  8
0
 10
398.779133
 20
388.927079
 42
0.148650
  0
SEQEND
  0
POLYLINE
  8
0
 66
1
 70
1
  0
VERTEX
  8
0
 10
306.321937
 20
368.472732
 42
0.037577
  0
VERTEX
  8
0
 10
304.823392
 20
367.097127
 42
0.013191
  0
VERTEX
  8
0
 10
302.881299
 20
364.912292
 42
0.013012
  0
VERTEX
  8
0
 10
300.864036
 20
362.388139
 42
0.014864
  0
VERTEX
  8
0
 10
299.071937
 20
359.869869
 42
0.014000
  0
VERTEX
  8
0
 10
296.826317
 20
356.294175
 42
0.050335
  0
VERTEX
  8
0
 10
295.699247
 20
353.850769
 42
0.059355
  0
VERTEX
  8
0
 10
295.178846
 20
351.444994
 42
0.025031
  0
VERTEX
  8
0
 10
295.031803
 20
348.136047
 42
0.019525
  0
VERTEX
  8
0
 10
295.133493
 20
345.862009
 42
0.021912
  0
VERTEX
  8
0
 10
295.412110
 20
343.689508
 42
0.021851
  0
VERTEX
  8
0
 10
295.807878
 20
341.877721
 42
0.099331
  0
VERTEX
  8
0
 10
296.281803
 20
340.913343
 42
0.111778
  0
VERTEX
  8
0
 10
299.335412
 20
338.375669
 42
0.087967
  0
VERTEX
  8
0
 10
303.461646
 20
337.120635
 42
0.087628
  0
VERTEX
  8
0
 10
307.782662
 20
337.358634
 42
0.109607
  0
VERTEX
  8
0
 10
311.393041
 20
339.094526
 42
0.088051
  0
VERTEX
  8
0
 10
314.942393
 20
343.071601
 42
0.063154
  0
VERTEX
  8
0
 10
317.414099
 20
348.506302
 42
0.067822
  0
VERTEX
  8
0
 10
318.303270
 20
353.837583
 42
0.182629
  0
VERTEX
  8
0
 10
317.073242
 20
357.411749
 42
0.154429
  0
VERTEX
  8
0
 10
315.392671
 20
358.492823
 42
0.053817
  0
VERTEX
  8
0
 10
312.517473
 20
358.949943
 42
0.052424
  0
VERTEX
  8
0
 10
309.392170
 20
358.779080
 42
0.083198
  0
VERTEX
  8
0
 10
306.858565
 20
357.924306
 42
-0.008753
  0
VERTEX
  8
0
 10
305.644669
 20
357.301735
 42
-0.315346
  0
VERTEX
  8
0
 10
305.349542
 20
357.347719
 42
-0.325945
  0
VERTEX
  8
0
 10
305.298337
 20
357.637148
 42
-0.009083
  0
VERTEX
  8
0
 10
305.911432
 20
358.834509
 42
-0.055361
  0
VERTEX
  8
0
 10
307.551450
 20
361.221433
 42
-0.024285
  0
VERTEX
  8
0
 10
310.201337
 20
364.002914
 42
-0.022985
  0
VERTEX
  8
0
 10
313.004129
 20
366.436960
 42
-0.090699
  0
VERTEX
  8
0
 10
315.013969
 20
367.504434
 42
0.061188
  0
VERTEX
  8
0
 10
315.773332
 20
367.852285
 42
0.063237
  0
VERTEX
  8
0
 10
316.416603
 20
368.370442
 42
0.070090
  0
VERTEX
  8
0
 10
316.852403
 20
368.972630
 42
0.122228
  0
VERTEX
  8
0
 10
317.000000
 20
369.567388
 42
0.350622
  0
VERTEX
  8
0
 10
315.976180
 20
370.847906
 42
0.081187
  0
VERTEX
  8
0
 10
313.021201
 20
371.025007
 42
0.063002
  0
VERTEX
  8
0
 10
309.362070
 20
370.175980
 42
0.078586
  0
SEQEND
  0
POLYLINE
  8
0
 66
1
 70
1
  0
VERTEX
  8
0
 10
393.358832
 20
362.492718
 42
0.176428
  0
VERTEX
  8
0
 10
393.343997
 20
361.627611
 42
0.042875
  0
VERTEX
  8
0
 10
393.933136
 20
360.300582
 42
0.036112
  0
VERTEX
  8
0
 10
394.961027
 20
358.716888
 42
0.021707
  0
VERTEX
  8
0
 10
396.390217
 20
356.989837
 42
-0.010580
  0
VERTEX
  8
0
 10
397.772953
 20
355.392637
 42
-0.014633
  0
VERTEX
  8
0
 10
398.939626
 20
353.899067
 42
-0.011144
  0
VERTEX
  8
0
 10
399.835175
 20
352.622027
 42
-0.148398
  0
VERTEX
  8
0
 10
400.000000
 20
352.078907
 42
0.044337
  0
VERTEX
  8
0
 10
400.040780
 20
351.619921
 42
0.015306
  0
VERTEX
  8
0
 10
400.178303
 20
350.967804
 42
0.015071
  0
VERTEX
  8
0
 10
400.374624
 20
350.254533
 42
0.016921
  0
VERTEX
  8
0
 10
400.606989
 20
349.581787
 42
-0.087128
  0
VERTEX
  8
0
 10
400.752935
 20
348.833377
 42
-0.227398
  0
VERTEX
  8
0
 10
400.530962
 20
348.347348
 42
-0.143601
  0
VERTEX
  8
0
 10
399.902923
 20
348.074430
 42
-0.031181
  0
VERTEX
  8
0
 10
398.710581
 20
348.000000
 42
0.155368
  0
VERTEX
  8
0
 10
395.952251
 20
347.121684
 42
0.063280
  0
VERTEX
  8
0
 10
393.018745
 20
344.427297
 42
0.061962
  0
VERTEX
  8
0
 10
390.760341
 20
340.962909
 42
0.115704
  0
VERTEX
  8
0
 10
390.021962
 20
337.715204
 42
0.066407
  0
VERTEX
  8
0
 10
390.570943
 20
333.804007
 42
0.054780
  0
VERTEX
  8
0
 10
392.140304
 20
329.892125
 42
0.058679
  0
VERTEX
  8
0
 10
394.303053
 20
326.785781
 42
0.151001
  0
VERTEX
  8
0
 10
396.616015
 20
325.381526
 42
0.172075
  0
VERTEX
  8
0
 10
401.022179
 20
325.800968
 42
0.090719
  0
VERTEX
  8
0
 10
405.561649
 20
329.018928
 42
0.080330
  0
VERTEX
  8
0
 10
409.139008
 20
334.106137
 42
0.089429
  0
VERTEX
  8
0
 10
410.762246
 20
339.877448
 42
0.083617
  0
VERTEX
  8
0
 10
410.187074
 20
347.958830
 42
0.069283
  0
VERTEX
  8
0
 10
407.013478
 20
355.991982
 42
0.077497
  0
VERTEX
  8
0
 10
402.275396
 20
361.981451
 42
0.188910
  0
VERTEX
  8
0
 10
397.123451
 20
364.000000
 42
0.038493
  0
VERTEX
  8
0
 10
395.786763
 20
363.896942
 42
0.056796
  0
VERTEX
  8
0
 10
394.652904
 20
363.586352
 42
0.069844
  0
VERTEX
  8
0
 10
393.814014
 20
363.105706
 42
0.137006
  0
SEQEND
  0
POLYLINE
  8
0
 66
1
 70
1
  0
VERTEX
  8
0
 10
192.465282
 20
356.048476
 42
0.062546
  0
VERTEX
  8
0
 10
190.546654
 20
354.975197
 42
0.074476
  0
VERTEX
  8
0
 10
189.078877
 20
353.512578
 42
0.089448
  0
VERTEX
  8
0
 10
188.296479
 20
351.933643
 42
0.163444
  0
VERTEX
  8
0
 10
188.356740
 20
350.512735
 42
0.176295
  0
VERTEX
  8
0
 10
188.981498
 20
349.793780
 42
0.072982
  0
VERTEX
  8
0
 10
190.204643
 20
349.332440
 42
0.042032
  0
VERTEX
  8
0
 10
192.174249
 20
349.073024
 42
0.011736
  0
VERTEX
  8
0
 10
195.284956
 20
349.000000
 42
-0.013607
  0
VERTEX
  8
0
 10
198.138517
 20
348.922330
 42
-0.008456
  0
VERTEX
  8
0
 10
201.479703
 20
348.683581
 42
-0.008482
  0
VERTEX
  8
0
 10
204.770760
 20
348.336048
 42
-0.015157
  0
VERTEX
  8
0
 10
207.459630
 20
347.922830
 42
0.010170
  0
VERTEX
  8
0
 10
210.410070
 20
347.439247
 42
0.041543
  0
VERTEX
  8
0
 10
212.221286
 20
347.332115
 42
0.076692
  0
VERTEX
  8
0
 10
213.369397
 20
347.537528
 42
0.173484
  0
VERTEX
  8
0
 10
214.049901
 20
348.080742
 42
0.188625
  0
VERTEX
  8
0
 10
214.362071
 20
349.789399
 42
0.091440
  0
VERTEX
  8
0
 10
213.536605
 20
351.889347
 42
0.075309
  0
VERTEX
  8
0
 10
211.792184
 20
353.930220
 42
0.067642
  0
VERTEX
  8
0
 10
209.460313
 20
355.451808
 42
0.076881
  0
VERTEX
  8
0
 10
206.106091
 20
356.451309
 42
0.025268
  0
VERTEX
  8
0
 10
200.959771
 20
356.893013
 42
0.025145
  0
VERTEX
  8
0
 10
195.809123
 20
356.814793
 42
0.080080
  0
SEQEND
  0
POLYLINE
  8
0
 66
1
 70
1
  0
VERTEX
  8
0
 10
341.277696
 20
331.101087
 42
0.050061
  0
VERTEX
  8
0
 10
335.349392
 20
326.367293
 42
0.048015
  0
VERTEX
  8
0
 10
330.387384
 20
320.487783
 42
0.046576
  0
VERTEX
  8
0
 10
326.513006
 20
313.592574
 42
0.041761
  0
VERTEX
  8
0
 10
323.812848
 20
305.845442
 42
0.041130
  0
VERTEX
  8
0
 10
322.377017
 20
297.464925
 42
0.097630
  0
VERTEX
  8
0
 10
323.050808
 20
291.202134
 42
0.130860
  0
VERTEX
  8
0
 10
325.827233
 20
286.793844
 42
0.107846
  0
VERTEX
  8
0
 10
330.626985
 20
283.958091
 42
0.043127
  0
VERTEX
  8
0
 10
332.864593
 20
283.428093
 42
0.073062
  0
VERTEX
  8
0
 10
334.786419
 20
283.427118
 42
0.047612
  0
VERTEX
  8
0
 10
337.138275
 20
284.003931
 42
0.009555
  0
VERTEX
  8
0
 10
341.187929
 20
285.504115
 42
-0.033007
  0
VERTEX
  8
0
 10
347.151339
 20
287.400516
 42
-0.093957
  0
VERTEX
  8
0
 10
351.484999
 20
287.637112
 42
-0.105341
  0
VERTEX
  8
0
 10
355.311814
 20
286.271658
 42
-0.048055
  0
VERTEX
  8
0
 10
359.562568
 20
283.049091
 42
0.020499
  0
VERTEX
  8
0
 10
361.700709
 20
281.234524
 42
0.038617
  0
VERTEX
  8
0
 10
363.586265
 20
279.984211
 42
0.048591
  0
VERTEX
  8
0
 10
365.280570
 20
279.245339
 42
0.078692
  0
VERTEX
  8
0
 10
366.829774
 20
279.000000
 42
0.141662
  0
VERTEX
  8
0
 10
371.907171
 20
280.468010
 42
0.086553
  0
VERTEX
  8
0
 10
376.565520
 20
284.683888
 42
0.079204
  0
VERTEX
  8
0
 10
379.861184
 20
290.653093
 42
0.086813
  0
VERTEX
  8
0
 10
381.000000
 20
297.162669
 42
0.045999
  0
VERTEX
  8
0
 10
380.301921
 20
304.734606
 42
0.033444
  0
VERTEX
  8
0
 10
378.201790
 20
312.934414
 42
0.033750
  0
VERTEX
  8
0
 10
375.266224
 20
320.177358
 42
0.096636
  0
VERTEX
  8
0
 10
372.014429
 20
324.497639
 42
-0.027245
  0
VERTEX
  8
0
 10
371.068810
 20
325.447024
 42
-0.016892
  0
VERTEX
  8
0
 10
370.060708
 20
326.655726
 42
-0.016933
  0
VERTEX
  8
0
 10
369.143599
 20
327.920169
 42
-0.029108
  0
VERTEX
  8
0
 10
368.479769
 20
329.039122
 42
0.145481
  0
VERTEX
  8
0
 10
366.388914
 20
331.211906
 42
0.043057
  0
VERTEX
  8
0
 10
362.147940
 20
333.154928
 42
0.041112
  0
VERTEX
  8
0
 10
356.986421
 20
334.535601
 42
0.044829
  0
VERTEX
  8
0
 10
351.817144
 20
335.000000
 42
0.039633
  0
VERTEX
  8
0
 10
349.284813
 20
334.798955
 42
0.049007
  0
VERTEX
  8
0
 10
346.996761
 20
334.199127
 42
0.039314
  0
VERTEX
  8
0
 10
344.507196
 20
333.048577
 42
0.015574
  0
SEQEND
  0
POLYLINE
  8
0
 66
1
 70
1
  0
VERTEX
  8
0
 10
364.040573
 20
323.365279
 42
-0.020700
  0
VERTEX
  8
0
 10
366.322144
 20
321.046817
 42
-0.032437
  0
VERTEX
  8
0
 10
368.061192
 20
318.856855
 42
-0.037417
  0
VERTEX
  8
0
 10
369.309981
 20
316.732736
 42
-0.048211
  0
VERTEX
  8
0
 10
370.107806
 20
314.615279
 42
-0.058236
  0
VERTEX
  8
0
 10
370.817684
 20
309.842297
 42
-0.020729
  0
VERTEX
  8
0
 10
370.747620
 20
302.936918
 42
-0.016461
  0
VERTEX
  8
0
 10
370.179386
 20
296.229613
 42
-0.144822
  0
VERTEX
  8
0
 10
369.018501
 20
293.522292
 42
-0.042594
  0
VERTEX
  8
0
 10
368.198166
 20
292.689498
 42
-0.202962
  0
VERTEX
  8
0
 10
367.575088
 20
292.491752
 42
-0.143668
  0
VERTEX
  8
0
 10
366.865593
 20
292.773944
 42
-0.018428
  0
VERTEX
  8
0
 10
365.599909
 20
293.841726
 42
0.042030
  0
VERTEX
  8
0
 10
362.799993
 20
295.986326
 42
0.058362
  0
VERTEX
  8
0
 10
359.961417
 20
297.368134
 42
0.053097
  0
VERTEX
  8
0
 10
356.678712
 20
298.137944
 42
0.028054
  0
VERTEX
  8
0
 10
352.500000
 20
298.423191
 42
0.022006
  0
VERTEX
  8
0
 10
349.119850
 20
298.315189
 42
0.047115
  0
VERTEX
  8
0
 10
346.549662
 20
297.873717
 42
0.044729
  0
VERTEX
  8
0
 10
344.025989
 20
296.942008
 42
0.018059
  0
VERTEX
  8
0
 10
340.765149
 20
295.247788
 42
-0.012390
  0
VERTEX
  8
0
 10
336.303640
 20
292.865146
 42
-0.090419
  0
VERTEX
  8
0
 10
333.986675
 20
292.185366
 42
-0.207320
  0
VERTEX
  8
0
 10
332.485163
 20
292.656116
 42
-0.109959
  0
VERTEX
  8
0
 10
331.300678
 20
294.250000
 42
-0.177215
  0
VERTEX
  8
0
 10
330.873192
 20
300.411291
 42
-0.046629
  0
VERTEX
  8
0
 10
334.551336
 20
309.763579
 42
-0.046859
  0
VERTEX
  8
0
 10
340.324710
 20
318.940689
 42
-0.082833
  0
VERTEX
  8
0
 10
346.852240
 20
325.025517
 42
-0.053070
  0
VERTEX
  8
0
 10
351.642745
 20
327.513321
 42
-0.117850
  0
VERTEX
  8
0
 10
355.691253
 20
328.076932
 42
-0.115141
  0
VERTEX
  8
0
 10
359.617989
 20
326.751354
 42
-0.049336
  0
SEQEND
  0
POLYLINE
  8
0
 66
1
 70
1
  0
VERTEX
  8
0
 10
197.745897
 20
296.704896
 42
0.000000
  0
VERTEX
  8
0
 10
194.991794
 20
295.500000
 42
0.000000
  0
VERTEX
  8
0
 10
197.808878
 20
292.500000
 42
0.037046
  0
VERTEX
  8
0
 10
199.733890
 20
290.732477
 42
0.108004
  0
VERTEX
  8
0
 10
201.346627
 20
289.946381
 42
0.062735
  0
VERTEX
  8
0
 10
203.600678
 20
289.690442
 42
0.006893
  0
VERTEX
  8
0
 10
208.812981
 20
289.826147
 42
0.005995
  0
VERTEX
  8
0
 10
213.492264
 20
290.068779
 42
0.049076
  0
VERTEX
  8
0
 10
215.600363
 20
290.413027
 42
0.140960
  0
VERTEX
  8
0
 10
216.612296
 20
291.019632
 42
0.189912
  0
VERTEX
  8
0
 10
217.000000
 20
292.003567
 42
0.106400
  0
VERTEX
  8
0
 10
216.815699
 20
292.859841
 42
0.041858
  0
VERTEX
  8
0
 10
216.226010
 20
293.919849
 42
0.039019
  0
VERTEX
  8
0
 10
215.373318
 20
294.997600
 42
0.039256
  0
VERTEX
  8
0
 10
214.365141
 20
295.927420
 42
0.113140
  0
VERTEX
  8
0
 10
211.339804
 20
297.356108
 42
0.042306
  0
VERTEX
  8
0
 10
206.656999
 20
297.974566
 42
0.042125
  0
VERTEX
  8
0
 10
201.709461
 20
297.789177
 42
0.072815
  0
SEQEND
  0
POLYLINE
  8
0
 66
1
 70
1
  0
VERTEX
  8
0
 10
455.699509
 20
293.659316
 42
0.135681
  0
VERTEX
  8
0
 10
455.558715
 20
292.207750
 42
0.152813
  0
VERTEX
  8
0
 10
456.199512
 20
290.965706
 42
0.091017
  0
VERTEX
  8
0
 10
457.778473
 20
289.862894
 42
0.027694
  0
VERTEX
  8
0
 10
460.506497
 20
288.796088
 42
-0.048959
  0
VERTEX
  8
0
 10
462.554575
 20
287.893149
 42
-0.045374
  0
VERTEX
  8
0
 10
464.444817
 20
286.589503
 42
-0.038247
  0
VERTEX
  8
0
 10
466.328158
 20
284.759986
 42
-0.020687
  0
VERTEX
  8
0
 10
468.366482
 20
282.250000
 42
0.019082
  0
VERTEX
  8
0
 10
471.207492
 20
278.728548
 42
0.109404
  0
VERTEX
  8
0
 10
473.125861
 20
277.312607
 42
0.290685
  0
VERTEX
  8
0
 10
474.499154
 20
277.517185
 42
0.138324
  0
VERTEX
  8
0
 10
475.522906
 20
279.072172
 42
0.138324
  0
VERTEX
  8
0
 10
475.639738
 20
282.673613
 42
0.073524
  0
VERTEX
  8
0
 10
473.933251
 20
286.833872
 42
0.067009
  0
VERTEX
  8
0
 10
470.853480
 20
290.722343
 42
0.072594
  0
VERTEX
  8
0
 10
466.930544
 20
293.535917
 42
0.070693
  0
VERTEX
  8
0
 10
463.910722
 20
294.590899
 42
0.046022
  0
VERTEX
  8
0
 10
460.229998
 20
294.971236
 42
0.045526
  0
VERTEX
  8
0
 10
456.979306
 20
294.710618
 42
0.264255
  0
SEQEND
  0
POLYLINE
  8
0
 66
1
 70
1
  0
VERTEX
  8
0
 10
255.264550
 20
270.458408
 42
0.040133
  0
VERTEX
  8
0
 10
246.839092
 20
267.446761
 42
0.044187
  0
VERTEX
  8
0
 10
239.286021
 20
263.203698
 42
0.043721
  0
VERTEX
  8
0
 10
232.529511
 20
257.655241
 42
0.037822
  0
VERTEX
  8
0
 10
226.475622
 20
250.756531
 42
0.025134
  0
VERTEX
  8
0
 10
222.194373
 20
244.422852
 42
0.017771
  0
VERTEX
  8
0
 10
218.012757
 20
236.922606
 42
0.012955
  0
VERTEX
  8
0
 10
214.615445
 20
229.838319
 42
0.143368
  0
VERTEX
  8
0
 10
214.192521
 20
226.758204
 42
0.145611
  0
VERTEX
  8
0
 10
215.479523
 20
224.006840
 42
0.108849
  0
VERTEX
  8
0
 10
218.204912
 20
222.031257
 42
0.071308
  0
VERTEX
  8
0
 10
222.572259
 20
220.831904
 42
0.028021
  0
VERTEX
  8
0
 10
228.813462
 20
220.396764
 42
-0.013955
  0
VERTEX
  8
0
 10
233.698844
 20
220.193959
 42
-0.031439
  0
VERTEX
  8
0
 10
237.371427
 20
219.705388
 42
-0.031592
  0
VERTEX
  8
0
 10
240.942979
 20
218.761866
 42
-0.014222
  0
VERTEX
  8
0
 10
245.500000
 20
217.099038
 42
-0.004165
  0
VERTEX
  8
0
 10
248.767281
 20
215.768775
 42
-0.004332
  0
VERTEX
  8
0
 10
251.969116
 20
214.401281
 42
-0.004175
  0
VERTEX
  8
0
 10
254.717628
 20
213.171699
 42
-0.018822
  0
VERTEX
  8
0
 10
256.288481
 20
212.380374
 42
0.005873
  0
VERTEX
  8
0
 10
260.743688
 20
209.989469
 42
0.027615
  0
VERTEX
  8
0
 10
263.388811
 20
208.790496
 42
0.046101
  0
VERTEX
  8
0
 10
265.434899
 20
208.206073
 42
0.046049
  0
VERTEX
  8
0
 10
267.554219
 20
208.006161
 42
0.102165
  0
VERTEX
  8
0
 10
270.763617
 20
208.662105
 42
0.035556
  0
VERTEX
  8
0
 10
274.978802
 20
210.836846
 42
0.035879
  0
VERTEX
  8
0
 10
279.000857
 20
213.702888
 42
0.067301
  0
VERTEX
  8
0
 10
281.704524
 20
216.631099
 42
0.030847
  0
VERTEX
  8
0
 10
282.720566
 20
218.290257
 42
0.006573
  0
VERTEX
  8
0
 10
284.267602
 20
221.301010
 42
0.006851
  0
VERTEX
  8
0
 10
285.969493
 20
224.843997
 42
0.006470
  0
VERTEX
  8
0
 10
287.607283
 20
228.500000
 42
0.026500
  0
VERTEX
  8
0
 10
290.779026
 20
237.049687
 42
0.088865
  0
VERTEX
  8
0
 10
291.520954
 20
242.954715
 42
0.092688
  0
VERTEX
  8
0
 10
290.153499
 20
248.613060
 42
0.030360
  0
VERTEX
  8
0
 10
286.155715
 20
256.242206
 42
0.019413
  0
VERTEX
  8
0
 10
282.144528
 20
262.335320
 42
0.053606
  0
VERTEX
  8
0
 10
278.729848
 20
266.165356
 42
0.066422
  0
VERTEX
  8
0
 10
275.035740
 20
268.708448
 42
0.044512
  0
VERTEX
  8
0
 10
270.268646
 20
270.619664
 42
0.026050
  0
VERTEX
  8
0
 10
266.390315
 20
271.569761
 42
0.049767
  0
VERTEX
  8
0
 10
263.198443
 20
271.853638
 42
0.045177
  0
VERTEX
  8
0
 10
259.816317
 20
271.510743
 42
0.017937
  0
SEQEND
  0
POLYLINE
  8
0
 66
1
 70
1
  0
VERTEX
  8
0
 10
425.500000
 20
254.667517
 42
0.057425
  0
VERTEX
  8
0
 10
422.197915
 20
252.643994
 42
0.103433
  0
VERTEX
  8
0
 10
420.160473
 20
250.225842
 42
0.075457
  0
VERTEX
  8
0
 10
418.887876
 20
246.666770
 42
0.019909
  0
VERTEX
  8
0
 10
417.964249
 20
240.675397
 42
-0.011409
  0
VERTEX
  8
0
 10
417.413017
 20
236.646028
 42
-0.005712
  0
VERTEX
  8
0
 10
416.542028
 20
231.578086
 42
-0.005667
  0
VERTEX
  8
0
 10
415.520881
 20
226.351861
 42
-0.008334
  0
VERTEX
  8
0
 10
414.495326
 20
221.786314
 42
0.006583
  0
VERTEX
  8
0
 10
412.405763
 20
212.634050
 42
0.023678
  0
VERTEX
  8
0
 10
411.428495
 20
206.726760
 42
0.036988
  0
VERTEX
  8
0
 10
411.256343
 20
202.693671
 42
0.115538
  0
VERTEX
  8
0
 10
411.953593
 20
200.086713
 42
0.091494
  0
VERTEX
  8
0
 10
413.740991
 20
197.848504
 42
0.052492
  0
VERTEX
  8
0
 10
416.582065
 20
195.864719
 42
0.051556
  0
VERTEX
  8
0
 10
419.859216
 20
194.472806
 42
0.074524
  0
VERTEX
  8
0
 10
422.965984
 20
194.003738
 42
0.045626
  0
VERTEX
  8
0
 10
427.879513
 20
194.447700
 42
0.008617
  0
VERTEX
  8
0
 10
436.718800
 20
196.226002
 42
0.009063
  0
VERTEX
  8
0
 10
445.526059
 20
198.324336
 42
0.038102
  0
VERTEX
  8
0
 10
450.669670
 20
200.075720
 42
0.090789
  0
VERTEX
  8
0
 10
459.235798
 20
205.754739
 42
0.072931
  0
VERTEX
  8
0
 10
466.014961
 20
214.513492
 42
0.066922
  0
VERTEX
  8
0
 10
470.438939
 20
225.608112
 42
0.056964
  0
VERTEX
  8
0
 10
472.098669
 20
238.110866
 42
0.008354
  0
VERTEX
  8
0
 10
472.105280
 20
242.624560
 42
0.042560
  0
VERTEX
  8
0
 10
471.854017
 20
245.120970
 42
0.075840
  0
VERTEX
  8
0
 10
471.264814
 20
246.803885
 42
0.074446
  0
VERTEX
  8
0
 10
470.197877
 20
248.246567
 42
0.141975
  0
VERTEX
  8
0
 10
463.768598
 20
251.786772
 42
0.019650
  0
VERTEX
  8
0
 10
448.617038
 20
254.574772
 42
0.020487
  0
VERTEX
  8
0
 10
433.277377
 20
256.140348
 42
0.124588
  0
SEQEND
  0
POLYLINE
  8
0
 66
1
 70
1
  0
VERTEX
  8
0
 10
322.000000
 20
191.248446
 42
0.030370
  0
VERTEX
  8
0
 10
320.327920
 20
190.282145
 42
0.074376
  0
VERTEX
  8
0
 10
319.274845
 20
189.333618
 42
0.095312
  0
VERTEX
  8
0
 10
318.698872
 20
188.276930
 42
0.077405
  0
VERTEX
  8
0
 10
318.500000
 20
187.000000
 42
0.084279
  0
VERTEX
  8
0
 10
318.746719
 20
185.546695
 42
0.242864
  0
VERTEX
  8
0
 10
319.466861
 20
184.865008
 42
0.077013
  0
VERTEX
  8
0
 10
321.073897
 20
184.658586
 42
0.004546
  0
VERTEX
  8
0
 10
326.000000
 20
184.831390
 42
-0.010239
  0
VERTEX
  8
0
 10
330.394050
 20
184.935457
 42
-0.050818
  0
VERTEX
  8
0
 10
332.850257
 20
184.693117
 42
-0.072832
  0
VERTEX
  8
0
 10
334.776597
 20
184.000190
 42
-0.035214
  0
VERTEX
  8
0
 10
337.000000
 20
182.602798
 42
0.012625
  0
VERTEX
  8
0
 10
340.500919
 20
180.175392
 42
0.039133
  0
VERTEX
  8
0
 10
343.018249
 20
178.791058
 42
0.061497
  0
VERTEX
  8
0
 10
344.931426
 20
178.195642
 42
0.137172
  0
VERTEX
  8
0
 10
346.436230
 20
178.337156
 42
0.307749
  0
VERTEX
  8
0
 10
347.964533
 20
180.536502
 42
0.123702
  0
VERTEX
  8
0
 10
347.065299
 20
184.276353
 42
0.082579
  0
VERTEX
  8
0
 10
343.943656
 20
188.409155
 42
0.079175
  0
VERTEX
  8
0
 10
339.610493
 20
191.380543
 42
0.072216
  0
VERTEX
  8
0
 10
335.716558
 20
192.580317
 42
0.040573
  0
VERTEX
  8
0
 10
330.770791
 20
192.944987
 42
0.040604
  0
VERTEX
  8
0
 10
325.841311
 20
192.506768
 42
0.073498
  0
SEQEND
  0
ENDSEC
  0
EOF
