  0
SECTION
  2
HEADER
  9
$ACADVER
  1
AC1006
  9
$EXTMIN
 10
0.000000
 20
0.000000
 30
0.000000
  9
$EXTMAX
 10
572.000000
 20
146.000000
 30
0.000000
  0
ENDSEC
  0
SECTION
  2
ENTITIES
  0
POLYLINE
  8
0
 66
1
 70
1
  0
VERTEX
  8
0
 10
77.000000
 20
120.097915
 42
0.003024
  0
VERTEX
  8
0
 10
56.263242
 20
113.088218
 42
0.005403
  0
VERTEX
  8
0
 10
39.313361
 20
107.038431
 42
0.002203
  0
VERTEX
  8
0
 10
25.328133
 20
101.805610
 42
0.140048
  0
VERTEX
  8
0
 10
23.250000
 20
100.255980
 42
0.094503
  0
VERTEX
  8
0
 10
22.216746
 20
98.187846
 42
0.109980
  0
VERTEX
  8
0
 10
22.094378
 20
95.997426
 42
0.110736
  0
VERTEX
  8
0
 10
22.911873
 20
93.973324
 42
0.096885
  0
VERTEX
  8
0
 10
24.548053
 20
92.376557
 42
0.080945
  0
VERTEX
  8
0
 10
26.387997
 20
91.558194
 42
0.103602
  0
VERTEX
  8
0
 10
28.235606
 20
91.464817
 42
0.041516
  0
VERTEX
  8
0
 10
31.037915
 20
92.147486
 42
0.003838
  0
VERTEX
  8
0
 10
37.798053
 20
94.460094
 42
-0.001243
  0
VERTEX
  8
0
 10
49.871580
 20
98.660512
 42
-0.006956
  0
VERTEX
  8
0
 10
56.372701
 20
100.803432
 42
-0.005234
  0
VERTEX
  8
0
 10
60.641646
 20
102.096087
 42
-0.273789
  0
VERTEX
  8
0
 10
61.442529
 20
101.890804
 42
-0.274403
  0
VERTEX
  8
0
 10
61.550629
 20
101.467053
 42
-0.005987
  0
VERTEX
  8
0
 10
60.901201
 20
99.351315
 42
-0.011943
  0
VERTEX
  8
0
 10
60.029358
 20
96.836209
 42
-0.007566
  0
VERTEX
  8
0
 10
58.899395
 20
93.946048
 42
0.022602
  0
VERTEX
  8
0
 10
55.610259
 20
84.725011
 42
0.014753
  0
VERTEX
  8
0
 10
52.619100
 20
73.829459
 42
0.014845
  0
VERTEX
  8
0
 10
50.347215
 20
63.104145
 42
0.029669
  0
VERTEX
  8
0
 10
49.312072
 20
54.500000
 42
0.006569
  0
VERTEX
  8
0
 10
49.059314
 20
49.157325
 42
0.043322
  0
VERTEX
  8
0
 10
49.199489
 20
46.487407
 42
0.079364
  0
VERTEX
  8
0
 10
49.770421
 20
44.624857
 42
0.054153
  0
VERTEX
  8
0
 10
50.956430
 20
42.750000
 42
0.093589
  0
VERTEX
  8
0
 10
53.086386
 20
40.912104
 42
0.100723
  0
VERTEX
  8
0
 10
55.686266
 20
40.037469
 42
0.107449
  0
VERTEX
  8
0
 10
58.286015
 20
40.272929
 42
0.120832
  0
VERTEX
  8
0
 10
60.428886
 20
41.571743
 42
0.098566
  0
VERTEX
  8
0
 10
61.178882
 20
42.694549
 42
0.069327
  0
VERTEX
  8
0
 10
61.561620
 20
44.169011
 42
0.041259
  0
VERTEX
  8
0
 10
61.633126
 20
46.330489
 42
0.010580
  0
VERTEX
  8
0
 10
61.386368
 20
49.821743
 42
-0.058875
  0
VERTEX
  8
0
 10
61.654832
 20
60.187691
 42
-0.025206
  0
VERTEX
  8
0
 10
64.329057
 20
73.805586
 42
-0.025179
  0
VERTEX
  8
0
 10
68.512683
 20
87.590512
 42
-0.041248
  0
VERTEX
  8
0
 10
73.568376
 20
98.688652
 42
0.010656
  0
VERTEX
  8
0
 10
74.877310
 20
101.151000
 42
0.014702
  0
VERTEX
  8
0
 10
75.938971
 20
103.418586
 42
0.011262
  0
VERTEX
  8
0
 10
76.714654
 20
105.327583
 42
0.147276
  0
VERTEX
  8
0
 10
76.768277
 20
106.081808
 42
-0.336765
  0
VERTEX
  8
0
 10
77.057418
 20
106.715269
 42
-0.014969
  0
VERTEX
  8
0
 10
79.351662
 20
107.860496
 42
-0.018887
  0
VERTEX
  8
0
 10
82.472200
 20
109.162514
 42
-0.009538
  0
VERTEX
  8
0
 10
86.493139
 20
110.577792
 42
0.017097
  0
VERTEX
  8
0
 10
92.794679
 20
112.903411
 42
0.050472
  0
VERTEX
  8
0
 10
96.865574
 20
115.067455
 42
0.081802
  0
VERTEX
  8
0
 10
99.199272
 20
117.253310
 42
0.165193
  0
VERTEX
  8
0
 10
100.000000
 20
119.610784
 42
0.155096
  0
VERTEX
  8
0
 10
99.462342
 20
121.302397
 42
0.062145
  0
VERTEX
  8
0
 10
97.806442
 20
123.117330
 42
0.061195
  0
VERTEX
  8
0
 10
95.695152
 20
124.515166
 42
0.121692
  0
VERTEX
  8
0
 10
93.750000
 20
124.950929
 42
0.061457
  0
VERTEX
  8
0
 10
92.265416
 20
124.734803
 42
0.003672
  0
VERTEX
  8
0
 10
87.901562
 20
123.505115
 42
0.005471
  0
VERTEX
  8
0
 10
82.718120
 20
121.941631
 42
0.004008
  0
SEQEND
  0
POLYLINE
  8
0
 66
1
 70
1
  0
VERTEX
  8
0
 10
155.256764
 20
106.518897
 42
0.007539
  0
VERTEX
  8
0
 10
146.202118
 20
103.742570
 42
0.081567
  0
VERTEX
  8
0
 10
142.811837
 20
101.997466
 42
0.191525
  0
VERTEX
  8
0
 10
141.452716
 20
99.801379
 42
0.078143
  0
VERTEX
  8
0
 10
141.382136
 20
96.228668
 42
-0.054109
  0
VERTEX
  8
0
 10
141.463525
 20
93.333384
 42
-0.022235
  0
VERTEX
  8
0
 10
140.975238
 20
89.430787
 42
-0.015415
  0
VERTEX
  8
0
 10
139.892617
 20
84.083498
 42
-0.005153
  0
VERTEX
  8
0
 10
137.989108
 20
76.335138
 42
0.005776
  0
VERTEX
  8
0
 10
135.175522
 20
64.820404
 42
0.036819
  0
VERTEX
  8
0
 10
134.250513
 20
58.880770
 42
0.074365
  0
VERTEX
  8
0
 10
134.521174
 20
54.881103
 42
0.083071
  0
VERTEX
  8
0
 10
135.959516
 20
51.298549
 42
0.117483
  0
VERTEX
  8
0
 10
139.857625
 20
47.369474
 42
0.095891
  0
VERTEX
  8
0
 10
145.406578
 20
45.253791
 42
0.067047
  0
VERTEX
  8
0
 10
153.052202
 20
44.954163
 42
0.027248
  0
VERTEX
  8
0
 10
163.375120
 20
46.505957
 42
0.007934
  0
VERTEX
  8
0
 10
169.409325
 20
47.852531
 42
0.025513
  0
VERTEX
  8
0
 10
173.355899
 20
49.014965
 42
0.038373
  0
VERTEX
  8
0
 10
176.131686
 20
50.235179
 42
0.061249
  0
VERTEX
  8
0
 10
178.248170
 20
51.724591
 42
0.121425
  0
VERTEX
  8
0
 10
179.601109
 20
53.729738
 42
0.103360
  0
VERTEX
  8
0
 10
179.973092
 20
56.260975
 42
0.104896
  0
VERTEX
  8
0
 10
179.300762
 20
58.698789
 42
0.128863
  0
VERTEX
  8
0
 10
177.723632
 20
60.445428
 42
0.054891
  0
VERTEX
  8
0
 10
176.266478
 20
61.186287
 42
0.089424
  0
VERTEX
  8
0
 10
174.905981
 20
61.437124
 42
0.055562
  0
VERTEX
  8
0
 10
173.127453
 20
61.245986
 42
0.010688
  0
VERTEX
  8
0
 10
169.973632
 20
60.476048
 42
-0.011490
  0
VERTEX
  8
0
 10
162.974764
 20
58.779309
 42
-0.011324
  0
VERTEX
  8
0
 10
155.871492
 20
57.396880
 42
-0.007027
  0
VERTEX
  8
0
 10
149.535561
 20
56.403531
 42
-0.127654
  0
VERTEX
  8
0
 10
147.518188
 20
56.631394
 42
-0.099112
  0
VERTEX
  8
0
 10
146.937682
 20
56.998573
 42
-0.066855
  0
VERTEX
  8
0
 10
146.445968
 20
57.611983
 42
-0.063816
  0
VERTEX
  8
0
 10
146.113432
 20
58.367249
 42
-0.071946
  0
VERTEX
  8
0
 10
146.000000
 20
59.151473
 42
-0.054666
  0
VERTEX
  8
0
 10
146.323134
 20
62.098188
 42
-0.009143
  0
VERTEX
  8
0
 10
147.659142
 20
67.635944
 42
-0.003355
  0
VERTEX
  8
0
 10
149.233844
 20
73.514516
 42
-0.336459
  0
VERTEX
  8
0
 10
149.871573
 20
74.002587
 42
0.040009
  0
VERTEX
  8
0
 10
153.104658
 20
74.275102
 42
0.000960
  0
VERTEX
  8
0
 10
167.981048
 20
76.767307
 42
0.001583
  0
VERTEX
  8
0
 10
182.270435
 20
79.235964
 42
0.020301
  0
VERTEX
  8
0
 10
187.574200
 20
80.393263
 42
0.040112
  0
VERTEX
  8
0
 10
193.857511
 20
82.584930
 42
0.128175
  0
VERTEX
  8
0
 10
197.307358
 20
85.322310
 42
0.231007
  0
VERTEX
  8
0
 10
197.896851
 20
88.370465
 42
0.144038
  0
VERTEX
  8
0
 10
195.959412
 20
91.536732
 42
0.103100
  0
VERTEX
  8
0
 10
194.304739
 20
92.506434
 42
0.094603
  0
VERTEX
  8
0
 10
192.347407
 20
92.774227
 42
0.032529
  0
VERTEX
  8
0
 10
189.020955
 20
92.380853
 42
0.002525
  0
VERTEX
  8
0
 10
180.209412
 20
90.706347
 42
-0.002034
  0
VERTEX
  8
0
 10
167.862616
 20
88.347433
 42
-0.006358
  0
VERTEX
  8
0
 10
159.531740
 20
86.900259
 42
-0.002990
  0
VERTEX
  8
0
 10
153.333114
 20
85.942501
 42
-0.237499
  0
VERTEX
  8
0
 10
152.423797
 20
86.242870
 42
-0.230393
  0
VERTEX
  8
0
 10
152.298646
 20
86.605271
 42
-0.015890
  0
VERTEX
  8
0
 10
152.467417
 20
87.705980
 42
-0.020064
  0
VERTEX
  8
0
 10
152.774975
 20
89.055676
 42
-0.013568
  0
VERTEX
  8
0
 10
153.228315
 20
90.567650
 42
-0.046786
  0
VERTEX
  8
0
 10
154.254469
 20
92.916142
 42
-0.123690
  0
VERTEX
  8
0
 10
155.497695
 20
94.246444
 42
-0.065274
  0
VERTEX
  8
0
 10
157.673769
 20
95.278156
 42
-0.006662
  0
VERTEX
  8
0
 10
163.137820
 20
96.962631
 42
0.008793
  0
VERTEX
  8
0
 10
166.563348
 20
98.034670
 42
0.010881
  0
VERTEX
  8
0
 10
169.711858
 20
99.157804
 42
0.009349
  0
VERTEX
  8
0
 10
172.303091
 20
100.202119
 42
0.076007
  0
VERTEX
  8
0
 10
173.387820
 20
100.872445
 42
0.178996
  0
VERTEX
  8
0
 10
174.856494
 20
103.490037
 42
0.155466
  0
VERTEX
  8
0
 10
174.379780
 20
106.614752
 42
0.142687
  0
VERTEX
  8
0
 10
172.116833
 20
109.076637
 42
0.148342
  0
VERTEX
  8
0
 10
168.921259
 20
109.890839
 42
0.044710
  0
VERTEX
  8
0
 10
167.417655
 20
109.687507
 42
0.004540
  0
VERTEX
  8
0
 10
163.908544
 20
108.855302
 42
0.005652
  0
VERTEX
  8
0
 10
159.739316
 20
107.776339
 42
0.004476
  0
SEQEND
  0
POLYLINE
  8
0
 66
1
 70
1
  0
VERTEX
  8
0
 10
99.253452
 20
103.750000
 42
0.070371
  0
VERTEX
  8
0
 10
98.311574
 20
102.400287
 42
0.029082
  0
VERTEX
  8
0
 10
97.420458
 20
100.353454
 42
0.025870
  0
VERTEX
  8
0
 10
96.639539
 20
97.835556
 42
0.019473
  0
VERTEX
  8
0
 10
96.034953
 20
95.000000
 42
-0.003609
  0
VERTEX
  8
0
 10
95.381357
 20
91.374195
 42
-0.000758
  0
VERTEX
  8
0
 10
94.182573
 20
85.041274
 42
-0.000794
  0
VERTEX
  8
0
 10
92.769034
 20
77.698637
 42
-0.000752
  0
VERTEX
  8
0
 10
91.306411
 20
70.225613
 42
0.006298
  0
VERTEX
  8
0
 10
88.888482
 20
57.100941
 42
0.056394
  0
VERTEX
  8
0
 10
88.555683
 20
51.260463
 42
0.162138
  0
VERTEX
  8
0
 10
89.783538
 20
48.161393
 42
0.157838
  0
VERTEX
  8
0
 10
92.637369
 20
46.376167
 42
0.165119
  0
VERTEX
  8
0
 10
95.535199
 20
46.612513
 42
0.149096
  0
VERTEX
  8
0
 10
97.833738
 20
48.566987
 42
0.081495
  0
VERTEX
  8
0
 10
99.587798
 20
52.630706
 42
0.024294
  0
VERTEX
  8
0
 10
100.909677
 20
59.278967
 42
-0.009834
  0
VERTEX
  8
0
 10
101.483945
 20
62.678230
 42
-0.012593
  0
VERTEX
  8
0
 10
102.152441
 20
65.780964
 42
-0.010515
  0
VERTEX
  8
0
 10
102.826444
 20
68.330783
 42
-0.097372
  0
VERTEX
  8
0
 10
103.344334
 20
69.341335
 42
-0.118594
  0
VERTEX
  8
0
 10
104.177320
 20
69.997210
 42
-0.018078
  0
VERTEX
  8
0
 10
106.143336
 20
70.816309
 42
-0.019373
  0
VERTEX
  8
0
 10
108.580864
 20
71.623719
 42
-0.015701
  0
VERTEX
  8
0
 10
111.250000
 20
72.304482
 42
-0.018561
  0
VERTEX
  8
0
 10
116.374786
 20
73.243431
 42
-0.353355
  0
VERTEX
  8
0
 10
117.681402
 20
72.468651
 42
-0.132116
  0
VERTEX
  8
0
 10
117.881240
 20
70.338319
 42
-0.002657
  0
VERTEX
  8
0
 10
115.984814
 20
59.580584
 42
0.008253
  0
VERTEX
  8
0
 10
114.475685
 20
50.421506
 42
0.036900
  0
VERTEX
  8
0
 10
114.078938
 20
44.998467
 42
0.067761
  0
VERTEX
  8
0
 10
114.563159
 20
41.461408
 42
0.129219
  0
VERTEX
  8
0
 10
116.000000
 20
39.000000
 42
0.055622
  0
VERTEX
  8
0
 10
117.769297
 20
37.585934
 42
0.134838
  0
VERTEX
  8
0
 10
119.356083
 20
37.103628
 42
0.128886
  0
VERTEX
  8
0
 10
121.013578
 20
37.490567
 42
0.048778
  0
VERTEX
  8
0
 10
123.014233
 20
38.810442
 42
0.092412
  0
VERTEX
  8
0
 10
124.220732
 20
40.225992
 42
0.058566
  0
VERTEX
  8
0
 10
125.076443
 20
42.224589
 42
0.032638
  0
VERTEX
  8
0
 10
125.784091
 20
45.355429
 42
0.007064
  0
VERTEX
  8
0
 10
126.574625
 20
50.849423
 42
-0.007069
  0
VERTEX
  8
0
 10
127.332585
 20
56.116640
 42
-0.002234
  0
VERTEX
  8
0
 10
128.610577
 20
63.959712
 42
-0.002230
  0
VERTEX
  8
0
 10
130.114064
 20
72.694609
 42
-0.002476
  0
VERTEX
  8
0
 10
131.645460
 20
81.116714
 42
0.004329
  0
VERTEX
  8
0
 10
134.162018
 20
95.254367
 42
0.051453
  0
VERTEX
  8
0
 10
134.521132
 20
100.798379
 42
0.182661
  0
VERTEX
  8
0
 10
133.389123
 20
103.479800
 42
0.174306
  0
VERTEX
  8
0
 10
130.741658
 20
104.807495
 42
0.143993
  0
VERTEX
  8
0
 10
128.187456
 20
104.378717
 42
0.111830
  0
VERTEX
  8
0
 10
125.976875
 20
102.609039
 42
0.080663
  0
VERTEX
  8
0
 10
124.220213
 20
99.483297
 42
0.040456
  0
VERTEX
  8
0
 10
123.007792
 20
95.105293
 42
-0.008240
  0
VERTEX
  8
0
 10
122.536897
 20
92.849300
 42
-0.009379
  0
VERTEX
  8
0
 10
122.010074
 20
90.705930
 42
-0.008670
  0
VERTEX
  8
0
 10
121.498159
 20
88.906135
 42
-0.050795
  0
VERTEX
  8
0
 10
121.119365
 20
88.000000
 42
-0.142787
  0
VERTEX
  8
0
 10
119.916011
 20
86.786287
 42
-0.032976
  0
VERTEX
  8
0
 10
117.283800
 20
85.546777
 42
-0.029158
  0
VERTEX
  8
0
 10
113.748761
 20
84.391483
 42
-0.018033
  0
VERTEX
  8
0
 10
109.483342
 20
83.430897
 42
0.000000
  0
VERTEX
  8
0
 10
105.688127
 20
82.718911
 42
0.000000
  0
VERTEX
  8
0
 10
106.344064
 20
87.859455
 42
-0.000046
  0
VERTEX
  8
0
 10
106.639976
 20
90.176807
 42
-0.000028
  0
VERTEX
  8
0
 10
106.988556
 20
92.903371
 42
-0.000028
  0
VERTEX
  8
0
 10
107.333454
 20
95.598701
 42
-0.000051
  0
VERTEX
  8
0
 10
107.616977
 20
97.811594
 42
0.017652
  0
VERTEX
  8
0
 10
107.847208
 20
100.300773
 42
0.055130
  0
VERTEX
  8
0
 10
107.757854
 20
101.978198
 42
0.079700
  0
VERTEX
  8
0
 10
107.339448
 20
103.230583
 42
0.076123
  0
VERTEX
  8
0
 10
106.545549
 20
104.311594
 42
0.084483
  0
VERTEX
  8
0
 10
104.784620
 20
105.560336
 42
0.132042
  0
VERTEX
  8
0
 10
102.969107
 20
105.901411
 42
0.121452
  0
VERTEX
  8
0
 10
101.117886
 20
105.290848
 42
0.065271
  0
SEQEND
  0
POLYLINE
  8
0
 66
1
 70
1
  0
VERTEX
  8
0
 10
248.460728
 20
102.139112
 42
0.098128
  0
VERTEX
  8
0
 10
240.565842
 20
94.883341
 42
0.042117
  0
VERTEX
  8
0
 10
233.078300
 20
82.608762
 42
0.041794
  0
VERTEX
  8
0
 10
227.551781
 20
68.772936
 42
0.071346
  0
VERTEX
  8
0
 10
225.646273
 20
56.500000
 42
0.121197
  0
VERTEX
  8
0
 10
227.973642
 20
46.543751
 42
0.216730
  0
VERTEX
  8
0
 10
234.419148
 20
41.404837
 42
0.181218
  0
VERTEX
  8
0
 10
243.547012
 20
42.434406
 42
0.087853
  0
VERTEX
  8
0
 10
253.062060
 20
49.609722
 42
0.039942
  0
VERTEX
  8
0
 10
257.012932
 20
54.600944
 42
0.036131
  0
VERTEX
  8
0
 10
260.269718
 20
60.322125
 42
0.034340
  0
VERTEX
  8
0
 10
262.808489
 20
66.741303
 42
0.029026
  0
VERTEX
  8
0
 10
264.614690
 20
73.817034
 42
0.026337
  0
VERTEX
  8
0
 10
265.506864
 20
80.183425
 42
0.050074
  0
VERTEX
  8
0
 10
265.437128
 20
85.350556
 42
0.062896
  0
VERTEX
  8
0
 10
264.418154
 20
89.529145
 42
0.083869
  0
VERTEX
  8
0
 10
262.439440
 20
92.889602
 42
-0.036530
  0
VERTEX
  8
0
 10
261.505790
 20
94.179644
 42
-0.031417
  0
VERTEX
  8
0
 10
260.716585
 20
95.656979
 42
-0.032666
  0
VERTEX
  8
0
 10
260.171414
 20
97.094372
 42
-0.074439
  0
VERTEX
  8
0
 10
260.000000
 20
98.239368
 42
0.153398
  0
VERTEX
  8
0
 10
258.987408
 20
101.462232
 42
0.160365
  0
VERTEX
  8
0
 10
256.328886
 20
103.457889
 42
0.130205
  0
VERTEX
  8
0
 10
252.521398
 20
103.713187
 42
0.089137
  0
SEQEND
  0
POLYLINE
  8
0
 66
1
 70
1
  0
VERTEX
  8
0
 10
253.465846
 20
84.055262
 42
-0.188170
  0
VERTEX
  8
0
 10
253.828354
 20
82.080892
 42
-0.009930
  0
VERTEX
  8
0
 10
252.464950
 20
75.692487
 42
-0.016455
  0
VERTEX
  8
0
 10
250.744854
 20
69.304445
 42
-0.042148
  0
VERTEX
  8
0
 10
248.969138
 20
64.860971
 42
-0.046657
  0
VERTEX
  8
0
 10
245.435089
 20
59.194830
 42
-0.074746
  0
VERTEX
  8
0
 10
241.353473
 20
55.231770
 42
-0.199589
  0
VERTEX
  8
0
 10
238.461347
 20
54.562380
 42
-0.366231
  0
VERTEX
  8
0
 10
237.000000
 20
56.289901
 42
-0.064380
  0
VERTEX
  8
0
 10
237.651383
 20
61.327799
 42
-0.016019
  0
VERTEX
  8
0
 10
240.026443
 20
69.310026
 42
-0.016945
  0
VERTEX
  8
0
 10
242.988973
 20
77.298584
 42
-0.043924
  0
VERTEX
  8
0
 10
245.804934
 20
82.750000
 42
-0.132837
  0
VERTEX
  8
0
 10
247.351073
 20
84.167647
 42
-0.077450
  0
VERTEX
  8
0
 10
249.752269
 20
84.972318
 42
-0.083743
  0
VERTEX
  8
0
 10
252.094327
 20
84.976211
 42
-0.216225
  0
SEQEND
  0
POLYLINE
  8
0
 66
1
 70
1
  0
VERTEX
  8
0
 10
295.384357
 20
100.539836
 42
0.021104
  0
VERTEX
  8
0
 10
289.471588
 20
97.248472
 42
0.035434
  0
VERTEX
  8
0
 10
284.850782
 20
93.942815
 42
0.042250
  0
VERTEX
  8
0
 10
281.381747
 20
90.536568
 42
0.059655
  0
VERTEX
  8
0
 10
278.970978
 20
86.943112
 42
0.060430
  0
VERTEX
  8
0
 10
277.202771
 20
82.114559
 42
0.125859
  0
VERTEX
  8
0
 10
277.282702
 20
78.134950
 42
0.095387
  0
VERTEX
  8
0
 10
279.346217
 20
73.977145
 42
0.025487
  0
VERTEX
  8
0
 10
284.137598
 20
68.309861
 42
-0.013306
  0
VERTEX
  8
0
 10
285.999816
 20
66.212984
 42
-0.017683
  0
VERTEX
  8
0
 10
287.571669
 20
64.205239
 42
-0.015087
  0
VERTEX
  8
0
 10
288.751327
 20
62.476080
 42
-0.143095
  0
VERTEX
  8
0
 10
289.000000
 20
61.624960
 42
-0.133519
  0
VERTEX
  8
0
 10
287.805430
 20
57.231302
 42
-0.038678
  0
VERTEX
  8
0
 10
283.754317
 20
51.413443
 42
-0.037171
  0
VERTEX
  8
0
 10
278.967576
 20
46.375959
 42
-0.186262
  0
VERTEX
  8
0
 10
275.402113
 20
45.000000
 42
0.129085
  0
VERTEX
  8
0
 10
273.091490
 20
44.393359
 42
0.088458
  0
VERTEX
  8
0
 10
270.989611
 20
42.658760
 42
0.083145
  0
VERTEX
  8
0
 10
269.512585
 20
40.186166
 42
0.093412
  0
VERTEX
  8
0
 10
269.000000
 20
37.466426
 42
0.078613
  0
VERTEX
  8
0
 10
269.345237
 20
35.284192
 42
0.083684
  0
VERTEX
  8
0
 10
270.345477
 20
33.366586
 42
0.080511
  0
VERTEX
  8
0
 10
271.957806
 20
31.826896
 42
0.065991
  0
VERTEX
  8
0
 10
274.084572
 20
30.746865
 42
0.171348
  0
VERTEX
  8
0
 10
276.639429
 20
30.750191
 42
0.048051
  0
VERTEX
  8
0
 10
280.311049
 20
32.464077
 42
0.039100
  0
VERTEX
  8
0
 10
284.638851
 20
35.494789
 42
0.022893
  0
VERTEX
  8
0
 10
289.335797
 20
39.739442
 42
0.051266
  0
VERTEX
  8
0
 10
297.307097
 20
49.442722
 42
0.114467
  0
VERTEX
  8
0
 10
300.627872
 20
58.337009
 42
0.134351
  0
VERTEX
  8
0
 10
299.448985
 20
66.843288
 42
0.084110
  0
VERTEX
  8
0
 10
293.968552
 20
75.344031
 42
-0.015090
  0
VERTEX
  8
0
 10
291.955748
 20
77.684417
 42
-0.028085
  0
VERTEX
  8
0
 10
290.494224
 20
79.714594
 42
-0.031033
  0
VERTEX
  8
0
 10
289.585724
 20
81.355079
 42
-0.205344
  0
VERTEX
  8
0
 10
289.550323
 20
82.270545
 42
-0.098942
  0
VERTEX
  8
0
 10
290.031474
 20
83.031805
 42
-0.015754
  0
VERTEX
  8
0
 10
291.293582
 20
84.276368
 42
-0.016924
  0
VERTEX
  8
0
 10
292.897712
 20
85.663688
 42
-0.014102
  0
VERTEX
  8
0
 10
294.690771
 20
87.029617
 42
-0.012792
  0
VERTEX
  8
0
 10
297.208671
 20
88.741944
 42
-0.063077
  0
VERTEX
  8
0
 10
298.754461
 20
89.480370
 42
-0.116294
  0
VERTEX
  8
0
 10
299.948946
 20
89.585894
 42
-0.104077
  0
VERTEX
  8
0
 10
301.119310
 20
89.157562
 42
0.074751
  0
VERTEX
  8
0
 10
302.878043
 20
88.395205
 42
0.051825
  0
VERTEX
  8
0
 10
305.022211
 20
88.057448
 42
0.053379
  0
VERTEX
  8
0
 10
307.080463
 20
88.168649
 42
0.112053
  0
VERTEX
  8
0
 10
308.557964
 20
88.765313
 42
0.076493
  0
VERTEX
  8
0
 10
310.082855
 20
90.213690
 42
0.037946
  0
VERTEX
  8
0
 10
311.554130
 20
92.446731
 42
0.037927
  0
VERTEX
  8
0
 10
312.653853
 20
94.838872
 42
0.089007
  0
VERTEX
  8
0
 10
313.000000
 20
96.767961
 42
0.132228
  0
VERTEX
  8
0
 10
312.343607
 20
99.206614
 42
0.074787
  0
VERTEX
  8
0
 10
310.417715
 20
101.611927
 42
0.073299
  0
VERTEX
  8
0
 10
307.816741
 20
103.391377
 42
0.113906
  0
VERTEX
  8
0
 10
305.179811
 20
104.000000
 42
0.068955
  0
VERTEX
  8
0
 10
303.623185
 20
103.784299
 42
0.016045
  0
VERTEX
  8
0
 10
301.101569
 20
102.983577
 42
0.016255
  0
VERTEX
  8
0
 10
298.233565
 20
101.864360
 42
0.015292
  0
SEQEND
  0
POLYLINE
  8
0
 66
1
 70
1
  0
VERTEX
  8
0
 10
326.741009
 20
101.114743
 42
0.060195
  0
VERTEX
  8
0
 10
325.164979
 20
100.071638
 42
0.038683
  0
VERTEX
  8
0
 10
323.607978
 20
98.524446
 42
0.033608
  0
VERTEX
  8
0
 10
322.094309
 20
96.508486
 42
0.023193
  0
VERTEX
  8
0
 10
320.649632
 20
94.045478
 42
0.029007
  0
VERTEX
  8
0
 10
314.877141
 20
81.328026
 42
0.007118
  0
VERTEX
  8
0
 10
306.912968
 20
59.768973
 42
0.005895
  0
VERTEX
  8
0
 10
299.535450
 20
38.077440
 42
0.049581
  0
VERTEX
  8
0
 10
297.313107
 20
27.995889
 42
0.018676
  0
VERTEX
  8
0
 10
297.103291
 20
25.396331
 42
0.066789
  0
VERTEX
  8
0
 10
297.253150
 20
23.739264
 42
0.089247
  0
VERTEX
  8
0
 10
297.803465
 20
22.443407
 42
0.051491
  0
VERTEX
  8
0
 10
298.875459
 20
21.124541
 42
0.120331
  0
VERTEX
  8
0
 10
302.282811
 20
19.054705
 42
0.251282
  0
VERTEX
  8
0
 10
305.245148
 20
19.612119
 42
0.133514
  0
VERTEX
  8
0
 10
307.773793
 20
23.102348
 42
0.032073
  0
VERTEX
  8
0
 10
309.887798
 20
30.000000
 42
-0.008448
  0
VERTEX
  8
0
 10
310.901475
 20
33.967150
 42
-0.004282
  0
VERTEX
  8
0
 10
312.304417
 20
38.927657
 42
-0.004251
  0
VERTEX
  8
0
 10
313.840372
 20
44.024669
 42
-0.006328
  0
VERTEX
  8
0
 10
315.278625
 20
48.455854
 42
-0.005394
  0
VERTEX
  8
0
 10
317.439460
 20
54.617503
 42
-0.052175
  0
VERTEX
  8
0
 10
318.649150
 20
57.106907
 42
-0.117666
  0
VERTEX
  8
0
 10
319.981264
 20
58.424592
 42
-0.073167
  0
VERTEX
  8
0
 10
322.015936
 20
59.283935
 42
0.112653
  0
VERTEX
  8
0
 10
325.942333
 20
61.317640
 42
0.018147
  0
VERTEX
  8
0
 10
332.356526
 20
67.157470
 42
0.020754
  0
VERTEX
  8
0
 10
338.441128
 20
73.630952
 42
0.060569
  0
VERTEX
  8
0
 10
341.856298
 20
78.710162
 42
0.129047
  0
VERTEX
  8
0
 10
343.880853
 20
88.013100
 42
0.138658
  0
VERTEX
  8
0
 10
340.979292
 20
96.829307
 42
0.168968
  0
VERTEX
  8
0
 10
334.445504
 20
101.719559
 42
0.195474
  0
SEQEND
  0
POLYLINE
  8
0
 66
1
 70
1
  0
VERTEX
  8
0
 10
333.000000
 20
88.171445
 42
-0.127753
  0
VERTEX
  8
0
 10
332.385513
 20
85.805714
 42
-0.018880
  0
VERTEX
  8
0
 10
329.799305
 20
81.549524
 42
-0.017936
  0
VERTEX
  8
0
 10
327.079978
 20
77.737538
 42
-0.600904
  0
VERTEX
  8
0
 10
326.205027
 20
77.884918
 42
-0.183472
  0
VERTEX
  8
0
 10
326.278643
 20
79.672558
 42
-0.011756
  0
VERTEX
  8
0
 10
328.483869
 20
84.511861
 42
-0.009765
  0
VERTEX
  8
0
 10
330.925591
 20
89.311374
 42
-0.276933
  0
VERTEX
  8
0
 10
332.073549
 20
90.000000
 42
-0.189019
  0
VERTEX
  8
0
 10
332.427304
 20
89.861312
 42
-0.088877
  0
VERTEX
  8
0
 10
332.727855
 20
89.462862
 42
-0.068693
  0
VERTEX
  8
0
 10
332.931690
 20
88.871220
 42
-0.048693
  0
SEQEND
  0
POLYLINE
  8
0
 66
1
 70
1
  0
VERTEX
  8
0
 10
451.139207
 20
100.886076
 42
0.002945
  0
VERTEX
  8
0
 10
442.292638
 20
100.094283
 42
0.003843
  0
VERTEX
  8
0
 10
434.209438
 20
99.260052
 42
0.002864
  0
VERTEX
  8
0
 10
427.451025
 20
98.470788
 42
0.035277
  0
VERTEX
  8
0
 10
424.906213
 20
97.974746
 42
0.063009
  0
VERTEX
  8
0
 10
422.165236
 20
96.851628
 42
0.100454
  0
VERTEX
  8
0
 10
420.259486
 20
95.197041
 42
0.120777
  0
VERTEX
  8
0
 10
419.365773
 20
93.169691
 42
0.121123
  0
VERTEX
  8
0
 10
419.512325
 20
90.961166
 42
0.129964
  0
VERTEX
  8
0
 10
420.824291
 20
88.895322
 42
0.131793
  0
VERTEX
  8
0
 10
422.979285
 20
87.761250
 42
0.069092
  0
VERTEX
  8
0
 10
426.551404
 20
87.459091
 42
0.015126
  0
VERTEX
  8
0
 10
432.712354
 20
87.976759
 42
-0.003233
  0
VERTEX
  8
0
 10
436.285969
 20
88.362808
 42
-0.003543
  0
VERTEX
  8
0
 10
439.756872
 20
88.690244
 42
-0.003313
  0
VERTEX
  8
0
 10
442.728533
 20
88.929526
 42
-0.017714
  0
VERTEX
  8
0
 10
444.353592
 20
88.991795
 42
0.000000
  0
VERTEX
  8
0
 10
447.207184
 20
89.000000
 42
0.000000
  0
VERTEX
  8
0
 10
444.353592
 20
85.729773
 42
0.046932
  0
VERTEX
  8
0
 10
442.770543
 20
83.529466
 42
0.004827
  0
VERTEX
  8
0
 10
439.585699
 20
77.969895
 42
0.005982
  0
VERTEX
  8
0
 10
435.926589
 20
71.249669
 42
0.004745
  0
VERTEX
  8
0
 10
432.129638
 20
63.905404
 42
0.006935
  0
VERTEX
  8
0
 10
425.447833
 20
50.205927
 42
0.049664
  0
VERTEX
  8
0
 10
422.989815
 20
43.272170
 42
0.125724
  0
VERTEX
  8
0
 10
423.027323
 20
38.962257
 42
0.167521
  0
VERTEX
  8
0
 10
425.192760
 20
35.733693
 42
0.020415
  0
VERTEX
  8
0
 10
426.843960
 20
34.586472
 42
0.118887
  0
VERTEX
  8
0
 10
427.838882
 20
34.245990
 42
0.138077
  0
VERTEX
  8
0
 10
428.805669
 20
34.423269
 42
0.031077
  0
VERTEX
  8
0
 10
430.273302
 20
35.259505
 42
0.075106
  0
VERTEX
  8
0
 10
431.316013
 20
36.192589
 42
0.027664
  0
VERTEX
  8
0
 10
432.491189
 20
37.785614
 42
0.026675
  0
VERTEX
  8
0
 10
433.602171
 20
39.695158
 42
0.028933
  0
VERTEX
  8
0
 10
434.470500
 20
41.662020
 42
-0.018675
  0
VERTEX
  8
0
 10
435.658917
 20
44.510607
 42
-0.002646
  0
VERTEX
  8
0
 10
438.351037
 20
50.260649
 42
-0.003011
  0
VERTEX
  8
0
 10
441.615064
 20
57.031653
 42
-0.002561
  0
VERTEX
  8
0
 10
445.139958
 20
64.140191
 42
0.004345
  0
VERTEX
  8
0
 10
448.534731
 20
71.048159
 42
0.006326
  0
VERTEX
  8
0
 10
451.397363
 20
77.201675
 42
0.003382
  0
VERTEX
  8
0
 10
453.710096
 20
82.436545
 42
0.102670
  0
VERTEX
  8
0
 10
454.000000
 20
83.833487
 42
0.082787
  0
VERTEX
  8
0
 10
453.851598
 20
84.723632
 42
0.049586
  0
VERTEX
  8
0
 10
453.403985
 20
85.700957
 42
0.048006
  0
VERTEX
  8
0
 10
452.747276
 20
86.612110
 42
0.059904
  0
VERTEX
  8
0
 10
451.971013
 20
87.307750
 42
-0.021842
  0
VERTEX
  8
0
 10
450.806462
 20
88.201693
 42
-0.416936
  0
VERTEX
  8
0
 10
450.772331
 20
88.615024
 42
-0.170576
  0
VERTEX
  8
0
 10
451.307821
 20
88.925366
 42
-0.005890
  0
VERTEX
  8
0
 10
453.721013
 20
89.353448
 42
-0.016561
  0
VERTEX
  8
0
 10
455.553787
 20
89.594303
 42
-0.007240
  0
VERTEX
  8
0
 10
457.997471
 20
89.797763
 42
-0.007155
  0
VERTEX
  8
0
 10
460.600772
 20
89.939205
 42
-0.009490
  0
VERTEX
  8
0
 10
462.972506
 20
89.988994
 42
-0.003352
  0
VERTEX
  8
0
 10
466.523330
 20
89.972332
 42
-0.108559
  0
VERTEX
  8
0
 10
467.358943
 20
89.778734
 42
-0.537396
  0
VERTEX
  8
0
 10
467.414792
 20
89.384216
 42
-0.028554
  0
VERTEX
  8
0
 10
466.222506
 20
88.443296
 42
0.121894
  0
VERTEX
  8
0
 10
464.774011
 20
86.782390
 42
0.088024
  0
VERTEX
  8
0
 10
464.047174
 20
84.424417
 42
0.090171
  0
VERTEX
  8
0
 10
464.183385
 20
82.013846
 42
0.138143
  0
VERTEX
  8
0
 10
465.200000
 20
80.200000
 42
0.113847
  0
VERTEX
  8
0
 10
465.941677
 20
79.736368
 42
0.029295
  0
VERTEX
  8
0
 10
467.310625
 20
79.352500
 42
0.028275
  0
VERTEX
  8
0
 10
468.965859
 20
79.088298
 42
0.025442
  0
VERTEX
  8
0
 10
470.700000
 20
79.000000
 42
-0.016737
  0
VERTEX
  8
0
 10
472.348359
 20
78.944806
 42
-0.027296
  0
VERTEX
  8
0
 10
473.736875
 20
78.775237
 42
-0.026041
  0
VERTEX
  8
0
 10
474.774609
 20
78.534261
 42
-0.334321
  0
VERTEX
  8
0
 10
475.000000
 20
78.234849
 42
-0.103823
  0
VERTEX
  8
0
 10
474.880612
 20
77.666088
 42
-0.000646
  0
VERTEX
  8
0
 10
472.759099
 20
72.852235
 42
-0.002606
  0
VERTEX
  8
0
 10
470.295574
 20
67.359426
 42
-0.001654
  0
VERTEX
  8
0
 10
467.371402
 20
60.985523
 42
0.005304
  0
VERTEX
  8
0
 10
464.415560
 20
54.416500
 42
0.006823
  0
VERTEX
  8
0
 10
461.845559
 20
48.313627
 42
0.005342
  0
VERTEX
  8
0
 10
459.822203
 20
43.161908
 42
0.057620
  0
VERTEX
  8
0
 10
459.272523
 20
40.995145
 42
0.091446
  0
VERTEX
  8
0
 10
459.420859
 20
37.973576
 42
0.140321
  0
VERTEX
  8
0
 10
460.692340
 20
35.701860
 42
0.136316
  0
VERTEX
  8
0
 10
463.006412
 20
34.405179
 42
0.084153
  0
VERTEX
  8
0
 10
466.138405
 20
34.179665
 42
0.037110
  0
VERTEX
  8
0
 10
467.887967
 20
34.480380
 42
0.106111
  0
VERTEX
  8
0
 10
468.990346
 20
35.020842
 42
0.111256
  0
VERTEX
  8
0
 10
469.743927
 20
35.949055
 42
0.043075
  0
VERTEX
  8
0
 10
470.353050
 20
37.500000
 42
-0.025588
  0
VERTEX
  8
0
 10
472.141229
 20
42.566320
 42
-0.002683
  0
VERTEX
  8
0
 10
476.993049
 20
54.176529
 42
-0.003437
  0
VERTEX
  8
0
 10
482.001757
 20
65.761530
 42
-0.012886
  0
VERTEX
  8
0
 10
485.382228
 20
72.928691
 42
-0.014748
  0
VERTEX
  8
0
 10
487.800310
 20
77.397508
 42
-0.080790
  0
VERTEX
  8
0
 10
489.534779
 20
79.513188
 42
-0.095329
  0
VERTEX
  8
0
 10
491.721048
 20
80.802324
 42
-0.024645
  0
VERTEX
  8
0
 10
495.655337
 20
81.991004
 42
0.038021
  0
VERTEX
  8
0
 10
499.615148
 20
83.303850
 42
0.087901
  0
VERTEX
  8
0
 10
502.241481
 20
84.992784
 42
0.128258
  0
VERTEX
  8
0
 10
503.543563
 20
87.029459
 42
0.140822
  0
VERTEX
  8
0
 10
503.622824
 20
89.366651
 42
0.133288
  0
VERTEX
  8
0
 10
502.273220
 20
91.774229
 42
0.144687
  0
VERTEX
  8
0
 10
499.930484
 20
93.076935
 42
0.079171
  0
VERTEX
  8
0
 10
496.079700
 20
93.316350
 42
0.019573
  0
VERTEX
  8
0
 10
489.789531
 20
92.461587
 42
-0.004207
  0
VERTEX
  8
0
 10
486.450800
 20
91.902933
 42
-0.004926
  0
VERTEX
  8
0
 10
483.274112
 20
91.430870
 42
-0.004368
  0
VERTEX
  8
0
 10
480.583340
 20
91.082003
 42
-0.029906
  0
VERTEX
  8
0
 10
479.250000
 20
91.001367
 42
0.000000
  0
VERTEX
  8
0
 10
477.000000
 20
91.000000
 42
0.000000
  0
VERTEX
  8
0
 10
479.000000
 20
93.000000
 42
0.042427
  0
VERTEX
  8
0
 10
479.765379
 20
93.907595
 42
0.036240
  0
VERTEX
  8
0
 10
480.412500
 20
94.979018
 42
0.037832
  0
VERTEX
  8
0
 10
480.857776
 20
96.046253
 42
0.080080
  0
VERTEX
  8
0
 10
481.000000
 20
96.928571
 42
0.111445
  0
VERTEX
  8
0
 10
480.649778
 20
98.480335
 42
0.055714
  0
VERTEX
  8
0
 10
479.583398
 20
100.199288
 42
0.056496
  0
VERTEX
  8
0
 10
478.228923
 20
101.569990
 42
0.171266
  0
VERTEX
  8
0
 10
477.010359
 20
102.000000
 42
-0.030901
  0
VERTEX
  8
0
 10
476.593434
 20
102.025792
 42
-0.011988
  0
VERTEX
  8
0
 10
476.021105
 20
102.110851
 42
-0.011815
  0
VERTEX
  8
0
 10
475.403743
 20
102.232878
 42
-0.014337
  0
VERTEX
  8
0
 10
474.831787
 20
102.377365
 42
0.083859
  0
VERTEX
  8
0
 10
473.808472
 20
102.489130
 42
0.001080
  0
VERTEX
  8
0
 10
467.322730
 20
102.094962
 42
0.003103
  0
VERTEX
  8
0
 10
459.805467
 20
101.574951
 42
0.002026
  0
SEQEND
  0
POLYLINE
  8
0
 66
1
 70
1
  0
VERTEX
  8
0
 10
362.500000
 20
96.044387
 42
0.013715
  0
VERTEX
  8
0
 10
360.810872
 20
95.179434
 42
0.011039
  0
VERTEX
  8
0
 10
359.042970
 20
94.160705
 42
0.011197
  0
VERTEX
  8
0
 10
357.450931
 20
93.146462
 42
0.027879
  0
VERTEX
  8
0
 10
356.348409
 20
92.316349
 42
0.083339
  0
VERTEX
  8
0
 10
354.128588
 20
89.698954
 42
0.018353
  0
VERTEX
  8
0
 10
351.292318
 20
84.512090
 42
0.017170
  0
VERTEX
  8
0
 10
348.211741
 20
77.783671
 42
0.011079
  0
VERTEX
  8
0
 10
345.088609
 20
69.799466
 42
-0.003095
  0
VERTEX
  8
0
 10
343.586200
 20
65.770106
 42
-0.001647
  0
VERTEX
  8
0
 10
341.679516
 20
60.800979
 42
-0.001639
  0
VERTEX
  8
0
 10
339.697910
 20
55.736368
 42
-0.002549
  0
VERTEX
  8
0
 10
337.952837
 20
51.384089
 42
0.007635
  0
VERTEX
  8
0
 10
336.439173
 20
47.494895
 42
0.009584
  0
VERTEX
  8
0
 10
335.161146
 20
43.843957
 42
0.007992
  0
VERTEX
  8
0
 10
334.201414
 20
40.758597
 42
0.071519
  0
VERTEX
  8
0
 10
334.000000
 20
39.357676
 42
0.147044
  0
VERTEX
  8
0
 10
334.679887
 20
37.095806
 42
0.110894
  0
VERTEX
  8
0
 10
336.560719
 20
35.286850
 42
0.108544
  0
VERTEX
  8
0
 10
339.071404
 20
34.430261
 42
0.135846
  0
VERTEX
  8
0
 10
341.492864
 20
34.814795
 42
0.107960
  0
VERTEX
  8
0
 10
343.567438
 20
36.367848
 42
0.059598
  0
VERTEX
  8
0
 10
345.348161
 20
39.004298
 42
0.025956
  0
VERTEX
  8
0
 10
347.503882
 20
43.791819
 42
0.003344
  0
VERTEX
  8
0
 10
351.513356
 20
54.300276
 42
-0.006800
  0
VERTEX
  8
0
 10
353.403360
 20
59.152832
 42
-0.011936
  0
VERTEX
  8
0
 10
355.116004
 20
63.105390
 42
-0.006285
  0
VERTEX
  8
0
 10
356.608581
 20
66.232546
 42
-0.522474
  0
VERTEX
  8
0
 10
357.056793
 20
66.300276
 42
-0.126308
  0
VERTEX
  8
0
 10
358.288572
 20
64.080248
 42
-0.022057
  0
VERTEX
  8
0
 10
359.300002
 20
59.361925
 42
-0.019952
  0
VERTEX
  8
0
 10
360.110612
 20
53.021665
 42
-0.010143
  0
VERTEX
  8
0
 10
360.648693
 20
45.000000
 42
0.007439
  0
VERTEX
  8
0
 10
360.981474
 20
39.601913
 42
0.013768
  0
VERTEX
  8
0
 10
361.437367
 20
35.233304
 42
0.014130
  0
VERTEX
  8
0
 10
361.975057
 20
31.896648
 42
0.092751
  0
VERTEX
  8
0
 10
362.589750
 20
30.325843
 42
0.082983
  0
VERTEX
  8
0
 10
364.232867
 20
28.465835
 42
0.116504
  0
VERTEX
  8
0
 10
366.220414
 20
27.506515
 42
0.116701
  0
VERTEX
  8
0
 10
368.424575
 20
27.538763
 42
0.083458
  0
VERTEX
  8
0
 10
370.691483
 20
28.533507
 42
0.000000
  0
VERTEX
  8
0
 10
373.285039
 20
30.232871
 42
0.000000
  0
VERTEX
  8
0
 10
372.699253
 20
44.366435
 42
0.008322
  0
VERTEX
  8
0
 10
372.346956
 20
50.426666
 42
0.008943
  0
VERTEX
  8
0
 10
371.798953
 20
56.327936
 42
0.009321
  0
VERTEX
  8
0
 10
371.132236
 20
61.462664
 42
0.027390
  0
VERTEX
  8
0
 10
370.415531
 20
64.952933
 42
-0.009320
  0
VERTEX
  8
0
 10
369.657381
 20
68.069154
 42
-0.035703
  0
VERTEX
  8
0
 10
369.361813
 20
70.042986
 42
-0.064569
  0
VERTEX
  8
0
 10
369.425012
 20
71.264389
 42
-0.273636
  0
VERTEX
  8
0
 10
369.885820
 20
71.795273
 42
0.086110
  0
VERTEX
  8
0
 10
372.437263
 20
73.167830
 42
0.014970
  0
VERTEX
  8
0
 10
376.654488
 20
76.686072
 42
0.015497
  0
VERTEX
  8
0
 10
380.656999
 20
80.461503
 42
0.076736
  0
VERTEX
  8
0
 10
382.476904
 20
82.955337
 42
0.051557
  0
VERTEX
  8
0
 10
383.501201
 20
85.563458
 42
0.055654
  0
VERTEX
  8
0
 10
383.936303
 20
88.259422
 42
0.059210
  0
VERTEX
  8
0
 10
383.757692
 20
90.826581
 42
0.076059
  0
VERTEX
  8
0
 10
382.970356
 20
93.055391
 42
0.158437
  0
VERTEX
  8
0
 10
379.842409
 20
96.059095
 42
0.076621
  0
VERTEX
  8
0
 10
374.478436
 20
97.706235
 42
0.069289
  0
VERTEX
  8
0
 10
368.233393
 20
97.747667
 42
0.078689
  0
SEQEND
  0
POLYLINE
  8
0
 66
1
 70
1
  0
VERTEX
  8
0
 10
367.694236
 20
84.468399
 42
-0.022923
  0
VERTEX
  8
0
 10
365.706633
 20
82.875248
 42
-0.080295
  0
VERTEX
  8
0
 10
364.247409
 20
82.134751
 42
-0.224361
  0
VERTEX
  8
0
 10
363.391909
 20
82.248390
 42
-0.254629
  0
VERTEX
  8
0
 10
363.000000
 20
82.968063
 42
-0.238000
  0
VERTEX
  8
0
 10
363.460102
 20
83.879911
 42
-0.022246
  0
VERTEX
  8
0
 10
365.612112
 20
85.326100
 42
-0.027190
  0
VERTEX
  8
0
 10
367.932101
 20
86.572051
 42
-0.107927
  0
VERTEX
  8
0
 10
369.500000
 20
86.928361
 42
-0.511727
  0
VERTEX
  8
0
 10
369.647340
 20
86.727660
 42
-0.080301
  0
VERTEX
  8
0
 10
369.382057
 20
86.209227
 42
-0.037577
  0
VERTEX
  8
0
 10
368.703008
 20
85.416545
 42
-0.016456
  0
SEQEND
  0
POLYLINE
  8
0
 66
1
 70
1
  0
VERTEX
  8
0
 10
398.786723
 20
93.604413
 42
0.021324
  0
VERTEX
  8
0
 10
396.447146
 20
92.996158
 42
0.020638
  0
VERTEX
  8
0
 10
394.141756
 20
92.185148
 42
0.021069
  0
VERTEX
  8
0
 10
392.176139
 20
91.303420
 42
0.068046
  0
VERTEX
  8
0
 10
390.996969
 20
90.497257
 42
0.083779
  0
VERTEX
  8
0
 10
388.267970
 20
87.038934
 42
0.020931
  0
VERTEX
  8
0
 10
385.068233
 20
80.565098
 42
0.022030
  0
VERTEX
  8
0
 10
382.205121
 20
73.251383
 42
0.032100
  0
VERTEX
  8
0
 10
380.393016
 20
66.571468
 42
0.050339
  0
VERTEX
  8
0
 10
379.242853
 20
55.123112
 42
0.120960
  0
VERTEX
  8
0
 10
381.265286
 20
46.902035
 42
0.152717
  0
VERTEX
  8
0
 10
386.446478
 20
41.717326
 42
0.098370
  0
VERTEX
  8
0
 10
394.660639
 20
39.297056
 42
0.057934
  0
VERTEX
  8
0
 10
400.367599
 20
39.441527
 42
0.093101
  0
VERTEX
  8
0
 10
404.963914
 20
40.999033
 42
0.119713
  0
VERTEX
  8
0
 10
407.920385
 20
43.757005
 42
0.146492
  0
VERTEX
  8
0
 10
409.000000
 20
47.362830
 42
0.140355
  0
VERTEX
  8
0
 10
408.374834
 20
49.546050
 42
0.151762
  0
VERTEX
  8
0
 10
406.702791
 20
50.988446
 42
0.095610
  0
VERTEX
  8
0
 10
403.812693
 20
51.634509
 42
0.034006
  0
VERTEX
  8
0
 10
399.564829
 20
51.470040
 42
-0.020912
  0
VERTEX
  8
0
 10
395.370934
 20
51.197614
 42
-0.112320
  0
VERTEX
  8
0
 10
393.142662
 20
51.650825
 42
-0.159634
  0
VERTEX
  8
0
 10
391.734923
 20
52.938683
 42
-0.055554
  0
VERTEX
  8
0
 10
390.645217
 20
55.500000
 42
-0.188978
  0
VERTEX
  8
0
 10
390.847963
 20
57.958083
 42
-0.187702
  0
VERTEX
  8
0
 10
392.667543
 20
59.632467
 42
-0.054340
  0
VERTEX
  8
0
 10
397.268182
 20
60.877087
 42
-0.005347
  0
VERTEX
  8
0
 10
408.639260
 20
62.536851
 42
0.004710
  0
VERTEX
  8
0
 10
415.296140
 20
63.499849
 42
0.006196
  0
VERTEX
  8
0
 10
421.349324
 20
64.510752
 42
0.004610
  0
VERTEX
  8
0
 10
426.389161
 20
65.464798
 42
0.057909
  0
VERTEX
  8
0
 10
428.230778
 20
66.058772
 42
0.128475
  0
VERTEX
  8
0
 10
430.890748
 20
68.224049
 42
0.160596
  0
VERTEX
  8
0
 10
431.867287
 20
71.235879
 42
0.177003
  0
VERTEX
  8
0
 10
430.832061
 20
74.025801
 42
0.155786
  0
VERTEX
  8
0
 10
428.183350
 20
75.671758
 42
0.076153
  0
VERTEX
  8
0
 10
426.420443
 20
75.839593
 42
0.006130
  0
VERTEX
  8
0
 10
421.754923
 20
75.515498
 42
0.008159
  0
VERTEX
  8
0
 10
416.173914
 20
74.967185
 42
0.006174
  0
VERTEX
  8
0
 10
410.067453
 20
74.189962
 42
-0.003065
  0
VERTEX
  8
0
 10
404.118657
 20
73.395182
 42
-0.004922
  0
VERTEX
  8
0
 10
399.035425
 20
72.798524
 42
-0.001214
  0
VERTEX
  8
0
 10
394.605375
 20
72.333579
 42
-0.225599
  0
VERTEX
  8
0
 10
394.182851
 20
72.483816
 42
-0.300866
  0
VERTEX
  8
0
 10
393.939049
 20
73.681017
 42
-0.031371
  0
VERTEX
  8
0
 10
395.239904
 20
76.399432
 42
-0.036507
  0
VERTEX
  8
0
 10
397.043252
 20
79.139769
 42
-0.074389
  0
VERTEX
  8
0
 10
398.893530
 20
80.924187
 42
-0.060871
  0
VERTEX
  8
0
 10
400.310640
 20
81.693184
 42
-0.021182
  0
VERTEX
  8
0
 10
402.509673
 20
82.454366
 42
-0.020676
  0
VERTEX
  8
0
 10
405.025861
 20
83.095598
 42
-0.022644
  0
VERTEX
  8
0
 10
407.511462
 20
83.504131
 42
0.027392
  0
VERTEX
  8
0
 10
412.229843
 20
84.325694
 42
0.070775
  0
VERTEX
  8
0
 10
415.446486
 20
85.567669
 42
0.110790
  0
VERTEX
  8
0
 10
417.320866
 20
87.246663
 42
0.156164
  0
VERTEX
  8
0
 10
418.000000
 20
89.368065
 42
0.201138
  0
VERTEX
  8
0
 10
416.635010
 20
92.623962
 42
0.140876
  0
VERTEX
  8
0
 10
413.094838
 20
94.543873
 42
0.078565
  0
VERTEX
  8
0
 10
407.141983
 20
94.902725
 42
0.028786
  0
SEQEND
  0
POLYLINE
  8
0
 66
1
 70
1
  0
VERTEX
  8
0
 10
525.707035
 20
91.989040
 42
-0.026317
  0
VERTEX
  8
0
 10
524.198943
 20
91.621236
 42
-0.007032
  0
VERTEX
  8
0
 10
521.764312
 20
91.196969
 42
-0.007108
  0
VERTEX
  8
0
 10
518.979681
 20
90.792470
 42
-0.007282
  0
VERTEX
  8
0
 10
516.207035
 20
90.470873
 42
0.016488
  0
VERTEX
  8
0
 10
513.466991
 20
90.101819
 42
0.016903
  0
VERTEX
  8
0
 10
510.780050
 20
89.555303
 42
0.016901
  0
VERTEX
  8
0
 10
508.486797
 20
88.924914
 42
0.065424
  0
VERTEX
  8
0
 10
507.150581
 20
88.307685
 42
0.129757
  0
VERTEX
  8
0
 10
504.558781
 20
85.521886
 42
0.007755
  0
VERTEX
  8
0
 10
499.257267
 20
75.232293
 42
0.012705
  0
VERTEX
  8
0
 10
494.143223
 20
64.222314
 42
0.022163
  0
VERTEX
  8
0
 10
490.550599
 20
54.823683
 42
0.023656
  0
VERTEX
  8
0
 10
488.488007
 20
47.470864
 42
0.067115
  0
VERTEX
  8
0
 10
487.998970
 20
42.179238
 42
0.093157
  0
VERTEX
  8
0
 10
488.967579
 20
37.998204
 42
0.082282
  0
VERTEX
  8
0
 10
491.412734
 20
34.246692
 42
0.026605
  0
VERTEX
  8
0
 10
493.682347
 20
32.020328
 42
0.094167
  0
VERTEX
  8
0
 10
495.430427
 20
30.984796
 42
0.066760
  0
VERTEX
  8
0
 10
497.734213
 20
30.484849
 42
0.009107
  0
VERTEX
  8
0
 10
502.662734
 20
30.178083
 42
0.044103
  0
VERTEX
  8
0
 10
513.636049
 20
30.663408
 42
0.032253
  0
VERTEX
  8
0
 10
525.602732
 20
33.049740
 42
0.029396
  0
VERTEX
  8
0
 10
535.947230
 20
36.478866
 42
0.176945
  0
VERTEX
  8
0
 10
540.101980
 20
40.190552
 42
0.105738
  0
VERTEX
  8
0
 10
540.739692
 20
42.402408
 42
0.097158
  0
VERTEX
  8
0
 10
540.447250
 20
44.754491
 42
0.100617
  0
VERTEX
  8
0
 10
539.306337
 20
46.756580
 42
0.122851
  0
VERTEX
  8
0
 10
537.541686
 20
47.984151
 42
0.077078
  0
VERTEX
  8
0
 10
536.094389
 20
48.291830
 42
0.048122
  0
VERTEX
  8
0
 10
534.358888
 20
48.221417
 42
0.035421
  0
VERTEX
  8
0
 10
532.178952
 20
47.762404
 42
0.014912
  0
VERTEX
  8
0
 10
529.323573
 20
46.853524
 42
-0.022114
  0
VERTEX
  8
0
 10
523.367452
 20
45.051694
 42
-0.014282
  0
VERTEX
  8
0
 10
516.335296
 20
43.471915
 42
-0.014277
  0
VERTEX
  8
0
 10
509.531404
 20
42.346892
 42
-0.033842
  0
VERTEX
  8
0
 10
504.412032
 20
42.000000
 42
-0.013443
  0
VERTEX
  8
0
 10
501.837527
 20
42.069232
 42
-0.110425
  0
VERTEX
  8
0
 10
500.714567
 20
42.384534
 42
-0.206058
  0
VERTEX
  8
0
 10
500.173862
 20
43.066070
 42
-0.066160
  0
VERTEX
  8
0
 10
500.000000
 20
44.374273
 42
-0.063396
  0
VERTEX
  8
0
 10
500.353271
 20
47.149279
 42
-0.021408
  0
VERTEX
  8
0
 10
501.544555
 20
51.054859
 42
-0.017001
  0
VERTEX
  8
0
 10
502.998738
 20
54.772429
 42
-0.153784
  0
VERTEX
  8
0
 10
504.124826
 20
56.077147
 42
-0.122834
  0
VERTEX
  8
0
 10
504.968102
 20
56.346463
 42
-0.002836
  0
VERTEX
  8
0
 10
509.182439
 20
56.595457
 42
-0.006147
  0
VERTEX
  8
0
 10
514.152379
 20
56.799572
 42
-0.004108
  0
VERTEX
  8
0
 10
519.845382
 20
56.916503
 42
0.006984
  0
VERTEX
  8
0
 10
529.791088
 20
57.178030
 42
0.022551
  0
VERTEX
  8
0
 10
536.377768
 20
57.741588
 42
0.033383
  0
VERTEX
  8
0
 10
540.850739
 20
58.635222
 42
0.107611
  0
VERTEX
  8
0
 10
543.528349
 20
60.023527
 42
0.134244
  0
VERTEX
  8
0
 10
544.706915
 20
61.705566
 42
0.119995
  0
VERTEX
  8
0
 10
544.931788
 20
63.830346
 42
0.111431
  0
VERTEX
  8
0
 10
544.146891
 20
65.945361
 42
0.103734
  0
VERTEX
  8
0
 10
542.513852
 20
67.582881
 42
0.090193
  0
VERTEX
  8
0
 10
540.525418
 20
68.423906
 42
0.042570
  0
VERTEX
  8
0
 10
537.754318
 20
68.800725
 42
0.020914
  0
VERTEX
  8
0
 10
533.283402
 20
68.837573
 42
0.003313
  0
VERTEX
  8
0
 10
524.513852
 20
68.484788
 42
-0.003659
  0
VERTEX
  8
0
 10
512.740030
 20
68.019319
 42
-0.115303
  0
VERTEX
  8
0
 10
509.914219
 20
68.584488
 42
-0.397587
  0
VERTEX
  8
0
 10
509.256715
 20
70.197986
 42
-0.036125
  0
VERTEX
  8
0
 10
511.293119
 20
74.500000
 42
-0.032947
  0
VERTEX
  8
0
 10
512.883725
 20
76.926732
 42
-0.112450
  0
VERTEX
  8
0
 10
514.318072
 20
78.136752
 42
-0.071148
  0
VERTEX
  8
0
 10
516.470249
 20
78.885375
 42
-0.008188
  0
VERTEX
  8
0
 10
521.526669
 20
79.786281
 42
0.015516
  0
VERTEX
  8
0
 10
524.762513
 20
80.411871
 42
0.016419
  0
VERTEX
  8
0
 10
527.892209
 20
81.227173
 42
0.016242
  0
VERTEX
  8
0
 10
530.533254
 20
82.102853
 42
0.068783
  0
VERTEX
  8
0
 10
532.000000
 20
82.885178
 42
0.089731
  0
VERTEX
  8
0
 10
533.946103
 20
84.914472
 42
0.122565
  0
VERTEX
  8
0
 10
534.791264
 20
87.291765
 42
0.137845
  0
VERTEX
  8
0
 10
534.382980
 20
89.583612
 42
0.128075
  0
VERTEX
  8
0
 10
532.834586
 20
91.403307
 42
0.031773
  0
VERTEX
  8
0
 10
531.128675
 20
92.443321
 42
0.100831
  0
VERTEX
  8
0
 10
529.851725
 20
92.814634
 42
0.078887
  0
VERTEX
  8
0
 10
528.361771
 20
92.701999
 42
0.014736
  0
SEQEND
  0
ENDSEC
  0
EOF
